<svg xmlns="http://www.w3.org/2000/svg" viewBox="0 -2 1000 740" version="1.1">
    <style type="text/css">
    .albin-00 {
        fill: none;
        stroke: #FFFFFF;
        stroke-width: 2;
        stroke-miterlimit: 10;
    }
    </style>
    <path d="M 587.550 13.750 C 574.615 23.507, 559.165 39.178, 554.250 47.524 C 549.031 56.388, 546.637 64.614, 547.223 71.677 C 547.947 80.408, 549.062 80.454, 556.866 72.072 C 560.630 68.030, 563.997 65.186, 564.347 65.753 C 564.697 66.319, 563.750 70.222, 562.242 74.425 C 559.864 81.054, 559.699 82.193, 561 83.018 C 565.377 85.793, 572.502 83.136, 580.650 75.689 C 588.778 68.260, 589.824 65.526, 591.544 47.224 C 593.085 30.827, 594.195 23.854, 596.580 15.568 C 598.151 10.112, 598.394 7, 597.249 7 C 596.836 7, 592.471 10.037, 587.550 13.750 M 491.685 24.701 C 489.809 27.736, 488.574 42.778, 488.539 63 L 488.500 85.500 491.665 92.180 C 495.162 99.562, 502.280 108, 505.011 108 C 507.167 108, 507.968 105.254, 507.986 97.809 C 507.994 94.482, 508.497 91.811, 509.197 91.378 C 510.389 90.641, 511.261 91.565, 518.215 100.938 C 520.025 103.379, 521.945 105.404, 522.480 105.438 C 524.171 105.546, 526.010 94.881, 526.111 84.380 C 526.236 71.435, 525.083 68.767, 513.261 54.647 C 508.279 48.697, 502.106 40.092, 499.543 35.526 C 493.707 25.127, 492.472 23.427, 491.685 24.701 M 657.500 32.573 C 639.609 36.114, 628.696 42.032, 621.767 51.950 C 617.758 57.687, 617.172 60.486, 619.353 63.468 C 620.625 65.208, 620.849 65.219, 623.076 63.660 C 624.379 62.747, 626.470 62, 627.723 62 C 629.746 62, 630 62.489, 630 66.378 C 630 69.118, 630.582 71.238, 631.556 72.046 C 632.411 72.756, 636.654 73.542, 640.983 73.793 C 653.524 74.519, 657.293 71.893, 676.500 49.055 C 687.427 36.061, 690 32.785, 690 31.859 C 690 30.499, 665.231 31.043, 657.500 32.573 M 400 33.980 C 400 34.449, 401.089 35.658, 402.421 36.667 C 403.753 37.675, 409.607 44.676, 415.431 52.226 C 427.409 67.751, 437.853 78.657, 444.439 82.517 C 448.157 84.696, 450.126 85.136, 456.077 85.117 C 460.016 85.105, 463.477 84.857, 463.768 84.566 C 464.058 84.275, 462.655 81.930, 460.648 79.354 C 458.642 76.779, 457 73.786, 457 72.704 C 457 70.664, 458.818 70.645, 467.250 72.597 C 469.930 73.217, 469.999 73.121, 469.978 68.867 C 469.948 62.902, 467.220 57.378, 461.461 51.619 C 451.827 41.985, 446.398 39.908, 425.772 37.965 C 419.023 37.329, 410.462 35.981, 406.750 34.968 C 403.038 33.956, 400 33.511, 400 33.980 M 345 50.945 C 343.625 51.415, 340.485 51.845, 338.023 51.900 C 333.099 52.010, 317.969 54.927, 316.703 56.011 C 316.265 56.386, 319.980 58.150, 324.958 59.931 C 330.784 62.015, 336.197 64.830, 340.154 67.834 C 351.531 76.472, 352.487 77.129, 357.172 79.546 C 359.742 80.871, 363.725 82.378, 366.023 82.894 L 370.202 83.833 369.521 79.289 C 369.146 76.789, 368.603 74.129, 368.314 73.377 C 367.905 72.309, 368.745 72.111, 372.145 72.472 C 374.540 72.726, 379.087 73.178, 382.250 73.476 L 388 74.017 388 70.461 C 388 67.546, 387.144 66.056, 383.250 62.198 C 380.637 59.609, 375.575 55.938, 372 54.040 C 366.162 50.942, 364.584 50.565, 356.500 50.339 C 351.550 50.201, 346.375 50.474, 345 50.945 M 731.973 55.709 C 730.613 56.649, 728.933 57.972, 728.239 58.649 C 727.546 59.325, 723.070 62.239, 718.294 65.125 C 704.031 73.740, 696.775 82.244, 699.710 86.905 C 701.390 89.573, 703.882 89.311, 707.563 86.079 C 709.492 84.385, 711.465 83, 711.947 83 C 712.430 83, 713.202 85.813, 713.663 89.250 L 714.500 95.500 719.382 95.810 C 723.583 96.077, 724.669 95.733, 727.156 93.351 C 730.480 90.166, 732.455 84.284, 734.007 72.946 C 734.608 68.559, 735.752 63.120, 736.550 60.859 C 737.347 58.598, 738 56.130, 738 55.374 C 738 53.482, 734.950 53.651, 731.973 55.709 M 298.632 80.598 C 303.949 91.279, 306.767 95.021, 311.356 97.492 L 314.946 99.426 317.778 96.713 C 320.036 94.550, 321.561 94, 325.305 94 C 330.731 94, 331.291 92.630, 328.044 87.304 C 325.511 83.149, 322.827 81.516, 315.500 79.669 C 312.200 78.837, 306.421 76.771, 302.657 75.078 C 298.893 73.385, 295.485 72, 295.083 72 C 294.681 72, 296.278 75.869, 298.632 80.598 M 764.222 78.470 C 758.607 80.223, 753.607 84.120, 752.003 87.993 C 750.781 90.942, 750.890 91.292, 754.052 94.554 C 755.889 96.449, 758.169 98, 759.118 98 C 761.412 98, 767.444 90.836, 770.625 84.333 C 774.266 76.892, 772.996 75.730, 764.222 78.470 M 590.867 90.075 C 571.836 92.093, 556.883 99.098, 535.500 116.014 C 524.619 124.621, 504.243 145.162, 499.306 152.500 C 493.925 160.498, 487.860 172.762, 484.631 182.168 C 479.937 195.847, 481.383 214.533, 488.339 230.099 C 489.715 233.179, 491.584 236.441, 492.492 237.349 C 494.753 239.611, 499.195 239.421, 502.365 236.927 C 505.901 234.146, 505.821 229.914, 502 217.500 C 499.498 209.373, 499 206.057, 499 197.536 C 499 184.719, 500.320 180.333, 507.098 170.618 C 510.069 166.360, 514.264 160.332, 516.420 157.223 C 523.677 146.756, 535.317 136.011, 555.863 120.810 C 566.303 113.086, 576.955 108.660, 592.772 105.476 C 603.127 103.391, 635.900 103.668, 640 105.875 C 644.848 108.486, 659.163 123.539, 662.942 130 C 667.144 137.185, 679.156 160.765, 683.915 171.172 C 685.593 174.841, 688.132 182.266, 689.558 187.672 C 696.704 214.764, 693.899 223.238, 666.437 257.536 C 652 275.566, 646.746 283.868, 646.603 288.872 C 646.518 291.877, 646.874 292.553, 648.679 292.810 C 654.176 293.593, 664.948 284.642, 683.022 264.274 C 701.715 243.208, 703.142 241.741, 704.036 242.652 C 704.493 243.118, 707.117 254.975, 709.865 269 C 716.702 303.880, 717.876 306.710, 723.714 302.376 C 728.394 298.901, 728.970 296.618, 728.981 281.500 C 729.001 256.028, 720.791 218.758, 708.936 190.500 C 699.042 166.916, 688.555 139.683, 687.716 135.399 C 686.918 131.320, 687.802 128.198, 689.946 127.517 C 693.408 126.418, 714.981 135.986, 724.500 142.842 C 751.782 162.491, 791.332 207.674, 806.250 236.234 C 810.176 243.749, 814.054 247, 819.093 247 C 822.286 247, 823.805 246.349, 826.202 243.952 C 828.868 241.286, 829.189 240.379, 828.768 236.702 C 827.628 226.766, 820.320 212.608, 802.080 185 C 786.968 162.128, 759.995 135.464, 739.197 122.841 C 722.402 112.647, 689.949 99.858, 663.651 93.071 L 647.882 89 623.191 89.133 C 609.611 89.206, 595.065 89.630, 590.867 90.075 M 249.305 94.775 C 250.174 99.119, 255.596 112.871, 257.958 116.720 C 260.290 120.519, 267.505 126, 270.175 126 C 271.463 126, 272.240 125.050, 272.657 122.964 C 273.378 119.361, 275.544 118, 280.559 118 C 284.187 118, 284.239 117.945, 283.602 114.761 C 282.613 109.817, 277.025 101.322, 273.578 99.524 C 271.885 98.640, 266.450 96.781, 261.500 95.392 C 256.550 94.003, 251.642 92.600, 250.593 92.276 C 248.923 91.758, 248.763 92.067, 249.305 94.775 M 384.500 97.709 C 349.584 100.962, 306.610 114.822, 283.500 130.284 C 276.227 135.150, 237.365 173.802, 226.476 187 C 208.081 209.295, 196.464 232.417, 195.276 249.100 C 194.767 256.251, 194.874 256.798, 197.090 258.350 C 200.175 260.512, 202.785 260.428, 206.696 258.044 C 210.818 255.530, 212.790 252.445, 213.830 246.883 C 214.717 242.130, 218.845 235.531, 234.393 214 C 248.258 194.800, 261.146 178.905, 267.103 173.659 C 278.275 163.821, 305.805 147.550, 310.221 148.177 C 312.267 148.467, 312.475 148.983, 312.260 153.222 C 312.129 155.819, 310.644 161.894, 308.962 166.722 C 307.279 171.550, 305.055 178.425, 304.020 182 C 302.985 185.575, 300.534 192.135, 298.574 196.578 C 293.108 208.969, 287.387 232.941, 285.944 249.500 C 284.568 265.287, 285.199 307.762, 287.028 322.500 C 290.073 347.022, 297.682 360, 309.016 360 C 314.989 360, 316 358.700, 316 351.016 C 316 347.213, 315.092 339.396, 313.982 333.645 C 309.067 308.176, 306.561 282.007, 308.900 280.562 C 309.394 280.256, 313.107 283.418, 317.150 287.587 C 332.668 303.593, 362.838 323.959, 371.076 323.990 C 374.705 324.004, 378.424 319.827, 377.624 316.638 C 376.364 311.618, 367.227 303.276, 355.173 296.141 C 340.117 287.229, 331.752 280.893, 326.841 274.680 C 321.852 268.369, 320.510 265.194, 316.827 251 C 314.030 240.220, 313.872 238.623, 314.312 225.500 C 314.722 213.242, 315.231 209.928, 318.399 198.871 C 324.148 178.804, 337.696 152, 342.090 152 C 343.505 152, 344.002 151.288, 344.007 149.250 C 344.016 145.500, 346.836 141.519, 353.524 135.811 C 360.613 129.762, 369.898 124.284, 375.323 122.950 C 382.029 121.302, 407.602 120.608, 416.500 121.834 C 425.258 123.040, 446.459 128.762, 466 135.194 C 481.866 140.417, 490.547 140.978, 492.847 136.931 C 495.157 132.866, 493.529 129.259, 486.082 121.943 C 474.503 110.570, 450.623 100.354, 430.127 98.005 C 422.013 97.075, 393.303 96.889, 384.500 97.709 M 789.344 100.041 C 782.600 101.376, 770.170 106.984, 767.056 110.097 C 764.228 112.926, 761.290 122.042, 762.549 124.080 C 762.865 124.591, 764.386 124.335, 766.007 123.496 C 767.599 122.673, 769.798 122, 770.894 122 C 773.493 122, 775.996 125.653, 776.014 129.473 C 776.021 131.138, 776.299 133.512, 776.630 134.750 C 777.737 138.878, 784.715 137.122, 790.186 131.339 C 793.541 127.794, 794.317 125.726, 796.507 114.500 C 797.472 109.550, 798.655 104.739, 799.135 103.809 C 799.775 102.567, 799.416 101.704, 797.781 100.559 C 795.345 98.853, 795.349 98.853, 789.344 100.041 M 594.812 115.109 C 594.709 115.874, 594.597 119.200, 594.562 122.500 C 594.504 128.084, 594.330 128.524, 592.054 128.845 C 590.708 129.035, 587.894 128.625, 585.799 127.934 C 580.752 126.268, 579.994 127.340, 583.573 131.078 C 588.775 136.511, 597.260 141.365, 608 145.053 C 613.775 147.037, 619.899 149.390, 621.609 150.282 C 625.171 152.142, 634.859 161.285, 637.203 165 C 638.071 166.375, 639.056 167.237, 639.392 166.916 C 639.727 166.594, 640.516 162.694, 641.145 158.249 C 642.225 150.610, 642.143 149.704, 639.652 141.712 C 637.183 133.795, 636.577 132.843, 630.131 126.762 C 620.763 117.925, 614.387 114.928, 603.516 114.249 C 596.707 113.825, 594.962 113.997, 594.812 115.109 M 388.520 133.313 C 385.231 135.647, 380.902 139.725, 378.899 142.375 C 375.467 146.917, 366.789 167.120, 364.028 176.999 C 363.337 179.473, 361.472 182.976, 359.885 184.783 C 354.563 190.846, 356.633 192.009, 362.341 186.163 C 366.665 181.735, 374.188 178.043, 385.337 174.881 C 394.400 172.309, 399.904 168.696, 403.545 162.928 C 407.030 157.408, 412 144.792, 412 141.467 C 412 139.137, 411.692 138.858, 409.750 139.430 C 408.512 139.795, 404.913 140.360, 401.750 140.686 L 396 141.278 396 135.139 C 396 131.762, 395.663 129.015, 395.250 129.034 C 394.837 129.053, 391.809 130.979, 388.520 133.313 M 230.718 133.908 C 228.088 134.966, 219.763 138.749, 212.218 142.315 C 204.673 145.881, 196.559 149.321, 194.186 149.959 C 191.798 150.601, 190.041 151.624, 190.251 152.252 C 190.458 152.875, 193.820 154.169, 197.720 155.128 C 201.621 156.087, 207.217 158.099, 210.156 159.599 C 216.359 162.766, 229.034 164.122, 232.932 162.037 C 234.949 160.957, 235.144 160.213, 234.839 154.740 L 234.500 148.645 240 146.989 C 249.204 144.218, 252.170 142.285, 251.811 139.292 C 251.063 133.052, 239.918 130.207, 230.718 133.908 M 540 144.660 C 540 145.181, 541.376 147.779, 543.058 150.431 C 546.816 156.357, 546.355 158.482, 541.482 157.691 C 538.578 157.219, 538 157.427, 538 158.940 C 538 161.140, 539.247 162.230, 545.605 165.593 C 548.297 167.017, 554.683 170.942, 559.795 174.314 C 568.613 180.131, 569.461 181.013, 576.295 191.473 L 583.500 202.500 583.784 191.064 C 584.120 177.592, 582.822 172.390, 576.607 162.278 C 571.878 154.586, 566.467 150.067, 558.348 147.029 C 552.076 144.682, 540 143.123, 540 144.660 M 449.264 149.956 C 442.942 151.491, 435.754 158.580, 425.182 173.702 C 422.057 178.172, 417.027 184.644, 414.004 188.085 C 408.694 194.128, 408.609 194.314, 411.504 193.565 C 417.165 192.099, 427.513 191.065, 436.849 191.033 C 448.283 190.993, 451.290 189.740, 457.991 182.221 C 462.662 176.980, 470 164.611, 470 161.979 C 470 161.147, 469.031 160.944, 467 161.350 C 462.762 162.198, 463.023 159.585, 467.648 154.848 C 471.275 151.134, 471.282 151.109, 468.898 150.613 C 463.962 149.585, 452.386 149.197, 449.264 149.956 M 809.044 151.577 C 804.366 153.607, 798.836 157.926, 799.513 159.021 C 799.816 159.511, 802.684 160.427, 805.887 161.058 C 814.657 162.783, 814.939 163.120, 812.048 168.412 C 809.719 172.676, 809.683 172.992, 811.321 174.802 C 812.269 175.849, 815.328 177.949, 818.120 179.469 C 825.931 183.720, 830.252 182.927, 848.435 173.908 C 856.649 169.834, 863.536 165.979, 863.738 165.343 C 864.311 163.537, 841.446 155.183, 826 151.556 C 817.892 149.652, 813.470 149.657, 809.044 151.577 M 720.174 155.314 C 718.291 157.320, 718 158.776, 718 166.209 C 718 174.325, 718.223 175.216, 722.122 182.645 C 724.388 186.965, 727.572 193.200, 729.196 196.500 C 736.677 211.701, 738 213.067, 738 205.594 C 738 203.080, 738.947 197.571, 740.104 193.353 C 742.783 183.588, 742.463 173.427, 739.346 169.282 C 737.726 167.129, 736.428 166.500, 733.599 166.500 C 729.405 166.500, 728.657 165.632, 726.487 158.250 C 724.787 152.466, 723.439 151.839, 720.174 155.314 M 520 165.293 L 517.500 166.557 517 198.529 L 516.500 230.500 512.387 239 C 509.917 244.104, 504.761 251.895, 499.483 258.500 C 487.399 273.620, 482.119 281.939, 476.544 294.641 C 469.129 311.534, 466.802 321.953, 467.196 336.500 C 467.517 348.315, 467.587 348.631, 471.741 357 C 474.062 361.675, 478.107 368.650, 480.730 372.500 C 486.328 380.715, 491.989 384.155, 500.981 384.805 C 506.095 385.175, 506.950 384.921, 511.035 381.812 C 514.729 379.001, 515.554 377.766, 515.814 374.654 C 516.200 370.014, 512.922 364.074, 505.552 356.057 C 501.033 351.141, 491 336.904, 491 335.407 C 491 335.115, 489.830 332.403, 488.400 329.380 C 486.970 326.357, 485.569 321.322, 485.286 318.192 C 484.847 313.322, 485.290 311.160, 488.358 303.223 C 493.658 289.509, 499.048 281.051, 510.706 268.155 C 516.456 261.794, 521.814 255.327, 522.613 253.782 C 523.411 252.238, 525.725 244.793, 527.755 237.237 L 531.445 223.500 531.473 197.500 C 531.496 175.134, 531.263 170.976, 529.801 167.750 C 528.422 164.705, 527.575 164.003, 525.301 164.015 C 523.760 164.023, 521.375 164.598, 520 165.293 M 663.219 170.013 C 653.149 176.737, 648.163 183.399, 643.877 195.858 C 642.845 198.859, 642 202.198, 642 203.279 C 642 205.133, 642.127 205.152, 644.250 203.615 C 645.487 202.719, 647.400 201.342, 648.500 200.555 C 649.600 199.767, 654.550 198.596, 659.500 197.951 C 672.048 196.317, 674.373 195.171, 677.446 189.107 C 681.602 180.905, 680.370 177, 673.625 177 C 670.034 177, 669.646 175.615, 671.962 171.074 C 673.083 168.877, 674 166.837, 674 166.540 C 674 164.759, 668.372 166.572, 663.219 170.013 M 171 193.231 C 160.226 197.193, 153.246 203.748, 147.822 215 C 143.613 223.731, 140.660 233, 142.087 233 C 142.626 233, 145.323 231.856, 148.081 230.459 C 150.839 229.061, 157.912 226.826, 163.798 225.493 C 169.684 224.159, 176.550 222.365, 179.056 221.506 C 184.466 219.652, 190.457 214.951, 192.536 210.930 C 193.979 208.140, 193.910 207.907, 190.551 204.188 L 187.070 200.335 191.665 197.097 C 196.549 193.654, 196.482 192.935, 191.101 191.136 C 185.644 189.312, 180.083 189.892, 171 193.231 M 507.500 195.772 C 504.427 196.421, 503.528 197.727, 504.965 199.458 C 507.107 202.039, 513 200.849, 513 197.835 C 513 196.578, 509.645 195.319, 507.500 195.772 M 763.227 213.302 C 761.522 214.511, 758.958 217.300, 757.529 219.500 C 753.160 226.224, 748.958 242.586, 749.054 252.500 L 749.092 256.500 756.914 248.250 C 761.963 242.924, 765.494 240, 766.875 240 C 770.193 240, 781.557 228.261, 782.891 223.455 C 785.258 214.928, 783.121 211.606, 778.342 216.385 C 774.884 219.844, 772.536 219.709, 770.984 215.962 C 769.110 211.436, 766.917 210.684, 763.227 213.302 M 246.675 226.975 C 245.354 230.069, 244.606 230.562, 239.846 231.475 C 234.797 232.443, 234.483 232.680, 234.187 235.742 C 233.692 240.878, 237.514 253.007, 243.971 266.787 C 247.247 273.779, 250.471 281.863, 251.136 284.750 C 251.800 287.637, 252.651 290, 253.026 290 C 254.094 290, 257.795 276.473, 259.592 266 C 261.566 254.501, 261.039 243.115, 258.246 236.878 C 257.168 234.470, 254.458 230.475, 252.223 228 L 248.159 223.500 246.675 226.975 M 629.001 232.123 C 625.896 233.361, 622 236.942, 622 238.558 C 622 240.073, 625.238 240.969, 630.782 240.986 C 636.022 241.003, 640.717 242.888, 646.992 247.494 C 654.528 253.026, 657.450 252.262, 669.500 241.611 L 673.500 238.075 669.832 238.038 C 667.815 238.017, 663.971 236.898, 661.290 235.552 C 658.609 234.205, 654.409 232.641, 651.958 232.076 C 646.331 230.779, 632.299 230.808, 629.001 232.123 M 338.011 237.821 C 331.397 239.108, 333.823 243.117, 344.900 249.203 C 349.325 251.635, 348.904 254.282, 343.500 258 C 341.025 259.703, 339 261.473, 339 261.933 C 339 263.233, 342.724 265.380, 353.744 270.431 C 363.110 274.725, 364.523 275.089, 371.882 275.105 C 380.762 275.124, 382.793 274.373, 392.577 267.448 C 395.919 265.082, 402.495 261.321, 407.190 259.091 C 416.706 254.569, 419.263 252.425, 416.936 250.918 C 416.146 250.406, 410.325 248.391, 404 246.440 C 397.675 244.489, 391.150 242.420, 389.500 241.844 C 380.240 238.609, 374.547 237.808, 358.500 237.485 C 349.150 237.297, 339.930 237.448, 338.011 237.821 M 830.301 257.210 C 830.981 262.276, 830.165 266.999, 828.501 267.638 C 827.832 267.895, 824.558 266.506, 821.224 264.552 C 817.891 262.599, 814.173 261, 812.963 261 C 810.790 261, 810.769 261.155, 811.176 273.750 C 811.535 284.871, 811.922 287.225, 814.204 292.175 C 819.186 302.980, 829.447 311.669, 844.749 318.039 C 848.979 319.800, 856.301 323.436, 861.021 326.120 C 865.742 328.804, 869.945 331, 870.363 331 C 871.296 331, 870.092 322.170, 868.826 319.729 C 868.321 318.755, 865.724 309.305, 863.055 298.729 C 860.387 288.153, 857.266 277.344, 856.120 274.709 C 852.883 267.267, 844.847 259.416, 837.856 256.867 C 834.635 255.693, 832 254.342, 832 253.866 C 832 253.390, 831.491 253, 830.868 253 C 830.116 253, 829.926 254.411, 830.301 257.210 M 172.500 263.567 C 158.441 270.852, 152.084 291.913, 156.451 316.730 C 159.426 333.635, 166.875 358, 169.068 358 C 169.519 358, 171.470 352.938, 173.404 346.750 C 176.350 337.320, 177.693 334.582, 181.709 329.829 C 187.661 322.784, 192.437 314.952, 195.767 306.779 C 197.935 301.457, 198.396 298.480, 198.793 287.250 C 199.157 276.946, 198.978 274, 197.988 274 C 197.288 274, 194.283 276.078, 191.310 278.618 C 188.336 281.159, 185.713 283.046, 185.480 282.813 C 185.246 282.580, 184.652 278.782, 184.159 274.374 C 183.666 269.965, 182.737 265.378, 182.096 264.179 C 180.696 261.563, 176.842 261.317, 172.500 263.567 M 742 263.072 C 742 263.661, 743.158 266.121, 744.574 268.536 C 748.064 274.491, 747.557 277.239, 742.750 278.426 C 732.810 280.882, 742.692 289.799, 762 295.798 C 770.677 298.493, 777.232 301.388, 784.087 305.553 C 787.208 307.449, 790.040 309, 790.381 309 C 791.758 309, 790.803 306.639, 786.970 300.569 C 784.753 297.059, 781.548 290.771, 779.847 286.595 C 776.224 277.699, 770.751 271.038, 764.770 268.245 C 761.320 266.633, 744.851 262, 742.573 262 C 742.258 262, 742 262.482, 742 263.072 M 514.359 277.923 C 512.632 278.976, 510.933 280.300, 510.583 280.865 C 510.234 281.430, 512.882 285.904, 516.467 290.807 C 523.616 300.584, 524.755 302.911, 529.275 316.972 C 532.093 325.738, 532.343 327.659, 532.402 341 C 532.457 353.507, 532.145 356.531, 530.129 363 C 524.952 379.610, 519.585 386.069, 489.029 412.455 C 475.504 424.134, 463.140 435.222, 461.554 437.095 C 458.329 440.901, 452.038 453.869, 448.258 464.500 C 444.914 473.910, 444.030 490.664, 446.392 499.885 C 448.802 509.291, 455.521 522.034, 462.938 531.264 C 473.613 544.550, 490.729 557.617, 498.889 558.712 C 502.163 559.151, 502.983 558.837, 504.889 556.414 C 506.426 554.460, 507.007 552.535, 506.799 550.082 C 506.536 546.986, 505.574 545.862, 498.899 540.854 C 490.772 534.756, 480.129 522.777, 474.425 513.307 C 455.968 482.664, 471.991 447.373, 527.419 396.585 C 538.177 386.726, 541.774 381.400, 545.455 369.871 C 551.051 352.346, 551.071 330.785, 545.509 311.618 C 541.681 298.425, 538.359 292.411, 530.117 283.754 C 522.013 275.242, 519.986 274.492, 514.359 277.923 M 686.179 280.915 C 685.161 283.838, 684.993 283.905, 680.154 283.332 L 675.176 282.742 674.476 288.343 C 674.091 291.431, 674.259 296.686, 674.853 300.055 C 676.034 306.758, 680.297 317, 681.906 317 C 682.465 317, 683.417 315.087, 684.021 312.750 C 685.962 305.238, 686.225 304.625, 689.639 299.661 C 693.559 293.964, 694.129 287.727, 691.248 282.060 C 688.961 277.558, 687.467 277.221, 686.179 280.915 M 625 293.756 C 623.075 294.697, 615.875 300.931, 609 307.609 C 599.781 316.565, 594.663 320.708, 589.500 323.394 L 582.500 327.035 587.500 326.539 C 590.250 326.267, 598.350 325.622, 605.500 325.106 C 618.461 324.172, 626.260 322.430, 633.116 318.937 C 637.915 316.494, 643 312.148, 643 310.491 C 643 309.760, 640.750 308.413, 638 307.500 C 633.020 305.846, 633 305.822, 633 301.485 C 633 296.283, 631.537 291.991, 629.775 292.023 C 629.074 292.035, 626.925 292.815, 625 293.756 M 498.500 308.882 C 493.955 309.444, 493.471 309.753, 493.181 312.278 L 492.862 315.056 507.099 314.778 C 517.012 314.584, 521.456 314.138, 521.732 313.309 C 522.783 310.146, 509.203 307.558, 498.500 308.882 M 322.476 310.039 C 321.064 312.324, 321.966 319.865, 324.271 325.033 C 326.758 330.610, 336.632 347.883, 339.401 351.500 C 342.144 355.083, 342.968 351.423, 342.985 335.595 L 343 320.690 339.054 316.936 C 336.883 314.872, 333.621 312.859, 331.804 312.464 C 329.987 312.068, 327.612 311.127, 326.527 310.372 C 324.164 308.728, 323.328 308.660, 322.476 310.039 M 267 314.007 C 267 314.641, 265.423 317.037, 263.496 319.330 C 254.326 330.243, 242.900 345.842, 240.102 351.266 C 237.094 357.099, 237 357.680, 237 370.459 C 237 383.757, 238.204 390.593, 241.760 397.493 C 243.185 400.258, 243.362 400.335, 244.081 398.493 C 244.509 397.397, 244.891 393.929, 244.930 390.788 C 245.075 379.018, 249.806 371.604, 262.307 363.561 C 272.907 356.740, 275.122 352.266, 275.782 336.328 L 276.246 325.157 273.373 324.828 C 270.599 324.511, 270.500 324.312, 270.500 319.025 C 270.500 314.610, 270.161 313.483, 268.750 313.202 C 267.788 313.010, 267 313.372, 267 314.007 M 704.321 321.476 C 695.082 326.098, 685.837 334.866, 682.516 342.156 C 678.747 350.430, 677 361.308, 677 376.506 C 677 392.544, 677.516 394.652, 680.134 389.314 C 684.105 381.220, 687.313 377.860, 703.593 364.744 C 707.494 361.602, 714.469 355.086, 719.093 350.265 C 726.564 342.475, 727.750 340.713, 729.750 334.429 C 732.188 326.768, 732.533 324, 731.050 324 C 730.528 324, 727.490 325.574, 724.300 327.497 C 721.110 329.421, 717.487 330.996, 716.250 330.997 C 714.361 331, 714 330.459, 714 327.625 C 714 323.153, 712.934 318, 712.009 318 C 711.602 318, 708.142 319.564, 704.321 321.476 M 396.667 320.667 C 396.300 321.033, 396 323.058, 396 325.167 C 396 327.505, 395.513 329.045, 394.750 329.115 C 394.063 329.179, 392.825 329.291, 392 329.365 C 390.343 329.514, 389.465 334.730, 390.441 338.620 C 391.276 341.949, 396.678 347.795, 400.916 349.957 C 402.899 350.969, 408.584 352.910, 413.550 354.271 C 418.516 355.631, 424.456 357.702, 426.750 358.872 C 436.568 363.881, 436.165 360.666, 425.512 349 C 423.252 346.525, 419.451 341.575, 417.067 338 C 408.896 325.750, 399.536 317.798, 396.667 320.667 M 498 331.835 C 498 332.328, 498.944 333.931, 500.098 335.398 C 502.166 338.027, 502.351 338.062, 512.848 337.783 L 523.500 337.500 523.500 334.500 L 523.500 331.500 510.750 331.220 C 503.705 331.065, 498 331.341, 498 331.835 M 328.090 366.833 C 327.550 367.840, 325.937 371.778, 324.505 375.583 C 321.381 383.884, 319.460 387, 317.467 387 C 316.649 387, 312.583 383.850, 308.431 380 C 304.278 376.150, 300.434 373, 299.888 373 C 299.342 373, 297.535 375.906, 295.873 379.458 C 292.326 387.037, 291.809 395.401, 294.348 404.110 C 297.399 414.575, 303.278 421.476, 323.500 438.331 C 329.550 443.374, 337.714 450.762, 341.643 454.750 C 348.084 461.288, 351.064 463.366, 350.965 461.250 C 350.946 460.837, 350.286 457.575, 349.500 454 C 347.619 445.448, 347.644 434.103, 349.584 416.707 C 351.827 396.586, 351.372 391.979, 346.113 381.609 C 340.904 371.336, 335.402 365, 331.689 365 C 330.174 365, 328.657 365.772, 328.090 366.833 M 532.185 403.779 C 529.883 406.528, 528 409.523, 528 410.435 C 528 413.204, 534.863 426.949, 539.473 433.414 C 541.860 436.761, 547.272 446.145, 551.500 454.267 L 559.187 469.035 558.795 492.267 L 558.404 515.500 554.558 524.847 C 552.443 529.987, 549.276 536.287, 547.520 538.847 C 545.764 541.406, 541.480 548.225, 537.999 554 C 534.518 559.775, 531.139 564.950, 530.490 565.500 C 529.841 566.050, 527.253 569.200, 524.740 572.500 C 514.304 586.203, 493.009 603.902, 474.500 614.257 C 459.386 622.712, 443.870 627.528, 418.141 631.749 L 396.500 635.300 357.500 635.400 C 311.290 635.519, 302.295 636.480, 281.030 643.574 C 264.470 649.099, 260.843 651.186, 250.434 661.179 C 241.832 669.437, 239.629 672.950, 240.173 677.542 C 240.880 683.501, 245.837 683.310, 253.737 677.020 C 262.003 670.439, 263.370 672.034, 257.112 680.957 C 248.477 693.269, 241 712.158, 241 721.660 C 241 724.763, 241.231 725, 244.250 724.993 C 250.526 724.981, 253.963 721.501, 261.983 707.041 C 274.276 684.878, 284.134 673.117, 294.336 668.447 C 302.569 664.677, 319.836 662.281, 351.500 660.515 C 410.470 657.224, 433.163 654.039, 459.283 645.385 C 478.386 639.056, 505.100 624.170, 520.988 611 C 530.932 602.757, 546.383 589.237, 551.220 584.546 C 558.946 577.051, 572.706 554.447, 578.824 539.197 C 584.934 523.967, 585.507 520.237, 585.448 496 C 585.398 475.161, 585.312 474.254, 582.626 466.513 C 578.885 455.730, 567.678 431.484, 563.508 425.152 C 561.648 422.328, 558.746 417.427, 557.057 414.259 C 555.368 411.092, 552.291 406.531, 550.218 404.125 C 546.891 400.262, 545.858 399.693, 541.409 399.265 C 536.386 398.783, 536.356 398.797, 532.185 403.779 M 492.020 446.132 C 489.301 449.884, 489.131 450.494, 490.573 451.301 C 492.565 452.416, 536.808 451.120, 537.546 449.926 C 537.828 449.470, 536.733 447.612, 535.113 445.798 L 532.168 442.500 513.635 442.189 L 495.101 441.877 492.020 446.132 M 478.979 477.021 C 477.531 478.469, 476.978 480.105, 477.191 482.309 L 477.500 485.500 487.500 486.133 C 493 486.480, 509.565 486.818, 524.311 486.883 L 551.123 487 550.444 482.250 C 550.071 479.637, 549.347 477.050, 548.834 476.500 C 548.260 475.883, 535.092 475.390, 514.489 475.212 C 481.701 474.929, 481.037 474.963, 478.979 477.021 M 489.250 505.664 C 483.848 506.037, 483 506.362, 483 508.062 C 483 509.144, 484.500 511.666, 486.333 513.666 L 489.666 517.303 515.672 517.273 C 533.368 517.253, 542.367 516.874, 543.835 516.088 C 545.858 515.006, 550.598 507.264, 549.755 506.421 C 549.167 505.833, 496.362 505.172, 489.250 505.664 M 562.999 584.502 C 561.147 586.733, 562.201 596.459, 564.581 599.093 C 568.825 603.789, 585.684 610.331, 597.633 611.917 C 601.960 612.492, 613.825 613.628, 624 614.442 C 653.565 616.808, 675.148 618.951, 680 620.001 C 697.035 623.688, 709.955 627.286, 714.361 629.570 C 720.994 633.007, 727.664 638.443, 729.401 641.830 C 730.154 643.298, 732.895 652.150, 735.492 661.500 C 738.089 670.850, 740.805 679.625, 741.528 681 C 743.027 683.849, 751.261 691.896, 755 694.166 C 758.289 696.163, 762.454 697.147, 764.421 696.392 C 768.262 694.918, 765.411 684.897, 757.752 672.949 C 753.455 666.246, 751 660.585, 751 657.378 C 751 653.616, 755.320 654.336, 766.989 660.043 C 775.130 664.024, 778.861 666.598, 784.704 672.263 C 792.439 679.764, 803.727 695.400, 808.538 705.278 C 811.905 712.191, 819.799 720, 823.422 720 C 826.652 720, 828 717.416, 828 711.222 C 828 701.841, 822.466 689.722, 811.732 675.598 C 808.429 671.252, 805.676 667.054, 805.614 666.269 C 805.519 665.085, 808.093 664.862, 820.703 664.965 C 834.261 665.076, 836.345 664.865, 839.972 663.014 C 844.895 660.503, 844.685 659.865, 836.296 651.864 C 831.081 646.890, 829.776 646.159, 824.952 645.509 C 816.452 644.365, 783.886 632.608, 769.482 625.484 C 735.815 608.833, 710.568 603.127, 654.500 599.500 C 623.129 597.471, 593.924 592.053, 575.713 584.884 C 569.948 582.615, 564.696 582.457, 562.999 584.502 M 557.655 618.829 C 555.382 621.340, 555.564 622.706, 558.958 628.624 C 562.662 635.083, 572.687 644.107, 580.500 648.015 C 589.412 652.473, 613.687 661.616, 620.104 662.932 C 637.794 666.559, 653.993 677.088, 660.416 689.132 C 664.319 696.451, 667.786 700, 671.032 700 C 674.387 700, 677 697.172, 677 693.542 C 677 689.221, 668.390 673.893, 660.311 663.831 C 656.306 658.843, 653.274 654.365, 653.574 653.881 C 654.407 652.532, 664.129 652.834, 669.220 654.366 C 671.715 655.117, 677.149 657.454, 681.293 659.559 C 687.685 662.805, 689.070 663.187, 690.415 662.071 C 693.870 659.203, 691.126 650.094, 685.744 646.568 C 684.451 645.721, 680.717 644.051, 677.447 642.858 C 671.870 640.824, 669.915 640.700, 646 640.865 C 620.862 641.039, 620.330 641, 608.500 638.095 C 601.900 636.475, 593.713 633.766, 590.306 632.075 C 586.899 630.384, 583.749 628.996, 583.306 628.992 C 582.863 628.987, 578 626.291, 572.500 623 C 567 619.709, 561.782 617.013, 560.905 617.008 C 560.028 617.004, 558.565 617.823, 557.655 618.829 M 527.554 621.940 C 526.588 623.008, 525.707 625.661, 525.596 627.838 C 525.362 632.411, 522.729 636.249, 513.023 646.162 C 506.710 652.609, 501.579 656.043, 476.958 670.297 C 467.830 675.581, 457 684.160, 457 686.107 C 457 686.614, 454.913 689.591, 452.362 692.723 C 446.877 699.457, 444.775 704.039, 445.194 708.351 C 445.463 711.117, 445.907 711.539, 448.844 711.820 C 452.513 712.172, 455.535 710.139, 456.575 706.618 C 457.814 702.422, 462.409 696.887, 470.779 689.511 C 483.150 678.608, 484.655 679.361, 478 693.123 C 474.185 701.011, 472.800 708.140, 474.837 709.399 C 476.507 710.431, 480.226 706.635, 485.557 698.456 C 488.551 693.863, 491 689.794, 491 689.413 C 491 688.075, 501.906 675.387, 512.148 664.808 C 520.282 656.408, 523.831 651.780, 528.713 643.213 C 535.846 630.693, 538.107 624.039, 536.064 621.577 C 534.260 619.403, 529.673 619.599, 527.554 621.940 M 546.475 657.565 C 546.073 663.987, 545.996 671.673, 546.303 674.644 C 546.807 679.530, 546.473 680.822, 542.814 688.133 C 538.989 695.774, 538.347 696.483, 531.133 701.038 C 519.891 708.136, 519.295 708.641, 515.490 714.291 C 511.569 720.113, 510.977 724.764, 513.829 727.345 C 514.835 728.255, 515.983 729, 516.381 729 C 516.779 729, 520.432 725.850, 524.500 722 C 528.568 718.150, 532.335 715, 532.871 715 C 533.408 715, 535.951 713.394, 538.522 711.431 C 541.094 709.468, 543.810 708.097, 544.558 708.384 C 545.318 708.675, 546.218 711.164, 546.597 714.019 C 547.321 719.476, 549.018 722, 551.964 722 C 554.120 722, 555 723.907, 555 728.582 C 555 730.978, 555.456 732, 556.525 732 C 558.655 732, 559.800 728.395, 560.555 719.309 C 561.113 712.598, 564.174 697.476, 565.170 696.505 C 565.352 696.328, 569.675 696.806, 574.779 697.567 C 587.949 699.531, 597.840 703.143, 601.213 707.221 C 607.028 714.250, 608.077 715.129, 610.281 714.816 C 613.504 714.357, 613.758 708.660, 610.771 703.821 C 607.650 698.764, 595.532 690, 583.270 683.930 C 575.089 679.880, 572.170 677.829, 568.695 673.683 C 561.923 665.607, 559.736 662.076, 556.503 654 C 553.730 647.075, 553.259 646.477, 550.352 646.194 L 547.204 645.889 546.475 657.565 M 356.772 665.798 C 354.072 666.125, 350 670.143, 350 672.480 C 350 676.181, 357.315 678.370, 373.500 679.512 C 386.234 680.411, 403.242 682.842, 404.317 683.917 C 405.974 685.574, 401.573 688.061, 389.932 692.046 C 383.644 694.198, 378.275 695.997, 378 696.043 C 377.725 696.089, 378.431 696.504, 379.570 696.964 C 386.649 699.830, 408.369 698.700, 416.652 695.036 C 425.531 691.108, 439 679.018, 439 674.975 C 439 672.995, 435.929 669.995, 433.921 670.013 C 433.140 670.020, 429.647 670.920, 426.161 672.013 C 416.419 675.067, 408.362 674.634, 390.163 670.081 C 375.709 666.465, 363.833 664.941, 356.772 665.798" stroke="none" fill="white"></path>
</svg>