<?xml version="1.0" encoding="utf-8"?>
<!-- Generator: Adobe Illustrator 25.0.0, SVG Export Plug-In . SVG Version: 6.00 Build 0)  -->
<svg version="1.1" id="Layer_1" xmlns="http://www.w3.org/2000/svg" xmlns:xlink="http://www.w3.org/1999/xlink" x="0px" y="0px"
	 viewBox="0 0 561.5 561.5" style="enable-background:new 0 0 561.5 561.5;" xml:space="preserve">
<style type="text/css">
	.st0{fill:#FFFFFF;}
</style>
<g>
	<path class="st0" d="M142.4,387.2c5.4,11.7,7.6,23.2,6.3,35.8c-2.4-0.3-4.7-0.5-7.2-0.8c-6.6-0.8-13.1-1.5-19.6-2.5
		c-1.6-0.3-3.3-1-4.4-2c-6.1-5.3-12-10.9-17.7-16.8c11.7-7.2,20.8-0.6,30.3,4.8c-0.8-4.9-2-9.8-2.1-14.6c-0.1-4.7,1-9.5,1.6-15.8
		c7.4,6.4,15.1,4.8,22.2,4.7c-5.2-2.8-10.9-5.4-16-8.7c-5.7-3.5-8.2-9-8.2-16c0.8,0.3,1.6,0.5,1.6,0.6c0.6,5.3,5.2,6.9,9,8.3
		c4.9,1.6,10.3,2.5,15.6,3.5c0.3-0.3,0.6-0.8,0.8-1.1c-2.4-4.8-4.7-9.6-7.2-14.3c-1-1.8-1-2.5,0.5-4c5.4-5.3,12.6-5.3,19.6-6.4
		c9.8-1.6,18.8,1.5,28,4.4c9.6,3,19.2,6.2,28.8,9.2c1.1-3.3,0.6-4.8-2.8-5.8c-8.1-2.1-15.8-5.7-21.3-11.9c-3.9-4.3-6.9-9.6-9-15
		c-3.5-9.6-5.6-19.8-4.4-30.2c1.5-13.1,3.3-26.1,5.7-39.1c2.5-13.9,3-27.8,2.1-41.6c-0.6-7.7-4.7-14.5-10.6-19.2
		c-1.8,1.5-3.2,3.5-4.9,4c-1.5,0.5-3.5-0.6-5.2-1.5c-2.9-1.6-3.2-5.9-0.3-8c3.5-2.4,7.2-4.5,10.9-6.7c5.3-3.3,8.7-8.2,11.5-13.6
		c0.6-1,1.1-2,1.3-2.3c11,2,21.5,3.9,32.9,5.9c-0.6-8.3,2.9-16.2-4.4-23.1c0.5-2-0.8-3.9-3.4-5.8c-4.2-3.2-3.2-8.6,1.3-11.6
		c0.8-0.6,1.8-1.6,1.8-2.5c0.1-8.1-1.6-15.9-4.7-23.7c-3.8,2-7.4,2.4-11.4,1c-1.8-0.6-4,0.6-6.2,1c-9.6,1.6-20.4-10.2-16.8-19.1
		c0.8-2,2.1-4,3.2-5.9c-2.4-3.9-5.2-7.4-7.2-11.5c-4.2-9-3.5-18.4-1.1-27.8c0.3-1,0.5-2.4,0.1-3.2c-3.2-6.2-1.9-9.7,5.4-11.7
		c-2.3-6.2-4.5-12.2-7.2-19.1h207.5c0.3,3.9,0.3,7.2-1.9,10.6c-1.5,2.5-1.9,5.6-2.9,8.5c8,2,9,4.8,6.1,11.7c-0.3,1-0.3,2.3,0,3.3
		c2.1,8.8,2.9,17.7-0.6,26.1c-1.5,3.7-4,7.2-6.3,10.3c-1.1,1.6-1.5,2.5-0.3,4.4c3.5,6.1,3,12.2-1,17.4c-3.9,4.9-10,6.9-16.5,5.3
		c-1.3-0.3-2.9-0.6-4-0.3c-3.5,1-6.7,1.1-10.2-1.3c-2.5,5.9-5.2,11.6-5.4,18c-0.1,1-0.1,1.9-0.3,2.9c-0.5,2.8-0.6,4.8,2.9,6.1
		c1.6,0.6,3.2,3.8,3,5.7c-0.3,2.1-1.9,4.8-3.7,6.2c-1.6,1.3-2.5,2-2.5,4c0,0.8-0.5,1.6-0.8,2.5c-1,2.3-2.5,4.5-2.9,6.9
		c-0.5,4.4-0.1,8.7-0.1,13.6c4.8-0.5,9.2-0.6,13.4-1.5c5.6-1,11.1-2.5,16.4-4c2-0.6,3,0.3,3.9,1.9c4.5,8.5,10.3,15.4,19.6,19.1
		c5.2,2,5.9,8.5,1.8,11.1c-2.5,1.6-5.8,1.3-7.2-1.5c-1.6-3.5-3-1.9-4.4-0.1c-5.8,6.9-8.6,15.1-8.6,24.2c-0.1,15.9,2.3,31.6,5.2,47.1
		c3.4,17.8,4.8,35.8,0.1,53.8c-4,15.4-14.9,24.4-29.5,29.3c-1.3,0.3-2.5,0.6-3.7,1.3c-1,0.6-1.3,2-2,3c1,0.3,2.3,1.5,3,1.1
		c5.7-1.6,11.2-3.5,16.9-5.2c9-2.5,17.8-5.9,26.8-7.4c8.6-1.3,17.3,0.1,25.4,3.3c5.8,2.3,6.2,4,3.5,9.5c-1.9,3.9-3.8,8.1-5.9,12.7
		c10.9-1,20.8-1.6,26.6-12c1.6,4.8-0.3,10.3-7.7,15.9c-4.8,3.7-10.7,5.9-16.4,9c3.9,0,7.8,0.6,11.5-0.3c3.4-0.8,6.6-3,10-4.7
		c3.3,10.3,3.3,19.8-0.3,29.7c1-0.6,1.9-1.1,2.9-1.6c4.5-2,9-4.4,13.6-6.2c3.9-1.5,8-0.6,11.7,1c1.6,0.6,2.4,1.9,0.8,3.2
		c-5.9,5.4-11.7,11.2-18.2,16c-2.9,2.1-7.2,2.9-11,3.4c-6.1,0.8-12.2,1-18.6,1.3c-0.1-11.5-1-23.1,4.8-33.7c-0.3-0.1-0.6-0.3-1-0.3
		c-7.2,2-14.4,5.2-21.7,6.2c-11.1,1.6-21.8,0-30.2-8.6c-1.3-1.5-1.3-4.4-1.5-6.7c-0.1-1,0.3-2.3,0.6-4c-5.4,1.5-10.3,2.9-15.4,4.2
		c-2.5,0.8-5.2,1.5-7.7,2.5c-1.8,0.6-3.2,1.6-1.9,3.9c0.6,1,0.5,2.3,0.5,3.4c0.3,9,0.5,17.8,0.8,26.6c0.1,4.4,0.6,8.6,5.6,10.3
		c0.5,0.3,1,1.3,1,2c-0.3,2.5,0.6,3.9,2.8,5.4c5.9,4.3,5.6,9.7-0.3,14c-0.8,0.6-2,1.3-2,1.8c0.6,3.8-2.4,5.8-3.8,8.6
		c-2.1,4-1,10.2,5.2,11.1c2.4,0.3,2.8,1.5,2.5,3.3s0.3,3,2.1,3.7c11.7,3.9,14.6,15.4,6.4,24.6c-0.3,0.3-0.5,0.8-1.1,1.6
		c6.5,0,14.2,0.1,21,0.1c1.8,0,3.3,1.5,3.4,3.3c0.3,15.2,0.1,29,0.3,46.5c0,2-1.5,3.6-3.5,3.7c-1.1,0-2.1,0-2.5,0
		c-66.1,0-132.3,0-198.4,0.1c-3.7,0-4.7-1.1-4.5-4.7c0.3-14.9,0.3-29.5,0-44.4c0-3.5,1.1-4.5,4.5-4.4c5.8,0.3,11.6,0.1,17.4,0.1
		c0.3-0.3,0.8-0.8,1.1-1.3c-1-0.6-2.3-1-3.2-1.8c-6.7-4.8-6.7-14.6,0.3-19.6c2.3-1.6,4.9-2.5,7.4-3.9c1-0.6,1.8-2.1,2-3.4
		c0.3-2,0.5-3.4,2.9-3.4c3.5,0,5.3-2,6.3-5.2c1.1-3.3-0.1-6.1-2.3-8.5c-0.6-0.6-1.8-1.1-1.8-1.6c0.6-4-2.1-5.6-4.7-8
		c-4-3.8-2.5-10.3,2.5-13.1c1-0.6,1.8-2.3,1.9-3.5c0.3-1.9,0.8-2.8,2.5-3.9c2-1.3,4.3-4.3,4.4-6.7c0.8-11.4,1-22.8,1.3-34.3
		c0-0.8-0.8-2.1-1.5-2.4c-8.1-2.5-16.3-4.7-24.6-7.2c0,0.8-0.1,1.3,0,1.6c1.6,7.7-2,13.1-9.8,15.8c-12.4,4.2-24.4,2.5-36.2-2
		C149,389.4,146.1,388.5,142.4,387.2z M370.2,166.4c-3.3,1-6.9,2.4-10.9,2.9c-17.8,3-36,4-54,4.2c-22.8,0.1-45.9-0.5-68.9-1.3
		c-12-0.5-24.1-1.1-35.6-5.3c-2-0.8-2.9,0.3-3.9,1.8c-2.8,3.9-5.7,7.8-8.8,11.5c-1.5,1.8-3.7,3-5.7,4.5c7.6,5.6,10.7,10.3,12.4,18.6
		c3.5,16.3,2.5,32.6-0.6,48.6c-3.5,18.3-6.7,36.6-4.8,55.3c2,22.1,10.1,33.8,31.3,40.4c10.2,3.2,21.1,4,31.4,6.7
		c6.9,1.6,14.5,3,20.1,6.9c5.2,3.5,9.5,6.1,15.6,5.2c1.3-0.3,3-0.5,3.9-1.3c4.8-4.2,10-7.4,16.4-8.7c12.9-2.5,25.7-4.7,38.5-7.8
		c15.1-3.8,26.8-12.2,31.3-28c5.2-17.8,3.5-36,0.3-53.6c-3.3-17.5-6.4-35.2-4.8-53c1-11.1,2.9-22.1,12.7-28.3
		C381,179.1,375.6,172.7,370.2,166.4z M386.7,504.3c-1.6-0.1-3-0.3-4.5-0.3c-9.3,0-18.7,0-28,0c-55.7,0-111.3,0-167.1,0
		c-2.9,0-3.5,1-3.5,3.7c0.1,14,0.3,28.1,0,42.2c0,3,0.8,3.8,3.8,3.8c64.7-0.1,129.5-0.1,194.1-0.1c1.6,0,3.4-0.3,5.3-0.3
		C386.7,536.8,386.7,520.8,386.7,504.3z M162.1,375.8c0-0.3-0.1-0.8-0.1-1.3c3.2-2,6.2-4.8,9.7-5.6c3.9-1,8.3-0.6,12.2,0.3
		c11.2,2.8,22.3,6.1,33.4,9.2c19.2,5.6,38.9,9.2,58.8,10.1c24.9,1,49.1-2.5,73.2-9c10.2-2.8,20.3-6.1,30.7-8.8
		c4.5-1.3,9.2-2.1,13.9-2.5c5.8-0.3,10.9,1.6,14.1,7.8c4.2-8.1,8-15.4,11.6-22.7c2-4,2-4.8-2.5-6.7c-8.6-3.3-17.8-4.7-26.8-3
		c-7.6,1.3-15.1,3.8-22.5,6.3c-22.5,7.6-45.3,13.4-69.2,13.8c-1.5,0-3,1.3-4.5,2c-1.6,0.8-3,1.9-4.7,2c-2.9,0.3-5.8,0.3-8.7,0
		c-1.3-0.1-3-0.5-3.8-1.3c-1.6-2.1-3.4-2.9-6.1-2.9c-7.2-0.3-14.6-0.6-21.8-1.6c-19.2-2.9-37.7-8.5-55.9-14.9
		c-9.2-3.3-18.7-5.2-28.4-3.3c-4.4,0.8-8.6,2.1-12.9,3.5c-2.5,0.8-3,2.5-1.8,4.9c3.4,6.7,6.6,13.6,9.8,20.4
		C160.2,374.3,161.2,375,162.1,375.8z M344.2,383.1c-1,0.1-1.6,0.1-2.1,0.3c-13.9,2.3-27.5,5.3-41.6,6.4c-13.4,1-26.9,0.3-40.3-0.8
		c-10.5-0.8-20.8-3.5-31.3-5.4c-2.5-0.5-3.2,0-3.2,2.5c0.1,4.9,0.3,10-0.1,15c-0.8,8.2,1.3,16.8-3.5,24.6c42.3,0,84.3,0,127.2,0
		c-4.8-4.8-4.3-10.2-4.3-15.4c0-3.9,0-7.8-0.1-11.7C344.7,393.5,344.4,388.3,344.2,383.1z M284.9,477.4c0,0.1,0,0.3,0,0.3
		c-24.6,0-49.1,0-73.8,0c-4.5,0-10.9,4.2-12.1,8c-2.4,6.7,3.2,15.4,10.3,16.2c4.3,0.3,8.6,0.6,12.7,0.6c42.7,0,85.4,0,128.1,0
		c3,0,6.2-0.3,9.2-0.6c8.2-0.8,12.9-9.6,9.3-17c-3-6.6-8.6-7.4-14.6-7.4C331.1,477.4,308,477.4,284.9,477.4z M338.6,149.5
		c-35.5,0-71.6,0-107.1,0c0.1,6.1,0.3,11.7,0.3,17.3c0,2.4,0.6,3.4,3,3.4c4.3,0.1,8.6,0.8,12.7,0.8c29,1,58.1,1.3,87.2-0.8
		c3-0.3,3.5-1.5,3.5-4.2C338.3,160.6,338.5,155.2,338.6,149.5z M236.8,80.7c-4.3-6.3-6.2-6.7-13.6-3c-6.1,3-12.2,3.9-18.8,1.5
		c-7.8-2.8-14.5,1.5-15.9,9.6c-0.8,4.8,1.6,10.9,6.2,13.6c3.9,2.4,8.2,2.8,12.4,1c-0.6-2.5-1.1-4.4-1.6-6.3c0.3-0.3,0.8-0.3,1.1-0.5
		c1.5,4,2.9,7.8,8.1,8c5.3,0.1,6.7-4.2,8.6-7.8c0.3,1,0.5,1.6,0.3,2.3c-1.5,3-0.1,5.8,0.6,8.8c1.6,6.3,3,12.7,4.2,19.2
		c0.3,2.5,1.3,3.2,3.5,3c7.2-0.1,14.1-0.1,21.3-0.1c4.9,0,7.2-2,6.2-6.9c-0.3-2-1.9-3.8-3-5.8c4.5-4.5,4.5-8.2-0.3-12.9
		c4-4.7,3-8.6-2.8-10.6c-0.1-0.5-0.3-1.1-0.3-1.6c0.3-3.5-0.6-6.1-4.7-6.7c-0.6-0.1-1.3-1.1-1.6-2C244.5,78.1,241.1,77.2,236.8,80.7
		z M315.7,104.3c-3.4,1.1-4.5,3.5-3.9,6.4c0.6,2.4,2,4.5,3,6.9c-2.9,2-4.2,5.2-2.9,8.8c1.1,3.4,4,3,6.7,3c6.2,0,12.2,0,18.6,0
		c5.8,0,4.4,0.1,5.2-4.7c1-6.2,2.1-12.6,4.2-18.6c0.8-2.5,2.3-4.7,0.8-7.4c-0.3-0.6-0.1-1.6-0.1-2.5c3,5.8,4.7,7.4,8.2,7.6
		c5.3,0.3,7.6-3,8.7-8c0.3,0.3,0.8,0.3,1,0.6c-0.3,2-0.8,4.3-1.5,7.4c3.3-0.3,6.7-0.1,9.6-0.8c6.6-1.5,10.5-9.6,8.5-16.5
		c-2-6.7-8.5-10.1-15.1-7.6c-7.8,2.9-14.9,0.8-21.8-2.5c-1.5-0.6-3.5-1.3-4.8-0.6c-2.3,1-4.2,2.9-6.7,4.7c0.6,0.1,0.3,0.3,0,0
		c-5.2-2.9-6.7-2.4-9,3c-0.3,0.8-1.6,1.8-2.5,1.9c-3.5,0.6-4.7,2.8-4.5,6.1c0,0.8-0.3,2-0.8,2.4C311.3,97.5,311,99.8,315.7,104.3z
		 M192.2,33.8c0.3,1.3,0.8,3.4,1.3,5.6c0.3,0.8,0.6,2,0.3,2.5c-3,4.7-2.9,9.8-2.8,15c0.1,12.2,8.7,22.3,22.2,21.6
		c9.8-0.6,22.8-9,21.3-22.8c-1.3-11.2-13.1-17.3-22.6-12.9c-4,1.9-6.2,7.2-5.3,12.6c0.6,4,3.5,6.3,8.6,6.9c1,0.1,2,0.3,2.9,0.6
		c-5.3,2-10.6-0.1-12.4-4.4c-2-4.8-1.6-9.5,1.5-13.8c2.9-4.2,7.4-5.6,12.2-5.2c12.4,1,19.7,12.4,16.2,24.2c-0.5,1.5-1,2.9-1.5,4.7
		c4.3,0,8.1,0.3,11.7-0.1c1-0.1,2.4-1.5,2.9-2.5c2.5-6.3,0.1-15.9-5.3-20.2c2.9-1.6,5.3-3.8,4.8-7.6c-1.9,0-3.7,0-5.3,0
		c-4.7-0.1-7.6-3.5-10.9-6.2c-8.5-6.7-17.3-7.4-26.8-2.5C201.6,31,197.2,32,192.2,33.8z M378,32.9c-0.3,0.3-0.5,0.5-0.8,0.8
		c-4.2-1.6-8.6-3-12.6-4.8c-9.2-4-17.8-4.4-25.6,2.5c-4.7,4.2-9.3,7.6-16.2,6.2c-0.3,0.3-0.5,0.6-0.6,1c1.6,2.5,3.3,4.8,4.8,7.2
		c-1,1-2.5,2.1-3.3,3.7c-2.1,5.2-3,10.3-1.3,15.9c0.3,1,1.5,2.5,2.3,2.8c3.9,0.3,7.8,0.1,12.2,0.1c-0.6-1.6-0.8-2.9-1.3-3.9
		c-3.7-9,1.1-23.3,14.6-25c5.2-0.6,10,0.8,13.1,5.2c3,4.3,3.2,9,1.3,13.8c-1.6,4.3-7.7,6.3-13.1,4.4c2-0.3,3.3-0.5,4.4-0.8
		c3.7-0.6,6.9-1.9,7.8-6.1c1-4.5-0.6-10.1-3.8-12.2c-8.2-5.7-20.4-1.1-23.1,8.6c-3,11.4,3.4,22.1,15,25.4c11,3,21.1-1.8,25-11.2
		c2-4.8,2-10.6,2-15.9c-0.1-5.6-4.2-10.9-1-16.7C378.4,33.8,378,33.3,378,32.9z M285.1,447L285.1,447c21.5,0,43,0,64.6,0
		c1,0,2.1,0,3.2-0.1c3.9-0.5,5.7-2.5,5.6-6.4s-1.9-5.9-5.7-6.3c-1.3-0.1-2.5-0.3-3.9-0.3c-42.7,0-85.4,0-128.1,0
		c-1.6,0-3.3,0.1-4.8,0.3c-3,0.6-4.9,2.5-4.8,5.9c0.1,3.5,1.8,5.8,5.3,6.3c1.6,0.3,3.3,0.3,4.8,0.3C242.6,447,263.9,447,285.1,447z
		 M219.8,469.1c43.7,0,87.2,0,130.6,0c-0.8-2.5-2-4.7-2-6.9c-0.1-2.4,0.8-4.7,1.3-7.2c-43,0-85.9,0-129.1,0
		C222.9,462.2,222.9,462.2,219.8,469.1z M307.7,27c0.3,0.3,1,0.6,1.3,1.3c1.3,2.5,3.4,5.2,3.2,7.7c-0.1,1.3-4.3,3.4-6.6,3.4
		c-7.7,0-15.4-0.8-23.1-1.3c-1.8-0.1-3.7-0.1-5.3,0.5c-5.7,2-11.2,2-16.9,0c-2.9-1-4.4-2.9-2.5-5.9c1.3-2.1,2.8-4.3,4.3-6.6
		c-0.8-4.3-3.7-5.2-8.1-4.9c-17.9,0.3-36,0.1-54,0.1c-1.3,0-2.8,0-5.2,0c1.3,2.9,2.1,4.8,3.3,6.7c1,1.6,2.5,1.9,4.3,0.8
		c12.2-7.2,23.3-5.7,33.4,4.3c3.5,3.4,7.6,3.9,12.2,2.5c0.6-0.3,1.3-0.3,2.5-0.3c-1.1,4.3-2.1,8.1-3.2,11.9c2.9-1.6,5.2-4.2,7.4-4
		c4.7,0.1,9,0.3,13.6,0.1c2.9-0.3,5.8-0.3,8.7-0.1c5.3,0.1,10.9,0,16.3,0c2.9,0,5.8,0,8.7,0.1c4.5,0.1,9,0.3,13.6,0
		c2.3-0.1,4.7,2.5,7.7,4.2c-1.1-3.9-2.3-7.8-3.3-11.7c0.3-0.3,0.6-0.3,0.8-0.6c6.3,2.8,11.1,0.3,15.8-3.9c2.9-2.5,6.2-4.7,9.5-5.8
		c7.2-2.5,14-0.6,20.4,2.8c1,0.6,2.8,1,3.4,0.6c2-1.6,4-3.5,3.3-6.9c-1.3-0.1-2.4-0.3-3.5-0.3c-18.2,0-36.1,0.1-54.3-0.1
		C311.9,21.3,308.6,21.6,307.7,27z M334.7,76.8c-0.1-0.5-0.3-1-0.3-1.5c-32.7,0-65.5,0-98.3,0c-0.1,0.3-0.1,0.8-0.3,1.1
		c1,0.3,2.1,0.8,3,0.6c7.6-2,8.1,6.9,13.4,8.6c1.1,0.3,1.6,2.5,2.5,3.9c0.1,0.1,0,0.3,0,0.3c0.6,1,1,2.4,1.8,3
		c3,2.8,3.8,4.9,2.5,9.2c-0.3,1-0.3,2.5,0.3,3.5c2,3.5,2,6.9-0.1,10.3c-0.3,0.6-0.8,1.5-0.5,1.8c2.8,3.7,2.4,7.6,0.8,11.7
		c3,0,5.9,0,8.5,0c-0.3-3-0.8-5.8-0.3-8.6c0.6-2.9,1.6-5.6,0-8.6c-0.6-1,0-3.4,0.8-4.7c1.3-1.9,1.1-3.3,0.3-5.2
		c-0.5-1.1-0.8-2.5-0.6-3.8c0.3-4.3,2.8-8.6,0.3-12.9c-0.1-0.3,0.3-0.6,0.3-1c1.8-6.7,7.6-9.5,14.1-6.2c1.8,1,3,0.8,4.8,0.1
		c4.4-1.8,10.3-1.6,12.9,2.9c2.9,5.2-1.6,10.9,1.8,15.9c0.6,1-0.3,3-0.6,4.7c-0.1,0.3-0.3,0.6-0.3,1c0,1.3-0.3,2.5,0.3,3.5
		c1.5,2.5,2.3,5.2,0.3,8c-0.3,0.5-0.8,1.5-0.6,1.9c2.5,4.2,2.3,8.6,0.3,12.9c3.4,0,6.2,0,8.6,0c0-2.9-0.5-5.7,0.1-8.1
		c0.6-2.8,1.5-4.8,0.1-7.8c-0.8-2,0.3-4.7,0.5-7.2c0.1-1.5,0.5-3,0.3-4.5c-0.6-3.3-0.3-6.3,2.5-8.7c0.8-0.6,1.5-2,1.6-3
		c0.8-2.9,1.8-5.3,5.2-6.2c1-0.3,2-1.5,2.5-2.5c2-3.7,4.3-4.8,8.5-4.3C332.5,77.3,333.7,77,334.7,76.8z M284.9,131.5
		c-19.1,0-38,0-57,0c-3.9,0-5.8,1.6-5.8,5.2c-0.1,3.4,1.5,4.9,5.3,5.3c1.8,0.3,3.5,0.3,5.3,0.3c35.7,0.1,71.4,0.1,107.1,0
		c2.3,0,4.7-0.6,6.7-1.6c2.8-1.3,3-5.9,0.6-7.4c-1.6-1-3.8-1.5-5.7-1.5C322.4,131.3,303.6,131.5,284.9,131.5z M262.2,11.8
		c-0.6,5.7-1.5,11.1,2.9,14.9c-2,2.5-3.9,4.4-5.4,6.7c-0.5,0.6,0,2.5,0.6,3.3c3.3,2.8,14.6,1.9,18-1c0.6-0.5,2-1,2.3-0.6
		c3.2,2.8,6.3,1.9,8.7,0.1c2.3,1,4,2.4,5.9,2.5c4,0.3,8.2,0.3,12.2-0.3c3.5-0.3,4.4-2.3,2.4-5.2c-1.5-2-3.8-3.5-5.9-5.3
		c0.6-0.8,1.5-1.6,2.5-2.5c2.4-2.5,2.3-8.8-0.3-11.2c-1.9-2-4.3-1.5-7.7,1.9c-1.9,1.8-3.5,3.7-5.6,5.9c-1.6-2.5-3-4.7-4.8-6.7
		c-2.4-2.9-4.4-3.2-7.2-0.8c-2.3,2-4.2,4.5-6.4,7.2C271.4,16.4,268.6,11.7,262.2,11.8z M262.2,48.8c-0.3-0.6-0.8-1-1-1.5
		c-1.5-2.9-3.8-3.3-6.6-2.5c-2.8,0.6-3.9,2.1-4.2,5.2c-0.5,7.2,4.8,11.1,11.5,11.1c15.8-0.1,31.4-0.3,47.2,0c5.7,0.1,9-3,10.9-7.4
		c0.8-1.9,0.3-5.4-1-6.9c-3.5-3.9-6.9-3-9.6,1.3c-2-1.3-3.9-3.3-5.8-3.3c-2,0-3.9,2-6.1,3.3c-2.9-5.3-8.1-5.3-11.9,0.5
		c-4.4-5.7-7.4-5.7-12.9,0C269.9,42.5,264.7,43.5,262.2,48.8z M272.5,92.4c-2.9,3.2-3.7,7.2-1.9,10.1c1.6,2.9,3.8,4.2,6.9,2.3
		c2.5,3.7,8,5.4,11.2,3c2.5-1.6,4.3-3.5,7.6-2.5c0.8,0.3,2.5-1.6,3-2.9c2-3.9,0.8-7.2-2-10.2c2.8-4.4,2.8-8.7,0.3-11.2
		c-2.4-2.4-7.2-2.1-11.1,0.3c-0.8,0.5-2.5,0.3-3.5-0.3c-3-1.8-6.3-2.1-9.5-0.6c-2.9,1.5-3.7,4.4-3.2,7.2
		C270.7,89.2,271.8,90.7,272.5,92.4z M193.4,9.2c0.3,2.5,0.8,4.8,1,7.2c0.3,2.4,1.5,3.2,4,3.2c8.5-0.3,16.8-0.1,25.1-0.1
		c11.1,0,22,0,33.1,0c1.5,0,3.2,0.6,3.4-2c0.3-2.8,0.6-5.4,0.8-8.5C238.6,9.2,216.4,9.2,193.4,9.2z M375.5,9.3
		c-22.8,0-45.4,0-67.9,0c1,3.5,2,6.7,3,10.1c21.3,0,42.7,0,64.1,0C375,16,375.2,12.7,375.5,9.3z M273.3,116c-0.6,0.5-1,0.8-1.5,1
		c-2.5,1.8-3.5,5.7-2.5,9.2c1,3.3,3.4,3.7,6.3,3.7c6.2-0.1,12.2,0,18.4,0c5.8,0,8.3-2.9,6.7-8.7c-0.5-2-2-3.7-3.2-5.8
		c0.6-0.3,1.8-0.5,2-1.1c0.6-1.5,1.1-3,1-4.5c-0.1-0.8-1.3-2.4-2-2.4c-2.3,0-4.8,0-6.7,1.1c-4.8,3-9.5,2.5-14.3-0.1
		c-3-1.6-6.7-1.5-8,0.3C268.1,111.3,269.1,113.3,273.3,116z M213.3,475.2c1.5,0.1,3.2,0.3,4.8,0.3c44.4,0,89,0.1,133.4-0.1
		c1.8,0,5.2,1.6,5.2-2c-0.1-3.7-3.4-2-5.3-2c-42.7-0.1-85.1-0.1-127.7-0.1c-2.5,0-5.2,0-7.8,0C213.2,471.2,212.2,472.3,213.3,475.2z
		 M352.3,448.7c-44.7,0-89.5,0-134.3,0c0,1.5,0,2.5,0,4.3c2,0,3.8,0,5.4,0c17.9,0,36-0.1,53.9-0.1c23.5,0,47.1,0.1,70.7,0.1
		C352.9,453,353,453,352.3,448.7z M352.5,428c-1.3-0.1-2.3-0.3-3.3-0.3c-42.7,0-85.4,0-128.1,0c-3.2,0-4,1-3,4
		c44.8,0,89.6,0,134.4,0C352.5,430.4,352.5,429.6,352.5,428z M140,382c-0.1,0.6-0.3,1.3-0.3,2c5.7,2.1,11.2,4.5,16.9,6.3
		c7.6,2.5,15.4,3.7,23.3,2.3c5.3-1,10.9-1.9,14.6-6.1c1.8-1.9,2.9-4.3,1.3-6.7c-1.6-2.4-3.8-0.8-5.8-0.3c-4.2,1.3-8.2,3.2-12.4,3.9
		c-4.5,0.8-9.5,2.8-13.6-0.6c-2.1-1.6-4.2-1.8-6.6-1.5c-2.4,0.3-4.7,0.6-7.2,0.6C146.8,382,143.4,382,140,382z M430.3,383.8
		c-0.1-0.5-0.3-1-0.3-1.5c-5.9-0.3-12-0.8-17.9-1c-1.9,0-3.9,0.8-5.8,1.3c-2.4,0.6-4.8,2-6.9,1.5c-6.7-1.3-13.1-3.3-19.7-4.9
		c-1.9-0.5-4.4-1.8-5.3,0.6c-0.6,1.6-0.3,4.8,1,6.1c2.8,2.5,6.1,4.7,9.5,5.7c9.6,2.5,19.3,2,28.8-1.3
		C419,388,424.6,385.8,430.3,383.8z M249.9,68.1c23.9,0,47.6,0,71.6,0c-1-3-2-5.7-2.8-7.8c-2.9,1-5.3,2.5-7.6,2.5
		c-19.7-0.8-39.6,2.3-59.7-1.9C251.1,62.8,250.6,65.3,249.9,68.1z M285,147.4c17.7,0,35.2,0,52.9,0c1,0,2,0.3,2.9-0.1
		c0.6-0.3,1.3-1.1,1.3-1.6c0-0.6-0.8-1.3-1.5-1.5c-0.8-0.3-1.6-0.1-2.5-0.1c-35.5,0-71.1,0-106.5,0c-0.6,0-1.3-0.3-1.8,0.1
		c-0.6,0.3-1.3,1-1.9,1.5c0.6,0.6,1,1.5,1.6,1.8s1.6,0.1,2.5,0.1C249.7,147.4,267.3,147.4,285,147.4z M340,73.3
		c0.3-0.5,0.3-0.8,0.5-1.3c-1.6-0.6-3-1.6-4.7-1.8c-6.4-0.3-12.7-0.1-19.2-0.1c-26.8,0-53.4,0-80.3,0c-2.4,0-4.8-0.1-5.6,3.2
		C267.3,73.3,303.6,73.3,340,73.3z M421.3,417.1c0.3,0.1,0.8,0.3,1.3,0.3c1.5-2.8,3.2-5.3,4.4-8.1c1.3-2.9,2-5.9,2.9-9
		c0.5,0.3,1,0.3,1.5,0.5c-1.3,4.4-2.5,9-3.9,13.6c7.7-5.4,9.5-8.7,11.9-21.8c0.8-4.9-1-9.5-2.5-15.1c-0.8,1.6-1.3,2.3-1.6,3
		c-0.5,1-0.8,2.5-1.5,2.9c-6.1,3.7-9.2,9.5-10.6,15.9C421.7,405,421.8,411.1,421.3,417.1z M430.8,414.3c4.9-0.6,9.7-2.8,14.9-1.6
		c-3,1.1-6.3,1.5-9.5,2.5c-3,1-6.1,2.4-9,3.5c15.9,2.4,32.6-6.1,39-19.2c-1.8-0.3-3.5-0.8-5.2-1C448.1,398.4,440,407.5,430.8,414.3z
		 M102.8,401c9.8,12.9,21.5,21.8,38.7,18.8c-5.2-3.9-11.7-4.4-18-5.9c0.1-0.5,0.3-1,0.3-1.5c4.8,1,9.8,2,15,3
		C127.5,405.1,112.6,395.6,102.8,401z M137.6,401.8c0.3-0.3,0.8-0.5,1.1-0.6c2,5.6,4.3,11.1,6.3,16.7c0.5-0.1,1-0.3,1.5-0.3
		c-0.3-5.3-0.6-10.9-1.3-16c-1.3-9.3-5.8-16.8-14.6-22.7c-0.3,5.3-1,10-0.6,14.6c0.6,8.8,2.4,17,11.5,21.1
		C140.3,410.3,138.9,406,137.6,401.8z M185.1,38.8c-6.2,11.7-4.5,31,6.7,40.1c2-0.8,4-1.6,6.4-2.5c-8.3-7.7-10.3-17.3-8.6-27.6
		c0.3-2,1.6-4.5,1-6.2C189.7,40.9,187.2,40.1,185.1,38.8z M379.4,42.2c4,15.8,2.1,24.4-7.4,34.1c2.5,0.8,4.8,1.8,7.2,2.5
		c10.3-11.4,12.9-31.6,5.3-40.5C382.8,39.6,381.3,40.9,379.4,42.2z M195.8,375.8c-0.8-0.6-1.6-2-2.5-2.4c-6.6-2-13.1-3.8-20.1-3
		c-3.7,0.3-6.7,2-8.6,5.4c-1.9,3.9-0.6,6.4,3.7,6.3c4.2-0.1,8.6-0.6,12.6-1.6C185.7,379.5,190.6,377.6,195.8,375.8z M374,375.8
		c3.8,1.3,6.7,2.5,10,3.3c5.8,1.3,11.7,2.4,17.7,3c1.3,0.3,3.8-1,4-1.9c0.5-1.5,0-3.8-0.8-5.2c-2-3.3-5.3-4.8-9-4.5
		c-6.4,0.6-12.7,1.9-19.1,3C375.7,373.8,374.9,375,374,375.8z M227,351.3c-0.6,4.4-0.6,4.7,2.9,5.3c10.7,1.9,21.3,3.5,32.1,5.2
		c2.5,0.3,5.3,0.3,8.1,0.3c0-0.3,0.1-0.6,0.1-1C256.5,354.7,241.3,354.9,227,351.3z M343.1,351.4c-7.6,1.3-14.9,2.5-22.1,4
		c-6.1,1.3-12.1,2.9-18.2,4.4c-1,0.3-1.9,1.3-2.9,1.8c2.9,0.3,5.6,0.5,8.1,0.1c10.9-1.6,21.5-3.5,32.4-5.3
		C343.6,356,343.9,354.2,343.1,351.4z M409.7,377.9c10.5,0.8,26.6-6.7,27.6-13.6c-5.6,1.5-11.5,3.3-17.5,4.4
		C412.7,370,411.6,370.6,409.7,377.9z M159.9,377.9c-1-2-1.9-3.5-2.3-5.2c-0.8-3-2.9-3.9-5.8-3.9c-3.4-0.1-6.9-0.6-10.1-1.5
		c-3.4-1-6.7-2.5-10.3-4C135.8,372.1,148.8,378.3,159.9,377.9z M191.2,9.2c-2.9,0-5.3,0-7.8,0c-1,7.2,2.9,11.2,9.5,9.8
		C192.4,16,191.9,12.7,191.2,9.2z M376.6,19.7c1.3,0,2.5,0.3,3.4-0.1c1.3-0.3,3.2-1,3.5-2c0.8-2.5,1-5.2,1.3-7.8
		c0-0.3-1-0.6-1.5-0.6c-2-0.1-4.2,0-6.2,0C377,12.7,376.8,16,376.6,19.7z M286.3,9.2c2,2.4,3.7,4.5,5.6,6.4c0.6,0.6,2.3,1,2.8,0.6
		c2.9-2.1,5.3-4.7,8.1-7.2C297.2,9.2,291.8,9.2,286.3,9.2z M181.9,37.6c4.8-3,5.9,2.9,9.3,2.3c-0.3-2.8-0.5-5.6-1-8.2
		c-0.3-0.8-1.6-2-2.5-2c-1.8,0.3-4.4,0.5-5.2,1.6C181.5,32.5,182.2,34.9,181.9,37.6z M265.1,9.2c3.5,2.5,6.7,5.2,9.8,7.6
		c-0.5-0.5-1-1-1.5-1.5c2.5-2.1,5.2-4.4,7.2-6.1C276.3,9.2,270.7,9.2,265.1,9.2z M387.7,37.6c0.3-1.5,0.8-2.5,0.8-3.7
		c0.1-2.9-1.6-4.7-4.7-4.4c-2.5,0.3-4,1.3-3.9,4.3c0.1,2-0.3,3.9-0.6,5.8c0.3,0.3,0.6,0.6,1,1c1.5-1.5,2.9-3,4.4-4.8
		C385,35.8,385.8,36.6,387.7,37.6z M381.7,21.7c-2.4,0.3-4.8-1.6-6.1,1.9c-0.8,2.4-1.8,4.7-2.5,6.9
		C378.8,31.6,381.9,28.7,381.7,21.7z M197.5,30.1c-0.6-1-1.3-1.8-1.6-2.5c-0.5-1-1-1.9-1.3-2.9c-1.3-3.9-1.8-4.3-5.8-2.9
		C189,29,192,31.6,197.5,30.1z M189.7,194.8c-1-3.4-5.6-7.8-8.6-8.6c-3.4-0.8-7.2,2-6.7,5.3c0.1,1.1,1,2.5,2,2.9
		c1.1,0.5,2.9,0.3,3.9-0.5c0.6-0.3,0.8-2.1,0.3-3c-0.3-0.6-1.6-0.8-2.5-1.3c-0.1,0.3-0.1,0.5-0.3,0.8c0.5,0.6,1,1.3,1.5,2
		c-0.6,0.3-1.5,0.8-1.8,0.6c-0.8-0.3-1.6-1.3-1.6-1.9c0-1,0.6-2.5,1.3-2.9c1.3-0.5,3.2-0.8,4.3-0.1
		C184.5,190.5,187.1,192.8,189.7,194.8z M392.3,190.8c-0.5-0.3-1-0.8-1-0.6c-0.8,0.8-2.3,1.6-2.3,2.5c0,0.8,1.6,2.4,2.1,2.3
		c1.5-0.3,3.5-1,4-2.1c1.3-3.3-2-6.9-5.8-6.3c-4.3,0.6-7.7,3.9-9,9c1.1-1.3,1.9-2.4,2.9-3c2-1.5,3.9-3,6.2-3.9c1.3-0.3,3,1,4.4,1.9
		c0.3,0.3,0,2.1-0.6,2.5c-0.6,0.6-2,0.5-2.9,0.6c-0.1-0.3-0.3-0.6-0.3-1C391,191.9,391.8,191.4,392.3,190.8z"/>
	<path class="st0" d="M203.9,466.5c-4.8-4.7-9.2-9-14-12.9c-3.8-3-8-6.2-12.4-8.1c-3.5-1.5-8.1-1.1-12.1-1c-5.9,0.3-11.9,2.1-17.9,0
		c-0.6-0.3-1.5-0.3-2-0.6c-6.9-4.2-13.6-8.6-19.6-14.5c2.1-2.9,4.8-4.3,8.2-4.7c7.2-0.8,13.6,1.3,19.9,3.9c0.8,0.3,1.6,0.8,2.5,1.3
		c-1.6-5.4-3.5-10.7-4.5-15.9c-0.8-3.8-0.5-7.7-0.3-11.6c0.1-2.9,2.3-2.3,3.9-1.3c7.6,4.4,13.6,10.6,16.8,19.1
		c2.1,6.1,3.9,12.2,5.2,18.6c1.1,5.6,5.4,7.2,9.6,9c5.3,2.4,11.2,3.5,16.5,6.2c1.6,0.8,2.5,4,2.5,6.3
		C206.3,462.2,204.9,464.3,203.9,466.5z M175.8,439.8c-0.1-15.4-13.4-36.7-22.2-36.5c-1.5,8.8,1.3,16.8,4.5,24.6
		c2.1,5.3,7.4,6.4,12.2,9.6c-2.5-5.3-5.7-9.2-5.7-14.5C168,428.8,169.9,435.2,175.8,439.8z M170.8,441.6c-2.5-0.6-4.5-1.5-6.7-1.6
		c-2.4-0.3-4.7-0.3-7.2-0.6c-2-0.3-4-0.3-6.1-0.3c0.1-0.6,0.1-1.1,0.3-1.6c5.2,0.3,10.3,0.6,15.4,0.8c-9.5-5.6-18.7-11.4-30.2-11.2
		c-2.5,0-4.9,1.1-8.2,1.9C140.1,441.7,153.3,447.6,170.8,441.6z M191.5,451.5c-0.1,0.3-0.3,0.3-0.3,0.6c3,2.9,6.2,5.8,9.8,9
		c0.6-2.5,1-4,1.3-5.7C198.4,454.2,194.9,452.8,191.5,451.5z"/>
	<path class="st0" d="M411.1,430.1c11.1-3.9,21.3-10,32.6-1.3c-10.2,7.6-18.6,17.5-32.6,16.3c-2.4-0.3-4.7-0.3-6.9-0.8
		c-7.4-1.9-13.8,0.3-19.6,4.7c-6.6,5.2-12.9,10.7-19.6,16.3c-1.8-1.8-2.5-4.7-2.3-7.7c0.3-2.8,2-3.9,4.7-4.8
		c6.7-2.4,13.1-4.9,19.6-8.1c1.9-1,3.4-3.5,4-5.7c2.3-7.2,3-15,6.6-21.5c3.2-6.1,8.7-11.1,14-15.6c3.9-3.5,5.8-2.1,6.1,3
		c0.5,6.7-0.8,12.9-3,19.1C413.6,425.8,412.6,427.4,411.1,430.1z M398.3,436.8c5.9-2.5,10.5-5.7,13.4-12.2
		c3.4-7.4,4.3-14.6,3.5-22.6c-11.2,3.5-24.9,26.8-21.5,37.5c3.7-5.8,7.2-11.2,11.1-17.5C404,428.2,401.5,432.6,398.3,436.8z
		 M417.8,436.9c0,0.3,0,0.8,0,1.1c-6.7,0.8-13.1,1.6-19.7,2.5c0,0.3,0.1,0.8,0.1,1.3c2,0.3,4,0.6,6.2,0.8c7.2,1,14.4,2.1,20.8-2.1
		c5.3-3.5,10.3-7.4,15.9-11.4c-4.5-2.4-8.3-3.9-12.6-2.5c-5.7,1.8-11.4,3.5-16.9,5.7c-3,1.3-5.8,3.2-8.8,4.8c2.9,0.5,5.3,0,7.7-0.1
		C412.8,436.8,415.4,436.9,417.8,436.9z M368,460c3.3-2.9,6.2-5.3,9-7.8c-0.3-0.3-0.3-0.5-0.5-0.6c-3.2,1-6.6,2.1-9.8,3.3
		C367.3,456.4,367.5,457.8,368,460z"/>
	<path class="st0" d="M92,343.9c1.3-9.7,4.4-17.9,9.5-25.5c1.8-2.8,3-2.5,4.8,0.3c6.3,11.4,6.9,23.1,1.1,35c-1.9,3.9-3,8.3-4.7,12.6
		c-7.7-3.9-15.6-6.9-22.3-11.6c-3.8-2.5-6.2-7.6-8.6-11.9c-2.5-4.7-4.3-9.7-6.7-15.4C79,325.4,85.4,334.3,92,343.9z M104,318.9
		c-4.9,4.7-8.6,14-9.2,26.8c-0.3,3,2.5,6.2,3.8,9.5c1-4.5,0.6-9,3.4-12.6c0,6.1,0,12.2,0,18.2C111,347.3,111.7,328.7,104,318.9z
		 M69.1,329.4c3,16.5,11.5,27.9,28.8,30.9c-4.9-3.9-10.1-8-15.1-12c0.3-0.3,0.5-0.6,0.8-1c4.2,2.9,8.3,5.7,12.4,8.6
		c-1.1-3.4-2.8-6.3-4.7-9c-2.5-3.9-5.2-8.1-8.5-11.2C79.3,331.6,75,328.2,69.1,329.4z"/>
	<path class="st0" d="M489.3,259.3c-1.5-1.3-2.9-2.4-4.4-3.7c-4.8-4.8-10.3-9.3-14.5-14.6c-4.5-5.8-7.4-12.6-7.6-20.1
		c0-1.6,0.8-3.3,1.1-4.9c1.5,0.3,2.9,0.6,4.2,1.3c7.7,4,14.1,9.5,19.1,18c0.6-3.5,1.1-6.1,1.5-8.7c1-6.7,4-12.4,9.8-16.4
		c3.5-2.5,4.2-2,4.8,2.3c0.6,3.8,1.6,7.6,2.1,11.2c1.3,8.8-2,16.2-6.9,23.1C495.8,250.9,492.7,254.8,489.3,259.3z M487.6,249.3
		c0.5-6.3,0.3-11.5-3.5-16.4c-4.5-5.8-9.8-10.3-16.2-13.9c-0.8-0.5-2-0.3-2.9-0.3c0.1,1,0.1,2,0.3,2.9c0.3,1,0.6,2,0.8,3
		c1.9,13.4,10.2,22.2,20.6,29.5c0.3-0.3,0.6-0.3,1-0.6c-2.9-5.3-5.9-10.6-9.2-16.4C483.5,239.5,484.3,244.9,487.6,249.3z M501.3,211
		c-10.9,3-13.8,27.3-11.2,35.6c2.4-4,4.7-8.3,7.2-12.6c0.3,0.3,0.6,0.3,1,0.6c-2.5,5.8-5.2,11.6-7.6,17.4
		C501.9,245.9,506.1,228.8,501.3,211z"/>
	<path class="st0" d="M427.1,128.1c-14.3,1.8-28.5,3.4-41.4-4.8c-3.3-2-6.9-4.2-8.5-8.6c9.7-4.8,19.7-3.9,30-2.5
		c-2.9-4.5-5.3-8.8-8-12.9c-3-4.7-2.8-9.5-1-14.5c0.3-0.6,2.5-1,3-0.6c4.5,3.2,9,6.3,13.1,10c4.8,4.4,8.1,10,9,16.8
		C424.3,116.7,425.7,122.1,427.1,128.1z M403.4,120.6c0.1-0.5,0.3-0.8,0.3-1.3c4.7,1,9.3,1.8,14,2.8c0.3-0.3,0.3-0.5,0.5-0.8
		c-3.4-2.4-6.6-5.7-10.3-6.7c-5.3-1.5-11.1-1.6-16.8-1.6c-3.8,0-7.6,1.5-11.7,2.3c7.4,10.1,31.6,16.2,42.2,10.3
		C414.9,123.8,409.2,122.3,403.4,120.6z M400.7,86.2c-5.4,8.3,6.7,25.6,17.5,32.9c-1.3-4.8-4.2-9-3.4-14.1c1.5,2.9,2.1,5.8,3.3,8.8
		c1.1,2.9,2.8,5.4,4,8.2C421.6,102.8,415.9,93.7,400.7,86.2z"/>
	<path class="st0" d="M483.8,222c-25.7-9.3-37.5-27.5-34.7-37c10.5,1.5,19.2,6.2,26.9,14c-0.3-11.1-3-22.5,9.3-29.9
		c2,6.2,4,11.9,5.9,17.5c0.6,1.6,1.5,3.5,1.5,5.3c-0.3,3.7-0.5,7.4-1.6,10.9C489.1,209.5,486.3,215.7,483.8,222z M480.4,217.3
		c-4.2-4.5-8.3-9-12.4-13.6c0.3-0.3,0.6-0.6,0.8-0.8c3.5,3.2,6.9,6.6,10.9,10c-1.5-12.6-19.1-27.3-29.7-25.1
		C451.1,199.2,466.7,214.9,480.4,217.3z M483,214.3c0.3,0.1,0.8,0.1,1.1,0.3c8.1-12.4,8-31.6-0.6-42.2c-3.5,3.8-5.9,8.1-6.6,13.4
		c-0.8,7.4,1.9,14,3.4,21.1c0.3,0.8,0.5,1.6,1,3c1.3-5.3,2.5-9.6,3.5-14c0.3,0.1,0.8,0.3,1.3,0.3C485.2,202,484,208.2,483,214.3z"/>
	<path class="st0" d="M108.4,375.8c0-1,0.3-2,0-3c-2-7.8,0.8-15,3.3-22c0.3-1.3,1.6-3,2.3-3c1.3,0.1,2.8,1.3,3.5,2.3
		c8.3,10,9.6,21.6,7.4,33.9c-0.6,3.5-1.3,6.9-1.6,10.5c-0.3,1.8-1,2.5-2.8,2c-4.8-1.5-9.8-3.2-14.9-4.4c-9.3-2.3-15.6-8.2-20.4-16.2
		c-1.6-2.8-3.5-5.2-5.3-7.8c-1.5-2-1.5-3,1.5-3.8c9-1.9,15.4,2.3,21.6,7.8c1.5,1.3,2.9,2.9,4.4,4.3
		C107.8,376.2,108.1,376.1,108.4,375.8z M114.6,349.7c-7.6,9.5-6.1,31.3,2.5,37c-0.5-4.5-2.5-9-0.5-13.6c1.3,5.9,1.1,12.2,4.3,18.2
		C127.4,380.3,123.8,357.8,114.6,349.7z M114.4,387.2c-5.8-7.8-11.7-14.5-19.7-19.1c-3.5-2-7.8-4-12.4-1.8
		c5.2,15.4,19.2,26,33.8,25.6c-4.4-5.3-11.2-6.2-16.9-9.5c0.3-0.5,0.3-0.8,0.6-1.3C104.5,383,109.1,384.9,114.4,387.2z"/>
	<path class="st0" d="M133.1,137.7c3.2-1,5.7-1.6,8.1-2.5c6.7-2.4,13.6-2.5,20.6-1.3c2.9,0.6,2.5,2.5,1.3,3.8
		c-3,3.4-6.1,6.9-9.6,9.6c-6.4,4.9-14.1,6.7-22.1,7.7c-4.5,0.6-9.2,0.8-14.3,1.3c0.3-1.8,0.3-3.5,0.3-5.2c-0.1-4.3-0.3-8.6-0.3-12.7
		c0-5.8,1.3-11.2,5.2-15.9c4.4-5.3,8.2-11.2,14.3-15C142.6,114.1,141.4,125.2,133.1,137.7z M138.9,143.8c0.3,0.6,0.5,1,0.8,1.6
		c-5.8,2.4-12.2,3.7-16.9,9c15.8-0.6,29.9-3.8,39.1-17.8c-12.9-4.5-32.9,2.5-35.5,12.2C130.2,147,134.4,145.4,138.9,143.8z
		 M136.7,110.5c-12.9,7.2-19.8,23.1-17,39.4c4.7-5.6,3.9-12.6,5.3-18.7c0.5,0.1,1,0.3,1.5,0.3c-0.6,4.8-1.3,9.6-2,14.4
		c5.3-7.4,11.9-14.3,13.6-23.6C138.9,118.1,139.4,114.1,136.7,110.5z"/>
	<path class="st0" d="M471.4,249c4.3,3.8,8.2,6.7,11.2,10.5c3,3.8,5.2,8.3,8.1,13.1c1.3-3,2.1-5.7,3.3-8.3c2.9-6.9,6.2-13.6,15-14.9
		c0.5-0.1,0.8,0,1.3,0c0.3,0.3,0.6,0.5,0.6,0.6c0.3,9.2,0.3,18.3-3.5,26.8c-1.3,2.9-4,5.3-6.3,7.8c-3.9,4.3-8,8.3-12.2,12.9
		c-1.5-1.6-2.8-3-3.9-4.7c-6.1-7.4-12.9-14.4-14.5-24.2c-0.8-4.8-0.8-9.8-0.8-14.9C469.4,252.5,470.4,251.2,471.4,249z M471.7,252.5
		c-2.9,14,4.4,32.7,15.9,39.4c-2.3-6.6-4.2-12.2-6.2-17.9c0.3-0.3,0.8-0.3,1.1-0.5c1.8,4.2,3.7,8.3,5.4,12.4
		C493.6,274,480.9,256.8,471.7,252.5z M491,290c12.7-5.2,21.6-25.5,17.3-39.4c-2.9,2.1-5.8,3.8-8.1,6.2c-2,2.4-3.5,5.3-4.5,8.3
		c-2.1,6.6-3.8,13.1-5.6,19.6c0.3,0.3,0.6,0.3,1,0.5c3-3.9,6.2-8,9.2-12c0.3,0.3,0.6,0.5,1,0.8C497.9,279.3,494.6,284.6,491,290z"/>
	<path class="st0" d="M80.3,297.2c-4.8-4.7-9.8-8.6-14-13.4c-2.5-2.9-5.2-6.7-5.8-10.3c-1.5-6.9-1.6-14.3-2.3-21.5
		c-0.1-0.8,0.3-1.5,0.6-2.5c12.7,2.5,15.6,12.6,18.8,22.8c3-4.5,5.7-9,9-12.9c2.8-3,6.2-5.7,9.5-8.3c2-1.6,3-0.3,3.4,1.5
		c1.5,9.8,0.6,19.2-5.7,27.5c-3.5,4.7-6.7,9.3-10.3,13.9C82.5,295.7,81.1,296.5,80.3,297.2z M81.8,291.5c0.5,0.3,1,0.3,1.3,0.5
		c9.5-11.1,17.5-22.6,14.1-39c-1.8,1.1-3.9,1.9-4.9,3.3c-3.4,4.2-6.3,8.8-9.8,12.9c-4.8,5.4-4,11.2-2.1,17.5
		c3.5-3.4,2.9-9.2,7.6-12.6C85.6,280.3,83.7,285.8,81.8,291.5z M60.5,252.2c-3.2,15.4,2.8,29.3,16.4,38.5c0.3-0.3,0.6-0.3,0.8-0.6
		c-3.5-5.3-6.9-10.7-10.5-16c4.9,2.5,6.9,7.4,10.9,12.1c-1.6-10.2-2.9-19.3-8.1-27.4C67.8,255.8,64.8,253,60.5,252.2z"/>
	<path class="st0" d="M466,366c-2.5-7.8-5.2-15.1-7.2-22.7c-2.1-8.6-0.1-16.7,3.3-24.5c0.6-1.3,1.9-2.5,3-2.9c0.6-0.3,2,1.5,2.9,2.5
		c4.7,6.6,7.2,13.8,7.7,21.7c0.1,0.8,0.3,1.5,0.8,3c2.9-3.5,5.2-6.6,7.6-9.3c4.7-5.4,10.6-8.6,17.9-7.4c0.3,0.3,0.6,0.6,0.5,0.8
		c-3.5,14.6-9.2,27.8-25.4,32.9C473.8,361.4,470.6,363.7,466,366z M467.5,360.4c0-6.9,0-12.9,0-18.8c0.3,0,0.8-0.1,1.1-0.1
		c0.5,4.5,1,9.2,1.5,13.6c2-3.3,4.4-6.7,4.4-10.3c-0.1-5.3-1.5-10.9-3-15.9c-1.3-3.9-3.7-7.2-5.8-11.2
		C458,327,458.2,348.4,467.5,360.4z M500.6,328c-4.8-0.1-9,1.3-12.1,4.4c-4.4,4.7-8.2,10-12,15.1c-1.5,2-2.5,4.5-3.8,6.9
		c4.7-2.8,8.8-5.8,13.8-7.2c-2.4,2.4-5.2,4-7.6,6.1c-2.5,2-4.8,4.3-8.1,6.9C488.7,356.1,497.3,344.6,500.6,328z"/>
	<path class="st0" d="M169.3,83.8c5.6,12.1-2,20.2-8.1,29.5c9.2-2.5,17.8-2.5,26,0.3c1.5,0.5,2.9,1.5,4.3,2.1
		c-1,1.5-1.6,3.2-2.9,4.3c-8.1,6.3-17,10.5-27.6,9.8c-6.2-0.3-12.4-0.5-19.2-0.8c0.3-1.5,0.6-2.4,0.8-3.3c0.6-3.5,1.8-6.9,1.9-10.5
		c0.3-11.6,7.4-18.8,15.8-25.4C163,87.8,165.9,86,169.3,83.8z M189.5,116.2c-8.6-3.2-16.9-3.7-25.6-1.6c-6.2,1.5-9.8,3.9-12.2,8.6
		c4.7-1.5,9-3,13.8-1.8c-5.7,1.6-11.4,3.2-17,4.8C160.7,131.3,182.3,125.8,189.5,116.2z M150.5,120.6c6.7-7.2,13.8-12.9,17.4-21.5
		c1.6-3.9,2.9-8.2,0.6-12.4c-16.8,9.3-22.8,19.2-22.7,35.2c5.3-4.5,5.7-11.2,8.1-17c0.5,0.3,1,0.3,1.5,0.6
		C153.8,110.3,152.2,114.9,150.5,120.6z"/>
	<path class="st0" d="M65.7,208.7c13.1,4.4,13.1,16,15.6,27c1.1-1.3,1.9-2,2.5-2.9c4.4-6.7,10.5-11.7,17.7-15.4
		c3.3-1.6,4.5-1.1,4.4,2.5c-0.3,8.6-2.3,16.8-8.1,23.3c-5.4,6.1-11.7,11.2-17.9,17c-3.7-5.2-6.4-10-10.2-14
		c-8.1-8.5-6.3-18.4-5.6-28.3C64.3,215.1,65,212.4,65.7,208.7z M103.4,218.6c-9,3.8-15,10.3-20.3,17.8c-3,4.4-1.8,8.6-1.5,13.1
		c2.5-3.9,5.2-7.7,7.6-11.6c0.3,0.3,0.6,0.3,0.8,0.6c-2.8,5.3-5.4,10.6-8.2,15.9C96.5,245.9,106.3,229.2,103.4,218.6z M78.9,247.8
		c0.3,0,0.5-0.1,0.6-0.1c-0.3-5.7-0.3-11.2-1-16.9c-0.8-6.2-2-12.4-6.9-17c-1-1-2.5-1.3-3.9-1.9c-0.5,1.1-1,2.3-1.5,3.5
		c-0.3,1.3-0.3,2.5-0.6,3.9c-2.5,13.4,2,24.2,11.6,33.4c0.3-0.1,0.6-0.3,1-0.3c-2.4-5.8-4.7-11.6-7.2-17.4c0.3-0.3,0.8-0.3,1-0.5
		C74.4,238.9,76.6,243.4,78.9,247.8z"/>
	<path class="st0" d="M435.2,136.3c-4.9-9.5-10.1-18.8-3-29.8c11.2,9.8,21.3,19.8,19.1,36.3c-0.6,4.2-0.1,8.5-0.1,13.6
		c-8.1-1.3-15.9-2.4-23.9-4c-7.8-1.6-14.1-6.1-19.2-12.2c-0.8-0.8-1.5-1.9-2-2.9c-1.5-2.9-0.8-3.5,2.3-4.2
		c8.1-1.3,15.9-0.1,23.6,2.9c0.8,0.3,1.6,0.5,2.4,0.6C434.3,136.8,434.7,136.6,435.2,136.3z M446.7,153.2
		c-5.2-4.7-11.4-6.2-17.3-8.5c0.3-0.5,0.3-1,0.5-1.3c4.4,1.5,9,2.9,13.1,4.4c-2.1-6.2-7.2-9-13.1-10.7c-7.4-2.3-15-3.8-22.8-1.6
		C412.6,147.2,431,153.9,446.7,153.2z M444.9,146c-0.6-5.7-2.8-10.3-1.1-15.4c1.6,5.9,1.1,12.6,4.9,18.3c2.5-16.8-3.4-31-17.3-39.6
		c-0.5,3.7-1.5,7.2-1,10.2C431.9,129.7,437.8,137.8,444.9,146z"/>
	<path class="st0" d="M510.8,288.2c-1.6,7.4-2.5,13.8-4.4,19.7c-2,6.3-6.2,11.5-11.7,15.4c-4.4,3-9,6.1-13.6,9.2
		c-10-12.7-16.9-26.6-12.9-43.8c0.3-0.8,0.5-1.6,0.8-2.4c1-2.3,2-2.8,4.2-0.6c5.9,5.7,10.6,12,12.6,20.1c0.3,0.8,0.6,1.6,0.8,2.4
		c0.1,0.3,0.3,0.3,0.8,0.5c3.5-7.6,7.6-14.6,15.1-18.6C504.6,289,507.2,289,510.8,288.2z M471,286.8c-5.9,10.9-0.6,31.8,10.2,39.9
		c-1.5-5.8-2.9-11.7-4.3-17.8c0.5,0.1,1.3,0.1,1.5,0.3c1.5,3.9,2.9,8,4.3,11.9C490,310.3,479.5,293.5,471,286.8z M484.4,326.5
		c19.8-9.2,22.8-22.7,23.1-35.6c-9,0-21.3,16.8-22.1,30.7c3.3-4.3,6.7-8.1,11.6-9.6c-2,2.5-4.7,4.4-6.7,6.7
		C488.1,321.2,486.3,323.8,484.4,326.5z"/>
	<path class="st0" d="M138.9,157.3c0.8,4.5-1.9,7.6-3.9,10.3c-2.3,3.2-5.2,6.4-8.5,8.5c-5.7,3.5-11.7,6.2-17.9,9
		c-3.2,1.5-6.7,2-10.1,3c-1-4.7-1.9-9-2.9-13.4c-0.6-2.8-1.9-5.3-2.1-8.1c-1-8.5,3.7-15.1,7.2-22.1c1.5-3,3.5-5.8,5.4-8.7
		c7.4,4.7,7.4,11.7,6.7,18.8c-0.3,3.5-1.5,7.2-2.3,11.4C119.3,160.5,128.5,156.8,138.9,157.3z M137.1,159.2
		c-12.2-0.3-31.6,7.6-32.7,19.8c3.9-2.5,8-4.9,11.9-7.6c0.3,0.3,0.5,0.8,0.8,1.3c-2.5,1.6-4.8,3.3-7.2,5.2c-2.5,1.9-4.7,3.9-7.8,6.6
		C116.3,183.6,134.8,170.1,137.1,159.2z M106.4,139c-10.7,12.4-13.6,31.7-6.2,42.4c0-6.9,0-13.1,0-19.6c0.3,0,0.8-0.1,1.3-0.1
		c0.5,4.8,1,9.6,1.5,15.4c1.6-4.2,2.5-7.6,4.3-10.7c3.3-5.8,4.2-12.2,3.9-18.6C111,144.5,110.3,140.8,106.4,139z"/>
	<path class="st0" d="M459.3,166.1c-2.8-11.1-6.6-21.5,3-30.7c6.7,8,11.4,16.3,12.9,26c0.3,2,0.3,4.3-0.3,6.3
		c-1.3,6.4-2.9,12.9-4.4,19.6c-4.4-1.3-9-2.8-13.6-4c-7.2-2.1-13.6-5.8-18.8-10.9c-3.4-3.3-5.4-7.8-8-12c-0.6-1-0.1-2.5-0.1-3.8
		C440.9,156.5,450.1,159.9,459.3,166.1z M464.2,178.7c-1.3-6.7-4.5-11.2-10.3-14c-3-1.5-6.2-3.2-9.3-4.2c-4-1.1-8.3-1.6-12.9-2.4
		c3.7,13.1,19.1,23.2,35,25.1c-4.9-3.9-10-7.8-15.1-11.7C456.8,171.9,459.8,176,464.2,178.7z M462.2,138.4c-6.7,6.9-3.9,29.7,4.5,37
		c0.8-4.8-0.6-9.8,2-14.3c0.3,3.2,0,6.3,0,9.5c0,3,0.3,6.3,0.5,9.5C476.6,164.3,473.2,150.7,462.2,138.4z"/>
	<path class="st0" d="M460.9,375.7c3.9-3.2,7.2-6.1,10.7-8.6c5.4-3.8,11.4-5.3,18.2-2.4c-6.3,13.8-14.5,25.1-30.7,27.8
		c-4.3,0.6-8.3,2.1-12.9,3.4c-0.8-4.8-2-9.7-2.5-14.6c-1.3-10.9-0.3-21.3,6.4-30.4c0.5-0.6,0.8-1.5,1.5-2c2.9-2.8,4-2.4,5.8,1.3
		c3,6.7,4.2,13.6,3.5,20.6C460.8,372,460.9,373.4,460.9,375.7z M451.7,386.4c0.3,0.3,0.8,0.3,1.1,0.6c2-3.7,5.2-7.2,6.1-11.1
		c1-4.4,0.8-9.2,0.1-13.8c-0.6-4.4-2.3-8.8-3.5-13.4c-12.1,8.5-12.2,29.5-7.4,41.1c1.3-4.8,2-9.7,2.9-14.6c0.3-1,0.6-2,1-2.9
		c0.6,0.1,1.1,0.3,1.6,0.3C453,377.3,452.3,382,451.7,386.4z M453.1,391.3c13.9,0.3,31.9-13.6,33.4-25.6
		c-8.8-4.9-27.3,12.2-31.3,21.1c4.7-2.5,9-5.3,14.4-4.9C464.2,384.4,457.8,386.1,453.1,391.3z"/>
	<path class="st0" d="M88.3,333.9c-6.9-5.4-13.6-10.7-20.2-15.9c-0.8-0.6-1.5-1.5-2-2.4c-4.2-8.1-5.7-16.8-6.7-26.3
		c13.6,0.3,17.5,10.9,22.8,21.3c1-2.5,1.6-4.2,2.3-5.7c2.4-7.2,5.7-14,12-18.7c2.3-1.6,3.5-1.5,4.4,1.3c3.5,13.6,1.6,26.4-6.9,37.9
		C91.7,328,90.1,330.9,88.3,333.9z M98.5,287.2c-11.5,7.6-17.3,25.1-11.6,35.5c1.5-4.4,1.1-9.5,4.7-12.9c-1.3,6.2-3.2,12-2.5,18.8
		C99.4,316.1,103.1,302.7,98.5,287.2z M84,322c0.3-0.1,0.5-0.3,0.8-0.3c-2.5-5.6-4.7-11.2-7.6-16.8c-1.6-3.3-3.9-6.6-6.3-9.2
		c-2.4-2.5-5.6-3.9-9.3-4.2c1.9,21.6,7.8,29,23.7,35.7c-4.4-4.8-8.8-9.7-13.1-14.6c0.3-0.3,0.6-0.6,1-0.8
		C76.6,315.2,80.3,318.5,84,322z"/>
	<path class="st0" d="M92.4,199.4c1.8-1.3,3.4-2.3,4.7-3.4c5.7-5.6,12.7-8.5,20.3-10.1c3.5-0.8,2.9,1.6,2.5,3.4
		c-1.6,7.6-4.7,14.6-10.9,19.3c-7.2,5.4-15.4,9.8-22.8,14.5c-1-0.8-1.3-1-1.5-1.3c-1.5-3.5-2.8-7.4-4.7-10.9c-5.4-9.8-5.2-19.8-1-30
		c1.5-3.5,3.2-7.2,5.2-11.1C95.3,177.7,92.9,188.5,92.4,199.4z M118.3,187.8c-1.9,0.3-3.5,0.6-5.2,1.1c-6.7,2-12,6.7-17.7,10.6
		C90.5,203,91,208,89,213.1c4.2-3.5,7.6-6.7,11.1-9.6c0.3,0.3,0.6,0.6,0.8,1c-3.9,4.7-9.8,8-12.4,14.5
		C106.1,212,116.1,201.5,118.3,187.8z M87.8,210.7c2.5-8,3.9-15.9,3.5-24.1c-0.3-5.3-1.5-10.5-6.2-13.9c-9.7,19.1-10.3,26.5,1,42.3
		c-1-6.3-2-12.6-3-18.8c0.3-0.1,0.8-0.3,1.1-0.3C85.2,201.1,86.5,205.8,87.8,210.7z"/>
	<path class="st0" d="M208.4,294.9c0-5.8,0.1-11.6,0-17.4c0-2.3,0.6-3.8,2.9-4c2.1-0.3,3.7,0.6,4.7,2.9c2.5,6.2,4.5,12.4,8,18
		c4.7,7.6,11.1,13.6,20.4,15.8c8.6,2,19.6-1.3,24-7.8c5.9-8.6,3.8-22-5.3-27c-6.9-3.8-14.9-5.8-22.3-8.6c-5.3-2-11.1-3.5-15.9-6.7
		c-12.4-7.8-15.9-19.6-14.3-33.6c0.8-7.2,4.3-13.1,8.3-18.4c8.1-10.6,19.1-13.4,31.6-10.1c4,1,8,3.4,11.5,5.8
		c4.2,2.8,6.7,2.4,9.5-1.9c1-1.5,3-1.9,4.7-2.9c0.8,1.5,2.3,3,2.3,4.5c0.3,9.5,0,18.8,0.3,28.4c0,2.4-0.6,4.2-2.9,4.4
		c-2.3,0.3-2.9-1.3-3.7-3.4c-4.4-13.1-12.1-23.6-26.1-27c-7.8-2-14.4,1.6-19.3,7.6c-4.2,4.8-4.7,14.4-1,19.7c3.5,5.2,9,7.6,15,9.5
		c8.7,2.8,17.4,5.2,25.6,8.8c11.2,4.8,16.9,14.1,18.2,26.1c0.8,7.2,0.1,14.5-3.2,21.1c-5.3,10.7-13.6,17.7-25.9,19.7
		c-11.6,2-21.6-1.5-30.7-8.8c-3.2-2.5-3.5-2.5-5.4,1c-0.8,1.5-1.5,3.5-2.9,4.4c-1.5,1-3.7,1.8-5.3,1.5c-1-0.3-2-2.5-2-4.2
		C208.3,306.6,208.5,300.8,208.4,294.9L208.4,294.9z M274.9,235c0.5-0.3,1-0.3,1.5-0.5c0-3,0-6.3,0-9.5c0-7.2,0-14.1-0.1-21.3
		c0-0.8-0.6-1.6-1-2.5c-0.8,0.3-1.9,0.8-2.5,1.3c-0.5,0.3-0.8,1.3-1.1,1.8c-2.5,4-5.4,4.7-9.5,1.9c-1-0.8-2-1.6-3-2.4
		c-11.2-7.7-27.9-8.1-37.9,3.9c-3.7,4.4-6.7,9.8-8.5,15.4c-3.3,10.5-1.3,20.4,5.3,29.5c4.5,6.2,11.2,9,18,11.1
		c6.9,2.4,14,3.9,20.8,6.6c6.7,2.5,13.1,6.3,15,14.4c1.3,5.2,0.8,10.2-1,15.4c-3.4,9.7-16.4,14.5-27.4,12
		c-10.1-2.1-16.9-8.7-21.8-17c-2.9-4.8-4.8-10.5-7.2-15.6c-0.6-1.5-1.8-2.8-2.5-4.2c-0.3,0.1-0.6,0.3-1,0.3c-0.3,1-0.8,2-0.8,3
		c-0.1,11.2-0.1,22.5,0,33.7c0,1,1,2.5,1.5,2.5c1.3,0,2.8-0.6,3.5-1.5c1.3-1.5,2-3.2,2.9-4.8c1.6-2.9,3.8-3.2,6.4-1.1
		c1.5,1.3,3.2,2.4,4.7,3.7c13.6,10.9,42.2,9.2,51.1-15.9c4-11.6,2.9-23.1-4.4-33.4c-2.1-3-5.2-6.1-8.5-7.4
		c-7.4-3.2-15.1-5.6-22.8-8.2c-5.8-2-11.7-3.9-16.9-7.6c-8.1-5.6-9-20.8-1.3-27.9c10.3-9.5,20.9-8.6,30.9-1.1
		c7.7,5.8,13.6,13.4,16.2,22.8C273.5,233.3,274.4,234.2,274.9,235z"/>
	<path class="st0" d="M310.4,260.1c0,4.4,0,8,0,11.4c0,10.2,0,20.4,0,30.5c0,7.8,0.3,8,8.1,8.8c1.6,0.3,3.9,1.6,4.4,3
		c0.5,1.3-1,3.2-2,4.7c-0.3,0.5-1.5,0.6-2.3,0.6c-10.2,0-20.3,0-30.5,0c-2.9,0-4.7-1.5-4.8-4.4c-0.1-3,1.9-3.9,4.7-4.2
		c8-0.6,8.2-0.8,8.2-9c0-29.3,0-58.4,0-87.7c0-1.3-0.1-2.5-0.1-3.9c0.1-3-1.5-4.5-4.5-4.4c-1.5,0-2.9,0.1-4.3-0.1
		c-2.5-0.3-4.3-1.8-4.3-4.4c0.1-2.9,1.9-4.2,4.7-4.2c22.5,0,44.9,0,67.4,0c3.9,0,5.6,1.6,5.7,5.4c0.3,9,0.5,17.8,0.8,26.6
		c0.1,2.5-0.3,4.7-3.2,4.8c-2.9,0.3-3.5-2-4-4.4c-1.1-4.4-2-8.8-3.9-12.7c-3.5-7.6-9.7-11.7-18.6-11.2c-5.6,0.3-11.1,0.3-16.8,0
		c-3.2-0.1-4.4,1.5-4.4,4.2c-0.1,13.1-0.1,26.2-0.1,39.4c0,2,0.8,2.5,2.8,2.5c8.7,0.3,15.9-2.5,20.1-10.5c1-1.6,0.8-3.9,1.6-5.8
		c0.6-1.3,2.3-2.3,3.4-3.4c1,1.5,3,2.8,3,4.2c0.3,13.1,0.3,26.5,0,39.8c0,1.5-2,2.9-3,4.2c-1.1-1.1-2.9-2.1-3.2-3.5
		c-1.8-7.2-5.2-12.9-12.7-15C318.7,260.7,314.8,260.6,310.4,260.1z M338.9,233.9c-0.3,0-0.8,0.1-1.3,0.1c-0.3,1-1,2-1.3,3.2
		c-3.3,11.1-9.3,15.8-20.9,16.2c-6.7,0.3-6.7,0.3-6.7-6.2c0-12-0.1-23.9-0.1-35.8c0-5.3,1.9-7.6,6.7-7.6c6.2-0.1,12.2-0.1,18.4,0
		c6.6,0.1,11.5,3.2,15.4,8.1c4,4.7,5.3,10.7,6.7,16.7c0.3,1.3,1.5,3.5,2.4,3.5c2.5,0.1,1.6-2.4,1.6-3.8c-0.3-8-1-15.8-1.5-23.6
		c-0.3-5.3-0.3-5.4-5.3-5.4c-20.6-0.1-41.1-0.1-61.7-0.1c-1.3,0-2.8-0.3-3.9,0.3c-1,0.3-1.6,1.5-2.5,2.1c0.8,0.8,1.5,2,2.5,2.4
		c1.5,0.5,3,0.3,4.5,0.3c4.4,0.5,5.8,2,5.8,6.3c0,31.6,0,63.2-0.1,94.8c0,4.5-1.1,5.9-5.4,6.7c-1.5,0.3-3,0.1-4.5,0.5
		c-1,0.3-1.9,1.5-2.8,2.1c0.8,0.8,1.6,2.4,2.5,2.5c2.3,0.3,4.7,0.1,7.2,0.1c7.8,0,15.6,0.1,23.3-0.1c1.1,0,2.3-1.5,3.4-2.3
		c-1.3-0.8-2.3-1.9-3.5-2.5c-1-0.3-2,0-3-0.3c-4.3-0.6-6.1-2.5-6.1-6.9c0-14.5,0.1-28.8,0.1-43.4c0-1,0.1-2,0.3-3.2
		c6.9-0.1,13.4,0,19.2,3.5c5.9,3.5,8.1,9.6,10.1,16c1-1.3,1.6-2.5,1.6-3.8c0.1-12.2,0.1-24.6,0-37
		C339.8,236.5,339.1,235.2,338.9,233.9z"/>
	<path class="st0" d="M200.1,367.9c-2-0.5-3.4-0.8-4-1c1.1-4,2.1-7.8,3.4-12.2c1.3,0.3,3.5,0.6,5.7,1.5c3.8,1.3,4,3.5,1.5,6.6
		c-0.8,0.8-0.6,2.8-0.6,4c0,0.6,0.8,1.1,1.1,1.6c-0.6,0.3-1.5,1.1-2,1c-0.8-0.3-1.6-1-2-1.6c-0.3-0.6,0-1.6-0.3-2.5
		c-0.3-1-1-1.9-1.6-2.9c-0.6,1-1.3,2-1.9,3C199.3,366,199.7,366.7,200.1,367.9z M203.1,361.7c0.6,0.3,1.1,0.6,1.6,0.8
		c0.5-1,1.5-2.3,1.3-3c-0.3-1-1.5-1.8-2.5-2.1c-0.3-0.1-1.6,1.3-1.8,2C201.7,360,202.6,360.9,203.1,361.7z"/>
	<path class="st0" d="M330.1,365.8c2.9-0.6,5.2-1.3,7.4-1.6c3-0.3,4.4,1,4.4,4.3c0,0.6,0.5,1.5,0.8,2c2,2.5,1.6,4.5-1.5,5.8
		c-2.4,1-4.8,1.5-7.6,2.1C334.9,373.4,333.3,369.5,330.1,365.8z M337.1,377.1c2-1.6,3.2-2.5,4.2-3.5c0.3-0.3-0.6-1.9-1.3-2
		c-1-0.3-3-0.1-3.2,0.3C336.6,372.9,337,374.3,337.1,377.1z M337.5,364.6c-1.1,1.5-2,2.1-2.4,3c-0.1,0.5,1.5,1.9,1.6,1.8
		c1-0.3,2-1.3,2.5-2C339.8,367.2,338.6,366,337.5,364.6z"/>
	<path class="st0" d="M273.8,382.7c-2-2.9-3.9-5.7-5.9-8.6c-2.8,2.3-2.5,5.6,0.5,8c-2,0-3.7,0-5.3,0c1.6-4,2.5-8.1,1-12.4
		c5.8-1.6,5.7,5.2,10,7.6c-0.3-2.5-0.3-4.8-0.5-7.2c0.6,0,1.9,0.1,3,0.3c-0.3,2-0.8,4-1,6.1c-0.3,2-0.3,4.2-0.5,6.2
		C274.5,382.6,274.2,382.6,273.8,382.7z"/>
	<path class="st0" d="M232.9,377.3c1-4.7,1.9-8.6,2.9-12.7c1.8,0.3,4.4,0.8,6.7,1.5c2.5,0.8,3.2,2.5,2,4.9c-0.3,0.8,0.1,2.1-0.3,3
		c-0.6,1.5-1.5,3.8-2.5,3.8C238.6,378.2,235.3,377.6,232.9,377.3z M238.4,377.8c1.5-1.3,2.5-2,3.4-2.9c-1.3-1-2.4-2-3.7-2.5
		c-0.3-0.1-1.8,1.6-1.9,2.5C236.2,375.5,237.3,376.4,238.4,377.8z M236.8,371c2.3-0.3,3.8-0.6,5.2-1c0.3-0.1,0.3-2.1-0.3-2.4
		c-1.1-0.6-2.5-0.6-3.8-1C237.8,368.1,237.6,368.9,236.8,371z"/>
	<path class="st0" d="M210.8,366.3c0-3.8,3.2-6.7,7.2-6.7c3,0.1,5.7,2.9,5.8,6.3c0,3.5-2.8,6.7-6.2,6.7
		C213.4,372.9,210.8,370.1,210.8,366.3z M221.4,363.9c-0.8-0.6-2-2.1-3.5-2.5c-1.5-0.5-4.7,3.8-4.4,6.1c0.3,2,1,4.3,3.9,4
		C219.6,371.3,221.4,368.7,221.4,363.9z"/>
	<path class="st0" d="M291.2,376.8c-0.1,3.5-2.9,6.6-6.2,6.6c-2.9-0.1-6.7-3.8-6.7-6.7c0-3.2,3.5-6.6,6.9-6.6
		C288.8,370.4,291.2,373.2,291.2,376.8z M288.5,376.9c0-2.8-0.3-5.4-3.4-5.3c-2.8,0-3.5,2.5-3.3,4.8c0.3,2.4-0.5,5.3,3.4,5.3
		C288.8,381.7,288.2,378.8,288.5,376.9z"/>
	<path class="st0" d="M314.4,368.2c1.1-0.3,2.5-0.3,3.5-0.6c0.3,3,0.3,5.9,1.1,8.6c0.3,1,2.9,1.9,4.4,1.8c0.8,0,2.3-2,2.1-3.2
		c-0.3-2.5-1.1-5.2-1.8-8c0.5-0.1,1.6-0.5,2.8-0.8c0.3,2.8,0.3,5.2,0.6,7.6c0.5,3.4-0.8,5.6-4.2,6.2c-3.5,0.6-5.8-0.8-6.7-4.2
		C315.9,373.5,315.2,371.1,314.4,368.2z"/>
	<path class="st0" d="M186.4,364.2c-1.9-0.5-3.5-0.8-4.4-1c1-4,1.9-7.8,3-12.4c2,0.6,5.2,1.3,8,2.5c0.8,0.3,1.6,2.5,1.3,3.5
		s-2,1.6-3,2.1c-0.5,0.3-1.1,0-1.8,0C185.1,359.1,184.5,359.9,186.4,364.2z M186.7,357.2c2.3,0.3,4.7,1.8,5.3-1.5
		c0.1-0.6-1.6-2.5-2.5-2.5C187.3,353.1,186.4,354.7,186.7,357.2z"/>
	<path class="st0" d="M260.1,374.7c-0.3,3.4-3.5,6.7-6.7,6.4c-3.5-0.3-6.3-3.4-6.2-6.9c0.3-3.7,3.5-6.7,7.2-6.4
		C257.4,367.9,260.4,371.5,260.1,374.7z M249.9,375.3c-0.3,2.4,0.5,4.3,3.5,4.3c2.9,0,4.3-2,4.2-6.2c0-2.5-1-4-3.7-4
		C251.2,369.4,249.9,371,249.9,375.3z"/>
	<path class="st0" d="M394.8,356.9c0,3.5-2.5,6.3-5.8,6.3c-3.9,0-6.9-3.2-6.7-7.2c0.1-3.8,2.9-6.3,6.7-6.2
		C392.3,350.1,394.8,353,394.8,356.9z M392.3,359.1c-0.1-5.4-1.5-8-3.9-7.6c-2.4,0.3-3.9,1.5-3.9,4c0,3.4,2.3,6.7,4.7,6.2
		C390.5,361.4,391.8,359.6,392.3,359.1z"/>
	<path class="st0" d="M306.7,382.2c-1.6,0.1-3.5,0.3-4.4,0.3c-0.5-4.3-0.8-8.2-1.3-12.9c2,0,5.2-0.3,8.2,0.1c1,0.1,2.4,1.5,2.5,2.5
		c0.1,1.1-0.8,2.5-1.6,3.4c-0.6,0.6-1.6,0.6-2.5,1c-1,0.5-2.9,1.3-2.8,1.6C304.8,379.6,305.7,380.7,306.7,382.2z M303.8,374.8
		c0.3,0.3,0.6,0.6,0.8,0.8c1.5-0.5,3-0.8,4.7-1.6c0.3-0.1,0-2.4-0.6-2.5c-1-0.5-2.9-0.8-3.5-0.3
		C304.1,371.8,304.1,373.5,303.8,374.8z"/>
	<path class="st0" d="M378.4,353.6c0.3,1.3,0.5,2.5,1,4.8c-2.9-2.8-4.9-5.4-8-2.3c-1.5,1.6-0.1,6.9,1.6,8.1c2.8,1.6,4.4,0.8,6.6-3.2
		c0.3,0.3,0.6,0.3,0.8,0.5c-0.8,1.3-1.3,2.9-2.4,3.9c-2.3,2-4.8,1.5-7.2-0.1c-2.9-1.9-3.2-4.8-2.4-8
		C369.7,354,372.1,353.2,378.4,353.6z"/>
	<path class="st0" d="M351.6,371.8c4.2-0.8,4.2-0.8,5.2-4.7c2.5,3.5,2.4,3.9-1.6,5.3c-2,0.8-4.2,1.3-6.4,2
		c0.8-5.2-1.3-10.2-4.9-11.9c2.3-0.6,4-1.3,5.2-1.5C350,364.7,350.9,368.2,351.6,371.8z"/>
	<path class="st0" d="M363,370.5c1-4.2-0.6-9.7-3.8-12.1c1.9-0.6,3.4-1.1,4.8-1.6c-0.3,4.7,0.6,8.6,3.7,12.2
		C366.4,369.5,364.8,369.9,363,370.5z"/>
</g>
</svg>
