<svg version="1.0" xmlns="http://www.w3.org/2000/svg"
                        width="1280.000000pt" height="960.000000pt" viewBox="0 0 1280.000000 960.000000"
                        preserveAspectRatio="xMidYMid meet">
                        <metadata>
                        Created by potrace 1.15, written by Peter Selinger 2001-2017
                        </metadata>
                        <g transform="translate(0.000000,960.000000) scale(0.100000,-0.100000)"
                        fill="#000000" stroke="none">
                        <path d="M7625 6603 c-84 -10 -198 -38 -265 -66 -63 -26 -88 -44 -160 -116
                        -47 -47 -98 -94 -113 -104 -16 -10 -41 -45 -59 -83 -32 -67 -76 -108 -164
                        -152 -53 -27 -151 -144 -165 -197 -14 -52 -26 -65 -58 -65 -27 -1 -65 -34
                        -112 -100 -51 -69 -65 -116 -58 -184 3 -21 87 -106 106 -106 18 0 16 -6 -7
                        -38 -21 -29 -22 -44 -17 -187 2 -66 9 -103 25 -139 21 -47 21 -51 6 -105 -8
                        -31 -18 -67 -20 -81 l-4 -25 10 24 c6 13 13 21 17 17 4 -3 -3 -26 -15 -50 -19
                        -36 -20 -48 -11 -75 9 -24 8 -43 -1 -77 -10 -35 -10 -63 -1 -132 14 -100 13
                        -171 -3 -191 -9 -11 -8 -13 4 -9 19 6 40 -40 41 -91 1 -32 2 -31 11 17 5 28
                        14 52 19 52 6 0 8 -3 5 -8 -4 -8 20 -111 28 -120 3 -2 8 14 12 37 4 23 11 44
                        15 47 12 7 11 1 -7 -68 -8 -33 -14 -67 -12 -77 2 -9 12 18 22 59 10 41 21 79
                        23 84 8 12 23 -15 23 -44 1 -19 3 -22 9 -10 5 8 9 32 8 53 0 20 4 42 11 49 9
                        9 12 -9 12 -80 0 -96 15 -124 26 -51 8 46 24 35 24 -18 0 -60 -14 -77 -92
                        -111 -40 -18 -89 -41 -109 -52 -27 -14 -44 -17 -65 -11 -46 13 -132 4 -158
                        -18 -6 -5 -26 -12 -45 -14 -19 -3 -37 -11 -41 -17 -4 -7 -10 -12 -13 -12 -25
                        0 -47 -13 -53 -32 -4 -11 -11 -24 -17 -28 -7 -4 -7 -11 1 -21 10 -12 9 -16 -3
                        -20 -8 -4 -12 -13 -9 -20 6 -17 -28 -24 -159 -34 -69 -5 -96 -11 -120 -29 -18
                        -12 -51 -35 -73 -50 -23 -15 -50 -42 -60 -58 -9 -17 -41 -64 -71 -105 -57 -79
                        -61 -91 -37 -115 25 -25 53 -19 92 20 30 30 37 33 44 20 5 -9 16 -16 23 -16
                        10 0 15 -10 15 -30 0 -39 39 -118 62 -126 37 -11 51 15 77 146 9 45 17 59 44
                        78 18 12 36 22 40 22 8 0 -31 -67 -60 -103 -29 -36 -30 -82 -2 -97 29 -16 59
                        6 88 63 34 65 60 86 130 102 64 16 102 8 127 -24 13 -16 142 -22 180 -8 21 7
                        21 7 8 -45 -8 -29 -14 -62 -14 -75 0 -12 -23 -56 -50 -97 -54 -79 -111 -209
                        -151 -343 -22 -76 -26 -83 -49 -83 -28 0 -62 -45 -66 -90 -2 -13 -8 -26 -14
                        -28 -5 -2 -10 -12 -10 -23 0 -11 -5 -28 -11 -38 -8 -11 -9 -29 -4 -47 5 -16 8
                        -32 7 -35 -2 -12 55 -59 135 -111 45 -29 88 -57 96 -63 13 -9 12 -30 -13 -170
                        -16 -88 -43 -201 -60 -252 -18 -56 -30 -112 -30 -145 0 -30 -6 -76 -13 -103
                        -16 -62 -13 -159 7 -205 26 -63 135 -139 225 -157 20 -4 39 -8 44 -9 4 -1 19
                        -2 33 -3 l27 -1 -6 -82 c-7 -95 -45 -223 -103 -342 -51 -106 -56 -168 -20
                        -231 46 -78 139 -130 274 -155 111 -20 190 18 236 113 15 30 42 124 61 218 43
                        202 59 254 75 254 17 0 40 -78 40 -136 0 -54 -39 -214 -77 -314 -19 -50 -38
                        -81 -69 -110 -23 -22 -48 -53 -53 -68 -23 -61 -7 -179 25 -191 32 -12 263 -36
                        349 -36 110 0 181 19 219 59 51 53 113 320 103 436 -4 33 -18 94 -33 135 -22
                        63 -27 96 -31 210 -5 133 -5 135 20 162 32 35 51 90 51 153 0 64 -65 205 -118
                        257 l-37 36 20 43 c11 24 36 82 55 129 37 91 128 300 149 339 9 19 22 24 57
                        27 135 9 250 34 250 55 0 6 4 8 8 5 17 -10 54 84 59 152 9 122 -43 285 -98
                        305 -16 6 -29 15 -29 19 0 4 -6 8 -14 8 -23 0 -35 56 -46 210 -13 198 -13 197
                        10 203 18 5 20 14 20 97 0 83 -2 92 -20 97 -28 7 -35 76 -21 195 7 54 9 108 6
                        119 -4 12 -2 65 5 120 l12 98 62 -31 c59 -30 162 -95 217 -137 14 -11 46 -48
                        70 -82 24 -33 59 -81 77 -105 28 -39 32 -50 27 -92 -3 -35 1 -58 14 -83 73
                        -135 93 -167 123 -205 18 -23 46 -49 61 -58 26 -14 29 -21 27 -64 -5 -106 2
                        -121 55 -108 29 7 47 37 54 90 6 36 9 40 53 52 44 13 49 13 110 -15 34 -15 85
                        -42 112 -59 26 -17 60 -34 76 -37 15 -3 42 -21 60 -40 l32 -33 2 -116 c2 -99
                        5 -120 23 -144 25 -34 58 -40 73 -13 6 12 12 53 13 91 l2 70 46 -50 c33 -36
                        53 -50 73 -50 54 0 41 57 -35 156 -21 28 -39 57 -39 65 0 9 -12 35 -28 60 -15
                        24 -33 55 -40 69 -26 51 -163 177 -287 265 -16 11 -18 17 -9 32 12 20 10 77
                        -6 117 -10 28 -102 147 -144 188 -17 17 -39 28 -57 28 -24 0 -35 11 -76 72
                        -26 39 -63 96 -81 127 -41 70 -111 142 -227 236 -103 83 -245 220 -359 347
                        -72 80 -85 90 -170 126 -50 22 -106 43 -124 47 -18 4 -36 14 -39 23 -13 34
                        -64 101 -82 107 -15 4 -19 20 -25 78 -8 83 4 102 59 91 22 -4 35 -1 44 10 8 9
                        19 16 25 16 14 0 68 54 61 61 -2 3 4 27 14 55 29 76 36 137 18 165 -17 26 -12
                        63 15 144 9 26 14 82 13 165 l-1 125 -53 104 c-47 94 -85 213 -74 234 2 4 12
                        7 22 7 10 0 26 9 36 20 10 11 26 20 35 20 10 0 34 11 54 25 38 26 99 34 112
                        14 9 -15 125 -69 148 -69 11 0 35 -5 53 -12 32 -12 33 -14 33 -65 0 -53 25
                        -119 56 -151 8 -7 14 -18 14 -23 0 -5 3 -8 8 -7 4 1 19 -6 35 -16 15 -10 48
                        -21 72 -24 137 -15 254 127 214 258 -25 81 -98 151 -164 157 -55 6 -99 3 -109
                        -7 -6 -6 -16 -10 -22 -10 -13 0 -157 208 -193 277 -19 38 -99 105 -147 123
                        -14 6 -60 10 -102 10 -42 0 -93 4 -112 9 -45 11 -126 18 -165 14z m-1014
                        -2196 c-10 -9 -11 -8 -5 6 3 10 9 15 12 12 3 -3 0 -11 -7 -18z m9 -47 c0 -5
                        -7 -10 -16 -10 -8 0 -12 5 -9 10 3 6 10 10 16 10 5 0 9 -4 9 -10z m90 -36 c0
                        -8 -5 -12 -10 -9 -6 4 -8 11 -5 16 9 14 15 11 15 -7z m302 -2406 c-4 -4 -18 3
                        -29 16 l-22 25 27 52 27 52 3 -68 c2 -37 -1 -72 -6 -77z"/>
                        </g>
                        </svg>