<svg version="1.0" xmlns="http://www.w3.org/2000/svg"
                            width="877.000000pt" height="1280.000000pt" viewBox="0 0 877.000000 1280.000000"
                            preserveAspectRatio="xMidYMid meet">
                            <metadata>
                            Created by potrace 1.15, written by Peter Selinger 2001-2017
                            </metadata>
                            <g transform="translate(0.000000,1280.000000) scale(0.100000,-0.100000)"
                            fill="#000000" stroke="none">
                            <path d="M3846 11484 c-113 -21 -279 -78 -348 -121 -74 -44 -223 -196 -305
                            -311 -108 -150 -203 -350 -290 -607 -60 -178 -117 -389 -229 -843 -52 -213
                            -111 -445 -130 -517 -47 -170 -149 -395 -269 -595 -113 -188 -151 -266 -166
                            -342 -10 -51 -9 -61 9 -100 33 -67 97 -100 254 -133 25 -5 26 -7 17 -38 -24
                            -80 -60 -260 -79 -385 -21 -141 -49 -597 -37 -608 4 -4 38 -14 76 -23 l69 -16
                            -59 -80 c-292 -397 -465 -899 -531 -1540 -36 -355 3 -1149 63 -1266 28 -57 89
                            -114 156 -148 50 -25 65 -39 104 -102 59 -94 79 -133 79 -157 0 -10 -11 -51
                            -25 -91 -13 -40 -30 -99 -36 -132 l-12 -61 -121 -56 c-330 -153 -519 -266
                            -622 -374 -146 -152 -165 -268 -124 -787 11 -141 24 -341 28 -446 l7 -190 50
                            -7 c121 -18 600 -70 810 -88 383 -32 685 -43 1040 -37 436 8 815 39 1322 108
                            l163 22 21 36 c62 102 269 526 289 591 31 99 37 210 16 281 -35 121 -140 252
                            -389 487 l-138 131 -65 6 c-35 4 -64 11 -64 15 0 5 18 24 40 43 30 26 55 37
                            103 45 177 31 239 41 307 51 112 16 227 30 302 36 l67 5 5 -32 c3 -18 8 -71
                            11 -118 5 -83 10 -117 40 -330 9 -58 20 -141 26 -185 5 -44 12 -88 15 -97 4
                            -13 -7 -20 -50 -32 l-54 -16 48 -93 c100 -189 103 -277 22 -587 -36 -139 -49
                            -275 -32 -353 22 -106 58 -124 195 -95 152 31 362 95 774 234 581 196 763 237
                            1031 231 117 -2 128 0 170 23 59 33 64 64 19 109 -58 59 -243 138 -409 175
                            -49 11 -156 15 -440 18 l-375 2 -143 -31 c-99 -21 -145 -27 -147 -19 -4 12
                            -35 447 -35 484 0 13 -4 20 -10 17 -13 -8 -14 -11 14 182 56 386 70 531 70
                            753 1 178 -2 226 -17 280 -41 143 -108 229 -221 280 -101 45 -156 54 -364 55
                            -128 1 -196 5 -204 13 -8 8 -5 12 13 16 62 14 146 25 276 37 122 11 144 16
                            149 31 3 10 9 16 14 13 13 -8 145 42 235 88 159 82 312 220 411 368 25 38 47
                            69 49 69 2 0 16 -37 30 -82 15 -46 35 -91 43 -101 9 -10 54 -37 99 -59 77 -38
                            91 -42 161 -42 l77 1 203 107 c111 60 202 113 202 119 0 14 -320 567 -329 567
                            -3 0 -58 -16 -121 -35 -63 -19 -115 -35 -116 -35 0 0 8 26 18 57 15 45 17 62
                            8 81 -10 22 -15 24 -65 20 l-55 -5 -10 36 c-5 20 -18 66 -29 102 l-19 67 29
                            43 c16 24 38 68 50 98 35 93 7 140 -95 163 l-59 13 -33 115 c-54 194 -105 283
                            -209 369 -81 67 -322 180 -484 226 -13 4 -41 23 -64 44 l-40 36 48 10 48 11
                            58 224 c32 124 59 228 59 232 0 4 -24 21 -52 38 l-53 31 50 -6 c48 -6 53 -4
                            120 43 93 66 189 168 220 234 89 190 -52 377 -382 508 -57 22 -107 40 -113 40
                            -13 0 -13 38 0 275 16 296 6 266 106 321 46 26 99 60 117 75 l32 27 -1 108 c0
                            94 -4 119 -28 179 -31 80 -88 181 -155 273 -25 35 -53 74 -61 87 -14 21 -124
                            148 -350 405 -200 226 -322 391 -397 538 -62 119 -59 147 41 382 19 47 36 95
                            36 106 0 26 13 38 65 55 49 16 66 14 129 -18 100 -51 212 -186 288 -349 16
                            -35 33 -66 37 -68 16 -11 90 35 129 79 83 94 132 226 132 355 0 65 -22 200
                            -45 276 l-15 51 -129 61 c-154 74 -177 84 -391 172 -223 91 -357 131 -605 180
                            -145 29 -450 37 -569 14z m2017 -5337 c98 -116 157 -229 201 -381 l26 -87 -31
                            -39 c-33 -41 -48 -48 -276 -139 -68 -26 -123 -44 -123 -38 0 5 20 72 45 149
                            101 315 110 488 29 625 -13 23 -24 44 -24 48 0 12 109 -86 153 -138z m-1080
                            -750 c93 -113 259 -329 255 -333 -2 -1 -55 -12 -119 -23 -64 -11 -123 -23
                            -131 -26 -12 -5 -17 6 -21 47 -6 45 -85 394 -103 453 -7 20 -7 20 16 0 12 -11
                            58 -64 103 -118z"/>
                            </g>
                            </svg>