<?xml version="1.0" encoding="UTF-8" standalone="no"?>
<!-- Generator: Adobe Illustrator 25.0.0, SVG Export Plug-In . SVG Version: 6.00 Build 0)  -->

<svg
   version="1.1"
   id="Layer_1"
   x="0px"
   y="0px"
   viewBox="0 0 561.5 561.5"
   style="enable-background:new 0 0 561.5 561.5;"
   xml:space="preserve"
   sodipodi:docname="logo.svg"
   inkscape:export-filename="C:\Users\Raxcu\Downloads\logo.svg"
   inkscape:export-xdpi="96"
   inkscape:export-ydpi="96"
   inkscape:version="1.4 (86a8ad7, 2024-10-11)"
   xmlns:inkscape="http://www.inkscape.org/namespaces/inkscape"
   xmlns:sodipodi="http://sodipodi.sourceforge.net/DTD/sodipodi-0.dtd"
   xmlns="http://www.w3.org/2000/svg"
   xmlns:svg="http://www.w3.org/2000/svg"><defs
   id="defs37"><inkscape:path-effect
     effect="mirror_symmetry"
     start_point="284.75,0"
     end_point="284.75,561.5"
     center_point="284.75,280.75"
     id="path-effect731"
     is_visible="true"
     lpeversion="1.2"
     lpesatellites="#g741"
     mode="vertical"
     discard_orig_path="false"
     fuse_paths="false"
     oposite_fuse="false"
     split_items="true"
     split_open="false"
     link_styles="false" /><inkscape:path-effect
     effect="mirror_symmetry"
     start_point="284.05217,7.5"
     end_point="284.05217,555.4004"
     center_point="284.05217,281.4502"
     id="path-effect690"
     is_visible="true"
     lpeversion="1.2"
     lpesatellites="#path690"
     mode="free"
     discard_orig_path="false"
     fuse_paths="false"
     oposite_fuse="true"
     split_items="false"
     split_open="false"
     link_styles="false" /><inkscape:path-effect
     effect="slice"
     start_point="284.05216,7.5"
     end_point="284.05216,555.4"
     center_point="284.05216,281.45"
     id="path-effect689"
     is_visible="true"
     lpeversion="1.2"
     lpesatellites="#path689"
     allow_transforms="true" /><inkscape:path-effect
     effect="slice"
     start_point="284.05216,555.4"
     end_point="284.05216,7.5"
     center_point="284.05216,281.45"
     id="path-effect687"
     is_visible="true"
     lpeversion="1.2"
     lpesatellites=""
     allow_transforms="false" /><inkscape:path-effect
     effect="mirror_symmetry"
     start_point="284.05216,555.4"
     end_point="284.05216,7.5"
     center_point="284.05216,281.45"
     id="path-effect686"
     is_visible="true"
     lpeversion="1.2"
     lpesatellites=""
     mode="free"
     discard_orig_path="true"
     fuse_paths="true"
     oposite_fuse="true"
     split_items="false"
     split_open="false"
     link_styles="false" /><inkscape:path-effect
     effect="mirror_symmetry"
     start_point="441.52676,7.5"
     end_point="441.52676,555.4"
     center_point="441.52676,281.45"
     id="path-effect685"
     is_visible="true"
     lpeversion="1.2"
     lpesatellites=""
     mode="free"
     discard_orig_path="false"
     fuse_paths="false"
     oposite_fuse="false"
     split_items="false"
     split_open="false"
     link_styles="false" /><inkscape:path-effect
     center_point="468.66572,281.45"
     end_point="468.66572,555.4"
     start_point="468.66572,7.5"
     effect="mirror_symmetry"
     id="path-effect37"
     is_visible="false"
     lpeversion="1.2"
     lpesatellites=""
     mode="free"
     discard_orig_path="false"
     fuse_paths="false"
     oposite_fuse="false"
     split_items="false"
     split_open="false"
     link_styles="false" /></defs><sodipodi:namedview
   id="namedview37"
   pagecolor="#606060"
   bordercolor="#000000"
   borderopacity="0.25"
   inkscape:showpageshadow="2"
   inkscape:pageopacity="0.0"
   inkscape:pagecheckerboard="0"
   inkscape:deskcolor="#d1d1d1"
   showguides="true"
   inkscape:zoom="2"
   inkscape:cx="248.25"
   inkscape:cy="384.25"
   inkscape:window-width="2560"
   inkscape:window-height="1369"
   inkscape:window-x="1912"
   inkscape:window-y="-8"
   inkscape:window-maximized="1"
   inkscape:current-layer="g37" />
<style
   type="text/css"
   id="style1">
	.st0{fill:#FFFFFF;}
</style>
<g
   id="g37">
	
	
	
	
	
	
	
	
	
	
	
	
	
	
	
	
	
	
	
	
	<g
   id="g720"
   transform="translate(-4)"
   inkscape:path-effect="#path-effect731"
   inkscape:export-filename="C:\Users\Raxcu\Downloads\g720.svg"
   inkscape:export-xdpi="96"
   inkscape:export-ydpi="96"><path
     d="M 141.12416,387.05115 C 145.49627,393.15129 150,410.4 148.7,423 c -2.4,-0.3 -4.7,-0.5 -7.2,-0.8 -6.6,-0.8 -13.36717,-0.55056 -19.49368,-2.92528 -2.16592,-0.83954 -5.21129,-2.44957 -7.51084,-4.15094 C 109.01515,411.06905 105.5,406.8 99.8,400.9 c 11.7,-7.2 20.8,-0.6 30.3,4.8 -0.8,-4.9 -2,-9.8 -2.1,-14.6 -0.1,-4.7 0.84964,-9.56014 1.44964,-15.86014 0,0 8.3858,7.22275 11.67452,11.81129 z M 102.8,401 c 9.8,12.9 21.5,21.8 38.7,18.8 -5.2,-3.9 -11.7,-4.4 -18,-5.9 0.1,-0.5 0.3,-1 0.3,-1.5 4.8,1 9.8,2 15,3 -11.3,-10.3 -26.2,-19.8 -36,-14.4 z m 34.8,0.8 c 0.3,-0.3 0.8,-0.5 1.1,-0.6 2,5.6 4.3,11.1 6.3,16.7 0.5,-0.1 1,-0.3 1.5,-0.3 -0.3,-5.3 -0.6,-10.9 -1.3,-16 -1.3,-9.3 -5.8,-16.8 -14.6,-22.7 -0.3,5.3 -1,10 -0.6,14.6 0.6,8.8 2.4,17 11.5,21.1 -1.2,-4.3 -2.6,-8.6 -3.9,-12.8 z"
     id="path1"
     style="fill:#ffffff;fill-opacity:1"
     inkscape:original-d="M 141.12416,387.05115 C 145.49627,393.15129 150,410.4 148.7,423 c -2.4,-0.3 -4.7,-0.5 -7.2,-0.8 -6.6,-0.8 -13.36717,-0.55056 -19.49368,-2.92528 -2.16592,-0.83954 -5.21129,-2.44957 -7.51084,-4.15094 C 109.01515,411.06905 105.5,406.8 99.8,400.9 c 11.7,-7.2 20.8,-0.6 30.3,4.8 -0.8,-4.9 -2,-9.8 -2.1,-14.6 -0.1,-4.7 0.84964,-9.56014 1.44964,-15.86014 0,0 8.3858,7.22275 11.67452,11.81129 z M 102.8,401 c 9.8,12.9 21.5,21.8 38.7,18.8 -5.2,-3.9 -11.7,-4.4 -18,-5.9 0.1,-0.5 0.3,-1 0.3,-1.5 4.8,1 9.8,2 15,3 -11.3,-10.3 -26.2,-19.8 -36,-14.4 z m 34.8,0.8 c 0.3,-0.3 0.8,-0.5 1.1,-0.6 2,5.6 4.3,11.1 6.3,16.7 0.5,-0.1 1,-0.3 1.5,-0.3 -0.3,-5.3 -0.6,-10.9 -1.3,-16 -1.3,-9.3 -5.8,-16.8 -14.6,-22.7 -0.3,5.3 -1,10 -0.6,14.6 0.6,8.8 2.4,17 11.5,21.1 -1.2,-4.3 -2.6,-8.6 -3.9,-12.8 z" /><path
     class="st0"
     d="m 203.9,466.5 c -4.8,-4.7 -9.2,-9 -14,-12.9 -3.8,-3 -8,-6.2 -12.4,-8.1 -3.5,-1.5 -8.1,-1.1 -12.1,-1 -5.9,0.3 -13.02279,1.29467 -18.84726,-1.02244 -7.74133,-3.07968 -14.48051,-8.4842 -20.72792,-14.40835 2.1,-2.9 4.87518,-3.96921 8.27518,-4.36921 7.2,-0.8 13.6,1.3 19.9,3.9 0.8,0.3 1.6,0.8 2.5,1.3 -1.6,-5.4 -3.5,-10.7 -4.5,-15.9 -0.31154,-3.29035 -1.06136,-7.32828 0.79367,-12.83371 10.7468,3.44062 19.32542,11.25928 24.80633,37.63371 1.1,5.6 5.4,7.2 9.6,9 5.3,2.4 11.2,3.5 16.5,6.2 1.6,0.8 2.5,4 2.5,6.3 0.1,1.9 -1.3,4 -2.3,6.2 z m -28.1,-26.7 c -0.1,-15.4 -13.4,-36.7 -22.2,-36.5 -1.5,8.8 1.3,16.8 4.5,24.6 2.1,5.3 7.4,6.4 12.2,9.6 -2.5,-5.3 -5.7,-9.2 -5.7,-14.5 3.4,5.8 5.3,12.2 11.2,16.8 z m -5,1.8 c -2.5,-0.6 -4.5,-1.5 -6.7,-1.6 -2.4,-0.3 -4.7,-0.3 -7.2,-0.6 -2,-0.3 -4,-0.3 -6.1,-0.3 0.1,-0.6 0.1,-1.1 0.3,-1.6 5.2,0.3 10.3,0.6 15.4,0.8 -9.5,-5.6 -18.7,-11.4 -30.2,-11.2 -2.5,0 -4.86993,1.26539 -8.16993,2.06539 12,12.7 25.16993,18.43461 42.66993,12.43461 z m 20.7,9.9 c -0.1,0.3 -0.3,0.3 -0.3,0.6 3,2.9 6.2,5.8 9.8,9 0.6,-2.5 1,-4 1.3,-5.7 -3.9,-1.2 -7.4,-2.6 -10.8,-3.9 z"
     id="path2"
     sodipodi:nodetypes="ccccsccccccccccccccccccccccccccccccc"
     inkscape:original-d="m 203.9,466.5 c -4.8,-4.7 -9.2,-9 -14,-12.9 -3.8,-3 -8,-6.2 -12.4,-8.1 -3.5,-1.5 -8.1,-1.1 -12.1,-1 -5.9,0.3 -13.02279,1.29467 -18.84726,-1.02244 -7.74133,-3.07968 -14.48051,-8.4842 -20.72792,-14.40835 2.1,-2.9 4.87518,-3.96921 8.27518,-4.36921 7.2,-0.8 13.6,1.3 19.9,3.9 0.8,0.3 1.6,0.8 2.5,1.3 -1.6,-5.4 -3.5,-10.7 -4.5,-15.9 -0.31154,-3.29035 -1.06136,-7.32828 0.79367,-12.83371 10.7468,3.44062 19.32542,11.25928 24.80633,37.63371 1.1,5.6 5.4,7.2 9.6,9 5.3,2.4 11.2,3.5 16.5,6.2 1.6,0.8 2.5,4 2.5,6.3 0.1,1.9 -1.3,4 -2.3,6.2 z m -28.1,-26.7 c -0.1,-15.4 -13.4,-36.7 -22.2,-36.5 -1.5,8.8 1.3,16.8 4.5,24.6 2.1,5.3 7.4,6.4 12.2,9.6 -2.5,-5.3 -5.7,-9.2 -5.7,-14.5 3.4,5.8 5.3,12.2 11.2,16.8 z m -5,1.8 c -2.5,-0.6 -4.5,-1.5 -6.7,-1.6 -2.4,-0.3 -4.7,-0.3 -7.2,-0.6 -2,-0.3 -4,-0.3 -6.1,-0.3 0.1,-0.6 0.1,-1.1 0.3,-1.6 5.2,0.3 10.3,0.6 15.4,0.8 -9.5,-5.6 -18.7,-11.4 -30.2,-11.2 -2.5,0 -4.86993,1.26539 -8.16993,2.06539 12,12.7 25.16993,18.43461 42.66993,12.43461 z m 20.7,9.9 c -0.1,0.3 -0.3,0.3 -0.3,0.6 3,2.9 6.2,5.8 9.8,9 0.6,-2.5 1,-4 1.3,-5.7 -3.9,-1.2 -7.4,-2.6 -10.8,-3.9 z" /><path
     class="st0"
     d="m 92,343.9 c 1.523148,-11.36502 7.468421,-23.67065 12.33125,-26.60625 C 110.33438,323.99063 113.2,341.8 107.4,353.7 c -1.9,3.9 -3,8.3 -4.7,12.6 -7.7,-3.9 -15.6,-6.9 -22.3,-11.6 -3.8,-2.5 -6.2,-7.6 -8.6,-11.9 -2.5,-4.7 -3.675,-9.62188 -6.075,-15.32188 C 79.890625,325.85312 85.4,334.3 92,343.9 Z m 12,-25 c -4.9,4.7 -8.6,14 -9.2,26.8 -0.3,3 2.5,6.2 3.8,9.5 1,-4.5 0.6,-9 3.4,-12.6 v 18.2 c 9,-13.5 9.7,-32.1 2,-41.9 z m -34.9,10.5 c 3,16.5 11.5,27.9 28.8,30.9 -4.9,-3.9 -10.1,-8 -15.1,-12 0.3,-0.3 0.5,-0.6 0.8,-1 4.2,2.9 8.3,5.7 12.4,8.6 -1.1,-3.4 -2.8,-6.3 -4.7,-9 -2.5,-3.9 -5.2,-8.1 -8.5,-11.2 -3.5,-4.1 -7.8,-7.5 -13.7,-6.3 z"
     id="path4"
     sodipodi:nodetypes="cccccccccccccccccccccc"
     inkscape:original-d="m 92,343.9 c 1.523148,-11.36502 7.468421,-23.67065 12.33125,-26.60625 C 110.33438,323.99063 113.2,341.8 107.4,353.7 c -1.9,3.9 -3,8.3 -4.7,12.6 -7.7,-3.9 -15.6,-6.9 -22.3,-11.6 -3.8,-2.5 -6.2,-7.6 -8.6,-11.9 -2.5,-4.7 -3.675,-9.62188 -6.075,-15.32188 C 79.890625,325.85312 85.4,334.3 92,343.9 Z m 12,-25 c -4.9,4.7 -8.6,14 -9.2,26.8 -0.3,3 2.5,6.2 3.8,9.5 1,-4.5 0.6,-9 3.4,-12.6 v 18.2 c 9,-13.5 9.7,-32.1 2,-41.9 z m -34.9,10.5 c 3,16.5 11.5,27.9 28.8,30.9 -4.9,-3.9 -10.1,-8 -15.1,-12 0.3,-0.3 0.5,-0.6 0.8,-1 4.2,2.9 8.3,5.7 12.4,8.6 -1.1,-3.4 -2.8,-6.3 -4.7,-9 -2.5,-3.9 -5.2,-8.1 -8.5,-11.2 -3.5,-4.1 -7.8,-7.5 -13.7,-6.3 z" /><path
     class="st0"
     d="m 108.4,375.8 c 0,-1 0.3,-2 0,-3 -2.71823,-10.60108 3.48685,-23.125 5.6,-25 14.65486,11.04291 12.46897,34.97557 9.3,46.7 -0.3,1.8 -1,2.5 -2.8,2 -4.8,-1.5 -9.8,-3.2 -14.9,-4.4 -9.3,-2.3 -15.6,-8.2 -20.4,-16.2 -1.6,-2.8 -4.03033,-7.69697 -5.322097,-10.65052 7.755036,-1.40824 8.29072,-4.40992 23.122097,6.85052 1.5,1.3 2.9,2.9 4.4,4.3 0.4,-0.2 0.7,-0.3 1,-0.6 z m 6.2,-26.1 c -7.6,9.5 -6.1,31.3 2.5,37 -0.5,-4.5 -2.5,-9 -0.5,-13.6 1.3,5.9 1.1,12.2 4.3,18.2 6.5,-11 2.9,-33.5 -6.3,-41.6 z m -0.2,37.5 c -5.8,-7.8 -11.7,-14.5 -19.7,-19.1 -3.5,-2 -7.8,-4 -12.4,-1.8 5.2,15.4 19.2,26 33.8,25.6 -4.4,-5.3 -11.2,-6.2 -16.9,-9.5 0.3,-0.5 0.3,-0.8 0.6,-1.3 4.7,1.9 9.3,3.8 14.6,6.1 z"
     id="path8"
     sodipodi:nodetypes="ccccccccccccccccccccccc"
     inkscape:original-d="m 108.4,375.8 c 0,-1 0.3,-2 0,-3 -2.71823,-10.60108 3.48685,-23.125 5.6,-25 14.65486,11.04291 12.46897,34.97557 9.3,46.7 -0.3,1.8 -1,2.5 -2.8,2 -4.8,-1.5 -9.8,-3.2 -14.9,-4.4 -9.3,-2.3 -15.6,-8.2 -20.4,-16.2 -1.6,-2.8 -4.03033,-7.69697 -5.322097,-10.65052 7.755036,-1.40824 8.29072,-4.40992 23.122097,6.85052 1.5,1.3 2.9,2.9 4.4,4.3 0.4,-0.2 0.7,-0.3 1,-0.6 z m 6.2,-26.1 c -7.6,9.5 -6.1,31.3 2.5,37 -0.5,-4.5 -2.5,-9 -0.5,-13.6 1.3,5.9 1.1,12.2 4.3,18.2 6.5,-11 2.9,-33.5 -6.3,-41.6 z m -0.2,37.5 c -5.8,-7.8 -11.7,-14.5 -19.7,-19.1 -3.5,-2 -7.8,-4 -12.4,-1.8 5.2,15.4 19.2,26 33.8,25.6 -4.4,-5.3 -11.2,-6.2 -16.9,-9.5 0.3,-0.5 0.3,-0.8 0.6,-1.3 4.7,1.9 9.3,3.8 14.6,6.1 z" /><path
     class="st0"
     d="m 133.1,137.7 c 3.2,-1 5.7,-1.6 8.1,-2.5 6.7,-2.4 15.975,-1.59375 22.7875,-0.6125 -0.92276,5.22735 -7.82563,10.5767 -10.4875,12.7125 -6.4,4.9 -14.1,6.7 -22.1,7.7 -4.5,0.6 -9.2,0.8 -14.3,1.3 0.3,-1.8 0.3,-3.5 0.3,-5.2 -0.1,-4.3 -0.3,-8.6 -0.3,-12.7 0.18919,-12.43936 9.5135,-24.10438 19.5,-30.9 6,6.6 4.8,17.7 -3.5,30.2 z m 5.8,6.1 0.8,1.6 c -5.8,2.4 -12.2,3.7 -16.9,9 15.8,-0.6 29.9,-3.8 39.1,-17.8 -12.9,-4.5 -32.9,2.5 -35.5,12.2 3.8,-1.8 8,-3.4 12.5,-5 z m -2.2,-33.3 c -12.9,7.2 -19.8,23.1 -17,39.4 4.7,-5.6 3.9,-12.6 5.3,-18.7 0.5,0.1 1,0.3 1.5,0.3 -0.6,4.8 -1.3,9.6 -2,14.4 5.3,-7.4 11.9,-14.3 13.6,-23.6 0.8,-4.2 1.3,-8.2 -1.4,-11.8 z"
     id="path9"
     sodipodi:nodetypes="cccccccsccccccccccccccc"
     inkscape:original-d="m 133.1,137.7 c 3.2,-1 5.7,-1.6 8.1,-2.5 6.7,-2.4 15.975,-1.59375 22.7875,-0.6125 -0.92276,5.22735 -7.82563,10.5767 -10.4875,12.7125 -6.4,4.9 -14.1,6.7 -22.1,7.7 -4.5,0.6 -9.2,0.8 -14.3,1.3 0.3,-1.8 0.3,-3.5 0.3,-5.2 -0.1,-4.3 -0.3,-8.6 -0.3,-12.7 0.18919,-12.43936 9.5135,-24.10438 19.5,-30.9 6,6.6 4.8,17.7 -3.5,30.2 z m 5.8,6.1 0.8,1.6 c -5.8,2.4 -12.2,3.7 -16.9,9 15.8,-0.6 29.9,-3.8 39.1,-17.8 -12.9,-4.5 -32.9,2.5 -35.5,12.2 3.8,-1.8 8,-3.4 12.5,-5 z m -2.2,-33.3 c -12.9,7.2 -19.8,23.1 -17,39.4 4.7,-5.6 3.9,-12.6 5.3,-18.7 0.5,0.1 1,0.3 1.5,0.3 -0.6,4.8 -1.3,9.6 -2,14.4 5.3,-7.4 11.9,-14.3 13.6,-23.6 0.8,-4.2 1.3,-8.2 -1.4,-11.8 z" /><path
     class="st0"
     d="m 80.3,297.2 c -4.8,-4.7 -9.8,-8.6 -14,-13.4 -7.836875,-9.09175 -9.633794,-22.73779 -7.5,-34.3 12.7,2.5 15.6,12.6 18.8,22.8 3,-4.5 6.23033,-8.69064 9.53033,-12.59064 2.667418,-3.48614 6.818719,-6.62808 10.737437,-8.83033 2.769123,5.59823 4.239313,15.98563 -4.067767,29.22097 -3.5,4.7 -6.7,9.3 -10.3,13.9 -1,1.7 -2.4,2.5 -3.2,3.2 z m 1.5,-5.7 c 0.5,0.3 1,0.3 1.3,0.5 9.5,-11.1 17.5,-22.6 14.1,-39 -6.77752,3.28108 -10.042553,10.59132 -14.7,16.2 -4.8,5.4 -4,11.2 -2.1,17.5 3.5,-3.4 2.9,-9.2 7.6,-12.6 -2.4,6.2 -4.3,11.7 -6.2,17.4 z M 60.5,252.2 c -3.2,15.4 2.8,29.3 16.4,38.5 0.3,-0.3 0.6,-0.3 0.8,-0.6 -3.5,-5.3 -6.9,-10.7 -10.5,-16 4.9,2.5 6.9,7.4 10.9,12.1 -1.6,-10.2 -2.9,-19.3 -8.1,-27.4 -2.2,-3 -5.2,-5.8 -9.5,-6.6 z"
     id="path11"
     sodipodi:nodetypes="ccccccccccccccccccccccc"
     inkscape:original-d="m 80.3,297.2 c -4.8,-4.7 -9.8,-8.6 -14,-13.4 -7.836875,-9.09175 -9.633794,-22.73779 -7.5,-34.3 12.7,2.5 15.6,12.6 18.8,22.8 3,-4.5 6.23033,-8.69064 9.53033,-12.59064 2.667418,-3.48614 6.818719,-6.62808 10.737437,-8.83033 2.769123,5.59823 4.239313,15.98563 -4.067767,29.22097 -3.5,4.7 -6.7,9.3 -10.3,13.9 -1,1.7 -2.4,2.5 -3.2,3.2 z m 1.5,-5.7 c 0.5,0.3 1,0.3 1.3,0.5 9.5,-11.1 17.5,-22.6 14.1,-39 -6.77752,3.28108 -10.042553,10.59132 -14.7,16.2 -4.8,5.4 -4,11.2 -2.1,17.5 3.5,-3.4 2.9,-9.2 7.6,-12.6 -2.4,6.2 -4.3,11.7 -6.2,17.4 z M 60.5,252.2 c -3.2,15.4 2.8,29.3 16.4,38.5 0.3,-0.3 0.6,-0.3 0.8,-0.6 -3.5,-5.3 -6.9,-10.7 -10.5,-16 4.9,2.5 6.9,7.4 10.9,12.1 -1.6,-10.2 -2.9,-19.3 -8.1,-27.4 -2.2,-3 -5.2,-5.8 -9.5,-6.6 z" /><path
     class="st0"
     d="m 169.3,83.8 c 5.6,12.1 -2,20.2 -8.1,29.5 9.2,-2.5 17.8,-2.5 26,0.3 1.5,0.5 2.9,1.5 4.3,2.1 -10.01176,15.01764 -28.48224,14.23325 -30.5,14.1 -6.2,-0.3 -12.4,-0.5 -19.2,-0.8 0.3,-1.5 0.6,-2.4 0.8,-3.3 0.6,-3.5 1.8,-6.9 1.9,-10.5 0.3,-11.6 7.4,-18.8 15.8,-25.4 2.7,-2 5.6,-3.8 9,-6 z m 20.2,32.4 c -8.6,-3.2 -16.9,-3.7 -25.6,-1.6 -6.2,1.5 -9.8,3.9 -12.2,8.6 4.7,-1.5 9,-3 13.8,-1.8 -5.7,1.6 -11.4,3.2 -17,4.8 12.2,5.1 33.8,-0.4 41,-10 z m -39,4.4 c 6.7,-7.2 13.8,-12.9 17.4,-21.5 1.6,-3.9 2.9,-8.2 0.6,-12.4 -16.8,9.3 -22.8,19.2 -22.7,35.2 5.3,-4.5 5.7,-11.2 8.1,-17 0.5,0.3 1,0.3 1.5,0.6 -1.6,4.8 -3.2,9.4 -4.9,15.1 z"
     id="path13"
     sodipodi:nodetypes="ccccccccccccccccccccccc"
     inkscape:original-d="m 169.3,83.8 c 5.6,12.1 -2,20.2 -8.1,29.5 9.2,-2.5 17.8,-2.5 26,0.3 1.5,0.5 2.9,1.5 4.3,2.1 -10.01176,15.01764 -28.48224,14.23325 -30.5,14.1 -6.2,-0.3 -12.4,-0.5 -19.2,-0.8 0.3,-1.5 0.6,-2.4 0.8,-3.3 0.6,-3.5 1.8,-6.9 1.9,-10.5 0.3,-11.6 7.4,-18.8 15.8,-25.4 2.7,-2 5.6,-3.8 9,-6 z m 20.2,32.4 c -8.6,-3.2 -16.9,-3.7 -25.6,-1.6 -6.2,1.5 -9.8,3.9 -12.2,8.6 4.7,-1.5 9,-3 13.8,-1.8 -5.7,1.6 -11.4,3.2 -17,4.8 12.2,5.1 33.8,-0.4 41,-10 z m -39,4.4 c 6.7,-7.2 13.8,-12.9 17.4,-21.5 1.6,-3.9 2.9,-8.2 0.6,-12.4 -16.8,9.3 -22.8,19.2 -22.7,35.2 5.3,-4.5 5.7,-11.2 8.1,-17 0.5,0.3 1,0.3 1.5,0.6 -1.6,4.8 -3.2,9.4 -4.9,15.1 z" /><path
     class="st0"
     d="M 66.186136,208.83258 C 79.286136,213.23258 78.8,224.7 81.3,235.7 c 1.1,-1.3 1.9,-2 2.5,-2.9 5.909539,-8.99862 13.421689,-13.95009 21.21612,-16.21456 C 106.17452,225.53899 103.6,236.7 97.8,243.2 c -5.4,6.1 -11.7,11.2 -17.9,17 -3.7,-5.2 -6.4,-10 -10.2,-14 -8.1,-8.5 -7.01875,-18.36875 -5.6,-28.3 0.2,-2.8 1.386136,-5.36742 2.086136,-9.06742 z M 103.4,218.6 c -9,3.8 -15,10.3 -20.3,17.8 -3,4.4 -1.8,8.6 -1.5,13.1 2.5,-3.9 5.2,-7.7 7.6,-11.6 0.3,0.3 0.6,0.3 0.8,0.6 -2.8,5.3 -5.4,10.6 -8.2,15.9 14.7,-8.5 24.5,-25.2 21.6,-35.8 z m -24.5,29.2 c 0.3,0 0.5,-0.1 0.6,-0.1 -0.3,-5.7 -0.3,-11.2 -1,-16.9 -0.8,-6.2 -2.375,-12.275 -7.275,-16.875 -1,-1 -2.125,-1.425 -3.525,-2.025 -1.390397,2.3077 -1.63221,4.82715 -2.1,7.4 -2.5,13.4 2,24.2 11.6,33.4 0.3,-0.1 0.6,-0.3 1,-0.3 -2.4,-5.8 -4.7,-11.6 -7.2,-17.4 0.3,-0.3 0.8,-0.3 1,-0.5 2.4,4.4 4.6,8.9 6.9,13.3 z"
     id="path14"
     sodipodi:nodetypes="ccccccccccccccccccccccccccc"
     inkscape:original-d="M 66.186136,208.83258 C 79.286136,213.23258 78.8,224.7 81.3,235.7 c 1.1,-1.3 1.9,-2 2.5,-2.9 5.909539,-8.99862 13.421689,-13.95009 21.21612,-16.21456 C 106.17452,225.53899 103.6,236.7 97.8,243.2 c -5.4,6.1 -11.7,11.2 -17.9,17 -3.7,-5.2 -6.4,-10 -10.2,-14 -8.1,-8.5 -7.01875,-18.36875 -5.6,-28.3 0.2,-2.8 1.386136,-5.36742 2.086136,-9.06742 z M 103.4,218.6 c -9,3.8 -15,10.3 -20.3,17.8 -3,4.4 -1.8,8.6 -1.5,13.1 2.5,-3.9 5.2,-7.7 7.6,-11.6 0.3,0.3 0.6,0.3 0.8,0.6 -2.8,5.3 -5.4,10.6 -8.2,15.9 14.7,-8.5 24.5,-25.2 21.6,-35.8 z m -24.5,29.2 c 0.3,0 0.5,-0.1 0.6,-0.1 -0.3,-5.7 -0.3,-11.2 -1,-16.9 -0.8,-6.2 -2.375,-12.275 -7.275,-16.875 -1,-1 -2.125,-1.425 -3.525,-2.025 -1.390397,2.3077 -1.63221,4.82715 -2.1,7.4 -2.5,13.4 2,24.2 11.6,33.4 0.3,-0.1 0.6,-0.3 1,-0.3 -2.4,-5.8 -4.7,-11.6 -7.2,-17.4 0.3,-0.3 0.8,-0.3 1,-0.5 2.4,4.4 4.6,8.9 6.9,13.3 z" /><path
     class="st0"
     d="m 138.9,157.3 c -0.84417,9.13464 -7.29601,14.97949 -12.4,18.8 -5.7,3.5 -11.7,6.2 -17.9,9 -3.2,1.5 -6.7,2 -10.1,3 -5.251408,-16.98246 -7.445605,-27.00854 1.89064,-43.90936 C 102.08022,141.29317 104.2,138.7 106.1,135.8 c 7.4,4.7 7.4,11.7 6.7,18.8 -0.3,3.5 -1.5,7.2 -2.3,11.4 8.8,-5.5 18,-9.2 28.4,-8.7 z m -1.8,1.9 c -12.2,-0.3 -31.6,7.6 -32.7,19.8 3.9,-2.5 8,-4.9 11.9,-7.6 0.3,0.3 0.5,0.8 0.8,1.3 -2.5,1.6 -4.8,3.3 -7.2,5.2 -2.5,1.9 -4.7,3.9 -7.8,6.6 14.2,-0.9 32.7,-14.4 35,-25.3 z M 106.4,139 c -10.7,12.4 -13.6,31.7 -6.2,42.4 v -19.6 c 0.3,0 0.8,-0.1 1.3,-0.1 0.5,4.8 1,9.6 1.5,15.4 1.6,-4.2 2.5,-7.6 4.3,-10.7 3.3,-5.8 4.2,-12.2 3.9,-18.6 -0.2,-3.3 -0.9,-7 -4.8,-8.8 z"
     id="path17"
     sodipodi:nodetypes="ccccsccccccccccccccccccc"
     inkscape:original-d="m 138.9,157.3 c -0.84417,9.13464 -7.29601,14.97949 -12.4,18.8 -5.7,3.5 -11.7,6.2 -17.9,9 -3.2,1.5 -6.7,2 -10.1,3 -5.251408,-16.98246 -7.445605,-27.00854 1.89064,-43.90936 C 102.08022,141.29317 104.2,138.7 106.1,135.8 c 7.4,4.7 7.4,11.7 6.7,18.8 -0.3,3.5 -1.5,7.2 -2.3,11.4 8.8,-5.5 18,-9.2 28.4,-8.7 z m -1.8,1.9 c -12.2,-0.3 -31.6,7.6 -32.7,19.8 3.9,-2.5 8,-4.9 11.9,-7.6 0.3,0.3 0.5,0.8 0.8,1.3 -2.5,1.6 -4.8,3.3 -7.2,5.2 -2.5,1.9 -4.7,3.9 -7.8,6.6 14.2,-0.9 32.7,-14.4 35,-25.3 z M 106.4,139 c -10.7,12.4 -13.6,31.7 -6.2,42.4 v -19.6 c 0.3,0 0.8,-0.1 1.3,-0.1 0.5,4.8 1,9.6 1.5,15.4 1.6,-4.2 2.5,-7.6 4.3,-10.7 3.3,-5.8 4.2,-12.2 3.9,-18.6 -0.2,-3.3 -0.9,-7 -4.8,-8.8 z" /><path
     class="st0"
     d="M 88.3,333.9 C 81.4,328.5 74.7,323.2 68.1,318 c -0.8,-0.6 -1.5,-1.5 -2,-2.4 -4.2,-8.1 -5.7,-16.8 -6.7,-26.3 13.6,0.3 17.5,10.9 22.8,21.3 1,-2.5 1.6,-4.2 2.3,-5.7 2.4,-7.2 6.57132,-14.8678 14.474874,-19.67227 C 100.58251,288.40294 108.43396,305.87171 94,325.4 c -2.3,2.6 -3.9,5.5 -5.7,8.5 z m 10.2,-46.7 c -11.5,7.6 -17.3,25.1 -11.6,35.5 1.5,-4.4 1.1,-9.5 4.7,-12.9 -1.3,6.2 -3.2,12 -2.5,18.8 10.3,-12.5 14,-25.9 9.4,-41.4 z M 84,322 c 0.3,-0.1 0.5,-0.3 0.8,-0.3 -2.5,-5.6 -4.7,-11.2 -7.6,-16.8 -1.6,-3.3 -3.9,-6.6 -6.3,-9.2 -2.4,-2.5 -5.6,-3.9 -9.3,-4.2 1.9,21.6 7.8,29 23.7,35.7 -4.4,-4.8 -8.8,-9.7 -13.1,-14.6 0.3,-0.3 0.6,-0.6 1,-0.8 3.4,3.4 7.1,6.7 10.8,10.2 z"
     id="path20"
     sodipodi:nodetypes="ccccccccccccccccccccccc"
     inkscape:original-d="M 88.3,333.9 C 81.4,328.5 74.7,323.2 68.1,318 c -0.8,-0.6 -1.5,-1.5 -2,-2.4 -4.2,-8.1 -5.7,-16.8 -6.7,-26.3 13.6,0.3 17.5,10.9 22.8,21.3 1,-2.5 1.6,-4.2 2.3,-5.7 2.4,-7.2 6.57132,-14.8678 14.474874,-19.67227 C 100.58251,288.40294 108.43396,305.87171 94,325.4 c -2.3,2.6 -3.9,5.5 -5.7,8.5 z m 10.2,-46.7 c -11.5,7.6 -17.3,25.1 -11.6,35.5 1.5,-4.4 1.1,-9.5 4.7,-12.9 -1.3,6.2 -3.2,12 -2.5,18.8 10.3,-12.5 14,-25.9 9.4,-41.4 z M 84,322 c 0.3,-0.1 0.5,-0.3 0.8,-0.3 -2.5,-5.6 -4.7,-11.2 -7.6,-16.8 -1.6,-3.3 -3.9,-6.6 -6.3,-9.2 -2.4,-2.5 -5.6,-3.9 -9.3,-4.2 1.9,21.6 7.8,29 23.7,35.7 -4.4,-4.8 -8.8,-9.7 -13.1,-14.6 0.3,-0.3 0.6,-0.6 1,-0.8 3.4,3.4 7.1,6.7 10.8,10.2 z" /><path
     class="st0"
     d="m 92.4,199.4 c 1.8,-1.3 3.4,-2.3 4.7,-3.4 5.7,-5.6 12.7,-8.5 20.3,-10.1 3.5,-0.8 2.9,1.6 2.5,3.4 -1.6,7.6 -4.7,14.6 -10.9,19.3 -7.2,5.4 -15.4,9.8 -22.8,14.5 -1,-0.8 -1.3,-1 -1.5,-1.3 -1.5,-3.5 -2.8,-7.4 -4.7,-10.9 -5.4,-9.8 -5.2,-19.8 -1,-30 1.5,-3.5 3.2,-7.2 5.2,-11.1 11.1,7.9 8.7,18.7 8.2,29.6 z m 25.9,-11.6 c -1.9,0.3 -3.5,0.6 -5.2,1.1 -6.7,2 -12,6.7 -17.7,10.6 -4.9,3.5 -4.4,8.5 -6.4,13.6 4.2,-3.5 7.6,-6.7 11.1,-9.6 0.3,0.3 0.6,0.6 0.8,1 -3.9,4.7 -9.8,8 -12.4,14.5 17.6,-7 27.6,-17.5 29.8,-31.2 z m -30.5,22.9 c 2.5,-8 3.9,-15.9 3.5,-24.1 -0.3,-5.3 -1.5,-10.5 -6.2,-13.9 -9.7,19.1 -10.3,26.5 1,42.3 -1,-6.3 -2,-12.6 -3,-18.8 0.3,-0.1 0.8,-0.3 1.1,-0.3 1,5.2 2.3,9.9 3.6,14.8 z"
     id="path21"
     inkscape:original-d="m 92.4,199.4 c 1.8,-1.3 3.4,-2.3 4.7,-3.4 5.7,-5.6 12.7,-8.5 20.3,-10.1 3.5,-0.8 2.9,1.6 2.5,3.4 -1.6,7.6 -4.7,14.6 -10.9,19.3 -7.2,5.4 -15.4,9.8 -22.8,14.5 -1,-0.8 -1.3,-1 -1.5,-1.3 -1.5,-3.5 -2.8,-7.4 -4.7,-10.9 -5.4,-9.8 -5.2,-19.8 -1,-30 1.5,-3.5 3.2,-7.2 5.2,-11.1 11.1,7.9 8.7,18.7 8.2,29.6 z m 25.9,-11.6 c -1.9,0.3 -3.5,0.6 -5.2,1.1 -6.7,2 -12,6.7 -17.7,10.6 -4.9,3.5 -4.4,8.5 -6.4,13.6 4.2,-3.5 7.6,-6.7 11.1,-9.6 0.3,0.3 0.6,0.6 0.8,1 -3.9,4.7 -9.8,8 -12.4,14.5 17.6,-7 27.6,-17.5 29.8,-31.2 z m -30.5,22.9 c 2.5,-8 3.9,-15.9 3.5,-24.1 -0.3,-5.3 -1.5,-10.5 -6.2,-13.9 -9.7,19.1 -10.3,26.5 1,42.3 -1,-6.3 -2,-12.6 -3,-18.8 0.3,-0.1 0.8,-0.3 1.1,-0.3 1,5.2 2.3,9.9 3.6,14.8 z" /></g>
	
	
	
	
	
	
	
	
	
	
	
	
	
	
	
	
<g
   id="g730"
   transform="translate(-3.301765)"><path
     class="st0"
     d="m 208.4,294.9 c 0,-5.8 0.1,-11.6 0,-17.4 0,-2.3 0.6,-3.8 2.9,-4 2.1,-0.3 3.7,0.6 4.7,2.9 2.5,6.2 4.5,12.4 8,18 4.7,7.6 11.1,13.6 20.4,15.8 8.6,2 19.6,-1.3 24,-7.8 5.9,-8.6 3.8,-22 -5.3,-27 -6.9,-3.8 -14.9,-5.8 -22.3,-8.6 -5.3,-2 -11.1,-3.5 -15.9,-6.7 -12.4,-7.8 -15.9,-19.6 -14.3,-33.6 0.8,-7.2 4.3,-13.1 8.3,-18.4 8.1,-10.6 19.1,-13.4 31.6,-10.1 4,1 8,3.4 11.5,5.8 4.2,2.8 6.7,2.4 9.5,-1.9 1,-1.5 3,-1.9 4.7,-2.9 0.8,1.5 2.3,3 2.3,4.5 0.3,9.5 0,18.8 0.3,28.4 0,2.4 -0.6,4.2 -2.9,4.4 -2.3,0.3 -2.9,-1.3 -3.7,-3.4 -4.4,-13.1 -12.1,-23.6 -26.1,-27 -7.8,-2 -14.4,1.6 -19.3,7.6 -4.2,4.8 -4.7,14.4 -1,19.7 3.5,5.2 9,7.6 15,9.5 8.7,2.8 17.4,5.2 25.6,8.8 11.2,4.8 16.9,14.1 18.2,26.1 0.8,7.2 0.1,14.5 -3.2,21.1 -5.3,10.7 -13.6,17.7 -25.9,19.7 -11.6,2 -21.6,-1.5 -30.7,-8.8 -3.2,-2.5 -3.5,-2.5 -5.4,1 -0.8,1.5 -1.5,3.5 -2.9,4.4 -1.5,1 -3.7,1.8 -5.3,1.5 -1,-0.3 -2,-2.5 -2,-4.2 -0.9,-5.7 -0.7,-11.5 -0.8,-17.4 z M 274.9,235 c 0.5,-0.3 1,-0.3 1.5,-0.5 0,-3 0,-6.3 0,-9.5 0,-7.2 0,-14.1 -0.1,-21.3 0,-0.8 -0.6,-1.6 -1,-2.5 -0.8,0.3 -1.9,0.8 -2.5,1.3 -0.5,0.3 -0.8,1.3 -1.1,1.8 -2.5,4 -5.4,4.7 -9.5,1.9 -1,-0.8 -2,-1.6 -3,-2.4 -11.2,-7.7 -27.9,-8.1 -37.9,3.9 -3.7,4.4 -6.7,9.8 -8.5,15.4 -3.3,10.5 -1.3,20.4 5.3,29.5 4.5,6.2 11.2,9 18,11.1 6.9,2.4 14,3.9 20.8,6.6 6.7,2.5 13.1,6.3 15,14.4 1.3,5.2 0.8,10.2 -1,15.4 -3.4,9.7 -16.4,14.5 -27.4,12 -10.1,-2.1 -16.9,-8.7 -21.8,-17 -2.9,-4.8 -4.8,-10.5 -7.2,-15.6 -0.6,-1.5 -1.8,-2.8 -2.5,-4.2 -0.3,0.1 -0.6,0.3 -1,0.3 -0.3,1 -0.8,2 -0.8,3 -0.1,11.2 -0.1,22.5 0,33.7 0,1 1,2.5 1.5,2.5 1.3,0 2.8,-0.6 3.5,-1.5 1.3,-1.5 2,-3.2 2.9,-4.8 1.6,-2.9 3.8,-3.2 6.4,-1.1 1.5,1.3 3.2,2.4 4.7,3.7 13.6,10.9 42.2,9.2 51.1,-15.9 4,-11.6 2.9,-23.1 -4.4,-33.4 -2.1,-3 -5.2,-6.1 -8.5,-7.4 -7.4,-3.2 -15.1,-5.6 -22.8,-8.2 -5.8,-2 -11.7,-3.9 -16.9,-7.6 -8.1,-5.6 -9,-20.8 -1.3,-27.9 10.3,-9.5 20.9,-8.6 30.9,-1.1 7.7,5.8 13.6,13.4 16.2,22.8 0,0.9 0.9,1.8 1.4,2.6 z"
     id="path22" /><path
     class="st0"
     d="m 310.4,260.1 c 0,4.4 0,8 0,11.4 0,10.2 0,20.4 0,30.5 0,7.8 0.3,8 8.1,8.8 1.6,0.3 3.9,1.6 4.4,3 0.5,1.3 -1,3.2 -2,4.7 -0.3,0.5 -1.5,0.6 -2.3,0.6 -10.2,0 -20.3,0 -30.5,0 -2.9,0 -4.7,-1.5 -4.8,-4.4 -0.1,-3 1.9,-3.9 4.7,-4.2 8,-0.6 8.2,-0.8 8.2,-9 0,-29.3 0,-58.4 0,-87.7 0,-1.3 -0.1,-2.5 -0.1,-3.9 0.1,-3 -1.5,-4.5 -4.5,-4.4 -1.5,0 -2.9,0.1 -4.3,-0.1 -2.5,-0.3 -4.3,-1.8 -4.3,-4.4 0.1,-2.9 1.9,-4.2 4.7,-4.2 22.5,0 44.9,0 67.4,0 3.9,0 5.6,1.6 5.7,5.4 0.3,9 0.5,17.8 0.8,26.6 0.1,2.5 -0.3,4.7 -3.2,4.8 -2.9,0.3 -3.5,-2 -4,-4.4 -1.1,-4.4 -2,-8.8 -3.9,-12.7 -3.5,-7.6 -9.7,-11.7 -18.6,-11.2 -5.6,0.3 -11.1,0.3 -16.8,0 -3.2,-0.1 -4.4,1.5 -4.4,4.2 -0.1,13.1 -0.1,26.2 -0.1,39.4 0,2 0.8,2.5 2.8,2.5 8.7,0.3 15.9,-2.5 20.1,-10.5 1,-1.6 0.8,-3.9 1.6,-5.8 0.6,-1.3 2.3,-2.3 3.4,-3.4 1,1.5 3,2.8 3,4.2 0.3,13.1 0.3,26.5 0,39.8 0,1.5 -2,2.9 -3,4.2 -1.1,-1.1 -2.9,-2.1 -3.2,-3.5 -1.8,-7.2 -5.2,-12.9 -12.7,-15 -3.9,-0.7 -7.8,-0.8 -12.2,-1.3 z m 28.5,-26.2 c -0.3,0 -0.8,0.1 -1.3,0.1 -0.3,1 -1,2 -1.3,3.2 -3.3,11.1 -9.3,15.8 -20.9,16.2 -6.7,0.3 -6.7,0.3 -6.7,-6.2 0,-12 -0.1,-23.9 -0.1,-35.8 0,-5.3 1.9,-7.6 6.7,-7.6 6.2,-0.1 12.2,-0.1 18.4,0 6.6,0.1 11.5,3.2 15.4,8.1 4,4.7 5.3,10.7 6.7,16.7 0.3,1.3 1.5,3.5 2.4,3.5 2.5,0.1 1.6,-2.4 1.6,-3.8 -0.3,-8 -1,-15.8 -1.5,-23.6 -0.3,-5.3 -0.3,-5.4 -5.3,-5.4 -20.6,-0.1 -41.1,-0.1 -61.7,-0.1 -1.3,0 -2.8,-0.3 -3.9,0.3 -1,0.3 -1.6,1.5 -2.5,2.1 0.8,0.8 1.5,2 2.5,2.4 1.5,0.5 3,0.3 4.5,0.3 4.4,0.5 5.8,2 5.8,6.3 0,31.6 0,63.2 -0.1,94.8 0,4.5 -1.1,5.9 -5.4,6.7 -1.5,0.3 -3,0.1 -4.5,0.5 -1,0.3 -1.9,1.5 -2.8,2.1 0.8,0.8 1.6,2.4 2.5,2.5 2.3,0.3 4.7,0.1 7.2,0.1 7.8,0 15.6,0.1 23.3,-0.1 1.1,0 2.3,-1.5 3.4,-2.3 -1.3,-0.8 -2.3,-1.9 -3.5,-2.5 -1,-0.3 -2,0 -3,-0.3 -4.3,-0.6 -6.1,-2.5 -6.1,-6.9 0,-14.5 0.1,-28.8 0.1,-43.4 0,-1 0.1,-2 0.3,-3.2 6.9,-0.1 13.4,0 19.2,3.5 5.9,3.5 8.1,9.6 10.1,16 1,-1.3 1.6,-2.5 1.6,-3.8 0.1,-12.2 0.1,-24.6 0,-37 -0.2,-0.8 -0.9,-2.1 -1.1,-3.4 z"
     id="path23" /><path
     class="st0"
     d="m 196.1,366.9 c 1.1,-4 2.1,-7.8 3.4,-12.2 1.3,0.3 3.5,0.6 5.7,1.5 3.8,1.3 3.78403,4.52583 1.37788,6.41485 -1.65813,1.30178 -1.13276,3.59396 0.12242,6.08285 -0.6,0.3 -2.02126,0.42586 -2.02126,0.42586 -2.71965,-4.0438 -1.36364,-2.97474 -3.86811,-6.80862 -0.71407,1.78599 -1.27234,3.44066 -1.0615,5.52492 0,0 -3.04943,-0.73986 -3.64943,-0.93986 z m 8.5549,-5.97077 c 0.69656,-0.34023 1.43743,-1.10265 0.95418,-2.12088 -0.44765,-0.94319 -3.59222,-1.57846 -3.59222,-1.57846 l -0.91829,2.83169 c 0,0 2.45992,1.40319 3.55633,0.86765 z"
     id="path24"
     sodipodi:nodetypes="cccscccccascca" /><path
     class="st0"
     d="m 330.1,365.8 c 2.9,-0.6 5.2,-1.3 7.4,-1.6 3,-0.3 5.01665,0.57472 4.20862,4.5977 C 341.59047,369.38595 342.4,370 342.7,370.5 c 2,2.5 1.6,4.5 -1.5,5.8 -2.4,1 -4.8,1.5 -7.6,2.1 1.3,-5 -0.3,-8.9 -3.5,-12.6 z m 7.19779,9.84738 c 0,0 4.69651,-0.72131 4.26165,-3.43532 -1.15293,-1.67056 -4.96479,0.12357 -4.96479,0.12357 z m 2.43492,-9.325 c -1.18132,-1.43682 -5.24936,0.36327 -5.24936,0.36327 l 1.57873,3.07584 c 0,0 5.13929,-1.65282 3.67063,-3.43911 z"
     id="path25"
     sodipodi:nodetypes="ccsccccccccccsc" /><path
     class="st0"
     d="m 273.8,382.7 c -2,-2.9 -3.9,-5.7 -5.9,-8.6 -1.94944,2.72528 -1.21473,4.16651 -0.15856,8.02492 L 263.1,382.1 c 1.6,-4 2.5,-8.1 1,-12.4 5.8,-1.6 5.7,5.2 10,7.6 -0.3,-2.5 -0.3,-4.8 -0.5,-7.2 0.6,0 1.9,0.1 3,0.3 -0.3,2 -0.8,4 -1,6.1 -0.3,2 -0.3,4.2 -0.5,6.2 -0.6,-0.1 -0.9,-0.1 -1.3,0 z"
     id="path26"
     sodipodi:nodetypes="ccccccccccc" /><path
     class="st0"
     d="m 232.9,377.3 c 1,-4.7 1.9,-8.6 2.9,-12.7 1.8,0.3 4.4,0.8 6.7,1.5 2.5,0.8 3.29022,3.19165 1.36849,5.83222 -0.3,0.8 0.1,1.13771 0.24129,2.09785 -0.6,1.5 -1.40978,3.76993 -2.40978,3.76993 -3.1,0.4 -6.4,-0.2 -8.8,-0.5 z m 8.7621,-3.08133 c 0.0994,-1.84408 -5.20101,-1.90889 -5.20101,-1.90889 l -0.87391,3.42191 c 4.6134,1.073 5.96263,0.57079 6.07492,-1.51302 z m -4.72678,-3.57953 c 1.89403,0.0759 4.11342,0.94945 5.18497,-0.4136 C 242.66806,369.52875 242.3,367.9 241.7,367.6 c -1.1,-0.6 -2.54511,-0.44964 -3.84511,-0.84964 z"
     id="path27"
     sodipodi:nodetypes="cccccccaccacaccc" /><path
     class="st0"
     d="m 210.8,366.3 c 0,-3.8 3.2,-6.7 7.2,-6.7 3,0.1 5.7,2.9 5.8,6.3 0,3.5 -2.8,6.7 -6.2,6.7 -4.2,0.3 -6.8,-2.5 -6.8,-6.3 z m 10.60775,-1.59656 c -0.33541,-1.76401 -2.55441,-3.43218 -4.33472,-3.19819 -2.11556,0.27805 -4.18885,2.87754 -3.99403,5.00238 0.18796,2.05005 2.63088,4.35 4.66683,4.04511 2.27497,-0.34068 4.0916,-3.58945 3.66192,-5.8493 z"
     id="path28"
     sodipodi:nodetypes="scccsaaaaa" /><path
     class="st0"
     d="m 291.2,376.8 c -0.1,3.5 -2.9,6.6 -6.2,6.6 -2.9,-0.1 -6.09856,-3.8 -6.09856,-6.7 0,-3.2 2.89856,-6.6 6.29856,-6.6 3.6,0.3 6,3.1 6,6.7 z m -2.7,0.1 c 0,-2.8 -0.3,-5.4 -3.4,-5.3 -2.8,0 -3.5,2.5 -3.3,4.8 0.3,2.4 -0.5,5.3 3.4,5.3 3.6,0 3,-2.9 3.3,-4.8 z"
     id="path29"
     sodipodi:nodetypes="ccscccccsc" /><path
     class="st0"
     d="m 314.4,368.2 c 1.1,-0.3 2.5,-0.3 3.5,-0.6 0.3,3 0.3,5.9 1.1,8.6 0.3,1 2.65931,2.14707 4.09064,1.75581 1.23973,-0.33888 2.47678,-1.91162 2.27678,-3.11162 -0.3,-2.5 -0.96742,-5.24419 -1.66742,-8.04419 0.5,-0.1 1.6,-0.5 2.8,-0.8 0.3,2.8 0.3,5.2 0.6,7.6 0.5,3.4 -0.8,5.6 -4.2,6.2 -3.5,0.6 -5.8,-0.8 -6.7,-4.2 -0.3,-2.1 -1,-4.5 -1.8,-7.4 z"
     id="path30"
     sodipodi:nodetypes="cccaccccccc" /><path
     class="st0"
     d="m 186.4,364.2 c -1.9,-0.5 -3.5,-0.8 -4.4,-1 1,-4 1.9,-7.8 3,-12.4 2,0.6 5.97304,0.57724 8,2.5 0.90293,0.85651 1.6,2.5 1.3,3.5 -0.3,1 -1.83581,1.73302 -3,2.1 -0.57224,0.18038 -1.1,0 -1.8,0 -4.4,0.2 -5,1 -3.1,5.3 z m -0.0402,-7.46781 c 2.3,0.3 5.71966,0.81072 6.00171,-1.05345 0.27662,-1.82831 -5.00915,-2.75517 -5.00915,-2.75517 z"
     id="path31"
     sodipodi:nodetypes="cccasacccscc" /><path
     class="st0"
     d="m 260.1,374.7 c -0.3,3.4 -3.5,6.7 -6.7,6.4 -3.5,-0.3 -6.3,-3.4 -6.2,-6.9 0.3,-3.7 3.5,-6.7 7.2,-6.4 3,0.1 6,3.7 5.7,6.9 z m -10.2,0.6 c -0.3,2.4 0.5,4.3 3.5,4.3 2.9,0 4.3,-2 4.2,-6.2 0,-2.5 -1,-4 -3.7,-4 -2.7,0 -4,1.6 -4,5.9 z"
     id="path32" /><path
     class="st0"
     d="m 394.8,356.9 c 0,3.5 -2.5,6.3 -5.8,6.3 -3.9,0 -6.9,-3.2 -6.7,-7.2 0.1,-3.8 2.9,-6.3 6.7,-6.2 3.3,0.3 5.8,3.2 5.8,7.1 z m -2.22935,-0.0854 C 392.52809,354.4501 390.8,351.1 388.4,351.5 c -2.4,0.3 -3.9,1.5 -3.9,4 0,3.4 2.3,6.7 4.7,6.2 1.3,-0.3 3.40691,-2.87029 3.37065,-4.88545 z"
     id="path33"
     sodipodi:nodetypes="ssccsscscs" /><path
     class="st0"
     d="m 306.7,382.2 c -1.6,0.1 -3.5,0.3 -4.4,0.3 -0.5,-4.3 -0.8,-8.2 -1.3,-12.9 2,0 5.2,-0.3 8.2,0.1 1,0.1 2.4,1.5 2.5,2.5 0.1,1.1 -0.8,2.5 -1.6,3.4 -0.6,0.6 -1.6,0.6 -2.5,1 -1,0.5 -2.9,1.3 -2.8,1.6 0,1.4 0.9,2.5 1.9,4 z m -2.6661,-6.82588 c 0,0 3.05577,0.0213 5.15978,-1.2678 0.47011,-0.6316 0.17011,-2.57011 -0.42989,-2.67011 -1,-0.5 -4.60111,-0.3322 -5.26491,-0.23621 z"
     id="path34"
     sodipodi:nodetypes="cccccccccccccc" /><path
     class="st0"
     d="m 378.4,353.6 c 0.3,1.3 0.5,2.5 1,4.8 -2.9,-2.8 -4.9,-5.4 -8,-2.3 -1.5,1.6 -0.1,6.9 1.6,8.1 2.8,1.6 4.4,0.8 6.6,-3.2 0.3,0.3 0.6,0.3 0.8,0.5 -0.8,1.3 -1.3,2.9 -2.4,3.9 -2.3,2 -4.8,1.5 -7.2,-0.1 -2.9,-1.9 -3.2,-4.8 -2.4,-8 1.3,-3.3 3.7,-4.1 10,-3.7 z"
     id="path35" /><path
     class="st0"
     d="m 351.6,371.8 c 4.2,-0.8 4.2,-0.8 5.2,-4.7 2.5,3.5 2.4,3.9 -1.6,5.3 -2,0.8 -4.2,1.3 -6.4,2 0.8,-5.2 -1.3,-10.2 -4.9,-11.9 2.3,-0.6 4,-1.3 5.2,-1.5 0.9,3.7 1.8,7.2 2.5,10.8 z"
     id="path36" /><path
     class="st0"
     d="m 363,370.5 c 1,-4.2 -0.6,-9.7 -3.8,-12.1 1.9,-0.6 3.4,-1.1 4.8,-1.6 -0.3,4.7 0.6,8.6 3.7,12.2 -1.3,0.5 -2.9,0.9 -4.7,1.5 z"
     id="path37" /><path
     id="path687"
     style="display:inline;fill:#ffffff;fill-opacity:1"
     d="m 179.59961,7.5 c 2.7,6.9 4.90117,12.899609 7.20117,19.099609 -7.3,2 -8.60039,5.501172 -5.40039,11.701172 0.4,0.8 0.20038,2.199219 -0.0996,3.199219 -2.4,9.4 -3.10039,18.800781 1.09961,27.800781 2,4.1 4.79922,7.6 7.19922,11.5 -1.1,1.9 -2.39922,3.898438 -3.19922,5.898438 -3.6,8.9 7.19883,20.701561 16.79883,19.101561 2.2,-0.4 4.40117,-1.6 6.20117,-1 4,1.4 7.60039,1 11.40039,-1 3.1,7.8 4.79922,15.59922 4.69922,23.69922 0,0.9 -1.00078,1.9 -1.80078,2.5 -4.5,3 -5.49883,8.39961 -1.29883,11.59961 2.6,1.9 3.90039,3.80078 3.40039,5.80078 7.3,6.9 3.79844,14.79961 4.39844,23.09961 -11.4,-2 -21.89844,-3.90039 -32.89844,-5.90039 -0.2,0.3 -0.70078,1.30078 -1.30078,2.30078 -2.8,5.4 -6.2,10.29961 -11.5,13.59961 -3.7,2.2 -7.40039,4.29922 -10.90039,6.69922 -2.9,2.1 -2.59922,6.4 0.30078,8 1.7,0.9 3.69922,2 5.19922,1.5 1.7,-0.5 3.10039,-2.5 4.90039,-4 5.9,4.7 9.99961,11.50117 10.59961,19.20117 0.9,13.8 0.40039,27.69961 -2.09961,41.59961 -2.4,13 -4.19922,25.99961 -5.69922,39.09961 -1.2,10.4 0.89844,20.60117 4.39844,30.20117 2.1,5.4 5.1,10.7 9,15 5.5,6.2 13.20078,9.79844 21.30078,11.89844 3.4,1 3.90078,2.50078 2.80078,5.80078 -9.6,-3 -19.20078,-6.19922 -28.80078,-9.19922 -9.2,-2.9 -18.2,-6.00039 -28,-4.40039 -7,1.1 -14.19961,1.10039 -19.59961,6.40039 -1.5,1.5 -1.5,2.2 -0.5,4 2.5,4.7 4.79922,9.49883 7.19922,14.29883 -0.2,0.3 -0.49883,0.79961 -0.79883,1.09961 -5.3,-1 -10.70156,-1.9 -15.60156,-3.5 -8.5199,-2.71949 -11.62109,-8.44727 -11.6211,-8.44727 1.74417,6.48878 3.52266,12.04883 9.22266,15.54883 5.1,3.3 10.8,5.89922 16,8.69922 -12.84371,1.72388 -16.12109,-3.52148 -16.12109,-3.52148 0.66951,4.71806 3.46272,6.56464 7.13476,9.17773 0,0 4.25066,1.91466 8.66211,3.94336 11.8,4.5 23.52383,6.2 35.92383,2 7.8,-2.7 11.39883,-8.09883 9.79883,-15.79883 -0.1,-0.3 0,-0.80156 0,-1.60156 8.3,2.5 16.50156,4.70117 24.60156,7.20117 0.7,0.3 1.5,1.60039 1.5,2.40039 -0.3,11.5 -0.50078,22.89883 -1.30078,34.29883 -0.27678,2.77565 -0.95661,6.40515 -3.58984,7.87305 -1.53081,0.74423 -1.94805,1.70156 -2.68555,3.44531 -0.44375,0.95 -1.52539,2.18125 -2.52539,2.78125 -5,2.8 -6.5,9.30156 -2.5,13.10156 2.6,2.4 5.30117,4 4.70117,8 0,0.5 1.19883,0.99961 1.79883,1.59961 2.2,2.4 3.90766,4.62067 3.36328,7.21875 -0.67047,3.20013 -3.86328,6.48047 -7.36328,6.48047 -2.4,0 -2.59844,1.40039 -2.89844,3.40039 -0.2,1.3 -1,2.80039 -2,3.40039 -17.84307,8.19962 -11.65669,20.15371 -7.70117,23.5 0.89802,0.7597 4.84889,2.90814 2.09961,3.09961 -5.8,0 -11.59844,0.20038 -17.39844,-0.0996 -3.4,-0.1 -4.5,0.90039 -4.5,4.40039 0.3,14.9 0.3,29.49844 0,44.39844 -0.2,3.6 0.8,4.70117 4.5,4.70117 32.90083,-0.0498 65.82662,-0.0755 98.75195,-0.0879 32.92533,0.0124 65.84917,0.0381 98.75,0.0879 3.7,0 4.7,-1.10117 4.5,-4.70117 -0.3,-14.9 -0.3,-29.49844 0,-44.39844 0,-3.5 -1.1,-4.50039 -4.5,-4.40039 -5.8,0.29999 -11.59843,0.0996 -17.39843,0.0996 -2.74928,-0.19147 1.20159,-2.33991 2.09961,-3.09961 1.97776,-1.67314 4.51356,-5.49793 4.32421,-9.92969 -0.0473,-1.10794 -0.26389,-2.25443 -0.70312,-3.41406 -1.31769,-3.47888 -4.63111,-7.08139 -11.32227,-10.15625 -1,-0.6 -1.8,-2.10039 -2,-3.40039 -0.3,-2 -0.49843,-3.40039 -2.89843,-3.40039 -3.5,0 -6.69281,-3.28034 -7.36328,-6.48047 -0.54438,-2.59808 1.16328,-4.81875 3.36328,-7.21875 0.6,-0.6 1.79882,-1.09961 1.79882,-1.59961 -0.15,-1 -0.0923,-1.84961 0.11719,-2.59961 0.41897,-1.5 1.45096,-2.60117 2.66992,-3.70117 0.60949,-0.55 1.26407,-1.09922 1.91407,-1.69922 4,-3.8 2.5,-10.30156 -2.5,-13.10156 -1,-0.6 -2.08164,-1.83125 -2.52539,-2.78125 -0.36875,-0.87188 -0.65708,-1.54733 -1.04493,-2.09766 -0.38784,-0.55033 -0.87522,-0.97554 -1.64062,-1.34765 -2.63323,-1.4679 -3.31306,-5.0974 -3.58984,-7.87305 -0.8,-11.4 -1.00079,-22.79883 -1.30079,-34.29883 0,-0.8 0.8,-2.10039 1.5,-2.40039 8.1,-2.5 16.30157,-4.70117 24.60157,-7.20117 0,0.8 0.1,1.30156 0,1.60156 -1.6,7.7 1.99882,13.09883 9.79882,15.79883 9.3,3.15 18.22143,2.98047 27.07813,0.80078 2.95223,-0.72656 5.8957,-1.67578 8.8457,-2.80078 4.41145,-2.0287 8.66211,-3.94336 8.66211,-3.94336 3.49526,-2.50261 6.46526,-4.45967 7.13477,-9.17773 0,0 -3.27739,5.24536 -16.1211,3.52148 5.2,-2.8 10.9,-5.39922 16,-8.69922 1.425,-0.875 2.60602,-1.87931 3.60157,-2.99414 0.99555,-1.11483 1.80657,-2.34085 2.49414,-3.66016 1.37514,-2.63861 2.25487,-5.65014 3.12695,-8.89453 0,0 -3.10119,5.72778 -11.62109,8.44727 -4.9,1.6 -10.30157,2.5 -15.60157,3.5 -0.3,-0.3 -0.59882,-0.79961 -0.79882,-1.09961 2.4,-4.8 4.69921,-9.59883 7.19921,-14.29883 1,-1.8 1,-2.5 -0.5,-4 -1.35,-1.325 -2.81175,-2.31949 -4.35546,-3.08203 -1.54372,-0.76254 -3.1688,-1.29331 -4.84375,-1.69336 -3.34991,-0.8001 -6.90039,-1.075 -10.40039,-1.625 -2.45,-0.4 -4.84922,-0.5055 -7.21485,-0.39453 -2.36562,0.11097 -4.69726,0.43745 -7.00976,0.90625 -4.625,0.9376 -9.17539,2.43867 -13.77539,3.88867 -9.6,3 -19.20079,6.19922 -28.80079,9.19922 -1.1,-3.3 -0.59921,-4.80078 2.80079,-5.80078 6.075,-1.575 11.92712,-3.99263 16.79296,-7.71875 1.62195,-1.24204 3.13282,-2.62969 4.50782,-4.17969 3.9,-4.3 6.9,-9.6 9,-15 2.625,-7.2 4.46294,-14.73873 4.71093,-22.44531 0.0827,-2.56886 -0.0125,-5.15586 -0.3125,-7.75586 -1.5,-13.1 -3.29921,-26.09961 -5.69921,-39.09961 -2.5,-13.9 -2.99961,-27.79961 -2.09961,-41.59961 0.15,-1.925 0.51917,-3.79403 1.08007,-5.58789 0.56091,-1.79386 1.31373,-3.51157 2.23243,-5.13672 1.8374,-3.25029 4.33711,-6.12656 7.28711,-8.47656 1.8,1.5 3.20039,3.5 4.90039,4 1.5,0.5 3.49922,-0.6 5.19921,-1.5 1.45001,-0.8 2.25098,-2.275 2.32618,-3.8125 0.0376,-0.76875 -0.10515,-1.55391 -0.43946,-2.27734 -0.3343,-0.72344 -0.86093,-1.38516 -1.58593,-1.91016 -3.5,-2.4 -7.20039,-4.49922 -10.90039,-6.69922 -5.3,-3.3 -8.7,-8.19961 -11.5,-13.59961 -0.6,-1 -1.10079,-2.00078 -1.30079,-2.30078 -11,2 -21.49843,3.90039 -32.89843,5.90039 0.6,-8.3 -2.90157,-16.19961 4.39843,-23.09961 -0.5,-2 0.80039,-3.90078 3.40039,-5.80078 4.2,-3.2 3.20118,-8.59961 -1.29882,-11.59961 -0.8,-0.6 -1.80078,-1.6 -1.80078,-2.5 -0.1,-8.1 1.59921,-15.89922 4.69921,-23.69922 3.8,2 7.40039,2.4 11.40039,1 1.8,-0.6 4.00118,0.6 6.20118,1 1.2,0.2 2.41995,0.19086 3.62695,0.004 8.44899,-1.3087 16.32187,-11.317971 13.17187,-19.105471 -0.8,-2 -2.09921,-3.998438 -3.19921,-5.898438 2.4,-3.9 5.19921,-7.4 7.19921,-11.5 4.2,-9 3.49961,-18.400781 1.09961,-27.800781 -0.29999,-1 -0.4996,-2.399219 -0.0996,-3.199219 3.20001,-6.2 1.89961,-9.701172 -5.40039,-11.701172 2.3,-6.2 4.50118,-12.199609 7.20118,-19.099609 H 284.05273 Z M 260.80078,9 c -0.2,3.1 -0.50078,5.7 -0.80078,8.5 -0.2,2.6 -1.90039,2 -3.40039,2 H 223.5 c -8.3,0 -16.59961,-0.200392 -25.09961,0.09961 -2.5,0 -3.7,-0.799218 -4,-3.199218 -0.2,-2.4 -0.7,-4.701172 -1,-7.2011722 23,-10e-8 45.20039,7.822e-4 67.40039,-0.1992198 z m 46.50195,0 c 22.2,0.200001 44.40039,0.1992187 67.40039,0.1992188 -0.3,2.5000002 -0.8,4.8011722 -1,7.2011722 -0.3,2.4 -1.5,3.199218 -4,3.199218 -4.24999,-0.15 -8.44814,-0.174707 -12.62304,-0.162109 -4.1749,0.0126 -8.32656,0.0625 -12.47656,0.0625 h -33.09961 c -1.5,0 -3.20039,0.6 -3.40039,-2 -0.3,-2.8 -0.60079,-5.4 -0.80079,-8.5 z M 183.40039,9.1992188 h 7.79883 C 191.89922,12.699219 192.40039,16 192.90039,19 c -6.6,1.4 -10.5,-2.600781 -9.5,-9.8007812 z m 81.69922,0 h 15.5 c -2,1.7000002 -4.69922,4.0015622 -7.19922,6.1015622 0,0 -4.80078,-3.601562 -8.30078,-6.1015622 z m 22.4043,0 h 15.5 c -3.5,2.5000002 -8.30079,6.1015622 -8.30079,6.1015622 -2.49999,-2.1 -5.19921,-4.401562 -7.19921,-6.1015622 z m 89.40039,0 h 7.79882 c 1,7.2000002 -2.89999,11.2007812 -9.5,9.8007812 0.50001,-3 1.00118,-6.300781 1.70118,-9.8007812 z M 262.19922,11.800781 c 6.4,-0.1 9.20117,4.598438 12.20117,8.898438 2.2,-2.7 4.10039,-5.199219 6.40039,-7.199219 1.19922,-1.0279 2.25212,-1.560419 3.25195,-1.605469 0.99983,0.04505 2.05078,0.577569 3.25,1.605469 2.3,2 4.2004,4.499219 6.40039,7.199219 3.00001,-4.3 5.80118,-8.998438 12.20118,-8.898438 0.6,5.7 1.49961,11.098438 -2.90039,14.898438 2,2.5 3.90039,4.401172 5.40039,6.701172 0.125,0.15 0.18725,0.38136 0.20117,0.65625 0.0417,0.82467 -0.35274,2.042578 -0.80274,2.642578 -0.825,0.7 -2.15,1.169531 -3.72656,1.433593 -1.57656,0.264063 -3.40312,0.321875 -5.23437,0.203126 -3.6625,-0.2375 -7.33907,-1.186719 -9.03907,-2.636719 -0.3,-0.25 -0.79951,-0.499316 -1.26171,-0.636719 -0.46221,-0.137403 -0.88711,-0.162891 -1.03711,0.03711 -0.58704,0.513656 -1.16943,0.903661 -1.7461,1.185547 -0.57666,0.281886 -1.14622,0.456318 -1.70508,0.541016 -1.11771,-0.169396 -2.27905,-0.699251 -3.45312,-1.726563 -0.3,-0.4 -1.69883,0.09961 -2.29883,0.59961 -3.4,2.9 -14.7,3.8 -18,1 -0.6,-0.8 -1.10156,-2.698828 -0.60156,-3.298828 1.5,-2.3 3.40039,-4.201172 5.40039,-6.701172 -4.4,-3.8 -3.50039,-9.198438 -2.90039,-14.898439 z m -70.98828,9.3125 c 1.88906,-0.295312 2.41367,0.660938 3.38867,3.585938 0.3,1 0.80078,1.90039 1.30078,2.90039 0.3,0.7 0.99961,1.5 1.59961,2.5 -5.5,1.5 -8.49922,-1.098828 -8.69922,-8.298828 1,-0.35 1.78047,-0.589062 2.41016,-0.6875 z m 185.68164,0 c 0.62969,0.09844 1.41015,0.3375 2.41015,0.6875 -0.2,7.2 -3.19921,9.798828 -8.69921,8.298828 0.6,-1 1.29961,-1.8 1.5996,-2.5 0.5,-1 1.00079,-1.90039 1.30079,-2.90039 0.975,-2.925 1.49961,-3.88125 3.38867,-3.585938 z M 254,21.199219 c 4.4,-0.3 7.29961,0.60039 8.09961,4.90039 -1.5,2.3 -2.99883,4.49961 -4.29883,6.59961 -1.9,3 -0.4,4.90039 2.5,5.90039 5.7,2 11.19844,2 16.89844,0 1.6,-0.6 3.50078,-0.6 5.30078,-0.5 0.51739,0.0336 1.03534,0.06949 1.55273,0.105469 0.51739,-0.03598 1.0334,-0.07187 1.55079,-0.105469 1.8,-0.1 3.70078,-0.1 5.30078,0.5 1.425,0.5 2.83803,0.875 4.24414,1.125 1.4061,0.25 2.80527,0.375 4.20508,0.375 1.3998,0 2.80092,-0.125 4.20703,-0.375 1.4061,-0.25 2.81718,-0.625 4.24218,-1.125 0.725,-0.25 1.36407,-0.556213 1.88282,-0.921875 1.55625,-1.096984 2.04218,-2.728515 0.61718,-4.978515 -1.3,-2.1 -2.79882,-4.29961 -4.29882,-6.59961 0.2,-1.075 0.53128,-1.936682 0.98437,-2.621093 0.45309,-0.684412 1.02935,-1.192139 1.7168,-1.554688 1.3749,-0.725097 3.19844,-0.874609 5.39844,-0.724609 8.95,0.15 17.95039,0.176172 26.96289,0.164062 9.0125,-0.01211 18.03711,-0.0625 27.03711,-0.0625 h 5.19921 c -1.3,2.9 -2.09882,4.799219 -3.29882,6.699219 -1,1.6 -2.50078,1.900781 -4.30079,0.800781 -12.2,-7.2 -23.30039,-5.701172 -33.40039,4.298828 -4.26177,4.889089 -10.3068,3.19171 -14.84961,2.621094 1.1,4.3 2.24961,7.678516 3.34961,11.478516 -2.9,-1.6 -5.19843,-4.2 -7.39843,-4 -4.7,0.09996 -9.00157,0.301562 -13.60157,0.101562 -2.9,-0.3 -5.79921,-0.301562 -8.69921,-0.101562 -2.3075,0.04354 -4.67065,0.04852 -7.05079,0.04102 -2.38014,0.0075 -4.74523,0.0025 -7.05273,-0.04102 -2.9,-0.2 -5.79922,-0.198438 -8.69922,0.101562 -4.6,0.2 -8.90156,-0.0016 -13.60156,-0.101562 -2.2,-0.2 -4.49844,2.4 -7.39844,4 1.1,-3.8 2.24961,-7.178516 3.34961,-11.478516 -4.5428,0.570616 -10.58784,2.267995 -14.84961,-2.621094 -10.1,-10 -21.20039,-11.498828 -33.40039,-4.298828 -1.8,1.1 -3.30078,0.799219 -4.30078,-0.800781 -1.2,-1.9 -1.99883,-3.799219 -3.29883,-6.699219 H 200 c 18,0 36.1,0.198438 54,-0.101562 z m -38.38672,4.972656 c 5.64453,-0.402344 11.07422,1.441406 16.38672,5.628906 3.3,2.7 6.20039,6.099219 10.90039,6.199219 h 5.29883 c 0.5,3.8 -1.89883,5.999609 -4.79883,7.599609 5.4,4.3 7.79883,13.901172 5.29883,20.201172 -0.5,1 -1.89844,2.4 -2.89844,2.5 -3.6,0.4 -7.40117,0.09961 -11.70117,0.09961 0.5,-1.8 1,-3.201172 1.5,-4.701172 3.5,-11.8 -3.79922,-23.199219 -16.19922,-24.199219 -4.8,-0.4 -9.30117,0.999219 -12.20117,5.199219 -3.1,4.3 -3.5,9.000781 -1.5,13.800781 1.8,4.3 7.10039,6.400391 12.40039,4.400391 -0.9,-0.3 -1.90039,-0.49961 -2.90039,-0.59961 -5.1,-0.6 -7.99961,-2.90039 -8.59961,-6.90039 -0.9,-5.4 1.30078,-10.69961 5.30078,-12.59961 9.5,-4.4 21.29961,1.698438 22.59961,12.898438 C 236,69.499219 222.99922,77.9 213.19922,78.5 199.69922,79.2 191.1,69.100391 191,56.900391 c -0.1,-5.2 -0.19922,-10.3 2.80078,-15 0.3,-0.5 -7.8e-4,-1.7 -0.30078,-2.5 -0.5,-2.2 -1.00078,-4.29961 -1.30078,-5.59961 5,-1.8 9.4,-2.8 13,-4.5 3.5625,-1.8375 7.02734,-2.8875 10.41406,-3.128906 z m 136.87695,0 c 1.69336,0.120703 3.40772,0.444434 5.14258,0.966797 1.73487,0.522363 3.49024,1.243359 5.27149,2.162109 3.6,1.7 8,2.7 13,4.5 -0.3,1.3 -0.80078,3.39961 -1.30078,5.59961 -0.3,0.8 -0.60079,2 -0.30079,2.5 3,4.7 2.90079,9.8 2.80079,15 -0.1,12.2 -8.69922,22.299609 -22.19922,21.599609 -7.35,-0.45 -16.49939,-5.28728 -19.98242,-13.5 -0.58051,-1.368787 -1.0033,-2.831229 -1.23438,-4.382812 -0.23108,-1.551584 -0.27148,-3.192969 -0.084,-4.917969 1.3,-11.2 13.0996,-17.298438 22.5996,-12.898438 1,0.475 1.88782,1.163318 2.64258,2.011719 0.75476,0.848401 1.37686,1.857861 1.84571,2.976562 0.93769,2.237403 1.2625,4.911329 0.8125,7.611329 -0.6,4 -3.49961,6.30039 -8.59961,6.90039 -1,0.1 -2.00039,0.29961 -2.90039,0.59961 5.3,2 10.60039,-0.100391 12.40039,-4.400391 2,-4.8 1.6,-9.500781 -1.5,-13.800781 -2.9,-4.2 -7.40117,-5.599219 -12.20118,-5.199219 -12.39999,1 -19.69921,12.399219 -16.19921,24.199219 0.5,1.5 1,2.901172 1.5,4.701172 -4.3,0 -8.10118,0.30039 -11.70118,-0.09961 -0.5,-0.05 -1.0996,-0.424609 -1.63671,-0.912109 -0.53711,-0.4875 -1.01172,-1.087891 -1.26172,-1.587891 -2.5,-6.3 -0.10117,-15.901172 5.29882,-20.201172 C 321.80313,43.999609 319.4043,41.8 319.9043,38 h 5.29882 c 1.17501,-0.025 2.23825,-0.255933 3.22266,-0.630859 2.95324,-1.124781 5.20274,-3.54336 7.67774,-5.56836 5.3125,-4.1875 10.74218,-6.03125 16.38671,-5.628906 z m -164.79101,3.527344 c 0.9,0 2.2,1.2 2.5,2 0.5,2.6 0.7,5.401172 1,8.201172 -3.4,0.6 -4.49883,-5.300782 -9.29883,-2.300782 0.3,-2.7 -0.40039,-5.098828 0.59961,-6.298828 0.8,-1.1 3.39922,-1.301562 5.19922,-1.601562 z m 192.70508,0 c 1.8,0.3 4.39922,0.501562 5.19922,1.601562 1,1.2 0.29961,3.598828 0.5996,6.298828 -4.19999,-2.625 -5.56545,1.565476 -8.11914,2.251953 -0.36481,0.09807 -0.75468,0.123829 -1.17968,0.04883 0.3,-2.8 0.5,-5.601172 1,-8.201172 0.15,-0.4 0.55039,-0.900782 1.02539,-1.300781 0.475,-0.4 1.02461,-0.699219 1.47461,-0.699219 z m -195.30469,9.101562 c 2.1,1.3 4.6,2.098828 5.5,3.798828 0.6,1.7 -0.7,4.201172 -1,6.201172 -1.7,10.3 0.29961,19.89961 8.59961,27.59961 -2.4,0.9 -4.39844,1.7 -6.39844,2.5 -11.2,-9.1 -12.90117,-28.39961 -6.70117,-40.09961 z m 197.9043,0 c 5.425,10.2375 4.80061,26.293825 -2.94336,36.244141 -1.10629,1.421474 -2.35782,2.717969 -3.75782,3.855469 -2,-0.8 -3.99843,-1.6 -6.39843,-2.5 8.3,-7.7 10.29961,-17.29961 8.59961,-27.59961 -0.3,-2 -1.6,-4.501172 -1,-6.201172 0.9,-1.7 3.4,-2.498828 5.5,-3.798828 z m -102.85938,5.564453 c 1.29504,0.18454 2.55152,0.988075 3.9082,2.410157 0.90446,-0.948055 1.76275,-1.621496 2.61915,-2.019532 2.56918,-1.194107 5.10815,0.08769 8.73242,3.84375 2.8,-6.1 8,-5.098828 10.5,0.201172 0.3,-0.6 0.8,-1 1,-1.5 1.5,-2.9 3.79961,-3.3 6.59961,-2.5 2.8,0.6 3.89921,2.099219 4.19921,5.199219 0.5,7.2 -4.8,11.099609 -11.5,11.099609 -7.4143,-0.04693 -14.78302,-0.115561 -22.15039,-0.144531 -7.36737,0.02897 -14.73803,0.0976 -22.15234,0.144531 -6.7,0 -12,-3.899609 -11.5,-11.099609 0.3,-3.1 1.39922,-4.599219 4.19922,-5.199219 2.8,-0.8 5.09961,-0.4 6.59961,2.5 0.2,0.5 0.7,0.9 1,1.5 2.5,-5.3 7.7,-6.301172 10.5,-0.201172 3.02022,-3.130048 5.28692,-4.541941 7.44531,-4.234375 z m -28.74414,16.535157 c 10.94336,2.286671 21.82776,2.409237 32.65234,2.175781 2.70615,0.05836 5.41536,0.0945 8.12891,0.08008 8.14067,-0.04327 16.31397,-0.540856 24.52148,-2.255859 0.3,1.9 0.80001,4.399218 1.5,7.199218 h -34.15039 -34.15234 c 0.7,-2.8 1.2,-5.299218 1.5,-7.199218 z m -15.09961,9.199218 h 47.75195 47.75 c 2.4,0 4.80157,-0.09883 5.60157,3.201172 h -53.35157 -53.35351 c 0.8,-3.3 3.20156,-3.201172 5.60156,-3.201172 z m -0.20117,5.201172 h 47.95312 47.95118 c 0.1,0.3 0.0988,0.79961 0.29882,1.09961 -1,0.3 -2.1,0.799609 -3,0.599609 -7.6,-2 -8.09843,6.899609 -13.39843,8.599609 -1.17251,0.319776 -2.89362,4.410834 -2.88282,4.433594 -0.0259,1.808031 -0.61796,2.167578 -1.41796,2.767578 -3,2.8 -3.8,4.899219 -2.5,9.199219 0.3,1 0.29921,2.5 -0.30079,3.5 -2,3.5 -1.99843,6.90078 0.10157,10.30078 0.3,0.6 0.8,1.49883 0.5,1.79883 -2.1,2.775 -2.40017,5.66373 -1.74414,8.66406 0.21867,1.00011 0.54336,2.01211 0.94336,3.03711 h -8.5 c 0.15,-1.5 0.35097,-2.94961 0.45117,-4.375 0.10019,-1.42539 0.0996,-2.82656 -0.15039,-4.22656 -0.6,-2.9 -1.6,-5.59961 0,-8.59961 0.6,-1 -7.8e-4,-3.39922 -0.80078,-4.69922 -0.65,-0.95 -0.92481,-1.77432 -0.9375,-2.59961 -0.0127,-0.82529 0.23671,-1.65156 0.63671,-2.60156 0.5,-1.1 0.80157,-2.498829 0.60157,-3.798829 -0.3,-4.3 -2.80078,-8.600391 -0.30078,-12.900391 0.13712,-0.411377 -1.88154,-7.376401 -7.51172,-8.492188 -0.93837,-0.185964 -1.97738,-0.210124 -3.12305,-0.01367 -1.14567,0.196452 -2.3992,0.612917 -3.76563,1.30664 -0.41042,0.228016 -0.78822,0.394356 -1.15039,0.50586 -0.36217,-0.111504 -0.74191,-0.277844 -1.15234,-0.50586 C 271.969,72.750999 268.31717,84.951497 268.5,85.5 c 2.5,4.3 -7.8e-4,8.600391 -0.30078,12.900391 -0.2,1.3 0.10156,2.698829 0.60156,3.798829 0.8,1.9 0.99922,3.30117 -0.30078,5.20117 -0.8,1.3 -1.40078,3.69922 -0.80078,4.69922 1.6,3 0.6,5.69961 0,8.59961 -0.5,2.8 7.8e-4,5.60156 0.30078,8.60156 h -8.5 c 1.6,-4.1 1.99922,-8.00117 -0.80078,-11.70117 -0.3,-0.3 0.2,-1.19883 0.5,-1.79883 2.1,-3.4 2.10156,-6.80078 0.10156,-10.30078 -0.6,-1 -0.60078,-2.5 -0.30078,-3.5 1.3,-4.3 0.5,-6.399219 -2.5,-9.199219 -0.8,-0.6 -1.3921,-0.959547 -1.41797,-2.767578 0.0108,-0.02276 -1.7103,-4.113818 -2.88281,-4.433594 -5.3,-1.7 -5.79844,-10.599609 -13.39844,-8.599609 -0.9,0.2 -2,-0.299609 -3,-0.599609 0.2,-0.3 0.19883,-0.79961 0.29883,-1.09961 z m -6.47852,0.06055 c 2.74121,-0.232422 4.49219,1.400391 7.17969,5.337891 4.3,-3.5 7.69844,-2.599219 9.89844,2.800781 0.3,0.9 1.00156,1.9 1.60156,2 4.1,0.6 4.99922,3.199219 4.69922,6.699219 0,0.5 0.20078,1.101562 0.30078,1.601562 5.8,2 6.79883,5.899611 2.79883,10.599606 4.8,4.7 4.80078,8.40039 0.30078,12.90039 1.1,2 2.7,3.79883 3,5.79883 1,4.9 -1.30117,6.90039 -6.20117,6.90039 -7.2,0 -14.09883,-3.8e-4 -21.29883,0.0996 -2.2,0.2 -3.2,-0.5 -3.5,-3 -1.2,-6.5 -2.60117,-12.89922 -4.20117,-19.19922 -0.7,-3 -2.09961,-5.80078 -0.59961,-8.800778 0.2,-0.7 10e-4,-1.298828 -0.29883,-2.298828 -1.9,3.599996 -3.30156,7.898826 -8.60156,7.798826 -5.2,-0.2 -6.59961,-4 -8.09961,-7.999998 -0.3,0.2 -0.79961,0.2 -1.09961,0.5 0.5,1.9 0.99961,3.800778 1.59961,6.300778 -4.2,1.8 -8.50039,1.4 -12.40039,-1 -4.6,-2.699995 -6.99922,-8.799606 -6.19922,-13.599606 1.4,-8.1 8.10039,-12.401562 15.90039,-9.601562 6.6,2.4 12.69883,1.5 18.79883,-1.5 2.775,-1.3875 4.77715,-2.198438 6.42187,-2.337891 z m 108.86133,0 c 1.64472,0.139453 3.64688,0.950391 6.42188,2.337891 6.1,3 12.19883,3.9 18.79882,1.5 7.80001,-2.8 14.5004,1.501562 15.9004,9.601562 0.2,1.2 0.19992,2.480506 0.0156,3.769531 -0.1843,1.289026 -0.55244,2.587159 -1.08984,3.81836 -0.53741,1.231201 -1.24226,2.395349 -2.10157,3.421875 -0.8593,1.02652 -1.87343,1.91484 -3.02343,2.58984 -3.9,2.4 -8.20039,2.8 -12.40039,1 0.6,-2.5 1.09961,-4.400778 1.59961,-6.300778 -0.3,-0.3 -0.79961,-0.3 -1.09961,-0.5 -1.5,3.999998 -2.89961,7.799998 -8.09961,7.999998 -5.3,0.1 -6.70157,-4.19883 -8.60157,-7.798826 -0.29983,1 -0.49882,1.598828 -0.29882,2.298828 1.5,2.999998 0.10039,5.800778 -0.59961,8.800778 -1.6,6.3 -3.00118,12.69922 -4.20118,19.19922 -0.075,0.625 -0.19296,1.13672 -0.36328,1.55078 -0.17031,0.41406 -0.39257,0.72969 -0.67382,0.96094 -0.5625,0.4625 -1.36289,0.58828 -2.4629,0.48828 -7.2,-0.1 -14.09882,-0.0996 -21.29882,-0.0996 -3.675,0 -5.88678,-1.12606 -6.3418,-3.75586 -0.15167,-0.8766 -0.10938,-1.91953 0.14062,-3.14453 0.30001,-2 1.9,-3.79883 3,-5.79883 -1.125,-1.125 -1.96765,-2.20074 -2.52539,-3.2539 -1.11547,-2.10633 -1.08647,-4.12493 0.12305,-6.28126 0.60476,-1.07816 1.50313,-2.19023 2.70313,-3.36523 -4,-4.699995 -3.00118,-8.599606 2.79882,-10.599606 0.1,-0.5 0.30079,-1.101562 0.30079,-1.601562 -0.3,-3.5 0.59921,-6.099219 4.69921,-6.699219 0.6,-0.1 1.30157,-1.1 1.60157,-2 0.55,-1.35 1.17592,-2.417896 1.87109,-3.207031 1.39033,-1.578272 3.06123,-2.039307 4.97656,-1.392578 0.95767,0.323364 1.97578,0.923828 3.05078,1.798828 2.6875,-3.9375 4.43848,-5.570313 7.17969,-5.337891 z m -60.1582,4.101563 C 279.92422,79.575293 281.5,80.1 283,81 c 0.30166,0.180997 0.66759,0.32572 1.05273,0.425781 0.38514,-0.100061 0.74913,-0.244784 1.05079,-0.425781 3,-1.8 6.3,-2.099609 9.5,-0.599609 2.9,1.5 3.69921,4.399218 3.19921,7.199218 -0.4,1.6 -1.49921,3.100782 -2.19921,4.800782 2.9,3.2 3.70039,7.199609 1.90039,10.099609 -0.4,0.725 -0.83669,1.34954 -1.31641,1.84961 -1.43917,1.50022 -3.25898,1.87617 -5.58398,0.45117 -1.49155,2.20749 -4.0493,3.70332 -6.55079,4.04102 -2.50149,-0.3377 -5.06118,-1.83353 -6.55273,-4.04102 -3.1,1.9 -5.30039,0.59922 -6.90039,-2.30078 -1.8,-2.9 -0.99961,-6.899609 1.90039,-10.099609 -0.7,-1.7 -1.79922,-3.200782 -2.19922,-4.800782 -0.5,-2.8 0.29922,-5.699218 3.19922,-7.199218 1.6,-0.75 3.22422,-1.049903 4.82422,-0.9375 z m -5.46094,27.812496 c 1.4625,-0.05 3.13672,0.325 4.63672,1.125 2.19851,1.19086 4.37678,1.94204 6.55273,2.11719 2.17595,-0.17515 4.35228,-0.92633 6.55079,-2.11719 1.5,-0.8 3.17421,-1.175 4.63671,-1.125 1.4625,0.05 2.71329,0.52383 3.36329,1.42383 1.4,2.6 0.39921,4.60078 -3.80079,7.30078 0.6,0.5 1,0.8 1.5,1 2.5,1.8 3.5,5.69922 2.5,9.19922 -0.75,2.475 -2.28548,3.32037 -4.23046,3.58789 -0.64833,0.0892 -1.34336,0.11328 -2.06836,0.11328 -2.84672,-0.0463 -5.64998,-0.05 -8.45118,-0.041 -2.8012,-0.009 -5.6064,-0.005 -8.45312,0.041 -2.9,0 -5.29883,-0.40117 -6.29883,-3.70117 -1,-3.5 0,-7.39922 2.5,-9.19922 0.5,-0.2 0.9,-0.5 1.5,-1 -4.2,-2.7 -5.20078,-4.70078 -3.80078,-7.30078 0.65,-0.9 1.90078,-1.37383 3.36328,-1.42383 z M 227.90039,131.5 h 56.15234 56.15039 c 3.90001,0 5.80079,1.59922 5.80079,5.19922 0.1,3.4 -1.50078,4.90078 -5.30079,5.30078 -1.79999,0.3 -3.49882,0.30078 -5.29882,0.30078 -17.1174,0.048 -34.23379,0.0722 -51.35157,0.0742 -17.11778,-0.002 -34.23611,-0.0262 -51.35351,-0.0742 -1.8,0 -3.49883,-7.8e-4 -5.29883,-0.30078 -3.8,-0.4 -5.40078,-1.90078 -5.30078,-5.30078 0,-3.6 1.90078,-5.19922 5.80078,-5.19922 z m 2.76172,12.5 c 0.3125,0.025 0.6375,0.0996 0.9375,0.0996 h 52.45312 52.45118 c 0.3,0 0.625,-0.0746 0.9375,-0.0996 0.3125,-0.025 0.61132,-7.8e-4 0.86132,0.19922 0.6,0.3 1.30039,1 1.90039,1.5 -0.6,0.6 -0.9996,1.50078 -1.5996,1.80078 -0.3,0.15 -0.69922,0.17471 -1.13672,0.16211 -0.4375,-0.0126 -0.91328,-0.0625 -1.36328,-0.0625 -17.38402,-0.19622 -34.67021,-0.19918 -52.05079,-0.19922 -17.38058,4e-5 -34.66871,0.003 -52.05273,0.19922 -0.9,0 -1.9,0.20038 -2.5,-0.0996 -0.6,-0.3 -0.99961,-1.20078 -1.59961,-1.80078 0.6,-0.5 1.30039,-1.2 1.90039,-1.5 0.25,-0.2 0.54883,-0.22422 0.86133,-0.19922 z m 0.83789,5.5 h 52.55273 52.55079 c -0.1,6.1 -0.30079,11.70078 -0.30079,17.30078 0,2.4 -0.6,3.39844 -3,3.39844 -4.3,0.1 -8.59921,0.80078 -12.69921,0.80078 -12.16901,0.41962 -24.35411,0.71633 -36.55079,0.76367 C 271.85605,171.71633 259.66901,171.41962 247.5,171 c -4.1,0 -8.39922,-0.70078 -12.69922,-0.80078 -2.4,0 -3,-0.99844 -3,-3.39844 0,-5.6 -0.20078,-11.20078 -0.30078,-17.30078 z m -32.01172,17.13281 c 0.38129,-0.0139 0.8125,0.0676 1.3125,0.26758 11.5,4.2 23.59961,4.79883 35.59961,5.29883 15.88004,0.55235 31.8085,1.0097 47.65234,1.20703 15.84384,-0.19733 31.77035,-0.65468 47.65039,-1.20703 9,-0.375 18.05597,-0.8058 26.87305,-2.76953 2.93903,-0.65458 5.85156,-1.4793 8.72656,-2.5293 1,-0.4 1.72608,-0.3251 2.32618,0.0371 0.60009,0.36221 1.07421,1.01172 1.57421,1.76172 2.80001,3.9 5.70079,7.8 8.80079,11.5 1.5,1.8 3.69921,3 5.69921,4.5 -1.89999,1.4 -3.51832,2.7436 -4.90429,4.10156 -1.38598,1.35796 -2.53902,2.73106 -3.50781,4.1875 -0.9688,1.45645 -1.75387,2.99595 -2.40235,4.69141 -0.64847,1.69546 -1.16094,3.54609 -1.58594,5.62109 -1.75,8.15 -2.37421,16.29971 -2.17382,24.41211 0.10019,4.0562 0.40766,8.10394 0.88281,12.13672 0.47515,4.03278 1.11758,8.05078 1.89258,12.05078 3.5,18.3 6.69883,36.59883 4.79882,55.29883 -0.99999,11.05 -3.52451,19.50107 -8.44921,26.01367 -1.23118,1.62815 -2.6114,3.13494 -4.15625,4.53125 -4.63456,4.18894 -10.74336,7.38047 -18.69336,9.85547 -7.65,2.4 -15.69286,3.45045 -23.58203,4.96484 -2.62973,0.5048 -5.24336,1.06133 -7.81836,1.73633 -6.9,1.6 -14.49961,2.99844 -20.09961,6.89844 -2.03516,1.36982 -3.93192,2.60256 -5.85352,3.54101 -1.9216,0.93846 -3.86666,1.58228 -5.99805,1.77735 -4.26278,-0.39013 -7.78319,-2.57872 -11.85351,-5.31836 -5.6,-3.9 -13.19961,-5.29844 -20.09961,-6.89844 -10.3,-2.7 -21.20039,-3.50117 -31.40039,-6.70117 -21.2,-6.6 -29.29883,-18.30039 -31.29883,-40.40039 -1.9,-18.7 1.29883,-36.99883 4.79883,-55.29883 3.1,-16 4.10156,-32.29961 0.60156,-48.59961 -1.7,-8.3 -4.80039,-13.00156 -12.40039,-18.60156 2,-1.5 4.19922,-2.7 5.69922,-4.5 3.1,-3.7 6.00078,-7.6 8.80078,-11.5 0.75,-1.125 1.44403,-2.02455 2.58789,-2.06641 z m -18.38867,19.56641 c 3,0.8 7.59961,5.20156 8.59961,8.60156 -2.6,-2 -5.19922,-4.30117 -8.19922,-6.70117 -1.1,-0.7 -3.00078,-0.40038 -4.30078,0.0996 -0.7,0.4 -1.29883,1.90039 -1.29883,2.90039 0,0.6 0.79961,1.60039 1.59961,1.90039 0.3,0.2 1.20078,-0.29961 1.80078,-0.59961 -0.5,-0.7 -1,-1.4 -1.5,-2 0.2,-0.3 0.19883,-0.50078 0.29883,-0.80078 0.9,0.5 2.2,0.70078 2.5,1.30078 0.5,0.9 0.30117,2.7 -0.29883,3 -1,0.8 -2.80039,1 -3.90039,0.5 -1,-0.4 -1.9,-1.80039 -2,-2.90039 -0.5,-3.3 3.29922,-6.10078 6.69922,-5.30078 z m 205.9043,0 c 0.85,-0.2 1.72624,-0.17429 2.55273,0.0273 0.82649,0.20164 1.60361,0.57959 2.25977,1.08594 0.65615,0.50635 1.1903,1.14133 1.52929,1.85547 0.33899,0.71413 0.48242,1.50703 0.35742,2.33203 -0.1,1.1 -1,2.50039 -2,2.90039 -0.54999,0.25 -1.27373,0.32578 -1.98632,0.23828 -0.7126,-0.0875 -1.41407,-0.33828 -1.91407,-0.73828 -0.6,-0.3 -0.79882,-2.1 -0.29882,-3 0.3,-0.6 1.6,-0.80078 2.5,-1.30078 0.1,0.3 0.0988,0.50078 0.29882,0.80078 -0.5,0.6 -1,1.3 -1.5,2 0.6,0.3 1.50079,0.79961 1.80079,0.59961 0.8,-0.3 1.5996,-1.30039 1.5996,-1.90039 10e-6,-1 -0.59882,-2.50039 -1.29882,-2.90039 -1.3,-0.49999 -3.20078,-0.79961 -4.30078,-0.0996 -3,2.4 -5.59922,4.70117 -8.19922,6.70117 1,-3.4 5.59961,-7.80156 8.59961,-8.60156 z m -215.06836,156.75 c 7.19542,-0.11228 14.26406,1.57578 21.16406,4.05078 18.2,6.4 36.70039,12.00039 55.90039,14.90039 7.2,1 14.60078,1.29961 21.80078,1.59961 2.7,0 4.49961,0.80039 6.09961,2.90039 0.8,0.8 2.49883,1.19883 3.79883,1.29883 1.11752,0.1156 2.23578,0.18638 3.35351,0.21289 1.11773,-0.0265 2.23405,-0.0973 3.35157,-0.21289 1.3,-0.1 2.99882,-0.49883 3.79882,-1.29883 1.6,-2.1 3.39961,-2.90039 6.09961,-2.90039 7.2,-0.3 14.60079,-0.59961 21.80079,-1.59961 19.2,-2.9 37.70039,-8.50039 55.90039,-14.90039 9.2,-3.3 18.70039,-5.20078 28.40039,-3.30078 4.4,0.8 8.59843,2.1 12.89843,3.5 2.5,0.8 3.00079,2.50039 1.80079,4.90039 -3.4,6.7 -6.60079,13.60039 -9.80079,20.40039 -0.2,0.9 -0.54873,1.5252 -0.96093,2.02539 -0.41221,0.5002 -0.88789,0.87539 -1.33789,1.27539 0,-0.3 0.0996,-0.80078 0.0996,-1.30078 -3.2,-2 -6.19922,-4.79961 -9.69922,-5.59961 -1.95,-0.5 -4.02432,-0.64971 -6.09961,-0.5625 -2.07529,0.0872 -4.15157,0.41133 -6.10157,0.86133 -11.19999,2.8 -22.30039,6.10117 -33.40039,9.20117 -19.2,5.6 -38.89882,9.19961 -58.79882,10.09961 -2.65857,0.10674 -5.30781,0.16197 -7.95118,0.16797 -2.64337,-0.006 -5.29455,-0.0612 -7.95312,-0.16797 -19.9,-0.9 -39.59883,-4.49961 -58.79883,-10.09961 -11.1,-3.1 -22.20039,-6.40117 -33.40039,-9.20117 -3.9,-0.9 -8.30117,-1.29883 -12.20117,-0.29883 -3.5,0.8 -6.49922,3.59961 -9.69922,5.59961 0,0.5 0.0996,1.00078 0.0996,1.30078 -0.9,-0.8 -1.89883,-1.50078 -2.29883,-3.30078 -3.2,-6.8 -6.40078,-13.70039 -9.80078,-20.40039 -1.2,-2.4 -0.69922,-4.10039 1.80078,-4.90039 4.3,-1.4 8.49844,-2.7 12.89844,-3.5 2.425,-0.475 4.83785,-0.71257 7.23633,-0.75 z M 227,351.30078 c 14.3,3.6 29.49922,3.39883 43.19922,9.79883 0,0.4 -0.0996,0.7 -0.0996,1 -2.8,0 -5.59961,0.001 -8.09961,-0.29883 -10.8,-1.7 -21.39961,-3.30117 -32.09961,-5.20117 -3.5,-0.6 -3.50039,-0.89883 -2.90039,-5.29883 z m 114.10352,0 c 0.6,4.4 0.5996,4.69883 -2.9004,5.29883 -10.69999,1.9 -21.2996,3.50117 -32.0996,5.20117 -2.5,0.29983 -5.29961,0.29883 -8.09961,0.29883 0,-0.3 -0.0996,-0.6 -0.0996,-1 3.425,-1.6 6.9446,-2.78722 10.51953,-3.72461 3.57492,-0.93739 7.20556,-1.62476 10.85547,-2.22461 7.2998,-1.19971 14.67422,-2.04961 21.82422,-3.84961 z m -210.06446,11.33789 c 5.58474,3.60502 10.66016,4.66211 10.66016,4.66211 3.2,0.9 6.70156,1.4 10.10156,1.5 2.9,0 4.99883,0.89844 5.79883,3.89844 0.4,1.7 1.30078,3.20117 2.30078,5.20117 -11.1,0.4 -24.46133,-6.46172 -28.86133,-15.26172 z m 306.02539,0 c -4.4,8.8 -17.76132,15.66172 -28.86133,15.26172 1.00001,-2 1.90079,-3.50117 2.30079,-5.20117 0.8,-3 2.89882,-3.89844 5.79882,-3.89844 3.4,-0.1 6.90157,-0.6 10.10157,-1.5 0,0 5.07541,-1.05709 10.66015,-4.66211 z M 178.36523,370.25 c 5.09063,0.2625 9.98555,1.65039 14.93555,3.15039 0.9,0.4 1.7,1.80039 2.5,2.40039 -5.2,1.8 -10.10039,3.69922 -14.90039,4.69922 -4,1 -8.39961,1.49961 -12.59961,1.59961 -4.3,0.1 -5.60117,-2.39883 -3.70117,-6.29883 1.9,-3.4 4.89961,-5.10039 8.59961,-5.40039 1.75,-0.2 3.46914,-0.23789 5.16601,-0.15039 z m 211.37305,0 c 1.69687,-0.0875 3.41602,-0.0496 5.16602,0.15039 3.7,0.3 6.69961,2.00039 8.59961,5.40039 1.9,3.9 0.59882,6.39883 -3.70118,6.29883 -4.2,-0.1 -8.59961,-0.59961 -12.59961,-1.59961 -4.79999,-1 -9.70039,-2.89922 -14.90039,-4.69922 0.4,-0.3 0.80039,-0.80029 1.21289,-1.27539 0.41251,-0.4751 0.83711,-0.925 1.28711,-1.125 4.95,-1.5 9.84492,-2.88789 14.93555,-3.15039 z m -196.6875,8.3125 c 1,-0.1625 1.95,0.0383 2.75,1.23828 1.6,2.4 0.49922,4.79922 -1.30078,6.69922 -3.7,4.2 -9.29961,5.09961 -14.59961,6.09961 -7.9,1.4 -15.70078,0.20117 -23.30078,-2.29883 -5.7,-1.8 -17.1213,-7.41514 -17.06641,-9.39844 3.09928,0.55637 7.26602,1.09805 10.66602,0.99805 2.5,0 4.80117,-0.29961 7.20117,-0.59961 2.4,-0.3 4.49961,-0.1 6.59961,1.5 4.1,3.4 9.09961,1.39961 13.59961,0.59961 4.2,-0.7 8.20039,-2.60039 12.40039,-3.90039 1,-0.25 2.05078,-0.775 3.05078,-0.9375 z m 182.00195,0 c 1,0.1625 2.05079,0.6875 3.05079,0.9375 4.2,1.3 8.20039,3.20039 12.40039,3.90039 2.25,0.4 4.62627,1.10029 6.95117,1.27539 1.16245,0.0876 2.31214,0.0437 3.42773,-0.23437 1.11559,-0.27809 2.19571,-0.79063 3.22071,-1.64063 1.05,-0.8 2.10009,-1.25039 3.1875,-1.46289 1.0874,-0.2125 2.21211,-0.18711 3.4121,-0.0371 2.40001,0.3 4.70118,0.59961 7.20118,0.59961 3.4,0.1 7.56673,-0.44168 10.66601,-0.99805 0.0549,1.9833 -11.3664,7.59844 -17.0664,9.39844 -7.6,2.5 -15.40078,3.69883 -23.30079,2.29883 -5.29999,-1 -10.8996,-1.89961 -14.5996,-6.09961 -1.8,-1.9 -2.90079,-4.29922 -1.30079,-6.69922 0.4,-0.59999 0.83829,-0.95097 1.30079,-1.13086 0.4625,-0.17988 0.94921,-0.18867 1.44921,-0.10742 z m -147.70703,4.86523 c 0.4173,-0.0156 0.92969,0.0469 1.55469,0.17188 10.5,1.9 20.79883,4.60039 31.29883,5.40039 7.92961,0.65094 15.89508,1.16205 23.85351,1.26367 7.95843,-0.10162 15.92196,-0.61273 23.85157,-1.26367 10.5,-0.8 20.79882,-3.50039 31.29882,-5.40039 2.5,-0.5 3.20118,0 3.20118,2.5 -0.12187,5.00005 -0.26997,10.00682 0.0996,15 0.8,8.2 -1.3,16.79961 3.5,24.59961 h -61.95118 -61.95312 c 4.8,-7.8 2.7,-16.39961 3.5,-24.59961 0.4,-5 0.19962,-10.1 0.0996,-15 0,-1.875 0.39459,-2.625 1.64648,-2.67188 z m -6.24609,44.27149 h 62.95312 62.95118 c 3.2,0 4,1 3,4 h -65.95118 -65.95312 c -1,-3 -0.2,-4 3,-4 z m -0.29883,6.20117 h 63.25195 63.25 c 1.6,0 3.30079,0.0988 4.80079,0.29883 3,0.6 4.90078,2.50039 4.80078,5.90039 -0.1,3.5 -1.80078,5.80078 -5.30078,6.30078 -1.6,0.29983 -3.30079,0.29883 -4.80079,0.29883 -20.94923,0.29478 -41.89595,0.30067 -62.75,0.30078 -20.85405,-1.1e-4 -41.80272,-0.006 -62.75195,-0.30078 -1.5,0 -3.20078,10e-4 -4.80078,-0.29883 -3.5,-0.5 -5.20078,-2.80078 -5.30078,-6.30078 -0.1,-3.4 1.80078,-5.30039 4.80078,-5.90039 1.5,-0.2 3.20078,-0.29883 4.80078,-0.29883 z M 218,448.69922 h 66.05273 66.05079 V 453 h -5.4004 c -17.89999,0 -36.00039,-0.0996 -53.90039,-0.0996 -2.24958,0 -4.49869,-5e-5 -6.75,0.002 -2.25131,-0.002 -4.50237,-0.002 -6.75195,-0.002 -17.9,0 -36.00039,0.0996 -53.90039,0.0996 H 218 Z M 220.59961,455 h 63.45312 63.45118 c -2.3,7.2 -2.30118,7.19961 0.79882,14.09961 h -64.25 -64.25195 c 3.1,-6.9 3.09883,-6.89961 0.79883,-14.09961 z m -4.69922,16.30078 h 7.79883 c 20.14457,0 40.24524,-7.2e-4 60.35351,0.01 20.10827,-0.0105 40.207,-0.01 60.35157,-0.01 h 7.79882 c 2.70001,-0.1 3.69961,0.99844 2.59961,3.89844 -1.5,0.1 -3.19882,0.30078 -4.79882,0.30078 -21.95135,0 -43.9503,0.0247 -65.95118,0.0254 -22.00088,-6.4e-4 -44.00177,-0.0254 -65.95312,-0.0254 -1.6,0 -3.29883,-0.20078 -4.79883,-0.30078 -1.1,-2.9 -0.10039,-3.99844 2.59961,-3.89844 z m 68.15234,6.29688 72.95118,0.10156 c 4.5,0.006 10.89961,4.2 12.09961,8 2.4,6.7 -3.20079,15.40117 -10.30079,16.20117 -4.3,0.3 -8.59921,0.59961 -12.69921,0.59961 H 284.05273 222 c -4.1,0 -8.39922,-0.29961 -12.69922,-0.59961 -7.1,-0.8 -12.70078,-9.50117 -10.30078,-16.20117 1.2,-3.8 7.59961,-7.994 12.09961,-8 z M 187.09961,504 h 96.95312 96.95118 c 2.9,0 3.5,0.99922 3.5,3.69922 -0.1,14 -0.3,28.10117 0,42.20117 0,2.25 -0.45057,3.26166 -1.94141,3.62695 -0.49695,0.12177 -1.10938,0.17188 -1.85938,0.17188 -32.20487,-0.0497 -64.43305,-0.0754 -96.65039,-0.0879 -32.21734,0.0125 -64.44746,0.0382 -96.65234,0.0879 -3,0 -3.80078,-0.79883 -3.80078,-3.79883 0.3,-14.1 0.1,-28.20117 0,-42.20117 0,-2.7 0.6,-3.69922 3.5,-3.69922 z"
     sodipodi:nodetypes="ccccccccccccccccccccccccccccccccccccccccccccccccccccccssccscccccccccccsssccssccsscccscccccccscccccssccccccsscsscccsccscccsscccssccccccccccccscccccccccccssccccccccssscccccccccccccccccccccccccccscsscscscccccccsccccssccccscccccccccssscsccsscsscccccccccccccccccccscsccccccccccccccccccccccsssccccccssccsscccccccccsccccscscccccccccsccsccccccccscccccscscccccccccccccsccscccccscccccsccccccccccccsccscccscccsscccccccccccccccccccccsccccccccscccccccccccccssccsssscccccccccsscssccsscccccsscssscsscccscccccccsscccsccccscccccccsscsccsccccssscssccsscccsccscccsccsccscsccccscscccssscssccsscsccsccccccccccsccccsccccccccccsssccsccccccsccccscccccccccccccccscccsccccccccccccccscccccccccccssccccccccccccccccccccsscccccscssscscccscccscccsscsscccccssssccccccsccccccsscsccsscscccccccccsccccsscsscccccsccccscsccscscccccsscsccccscsccscccccsccscsccscccccs" /></g><g
   transform="matrix(-1,0,0,1,565.5,0)"
   id="g741"><path
     id="path731"
     d="M 141.12416,387.05115 C 145.49627,393.15129 150,410.4 148.7,423 c -2.4,-0.3 -4.7,-0.5 -7.2,-0.8 -6.6,-0.8 -13.36717,-0.55056 -19.49368,-2.92528 -2.16592,-0.83954 -5.21129,-2.44957 -7.51084,-4.15094 C 109.01515,411.06905 105.5,406.8 99.8,400.9 c 11.7,-7.2 20.8,-0.6 30.3,4.8 -0.8,-4.9 -2,-9.8 -2.1,-14.6 -0.1,-4.7 0.84964,-9.56014 1.44964,-15.86014 0,0 8.3858,7.22275 11.67452,11.81129 z M 102.8,401 c 9.8,12.9 21.5,21.8 38.7,18.8 -5.2,-3.9 -11.7,-4.4 -18,-5.9 0.1,-0.5 0.3,-1 0.3,-1.5 4.8,1 9.8,2 15,3 -11.3,-10.3 -26.2,-19.8 -36,-14.4 z m 34.8,0.8 c 0.3,-0.3 0.8,-0.5 1.1,-0.6 2,5.6 4.3,11.1 6.3,16.7 0.5,-0.1 1,-0.3 1.5,-0.3 -0.3,-5.3 -0.6,-10.9 -1.3,-16 -1.3,-9.3 -5.8,-16.8 -14.6,-22.7 -0.3,5.3 -1,10 -0.6,14.6 0.6,8.8 2.4,17 11.5,21.1 -1.2,-4.3 -2.6,-8.6 -3.9,-12.8 z"
     style="fill:#ffffff;fill-opacity:1" /><path
     class="st0"
     id="path732"
     d="m 203.9,466.5 c -4.8,-4.7 -9.2,-9 -14,-12.9 -3.8,-3 -8,-6.2 -12.4,-8.1 -3.5,-1.5 -8.1,-1.1 -12.1,-1 -5.9,0.3 -13.02279,1.29467 -18.84726,-1.02244 -7.74133,-3.07968 -14.48051,-8.4842 -20.72792,-14.40835 2.1,-2.9 4.87518,-3.96921 8.27518,-4.36921 7.2,-0.8 13.6,1.3 19.9,3.9 0.8,0.3 1.6,0.8 2.5,1.3 -1.6,-5.4 -3.5,-10.7 -4.5,-15.9 -0.31154,-3.29035 -1.06136,-7.32828 0.79367,-12.83371 10.7468,3.44062 19.32542,11.25928 24.80633,37.63371 1.1,5.6 5.4,7.2 9.6,9 5.3,2.4 11.2,3.5 16.5,6.2 1.6,0.8 2.5,4 2.5,6.3 0.1,1.9 -1.3,4 -2.3,6.2 z m -28.1,-26.7 c -0.1,-15.4 -13.4,-36.7 -22.2,-36.5 -1.5,8.8 1.3,16.8 4.5,24.6 2.1,5.3 7.4,6.4 12.2,9.6 -2.5,-5.3 -5.7,-9.2 -5.7,-14.5 3.4,5.8 5.3,12.2 11.2,16.8 z m -5,1.8 c -2.5,-0.6 -4.5,-1.5 -6.7,-1.6 -2.4,-0.3 -4.7,-0.3 -7.2,-0.6 -2,-0.3 -4,-0.3 -6.1,-0.3 0.1,-0.6 0.1,-1.1 0.3,-1.6 5.2,0.3 10.3,0.6 15.4,0.8 -9.5,-5.6 -18.7,-11.4 -30.2,-11.2 -2.5,0 -4.86993,1.26539 -8.16993,2.06539 12,12.7 25.16993,18.43461 42.66993,12.43461 z m 20.7,9.9 c -0.1,0.3 -0.3,0.3 -0.3,0.6 3,2.9 6.2,5.8 9.8,9 0.6,-2.5 1,-4 1.3,-5.7 -3.9,-1.2 -7.4,-2.6 -10.8,-3.9 z" /><path
     class="st0"
     id="path733"
     d="m 92,343.9 c 1.523148,-11.36502 7.468421,-23.67065 12.33125,-26.60625 C 110.33438,323.99063 113.2,341.8 107.4,353.7 c -1.9,3.9 -3,8.3 -4.7,12.6 -7.7,-3.9 -15.6,-6.9 -22.3,-11.6 -3.8,-2.5 -6.2,-7.6 -8.6,-11.9 -2.5,-4.7 -3.675,-9.62188 -6.075,-15.32188 C 79.890625,325.85312 85.4,334.3 92,343.9 Z m 12,-25 c -4.9,4.7 -8.6,14 -9.2,26.8 -0.3,3 2.5,6.2 3.8,9.5 1,-4.5 0.6,-9 3.4,-12.6 v 18.2 c 9,-13.5 9.7,-32.1 2,-41.9 z m -34.9,10.5 c 3,16.5 11.5,27.9 28.8,30.9 -4.9,-3.9 -10.1,-8 -15.1,-12 0.3,-0.3 0.5,-0.6 0.8,-1 4.2,2.9 8.3,5.7 12.4,8.6 -1.1,-3.4 -2.8,-6.3 -4.7,-9 -2.5,-3.9 -5.2,-8.1 -8.5,-11.2 -3.5,-4.1 -7.8,-7.5 -13.7,-6.3 z" /><path
     class="st0"
     id="path734"
     d="m 108.4,375.8 c 0,-1 0.3,-2 0,-3 -2.71823,-10.60108 3.48685,-23.125 5.6,-25 14.65486,11.04291 12.46897,34.97557 9.3,46.7 -0.3,1.8 -1,2.5 -2.8,2 -4.8,-1.5 -9.8,-3.2 -14.9,-4.4 -9.3,-2.3 -15.6,-8.2 -20.4,-16.2 -1.6,-2.8 -4.03033,-7.69697 -5.322097,-10.65052 7.755036,-1.40824 8.29072,-4.40992 23.122097,6.85052 1.5,1.3 2.9,2.9 4.4,4.3 0.4,-0.2 0.7,-0.3 1,-0.6 z m 6.2,-26.1 c -7.6,9.5 -6.1,31.3 2.5,37 -0.5,-4.5 -2.5,-9 -0.5,-13.6 1.3,5.9 1.1,12.2 4.3,18.2 6.5,-11 2.9,-33.5 -6.3,-41.6 z m -0.2,37.5 c -5.8,-7.8 -11.7,-14.5 -19.7,-19.1 -3.5,-2 -7.8,-4 -12.4,-1.8 5.2,15.4 19.2,26 33.8,25.6 -4.4,-5.3 -11.2,-6.2 -16.9,-9.5 0.3,-0.5 0.3,-0.8 0.6,-1.3 4.7,1.9 9.3,3.8 14.6,6.1 z" /><path
     class="st0"
     id="path735"
     d="m 133.1,137.7 c 3.2,-1 5.7,-1.6 8.1,-2.5 6.7,-2.4 15.975,-1.59375 22.7875,-0.6125 -0.92276,5.22735 -7.82563,10.5767 -10.4875,12.7125 -6.4,4.9 -14.1,6.7 -22.1,7.7 -4.5,0.6 -9.2,0.8 -14.3,1.3 0.3,-1.8 0.3,-3.5 0.3,-5.2 -0.1,-4.3 -0.3,-8.6 -0.3,-12.7 0.18919,-12.43936 9.5135,-24.10438 19.5,-30.9 6,6.6 4.8,17.7 -3.5,30.2 z m 5.8,6.1 0.8,1.6 c -5.8,2.4 -12.2,3.7 -16.9,9 15.8,-0.6 29.9,-3.8 39.1,-17.8 -12.9,-4.5 -32.9,2.5 -35.5,12.2 3.8,-1.8 8,-3.4 12.5,-5 z m -2.2,-33.3 c -12.9,7.2 -19.8,23.1 -17,39.4 4.7,-5.6 3.9,-12.6 5.3,-18.7 0.5,0.1 1,0.3 1.5,0.3 -0.6,4.8 -1.3,9.6 -2,14.4 5.3,-7.4 11.9,-14.3 13.6,-23.6 0.8,-4.2 1.3,-8.2 -1.4,-11.8 z" /><path
     class="st0"
     id="path736"
     d="m 80.3,297.2 c -4.8,-4.7 -9.8,-8.6 -14,-13.4 -7.836875,-9.09175 -9.633794,-22.73779 -7.5,-34.3 12.7,2.5 15.6,12.6 18.8,22.8 3,-4.5 6.23033,-8.69064 9.53033,-12.59064 2.667418,-3.48614 6.818719,-6.62808 10.737437,-8.83033 2.769123,5.59823 4.239313,15.98563 -4.067767,29.22097 -3.5,4.7 -6.7,9.3 -10.3,13.9 -1,1.7 -2.4,2.5 -3.2,3.2 z m 1.5,-5.7 c 0.5,0.3 1,0.3 1.3,0.5 9.5,-11.1 17.5,-22.6 14.1,-39 -6.77752,3.28108 -10.042553,10.59132 -14.7,16.2 -4.8,5.4 -4,11.2 -2.1,17.5 3.5,-3.4 2.9,-9.2 7.6,-12.6 -2.4,6.2 -4.3,11.7 -6.2,17.4 z M 60.5,252.2 c -3.2,15.4 2.8,29.3 16.4,38.5 0.3,-0.3 0.6,-0.3 0.8,-0.6 -3.5,-5.3 -6.9,-10.7 -10.5,-16 4.9,2.5 6.9,7.4 10.9,12.1 -1.6,-10.2 -2.9,-19.3 -8.1,-27.4 -2.2,-3 -5.2,-5.8 -9.5,-6.6 z" /><path
     class="st0"
     id="path737"
     d="m 169.3,83.8 c 5.6,12.1 -2,20.2 -8.1,29.5 9.2,-2.5 17.8,-2.5 26,0.3 1.5,0.5 2.9,1.5 4.3,2.1 -10.01176,15.01764 -28.48224,14.23325 -30.5,14.1 -6.2,-0.3 -12.4,-0.5 -19.2,-0.8 0.3,-1.5 0.6,-2.4 0.8,-3.3 0.6,-3.5 1.8,-6.9 1.9,-10.5 0.3,-11.6 7.4,-18.8 15.8,-25.4 2.7,-2 5.6,-3.8 9,-6 z m 20.2,32.4 c -8.6,-3.2 -16.9,-3.7 -25.6,-1.6 -6.2,1.5 -9.8,3.9 -12.2,8.6 4.7,-1.5 9,-3 13.8,-1.8 -5.7,1.6 -11.4,3.2 -17,4.8 12.2,5.1 33.8,-0.4 41,-10 z m -39,4.4 c 6.7,-7.2 13.8,-12.9 17.4,-21.5 1.6,-3.9 2.9,-8.2 0.6,-12.4 -16.8,9.3 -22.8,19.2 -22.7,35.2 5.3,-4.5 5.7,-11.2 8.1,-17 0.5,0.3 1,0.3 1.5,0.6 -1.6,4.8 -3.2,9.4 -4.9,15.1 z" /><path
     class="st0"
     id="path738"
     d="M 66.186136,208.83258 C 79.286136,213.23258 78.8,224.7 81.3,235.7 c 1.1,-1.3 1.9,-2 2.5,-2.9 5.909539,-8.99862 13.421689,-13.95009 21.21612,-16.21456 C 106.17452,225.53899 103.6,236.7 97.8,243.2 c -5.4,6.1 -11.7,11.2 -17.9,17 -3.7,-5.2 -6.4,-10 -10.2,-14 -8.1,-8.5 -7.01875,-18.36875 -5.6,-28.3 0.2,-2.8 1.386136,-5.36742 2.086136,-9.06742 z M 103.4,218.6 c -9,3.8 -15,10.3 -20.3,17.8 -3,4.4 -1.8,8.6 -1.5,13.1 2.5,-3.9 5.2,-7.7 7.6,-11.6 0.3,0.3 0.6,0.3 0.8,0.6 -2.8,5.3 -5.4,10.6 -8.2,15.9 14.7,-8.5 24.5,-25.2 21.6,-35.8 z m -24.5,29.2 c 0.3,0 0.5,-0.1 0.6,-0.1 -0.3,-5.7 -0.3,-11.2 -1,-16.9 -0.8,-6.2 -2.375,-12.275 -7.275,-16.875 -1,-1 -2.125,-1.425 -3.525,-2.025 -1.390397,2.3077 -1.63221,4.82715 -2.1,7.4 -2.5,13.4 2,24.2 11.6,33.4 0.3,-0.1 0.6,-0.3 1,-0.3 -2.4,-5.8 -4.7,-11.6 -7.2,-17.4 0.3,-0.3 0.8,-0.3 1,-0.5 2.4,4.4 4.6,8.9 6.9,13.3 z" /><path
     class="st0"
     id="path739"
     d="m 138.9,157.3 c -0.84417,9.13464 -7.29601,14.97949 -12.4,18.8 -5.7,3.5 -11.7,6.2 -17.9,9 -3.2,1.5 -6.7,2 -10.1,3 -5.251408,-16.98246 -7.445605,-27.00854 1.89064,-43.90936 C 102.08022,141.29317 104.2,138.7 106.1,135.8 c 7.4,4.7 7.4,11.7 6.7,18.8 -0.3,3.5 -1.5,7.2 -2.3,11.4 8.8,-5.5 18,-9.2 28.4,-8.7 z m -1.8,1.9 c -12.2,-0.3 -31.6,7.6 -32.7,19.8 3.9,-2.5 8,-4.9 11.9,-7.6 0.3,0.3 0.5,0.8 0.8,1.3 -2.5,1.6 -4.8,3.3 -7.2,5.2 -2.5,1.9 -4.7,3.9 -7.8,6.6 14.2,-0.9 32.7,-14.4 35,-25.3 z M 106.4,139 c -10.7,12.4 -13.6,31.7 -6.2,42.4 v -19.6 c 0.3,0 0.8,-0.1 1.3,-0.1 0.5,4.8 1,9.6 1.5,15.4 1.6,-4.2 2.5,-7.6 4.3,-10.7 3.3,-5.8 4.2,-12.2 3.9,-18.6 -0.2,-3.3 -0.9,-7 -4.8,-8.8 z" /><path
     class="st0"
     id="path740"
     d="M 88.3,333.9 C 81.4,328.5 74.7,323.2 68.1,318 c -0.8,-0.6 -1.5,-1.5 -2,-2.4 -4.2,-8.1 -5.7,-16.8 -6.7,-26.3 13.6,0.3 17.5,10.9 22.8,21.3 1,-2.5 1.6,-4.2 2.3,-5.7 2.4,-7.2 6.57132,-14.8678 14.474874,-19.67227 C 100.58251,288.40294 108.43396,305.87171 94,325.4 c -2.3,2.6 -3.9,5.5 -5.7,8.5 z m 10.2,-46.7 c -11.5,7.6 -17.3,25.1 -11.6,35.5 1.5,-4.4 1.1,-9.5 4.7,-12.9 -1.3,6.2 -3.2,12 -2.5,18.8 10.3,-12.5 14,-25.9 9.4,-41.4 z M 84,322 c 0.3,-0.1 0.5,-0.3 0.8,-0.3 -2.5,-5.6 -4.7,-11.2 -7.6,-16.8 -1.6,-3.3 -3.9,-6.6 -6.3,-9.2 -2.4,-2.5 -5.6,-3.9 -9.3,-4.2 1.9,21.6 7.8,29 23.7,35.7 -4.4,-4.8 -8.8,-9.7 -13.1,-14.6 0.3,-0.3 0.6,-0.6 1,-0.8 3.4,3.4 7.1,6.7 10.8,10.2 z" /><path
     class="st0"
     id="path741"
     d="m 92.4,199.4 c 1.8,-1.3 3.4,-2.3 4.7,-3.4 5.7,-5.6 12.7,-8.5 20.3,-10.1 3.5,-0.8 2.9,1.6 2.5,3.4 -1.6,7.6 -4.7,14.6 -10.9,19.3 -7.2,5.4 -15.4,9.8 -22.8,14.5 -1,-0.8 -1.3,-1 -1.5,-1.3 -1.5,-3.5 -2.8,-7.4 -4.7,-10.9 -5.4,-9.8 -5.2,-19.8 -1,-30 1.5,-3.5 3.2,-7.2 5.2,-11.1 11.1,7.9 8.7,18.7 8.2,29.6 z m 25.9,-11.6 c -1.9,0.3 -3.5,0.6 -5.2,1.1 -6.7,2 -12,6.7 -17.7,10.6 -4.9,3.5 -4.4,8.5 -6.4,13.6 4.2,-3.5 7.6,-6.7 11.1,-9.6 0.3,0.3 0.6,0.6 0.8,1 -3.9,4.7 -9.8,8 -12.4,14.5 17.6,-7 27.6,-17.5 29.8,-31.2 z m -30.5,22.9 c 2.5,-8 3.9,-15.9 3.5,-24.1 -0.3,-5.3 -1.5,-10.5 -6.2,-13.9 -9.7,19.1 -10.3,26.5 1,42.3 -1,-6.3 -2,-12.6 -3,-18.8 0.3,-0.1 0.8,-0.3 1.1,-0.3 1,5.2 2.3,9.9 3.6,14.8 z" /></g></g>
</svg>
