<?xml version="1.0" encoding="UTF-8" standalone="no"?>
<!-- Created with Inkscape (http://www.inkscape.org/) -->

<svg
   version="1.1"
   id="svg1"
   width="640"
   height="640"
   viewBox="0 0 640 640"
   sodipodi:docname="Pulterit logo utan text vit (vektor).svg"
   inkscape:version="1.4 (86a8ad7, 2024-10-11)"
   xmlns:inkscape="http://www.inkscape.org/namespaces/inkscape"
   xmlns:sodipodi="http://sodipodi.sourceforge.net/DTD/sodipodi-0.dtd"
   xmlns="http://www.w3.org/2000/svg"
   xmlns:svg="http://www.w3.org/2000/svg">
  <defs
     id="defs1">
    <clipPath
       clipPathUnits="userSpaceOnUse"
       id="clipPath2">
      <path
         d="M 0,480 H 480 V 0 H 0 Z"
         transform="translate(-218.21971,-195.0732)"
         id="path2" />
    </clipPath>
  </defs>
  <sodipodi:namedview
     id="namedview1"
     pagecolor="#ffffff"
     bordercolor="#000000"
     borderopacity="0.25"
     inkscape:showpageshadow="2"
     inkscape:pageopacity="0.0"
     inkscape:pagecheckerboard="0"
     inkscape:deskcolor="#d1d1d1"
     inkscape:zoom="1.8234375"
     inkscape:cx="320"
     inkscape:cy="320"
     inkscape:window-width="2560"
     inkscape:window-height="1369"
     inkscape:window-x="1912"
     inkscape:window-y="-8"
     inkscape:window-maximized="1"
     inkscape:current-layer="layer-MC0">
    <inkscape:page
       x="0"
       y="0"
       inkscape:label="1"
       id="page1"
       width="640"
       height="640"
       margin="180.36667 119.14267 146.20134 121.7136"
       bleed="0" />
  </sodipodi:namedview>
  <g
     id="layer-MC0"
     inkscape:groupmode="layer"
     inkscape:label="Layer 1">
    <path
       id="path1"
       d="m 0,0 c -4.989,-0.449 -10.176,-0.724 -11.191,-7.143 -0.403,-2.545 0.943,-4.881 3.861,-3.751 C -2.182,-8.9 5.212,-9.513 7.487,-4.239 9.038,-0.642 2.929,-1.034 0,0 m -106.031,-39.6 c 2.168,0.55 4.383,0.959 6.494,1.678 4.464,1.52 8.944,3.713 7.484,9.37 -1.878,7.277 -7.048,2.767 -10.968,2.213 -1.838,-0.26 -3.709,-0.699 -5.411,-1.418 -2.675,-1.131 -7.837,-0.3 -5.765,-5.796 1.311,-3.477 3.143,-7.091 8.166,-6.047 M 66.571,5.322 c 12.495,-4.954 23.164,-6.279 33.717,-8.082 1.921,-0.328 3.942,-0.673 4.723,1.597 0.761,2.212 -1.054,3.607 -2.658,4.293 -10.678,4.565 -21.41,9.203 -35.782,2.192 m 77.936,-23.46 c -3.162,0.319 -6.018,1.119 -7.072,-2.442 -1.141,-3.852 0.322,-6.925 3.88,-8.296 5.249,-2.025 10.688,-3.603 16.125,-5.084 3.35,-0.913 6.959,-1.366 8.221,3.222 1.082,3.931 -0.714,6.87 -4.3,8.049 -5.698,1.874 -11.589,3.16 -16.854,4.551 M 59.984,-1.829 c -0.815,-3.058 0.414,-4.333 1.737,-4.732 13,-3.929 26.048,-7.7 39.089,-11.496 1.869,-0.544 3.924,-0.919 4.641,1.531 0.887,3.035 -0.629,5.534 -3.352,6.336 -13.841,4.077 -27.806,7.634 -42.115,8.361 m -8.005,-2.567 c 0.375,1.536 0.75,3.073 1.125,4.609 C 27.81,6.799 2.516,13.386 -22.778,19.972 1.639,10.03 26.081,0.255 51.979,-4.396 m -67.005,6.993 c -11.905,7.29 -30.466,6.123 -39.368,-2.154 -1.7,-1.58 -3.474,-3.44 -2.501,-5.87 1.32,-3.297 4.522,-2.511 6.897,-1.873 11.574,3.109 23.071,6.499 34.972,9.897 m -39.933,-26.719 c 11.347,2.827 22.714,5.581 34.029,8.53 2.851,0.744 4.469,2.864 3.818,6.006 -0.662,3.192 -3.221,4.59 -5.942,3.871 -11.303,-2.985 -22.554,-6.193 -33.708,-9.69 -2.588,-0.811 -4.088,-3.471 -3.008,-6.493 0.79,-2.209 2.76,-2.195 4.811,-2.224 M 88.458,14.081 c 3.431,0.987 8.454,-3.42 11.014,1.466 2.041,3.898 -0.62,8.294 -2.909,11.64 -1.974,2.886 -2.888,12.053 -8.609,5.43 C 78.881,22.112 66.41,20.796 54.93,16.315 51.353,14.918 43.536,16.576 45.017,10.23 46.14,5.42 52.849,7.343 57.203,7.986 c 3.331,0.493 6.536,1.825 9.805,2.755 6.886,1.959 13.589,5.053 21.45,3.34 m -123.967,130.84 c 3.2,-8.705 0.809,-20.822 10.873,-23.454 12.338,-3.227 25.561,-2.245 37.781,2.798 2.946,1.215 7.396,3.302 6.942,6.672 -0.62,4.608 -5.542,2.364 -8.55,2.591 -5.638,0.425 -11.365,0.615 -16.986,0.123 -11.571,-1.013 -23.132,-2.638 -30.06,11.27 m 170.677,-182.68 c -5.778,29.073 -13.546,60.682 -31.112,88.931 -1.147,1.845 -2.884,3.693 -4.793,4.609 -3.161,1.518 -6.392,6.173 -9.877,3.034 -2.977,-2.682 0.764,-6.249 2.12,-9.155 13.813,-29.608 25.091,-60.01 29.532,-92.598 0.614,-4.503 0.278,-9.792 7.288,-8.923 6.616,0.821 7.217,5.701 6.842,14.102 m -220.394,11.44 c -0.036,-4.174 -0.259,-8.357 -0.064,-12.521 0.273,-5.802 4.553,-7.612 9.34,-8.048 5.854,-0.532 6.48,3.697 6.86,8.22 0.282,3.363 1.21,6.673 1.864,10.004 5.122,26.095 11.48,51.861 19.684,77.184 1.168,3.606 2.62,9.239 -1.831,11.415 -4.078,1.993 -6.509,-2.851 -8.777,-5.644 C -77.203,30.82 -82.402,2.587 -85.226,-26.319 m 68.035,140.273 c -13.27,-0.829 -17.079,6.084 -20.566,14.973 -2.842,7.245 -2.277,17.936 -14.482,18.951 -3.204,0.266 -7.9,20.754 -5.526,23.351 3.988,4.362 8.019,2.365 11.744,-0.986 8.021,-7.217 13.324,-16.561 19.241,-25.323 3.502,-5.186 7.271,-6.669 13.176,-6.514 25.077,0.658 50.165,1.2 75.246,1.116 8.409,-0.029 13.609,2.405 16.294,10.677 3.384,10.423 10.31,18.33 19.927,25.076 3.893,-6.779 -1.377,-11.936 -1.829,-17.503 -0.516,-6.363 -1.048,-12.009 -9.999,-11.349 -2.499,0.185 -2.894,-3.88 -3.7,-6.434 -7.031,-22.276 -6.912,-24.391 -30.555,-25.062 -18.216,-0.518 -36.577,0.599 -54.784,-0.267 -0.694,-0.033 -2.791,0.346 -5.037,-0.631 -2.136,-0.929 -3.357,-2.532 -3.872,-3.224 -17.361,-23.346 -23.928,-35.57 -28.869,-50.212 -6.159,-18.249 1.352,-32.2 20.283,-36.281 11.883,-2.561 23.492,-6.956 35.478,-8.36 24.985,-2.927 47.569,4.721 67.73,19.374 6.681,4.855 6.299,11.251 2.414,18.166 -7.968,14.183 -12.918,23.376 -19.506,34.582 -3.354,5.702 -6.604,10.872 -8.882,14.684 -3.832,6.411 -6.926,11.688 -8.955,15.169 h 4 c 9.87,-6.365 17.653,-13.689 22,-18 31.372,-31.109 53.718,-85.022 57.48,-98.546 2.539,-9.123 6.947,-12.69 15.018,-14.173 2.99,-0.55 6.011,-0.955 8.979,-1.606 17.459,-3.829 22.165,-17.625 11.508,-32.465 -4.124,-5.744 -8.683,-3.269 -13.168,-1.81 -6.364,2.071 -11.304,6.04 -15.459,-4.734 -2.892,-7.498 -13.894,-6.43 -21.748,-6.218 -7.113,0.193 -5.861,6.91 -6.619,11.413 -1.312,7.792 -4.283,13.174 -12.965,15.056 -5.841,1.266 -11.575,3.439 -17.434,5.038 -11.378,3.104 -22.126,6.48 -32.575,13.666 -18.236,12.541 -39.703,6.481 -55.942,-4.102 -12.992,-8.466 -26.87,-11.426 -40.39,-16.597 -7.985,-3.054 -16.046,-4.151 -16.567,-15.437 -0.222,-4.822 -16.235,-8.004 -20.744,-2.66 -7.707,9.134 -13.645,2.802 -19.597,-0.306 -5.127,-2.678 -9.665,-5.467 -14.226,-0.439 -6.707,7.392 -7.422,16.571 -4.983,25.687 1.561,5.836 6.803,5.681 12.171,5.484 17.211,-0.63 23.904,4.038 26.654,19.916 7.824,45.174 33.324,79.93 64.457,111.525 1.022,1.037 2.029,2.089 5.179,5.335"
       style="fill:#000000;fill-opacity:1;fill-rule:nonzero;stroke:none"
       transform="matrix(1.3333333,0,0,-1.3333333,290.9596,379.9024)"
       clip-path="url(#clipPath2)" />
  </g>
</svg>
