<?xml version="1.0" encoding="UTF-8" standalone="no"?>
<!-- Created with Inkscape (http://www.inkscape.org/) -->

<svg
   version="1.1"
   id="svg1"
   width="640"
   height="640"
   viewBox="0 0 640 640"
   sodipodi:docname="Pulterit logo vit (vektor).svg"
   inkscape:version="1.4 (86a8ad7, 2024-10-11)"
   xmlns:inkscape="http://www.inkscape.org/namespaces/inkscape"
   xmlns:sodipodi="http://sodipodi.sourceforge.net/DTD/sodipodi-0.dtd"
   xmlns="http://www.w3.org/2000/svg"
   xmlns:svg="http://www.w3.org/2000/svg">
  <defs
     id="defs1">
    <clipPath
       clipPathUnits="userSpaceOnUse"
       id="clipPath3">
      <path
         d="M 0,480 H 480 V 0 H 0 Z"
         transform="translate(-71.367302,-311.25151)"
         id="path3" />
    </clipPath>
    <clipPath
       clipPathUnits="userSpaceOnUse"
       id="clipPath5">
      <path
         d="M 0,480 H 480 V 0 H 0 Z"
         transform="translate(-72.587902,-371.02511)"
         id="path5" />
    </clipPath>
    <clipPath
       clipPathUnits="userSpaceOnUse"
       id="clipPath7">
      <path
         d="M 0,480 H 480 V 0 H 0 Z"
         transform="translate(-151.4541,-391.11471)"
         id="path7" />
    </clipPath>
    <clipPath
       clipPathUnits="userSpaceOnUse"
       id="clipPath9">
      <path
         d="M 0,480 H 480 V 0 H 0 Z"
         transform="translate(-186.1318,-453.71051)"
         id="path9" />
    </clipPath>
    <clipPath
       clipPathUnits="userSpaceOnUse"
       id="clipPath11">
      <path
         d="M 0,480 H 480 V 0 H 0 Z"
         transform="translate(-253.2238,-418.50931)"
         id="path11" />
    </clipPath>
    <clipPath
       clipPathUnits="userSpaceOnUse"
       id="clipPath13">
      <path
         d="M 0,480 H 480 V 0 H 0 Z"
         transform="translate(-341.50921,-429.99891)"
         id="path13" />
    </clipPath>
    <clipPath
       clipPathUnits="userSpaceOnUse"
       id="clipPath15">
      <path
         d="M 0,480 H 480 V 0 H 0 Z"
         transform="translate(-358.99121,-365.24851)"
         id="path15" />
    </clipPath>
    <clipPath
       clipPathUnits="userSpaceOnUse"
       id="clipPath17">
      <path
         d="M 0,480 H 480 V 0 H 0 Z"
         transform="translate(-420.95551,-350.63161)"
         id="path17" />
    </clipPath>
    <clipPath
       clipPathUnits="userSpaceOnUse"
       id="clipPath19">
      <path
         d="M 0,480 H 480 V 0 H 0 Z"
         transform="translate(-75.303002,-129.1203)"
         id="path19" />
    </clipPath>
    <clipPath
       clipPathUnits="userSpaceOnUse"
       id="clipPath21">
      <path
         d="M 0,480 H 480 V 0 H 0 Z"
         transform="translate(-101.79321,-101.6242)"
         id="path21" />
    </clipPath>
    <clipPath
       clipPathUnits="userSpaceOnUse"
       id="clipPath23">
      <path
         d="M 0,480 H 480 V 0 H 0 Z"
         transform="translate(-143.47101,-72.002304)"
         id="path23" />
    </clipPath>
    <clipPath
       clipPathUnits="userSpaceOnUse"
       id="clipPath25">
      <path
         d="M 0,480 H 480 V 0 H 0 Z"
         transform="translate(-166.85511,-35.221403)"
         id="path25" />
    </clipPath>
    <clipPath
       clipPathUnits="userSpaceOnUse"
       id="clipPath27">
      <path
         d="M 0,480 H 480 V 0 H 0 Z"
         transform="translate(-208.87501,-52.306501)"
         id="path27" />
    </clipPath>
    <clipPath
       clipPathUnits="userSpaceOnUse"
       id="clipPath29">
      <path
         d="M 0,480 H 480 V 0 H 0 Z"
         transform="translate(-330.19421,-65.702402)"
         id="path29" />
    </clipPath>
    <clipPath
       clipPathUnits="userSpaceOnUse"
       id="clipPath31">
      <path
         d="M 0,480 H 480 V 0 H 0 Z"
         transform="translate(-373.10151,-65.753304)"
         id="path31" />
    </clipPath>
    <clipPath
       clipPathUnits="userSpaceOnUse"
       id="clipPath33">
      <path
         d="M 0,480 H 480 V 0 H 0 Z"
         transform="translate(-396.11051,-115.20561)"
         id="path33" />
    </clipPath>
    <clipPath
       clipPathUnits="userSpaceOnUse"
       id="clipPath35">
      <path
         d="M 0,480 H 480 V 0 H 0 Z"
         transform="translate(-218.21971,-195.0732)"
         id="path35" />
    </clipPath>
    <clipPath
       clipPathUnits="userSpaceOnUse"
       id="clipPath37">
      <path
         d="M 0,480 H 480 V 0 H 0 Z"
         transform="translate(-290.89761,-32.527801)"
         id="path37" />
    </clipPath>
    <clipPath
       clipPathUnits="userSpaceOnUse"
       id="clipPath39">
      <path
         d="M 0,480 H 480 V 0 H 0 Z"
         transform="translate(-330.44091,-74.307602)"
         id="path39" />
    </clipPath>
  </defs>
  <sodipodi:namedview
     id="namedview1"
     pagecolor="#ffffff"
     bordercolor="#000000"
     borderopacity="0.25"
     inkscape:showpageshadow="2"
     inkscape:pageopacity="0.0"
     inkscape:pagecheckerboard="0"
     inkscape:deskcolor="#d1d1d1"
     inkscape:zoom="1.8234375"
     inkscape:cx="320"
     inkscape:cy="320"
     inkscape:window-width="2560"
     inkscape:window-height="1369"
     inkscape:window-x="1912"
     inkscape:window-y="-8"
     inkscape:window-maximized="1"
     inkscape:current-layer="layer-MC0"
     showgrid="false">
    <inkscape:page
       x="0"
       y="0"
       inkscape:label="1"
       id="page1"
       width="640"
       height="640"
       margin="32 57.959999 25.333334 60.154934"
       bleed="0" />
    <inkscape:grid
       id="grid39"
       units="px"
       originx="0"
       originy="0"
       spacingx="1"
       spacingy="1"
       empcolor="#0099e5"
       empopacity="0.30196078"
       color="#0099e5"
       opacity="0.14901961"
       empspacing="5"
       enabled="true"
       visible="false" />
  </sodipodi:namedview>
  <g
     id="layer-MC0"
     inkscape:groupmode="layer"
     inkscape:label="Layer 1">
    <path
       id="path1"
       d="m 11.214808,-24.621125 h 1.007812 v 22.3828125 l 0.433594,0.5507812 3.890625,0.1757813 V -3.125e-5 H 4.4765266 V -1.51175 L 8.6132453,-1.7578438 9.0468391,-2.3789375 V -21.773469 l -5.6601563,1.007813 v -1.511719 z M 28.189417,1.86325 27.357386,0.21090625 c 2.8125,-1.31250005 5.091797,-2.78027345 6.84375,-4.40625005 1.749023,-1.6230468 3.011719,-3.4599609 3.785156,-5.5078125 -1.007812,0.4775391 -1.96582,0.8320313 -2.871094,1.0664063 -0.899414,0.234375 -1.743164,0.3515625 -2.53125,0.3515625 -2.203125,0 -3.990234,-0.7148438 -5.355468,-2.1445315 -1.359375,-1.435547 -2.039063,-3.316406 -2.039063,-5.636719 0,-2.499023 0.814453,-4.538085 2.449219,-6.117187 1.640625,-1.576172 3.755859,-2.367188 6.351562,-2.367188 2.53711,0 4.526368,0.817383 5.964844,2.449219 1.435547,1.625977 2.15625,3.887696 2.15625,6.785156 0,3.673829 -1.239258,7.0429692 -3.714844,10.1132817 C 35.917933,-2.1328438 32.516566,0.222625 28.189417,1.86325 Z m 10.277344,-13.359375 c 0.140625,-0.632813 0.246094,-1.268555 0.316406,-1.910156 0.07031,-0.647461 0.105469,-1.294922 0.105469,-1.945313 0,-2.390625 -0.457031,-4.236328 -1.371094,-5.542969 -0.908203,-1.30371 -2.191406,-1.957031 -3.855469,-1.957031 -1.517578,0 -2.742187,0.591797 -3.679687,1.769531 -0.931641,1.171875 -1.394531,2.71875 -1.394531,4.640625 0,2.000977 0.459961,3.536133 1.382812,4.605469 0.919922,1.063477 2.238281,1.59375 3.949219,1.59375 0.694336,0 1.420898,-0.09961 2.179687,-0.304687 0.75586,-0.210938 1.546875,-0.527344 2.367188,-0.949219 z m 14.044922,-0.75 c -0.03223,0.594727 -0.05273,1.03125 -0.05859,1.3125 -0.0088,0.28125 -0.01172,0.536133 -0.01172,0.761719 0,2.8593747 0.457032,5.0566404 1.371094,6.5859372 0.914063,1.5234375 2.232422,2.2851563 3.960938,2.2851563 1.5,0 2.733398,-0.6152344 3.703125,-1.8515625 0.966796,-1.2333984 1.453125,-2.8007813 1.453125,-4.6992188 0,-1.828125 -0.477539,-3.2871092 -1.429688,-4.3828122 -0.946289,-1.092774 -2.200195,-1.640625 -3.761719,-1.640625 -1.001953,0 -1.939453,0.137695 -2.8125,0.410156 -0.867187,0.275391 -1.672851,0.679687 -2.414062,1.21875 z m 10.734375,-13.488281 v 2.097656 h -0.105469 c -2.882812,0 -5.220703,0.832031 -7.007812,2.496094 -1.790039,1.658203 -2.973633,4.089843 -3.550782,7.300781 0.9375,-0.726563 1.921875,-1.271484 2.953125,-1.640625 1.03711,-0.366211 2.097657,-0.550781 3.175782,-0.550781 2.170898,0 3.963867,0.74414 5.378906,2.226562 1.412109,1.485352 2.121094,3.360352 2.121094,5.6250002 0,2.4375 -0.837891,4.4853516 -2.507813,6.140625 -1.672851,1.65820317 -3.744141,2.48437505 -6.210937,2.48437505 -2.525391,0 -4.558594,-0.94921875 -6.105469,-2.84765625 -1.541016,-1.9042969 -2.308594,-4.4326172 -2.308594,-7.5820313 0,-4.6171877 1.256836,-8.3232417 3.773438,-11.1210937 2.522461,-2.803711 5.988281,-4.347656 10.394531,-4.628906 z m 17.701172,2.800781 c -1.681641,0 -2.961914,0.922852 -3.84375,2.765625 -0.875977,1.845703 -1.3125,4.532227 -1.3125,8.0625 0,3.515625 0.436523,6.1962891 1.3125,8.0390625 0.881836,1.8457031 2.162109,2.765625 3.84375,2.765625 1.669922,0 2.947265,-0.9199219 3.832031,-2.765625 0.881836,-1.8427734 1.324219,-4.5234375 1.324219,-8.0390625 0,-3.530273 -0.442383,-6.216797 -1.324219,-8.0625 -0.884766,-1.842773 -2.162109,-2.765625 -3.832031,-2.765625 z m 0,-1.6875 c 2.648437,0 4.734375,1.119141 6.257812,3.351562 1.529297,2.226563 2.296875,5.282227 2.296875,9.164063 0,3.890625 -0.767578,6.9580078 -2.296875,9.1992187 -1.532226,2.23535161 -3.618164,3.35156255 -6.257812,3.35156255 -2.633789,0 -4.716797,-1.11621094 -6.246094,-3.35156255 -1.532227,-2.2412109 -2.296875,-5.3085937 -2.296875,-9.1992187 0,-3.881836 0.761719,-6.9375 2.285156,-9.164063 1.529297,-2.232421 3.615235,-3.351562 6.257813,-3.351562 z m 0,0"
       style="fill:#ffffff;fill-opacity:1;fill-rule:nonzero;stroke:none"
       aria-label="1960"
       transform="matrix(1.3333333,0,0,1.3333333,260.82427,521.39067)" />
    <path
       id="path2"
       d="m 0,0 c 0.585,1.32 1.029,2.343 1.332,3.068 0.303,0.724 0.534,1.317 0.692,1.779 1.461,4.253 1.709,7.789 0.742,10.607 -0.966,2.818 -3.092,4.792 -6.378,5.92 -3.168,1.089 -5.906,0.746 -8.211,-1.03 -2.306,-1.776 -4.285,-5.069 -5.939,-9.881 -0.35,-1.021 -0.609,-1.808 -0.778,-2.361 -0.168,-0.554 -0.317,-1.08 -0.445,-1.58 z m 14.032,-18.474 -2.451,0.842 1.162,4.328 -0.407,1.566 -32.896,11.302 -1.284,-0.985 -2.016,-4.728 -2.391,0.821 5.848,17.024 c 2.572,7.485 5.346,12.49 8.321,15.014 2.976,2.523 6.641,3.036 10.996,1.54 3.889,-1.335 6.4,-4.148 7.535,-8.437 C 7.584,15.524 7.137,10.427 5.108,4.521 4.899,3.914 4.62,3.181 4.271,2.323 3.922,1.465 3.465,0.371 2.9,-0.956 l 11.74,-4.074 1.284,0.985 2.12,5.223 2.45,-0.842 z"
       style="fill:#ffffff;fill-opacity:1;fill-rule:nonzero;stroke:none"
       transform="matrix(1.3333333,0,0,-1.3333333,95.1564,224.998)"
       clip-path="url(#clipPath3)" />
    <path
       id="path4"
       d="M 0,0 12.614,14.672 14.531,13.024 11.621,9.071 11.42,7.465 28.746,-7.431 c 3.352,-2.882 6.504,-4.126 9.457,-3.734 2.954,0.392 6.039,2.459 9.255,6.2 3.183,3.702 4.743,7.055 4.681,10.057 -0.063,3.001 -1.754,5.93 -5.074,8.784 L 30.066,28.491 28.22,28.095 24.709,24.862 22.791,26.51 33.672,39.166 35.589,37.517 32.919,33.56 32.854,31.735 50.275,16.759 c 2.291,-1.971 3.869,-3.683 4.733,-5.137 0.864,-1.454 1.347,-3.039 1.446,-4.751 0.117,-2.167 -0.436,-4.615 -1.657,-7.343 -1.221,-2.729 -3.004,-5.458 -5.35,-8.186 -2.361,-2.747 -4.796,-4.924 -7.302,-6.531 -2.506,-1.607 -4.84,-2.515 -6.999,-2.725 -1.741,-0.165 -3.383,0.069 -4.927,0.702 -1.543,0.633 -3.469,1.94 -5.776,3.924 L 6.696,1.97 5.138,1.53 1.918,-1.648 Z"
       style="fill:#ffffff;fill-opacity:1;fill-rule:nonzero;stroke:none"
       transform="matrix(1.3333333,0,0,-1.3333333,96.783867,145.29987)"
       clip-path="url(#clipPath5)" />
    <path
       id="path6"
       d="m 0,0 -1.205,2.293 4.259,2.586 0.779,1.419 -16.173,30.794 -1.611,0.164 -4.574,-1.984 -1.175,2.238 17.062,8.962 1.176,-2.239 -3.821,-2.425 -0.778,-1.419 16.588,-31.585 15.801,8.298 0.516,1.42 -2.333,7.343 3.617,1.9 5.348,-10.183 z"
       style="fill:#ffffff;fill-opacity:1;fill-rule:nonzero;stroke:none"
       transform="matrix(1.3333333,0,0,-1.3333333,201.9388,118.51373)"
       clip-path="url(#clipPath7)" />
    <path
       id="path8"
       d="m 0,0 43.997,7.289 1.588,-9.582 -4.298,-0.712 -2.022,5.604 -1.259,0.76 -11.903,-1.972 5.832,-35.197 1.439,-0.668 5.299,0.565 0.423,-2.556 -20.345,-3.37 -0.423,2.555 5.159,1.167 1.186,1.103 L 18.841,0.183 6.938,-1.788 5.992,-2.915 5.847,-8.878 1.587,-9.583 Z"
       style="fill:#ffffff;fill-opacity:1;fill-rule:nonzero;stroke:none"
       transform="matrix(1.3333333,0,0,-1.3333333,248.17573,35.052667)"
       clip-path="url(#clipPath9)" />
    <path
       id="path10"
       d="m 0,0 0.52,2.538 4.442,-0.596 1.501,0.605 6.987,34.074 -1.142,1.147 -4.306,1.261 0.508,2.476 37.042,-7.594 -1.852,-9.033 -4.342,0.891 -0.018,5.48 -0.865,1.154 -17.898,3.669 -3.208,-15.647 12.687,-2.602 1.275,0.652 1.678,4.346 3.663,-0.751 -2.794,-13.624 -3.663,0.751 0.162,4.626 -0.903,1.161 -12.687,2.602 -3.556,-17.34 20.73,-4.25 1.3,0.772 2.604,5.982 4.002,-0.821 -2.069,-10.089 z"
       style="fill:#ffffff;fill-opacity:1;fill-rule:nonzero;stroke:none"
       transform="matrix(1.3333333,0,0,-1.3333333,337.63173,81.9876)"
       clip-path="url(#clipPath11)" />
    <path
       id="path12"
       d="m 0,0 -9.697,-14.659 c 0.653,-0.457 1.277,-0.888 1.872,-1.293 0.593,-0.406 1.17,-0.793 1.727,-1.162 4.072,-2.693 7.414,-4.08 10.027,-4.16 2.612,-0.079 4.756,1.148 6.432,3.681 1.732,2.619 2.034,5.149 0.908,7.592 -1.126,2.443 -3.821,5.075 -8.086,7.896 z M -9.171,9.542 7.611,-1.559 c 5.379,-3.558 8.853,-6.97 10.42,-10.236 1.568,-3.266 1.293,-6.5 -0.826,-9.704 -1.508,-2.279 -3.635,-3.562 -6.383,-3.851 -2.748,-0.288 -6.094,0.429 -10.038,2.152 1.412,-1.452 2.485,-2.834 3.22,-4.146 0.733,-1.312 1.139,-2.61 1.214,-3.893 0.103,-1.427 -0.192,-3.223 -0.886,-5.392 -0.695,-2.167 -1.091,-3.651 -1.187,-4.45 -0.29,-1.881 -0.029,-3.466 0.782,-4.755 0.811,-1.289 2.577,-2.834 5.3,-4.634 l 0.578,-0.383 -1.326,-2.006 c -1.089,0.498 -2.076,0.984 -2.963,1.46 -0.887,0.476 -1.705,0.962 -2.456,1.458 -1.521,1.007 -2.741,1.992 -3.659,2.957 -0.918,0.964 -1.581,1.952 -1.991,2.962 -0.839,2.133 -0.718,5.133 0.363,9.003 0.374,1.404 0.63,2.467 0.769,3.189 0.538,2.724 0.335,4.99 -0.61,6.799 -0.946,1.808 -2.929,3.712 -5.951,5.71 -0.643,0.426 -1.689,1.08 -3.137,1.965 l -0.242,0.122 -8.284,-12.524 0.631,-1.49 3.591,-2.746 -1.428,-2.16 -15.657,10.356 1.429,2.16 3.899,-2.209 1.619,10e-4 19.189,29.011 -0.632,1.491 -3.525,2.775 z"
       style="fill:#ffffff;fill-opacity:1;fill-rule:nonzero;stroke:none"
       transform="matrix(1.3333333,0,0,-1.3333333,455.3456,66.668133)"
       clip-path="url(#clipPath13)" />
    <path
       id="path14"
       d="m 0,0 2.035,1.602 3.366,-3.777 1.536,-0.507 27.333,21.513 -0.131,1.613 -2.833,4.197 1.987,1.563 12.397,-15.75 -1.987,-1.564 -3.414,3.739 -1.537,0.507 -27.332,-21.512 0.131,-1.614 2.881,-4.158 -2.036,-1.602 z"
       style="fill:#ffffff;fill-opacity:1;fill-rule:nonzero;stroke:none"
       transform="matrix(1.3333333,0,0,-1.3333333,478.65493,153.002)"
       clip-path="url(#clipPath15)" />
    <path
       id="path16"
       d="m 0,0 15.575,-41.789 -9.102,-3.392 -1.521,4.082 5.113,3.057 0.505,1.381 -4.213,11.305 -33.431,-12.46 -0.38,-1.54 1.568,-5.092 -2.427,-0.905 -7.202,19.324 2.427,0.904 2.134,-4.841 1.309,-0.952 33.431,12.461 -4.214,11.304 -1.286,0.714 -5.88,-0.999 -1.508,4.045 z"
       style="fill:#ffffff;fill-opacity:1;fill-rule:nonzero;stroke:none"
       transform="matrix(1.3333333,0,0,-1.3333333,561.274,172.4912)"
       clip-path="url(#clipPath17)" />
    <path
       id="path18"
       d="m 0,0 19.018,-20.553 -4.477,-4.142 -1.857,2.007 2.24,2.996 -0.036,0.923 -5.145,5.56 -16.442,-15.215 0.147,-0.985 2.126,-2.583 -1.194,-1.105 -8.794,9.504 1.194,1.105 2.394,-2.302 0.987,-0.241 16.442,15.215 -5.144,5.56 -0.918,0.108 -3.177,-1.984 -1.841,1.989 z"
       style="fill:#ffffff;fill-opacity:1;fill-rule:nonzero;stroke:none"
       transform="matrix(1.3333333,0,0,-1.3333333,100.404,467.8396)"
       clip-path="url(#clipPath19)" />
    <path
       id="path20"
       d="M 0,0 9.766,-7.227 8.822,-8.503 6.213,-6.861 5.198,-6.809 -3.337,-18.342 c -1.65,-2.231 -2.286,-4.262 -1.904,-6.093 0.38,-1.832 1.816,-3.669 4.306,-5.511 2.465,-1.824 4.635,-2.648 6.512,-2.471 1.877,0.176 3.634,1.37 5.269,3.58 l 8.373,11.315 -0.332,1.137 -2.187,2.051 0.945,1.276 8.424,-6.234 -0.945,-1.276 -2.6,1.491 -1.145,-0.043 -8.581,-11.595 c -1.129,-1.526 -2.129,-2.592 -3,-3.2 -0.871,-0.607 -1.841,-0.982 -2.908,-1.123 -1.353,-0.172 -2.911,0.062 -4.676,0.702 -1.765,0.639 -3.555,1.631 -5.37,2.975 -1.829,1.353 -3.304,2.777 -4.425,4.273 -1.121,1.496 -1.797,2.916 -2.027,4.259 -0.183,1.082 -0.112,2.121 0.214,3.117 0.325,0.996 1.056,2.261 2.192,3.797 l 8.742,11.813 -0.347,0.955 -2.138,1.871 z"
       style="fill:#ffffff;fill-opacity:1;fill-rule:nonzero;stroke:none"
       transform="matrix(1.3333333,0,0,-1.3333333,135.72427,504.50107)"
       clip-path="url(#clipPath21)" />
    <path
       id="path22"
       d="m 0,0 -4.736,-9.968 c 0.447,-0.227 0.873,-0.44 1.278,-0.639 0.405,-0.2 0.797,-0.39 1.177,-0.57 2.768,-1.315 4.968,-1.883 6.599,-1.702 1.632,0.181 2.856,1.133 3.674,2.855 0.847,1.782 0.811,3.381 -0.104,4.8 -0.915,1.419 -2.823,2.818 -5.724,4.196 z M -6.542,5.123 4.869,-0.298 c 3.658,-1.737 6.118,-3.553 7.381,-5.445 1.262,-1.892 1.377,-3.927 0.342,-6.106 -0.736,-1.549 -1.946,-2.534 -3.629,-2.956 -1.683,-0.421 -3.826,-0.271 -6.43,0.452 1.006,-0.777 1.794,-1.542 2.367,-2.293 0.572,-0.751 0.938,-1.523 1.098,-2.313 0.191,-0.878 0.165,-2.021 -0.075,-3.43 -0.24,-1.409 -0.356,-2.367 -0.346,-2.872 -0.015,-1.194 0.288,-2.157 0.906,-2.887 0.618,-0.729 1.852,-1.534 3.703,-2.414 l 0.394,-0.186 -0.648,-1.364 c -0.721,0.213 -1.377,0.429 -1.971,0.646 -0.593,0.218 -1.145,0.448 -1.655,0.69 -1.035,0.492 -1.88,0.997 -2.535,1.516 -0.656,0.518 -1.156,1.073 -1.5,1.665 -0.709,1.252 -0.899,3.128 -0.568,5.629 0.109,0.906 0.174,1.589 0.197,2.05 0.094,1.742 -0.232,3.133 -0.979,4.173 -0.747,1.042 -2.147,2.05 -4.202,3.026 -0.437,0.208 -1.146,0.522 -2.124,0.944 l -0.161,0.056 -4.046,-8.517 0.524,-0.871 2.474,-1.39 -0.697,-1.469 -10.646,5.058 0.698,1.469 2.618,-1.03 1.006,0.143 9.372,19.728 -0.524,0.87 -2.437,1.415 z"
       style="fill:#ffffff;fill-opacity:1;fill-rule:nonzero;stroke:none"
       transform="matrix(1.3333333,0,0,-1.3333333,191.29467,543.99693)"
       clip-path="url(#clipPath23)" />
    <path
       id="path24"
       d="m 0,0 0.415,1.572 2.764,-0.528 0.962,0.327 5.569,21.118 -0.675,0.759 -2.656,0.94 0.405,1.535 11.631,-3.067 -0.405,-1.536 -3.031,0.56 -0.963,-0.327 -2.74,-10.39 1.825,-0.482 13.388,7.582 -0.137,0.617 -2.632,0.935 0.405,1.534 9.969,-2.629 -0.405,-1.535 -3.248,0.497 -12.591,-6.931 7.584,-15.377 3.438,-1.107 -0.416,-1.572 -7.909,2.086 0.301,1.142 -6.43,12.728 -3.557,0.939 -2.414,-9.155 0.676,-0.759 2.922,-0.971 -0.414,-1.573 z"
       style="fill:#ffffff;fill-opacity:1;fill-rule:nonzero;stroke:none"
       transform="matrix(1.3333333,0,0,-1.3333333,222.47347,593.03813)"
       clip-path="url(#clipPath25)" />
    <path
       id="path26"
       d="M 0,0 12.115,-0.92 11.995,-2.503 8.912,-2.502 8.025,-2.998 6.94,-17.304 c -0.211,-2.767 0.333,-4.824 1.63,-6.172 1.297,-1.347 3.491,-2.139 6.58,-2.373 3.057,-0.232 5.332,0.226 6.827,1.375 1.496,1.149 2.347,3.094 2.555,5.835 l 1.065,14.036 -0.887,0.785 -2.942,0.573 0.12,1.584 10.45,-0.793 -0.12,-1.584 -2.995,-0.122 -0.947,-0.647 -1.091,-14.382 c -0.144,-1.893 -0.423,-3.328 -0.837,-4.306 -0.414,-0.978 -1.036,-1.812 -1.864,-2.499 -1.053,-0.866 -2.497,-1.497 -4.331,-1.895 -1.834,-0.398 -3.878,-0.511 -6.13,-0.34 -2.269,0.171 -4.276,0.592 -6.021,1.262 -1.745,0.67 -3.073,1.512 -3.983,2.526 -0.731,0.819 -1.224,1.737 -1.478,2.753 -0.255,1.016 -0.31,2.476 -0.165,4.381 l 1.112,14.654 -0.802,0.624 -2.806,0.445 z"
       style="fill:#ffffff;fill-opacity:1;fill-rule:nonzero;stroke:none"
       transform="matrix(1.3333333,0,0,-1.3333333,278.5,570.258)"
       clip-path="url(#clipPath27)" />
    <path
       id="path28"
       d="m 0,0 0.119,-12.035 9.093,4.151 z m -2.433,3.465 2.972,1.357 21.118,-17.646 2.909,0.796 0.675,-1.479 -10.237,-4.674 -0.675,1.48 2.715,1.452 0.097,0.662 -6.402,5.399 -10.634,-4.854 -0.071,-8.355 0.695,-0.299 3.009,1.16 0.676,-1.48 -8.829,-4.029 -0.676,1.479 2.397,1.627 z"
       style="fill:#ffffff;fill-opacity:1;fill-rule:nonzero;stroke:none"
       transform="matrix(1.3333333,0,0,-1.3333333,440.25893,552.3968)"
       clip-path="url(#clipPath29)" />
    <path
       id="path30"
       d="M 0,0 C 0.511,0.311 0.996,0.616 1.457,0.915 1.918,1.213 2.359,1.511 2.782,1.808 5.557,3.752 7.318,5.533 8.065,7.153 8.812,8.772 8.622,10.384 7.496,11.991 6.467,13.46 5.149,14.168 3.542,14.114 1.935,14.059 0.001,13.241 -2.258,11.657 -2.787,11.287 -3.372,10.849 -4.014,10.345 -4.655,9.84 -5.35,9.278 -6.098,8.66 Z m -7.223,10.307 c 0.179,0.109 0.38,0.238 0.602,0.386 0.222,0.147 0.537,0.364 0.947,0.651 2.563,1.797 4.189,3.476 4.878,5.038 0.688,1.562 0.488,3.12 -0.601,4.674 -0.926,1.321 -2.175,1.923 -3.748,1.806 -1.573,-0.117 -3.469,-0.953 -5.69,-2.509 -0.198,-0.139 -0.542,-0.4 -1.032,-0.782 -0.491,-0.384 -0.897,-0.697 -1.22,-0.938 z m -13.57,5.195 10.346,7.25 c 3.131,2.195 5.767,3.395 7.907,3.603 2.141,0.207 3.833,-0.577 5.078,-2.353 0.859,-1.226 1.087,-2.599 0.684,-4.118 -0.402,-1.52 -1.434,-3.177 -3.093,-4.97 2.393,1.645 4.574,2.476 6.543,2.493 1.968,0.016 3.52,-0.785 4.653,-2.402 1.444,-2.062 1.639,-4.273 0.586,-6.635 C 10.856,6.008 8.612,3.623 5.177,1.216 l -10.703,-7.5 -0.934,1.332 2.188,1.769 0.371,0.947 -12.532,17.885 -1.017,-0.026 -2.432,-1.42 z"
       style="fill:#ffffff;fill-opacity:1;fill-rule:nonzero;stroke:none"
       transform="matrix(1.3333333,0,0,-1.3333333,497.46867,552.32893)"
       clip-path="url(#clipPath31)" />
    <path
       id="path32"
       d="m 0,0 c -2.298,-2.401 -3.358,-5.044 -3.181,-7.928 0.178,-2.884 1.578,-5.581 4.197,-8.089 2.611,-2.499 5.374,-3.776 8.289,-3.83 2.914,-0.054 5.509,1.108 7.786,3.486 2.253,2.354 3.285,4.985 3.094,7.893 -0.192,2.908 -1.588,5.607 -4.189,8.098 C 13.394,2.12 10.642,3.393 7.737,3.449 4.833,3.504 2.253,2.354 0,0 m -1.552,1.487 c 1.461,1.526 3.032,2.748 4.713,3.662 1.68,0.916 3.458,1.514 5.336,1.795 2.102,0.31 4.09,0.166 5.964,-0.434 1.875,-0.599 3.586,-1.64 5.133,-3.122 1.063,-1.017 1.92,-2.128 2.572,-3.332 0.652,-1.206 1.102,-2.508 1.352,-3.908 0.419,-2.345 0.197,-4.745 -0.665,-7.204 -0.861,-2.459 -2.274,-4.713 -4.237,-6.765 -1.462,-1.527 -3.048,-2.762 -4.755,-3.707 -1.709,-0.945 -3.461,-1.551 -5.256,-1.821 -2.102,-0.31 -4.095,-0.162 -5.978,0.446 -1.884,0.609 -3.609,1.663 -5.175,3.163 -1.557,1.49 -2.679,3.156 -3.365,4.997 -0.686,1.84 -0.921,3.807 -0.704,5.9 0.197,1.866 0.722,3.67 1.576,5.411 0.852,1.74 2.016,3.38 3.489,4.919"
       style="fill:#ffffff;fill-opacity:1;fill-rule:nonzero;stroke:none"
       transform="matrix(1.3333333,0,0,-1.3333333,528.14733,486.39253)"
       clip-path="url(#clipPath33)" />
    <path
       id="path34"
       d="m 0,0 c -4.989,-0.449 -10.176,-0.724 -11.191,-7.143 -0.403,-2.545 0.943,-4.881 3.861,-3.751 C -2.182,-8.9 5.212,-9.513 7.487,-4.239 9.038,-0.642 2.929,-1.034 0,0 m -106.031,-39.6 c 2.168,0.55 4.383,0.959 6.494,1.678 4.464,1.52 8.944,3.713 7.484,9.37 -1.878,7.277 -7.048,2.767 -10.968,2.213 -1.838,-0.26 -3.709,-0.699 -5.411,-1.418 -2.675,-1.131 -7.837,-0.3 -5.765,-5.796 1.311,-3.477 3.143,-7.091 8.166,-6.047 M 66.571,5.322 c 12.495,-4.954 23.164,-6.279 33.717,-8.082 1.921,-0.328 3.942,-0.673 4.723,1.597 0.761,2.212 -1.054,3.607 -2.658,4.293 -10.678,4.565 -21.41,9.203 -35.782,2.192 m 77.936,-23.46 c -3.162,0.319 -6.018,1.119 -7.072,-2.442 -1.141,-3.852 0.322,-6.925 3.88,-8.296 5.249,-2.025 10.688,-3.603 16.125,-5.084 3.35,-0.913 6.959,-1.366 8.221,3.222 1.082,3.931 -0.714,6.87 -4.3,8.049 -5.698,1.874 -11.589,3.16 -16.854,4.551 M 59.984,-1.829 c -0.815,-3.058 0.414,-4.333 1.737,-4.732 13,-3.929 26.048,-7.7 39.089,-11.496 1.869,-0.544 3.924,-0.919 4.641,1.531 0.887,3.035 -0.629,5.534 -3.352,6.336 -13.841,4.077 -27.806,7.634 -42.115,8.361 m -8.005,-2.567 c 0.375,1.536 0.75,3.073 1.125,4.609 C 27.81,6.799 2.516,13.386 -22.778,19.972 1.639,10.03 26.081,0.255 51.979,-4.396 m -67.005,6.993 c -11.905,7.29 -30.466,6.123 -39.368,-2.154 -1.7,-1.58 -3.474,-3.44 -2.501,-5.87 1.32,-3.297 4.522,-2.511 6.897,-1.873 11.574,3.109 23.071,6.499 34.972,9.897 m -39.933,-26.719 c 11.347,2.827 22.714,5.581 34.029,8.53 2.851,0.744 4.469,2.864 3.818,6.006 -0.662,3.192 -3.221,4.59 -5.942,3.871 -11.303,-2.985 -22.554,-6.193 -33.708,-9.69 -2.588,-0.811 -4.088,-3.471 -3.008,-6.493 0.79,-2.209 2.76,-2.195 4.811,-2.224 M 88.458,14.081 c 3.431,0.987 8.454,-3.42 11.014,1.466 2.041,3.898 -0.62,8.294 -2.909,11.64 -1.974,2.886 -2.888,12.053 -8.609,5.43 C 78.881,22.112 66.41,20.796 54.93,16.315 51.353,14.918 43.536,16.576 45.017,10.23 46.14,5.42 52.849,7.343 57.203,7.986 c 3.331,0.493 6.536,1.825 9.805,2.755 6.886,1.959 13.589,5.053 21.45,3.34 m -123.967,130.84 c 3.2,-8.705 0.809,-20.822 10.873,-23.454 12.338,-3.227 25.561,-2.245 37.781,2.798 2.946,1.215 7.396,3.302 6.942,6.672 -0.62,4.608 -5.542,2.364 -8.55,2.591 -5.638,0.425 -11.365,0.615 -16.986,0.123 -11.571,-1.013 -23.132,-2.638 -30.06,11.27 m 170.677,-182.68 c -5.778,29.073 -13.546,60.682 -31.112,88.931 -1.147,1.845 -2.884,3.693 -4.793,4.609 -3.161,1.518 -6.392,6.173 -9.877,3.034 -2.977,-2.682 0.764,-6.249 2.12,-9.155 13.813,-29.608 25.091,-60.01 29.532,-92.598 0.614,-4.503 0.278,-9.792 7.288,-8.923 6.616,0.821 7.217,5.701 6.842,14.102 m -220.394,11.44 c -0.036,-4.174 -0.259,-8.357 -0.064,-12.521 0.273,-5.802 4.553,-7.612 9.34,-8.048 5.854,-0.532 6.48,3.697 6.86,8.22 0.282,3.363 1.21,6.673 1.864,10.004 5.122,26.095 11.48,51.861 19.684,77.184 1.168,3.606 2.62,9.239 -1.831,11.415 -4.078,1.993 -6.509,-2.851 -8.777,-5.644 C -77.203,30.82 -82.402,2.587 -85.226,-26.319 m 68.035,140.273 c -13.27,-0.829 -17.079,6.084 -20.566,14.973 -2.842,7.245 -2.277,17.936 -14.482,18.951 -3.204,0.266 -7.9,20.754 -5.526,23.351 3.988,4.362 8.019,2.365 11.744,-0.986 8.021,-7.217 13.324,-16.561 19.241,-25.323 3.502,-5.186 7.271,-6.669 13.176,-6.514 25.077,0.658 50.165,1.2 75.246,1.116 8.409,-0.029 13.609,2.405 16.294,10.677 3.384,10.423 10.31,18.33 19.927,25.076 3.893,-6.779 -1.377,-11.936 -1.829,-17.503 -0.516,-6.363 -1.048,-12.009 -9.999,-11.349 -2.499,0.185 -2.894,-3.88 -3.7,-6.434 -7.031,-22.276 -6.912,-24.391 -30.555,-25.062 -18.216,-0.518 -36.577,0.599 -54.784,-0.267 -0.694,-0.033 -2.791,0.346 -5.037,-0.631 -2.136,-0.929 -3.357,-2.532 -3.872,-3.224 -17.361,-23.346 -23.928,-35.57 -28.869,-50.212 -6.159,-18.249 1.352,-32.2 20.283,-36.281 11.883,-2.561 23.492,-6.956 35.478,-8.36 24.985,-2.927 47.569,4.721 67.73,19.374 6.681,4.855 6.299,11.251 2.414,18.166 -7.968,14.183 -12.918,23.376 -19.506,34.582 -3.354,5.702 -6.604,10.872 -8.882,14.684 -3.832,6.411 -6.926,11.688 -8.955,15.169 h 4 c 9.87,-6.365 17.653,-13.689 22,-18 31.372,-31.109 53.718,-85.022 57.48,-98.546 2.539,-9.123 6.947,-12.69 15.018,-14.173 2.99,-0.55 6.011,-0.955 8.979,-1.606 17.459,-3.829 22.165,-17.625 11.508,-32.465 -4.124,-5.744 -8.683,-3.269 -13.168,-1.81 -6.364,2.071 -11.304,6.04 -15.459,-4.734 -2.892,-7.498 -13.894,-6.43 -21.748,-6.218 -7.113,0.193 -5.861,6.91 -6.619,11.413 -1.312,7.792 -4.283,13.174 -12.965,15.056 -5.841,1.266 -11.575,3.439 -17.434,5.038 -11.378,3.104 -22.126,6.48 -32.575,13.666 -18.236,12.541 -39.703,6.481 -55.942,-4.102 -12.992,-8.466 -26.87,-11.426 -40.39,-16.597 -7.985,-3.054 -16.046,-4.151 -16.567,-15.437 -0.222,-4.822 -16.235,-8.004 -20.744,-2.66 -7.707,9.134 -13.645,2.802 -19.597,-0.306 -5.127,-2.678 -9.665,-5.467 -14.226,-0.439 -6.707,7.392 -7.422,16.571 -4.983,25.687 1.561,5.836 6.803,5.681 12.171,5.484 17.211,-0.63 23.904,4.038 26.654,19.916 7.824,45.174 33.324,79.93 64.457,111.525 1.022,1.037 2.029,2.089 5.179,5.335"
       style="fill:#ffffff;fill-opacity:1;fill-rule:nonzero;stroke:none"
       transform="matrix(1.3333333,0,0,-1.3333333,290.9596,379.9024)"
       clip-path="url(#clipPath35)" />
    <path
       id="path36"
       d="m 0,0 -4.778,1.34 0.364,-4.949 -3.078,3.893 -2.614,-4.218 -0.202,4.958 -4.595,-1.876 2.752,4.13 -4.82,1.183 4.654,1.725 -3.205,3.789 4.779,-1.34 -0.365,4.95 3.078,-3.894 2.615,4.219 0.201,-4.959 4.595,1.876 L -3.37,6.697 1.45,5.514 -3.204,3.79 Z"
       style="fill:#ffffff;fill-opacity:1;fill-rule:nonzero;stroke:none"
       transform="matrix(1.3333333,0,0,-1.3333333,387.86347,596.6296)"
       clip-path="url(#clipPath37)" />
    <path
       id="path38"
       d="m 0,0 c 0,-1.659 -1.345,-3.003 -3.003,-3.003 -1.659,0 -3.004,1.344 -3.004,3.003 0,1.659 1.345,3.003 3.004,3.003 C -1.345,3.003 0,1.659 0,0"
       style="fill:#ffffff;fill-opacity:1;fill-rule:nonzero;stroke:none"
       transform="matrix(1.3333333,0,0,-1.3333333,440.58787,540.9232)"
       clip-path="url(#clipPath39)" />
  </g>
</svg>
