<?xml version="1.0" encoding="UTF-8"?>
<!-- Created with Inkscape (http://www.inkscape.org/) -->
<svg width="781" height="786" version="1.1" viewBox="0 0 781 786" xmlns="http://www.w3.org/2000/svg">
    <path class="drawing-path"
        d="m352.83 755.66c-10.811-3.3875-11.992-6.0367-11.041-24.764 0.39298-7.7418 0.95393-14.7 1.2466-15.462 0.35896-0.93544-0.47909-1.5887-2.5762-2.0081-4.8415-0.9683-3.9541-3.3716 1.245-3.3716 12.89 0 21.31 2.5639 13.136 4-3.587 0.63017-4.0431 2.2569-4.9732 17.737-0.59386 9.8839-0.44834 12.493 0.83538 14.975 1.9612 3.7925 6.5507 5.717 13.728 5.7568 11.349 0.0628 13.744-3.8968 14.157-23.408l0.26362-12.439-2.5-0.60617c-1.375-0.33339-2.5-1.2609-2.5-2.0611 0-1.1818 1.5019-1.3878 8-1.0974 8.7966 0.39315 9.5 0.59319 9.5 2.7015 0 0.93238-1.0521 1.441-2.981 1.441-3.5862 0-3.5251-0.22313-4.889 17.832-1.145 15.157-2.0497 17.32-8.458 20.23-4.9054 2.2272-15.957 2.4983-22.193 0.5444zm-45.729-6.4002c-4.4594-1.2415-5.75-2.0338-5.75-3.5297 0-1.3572-8.8622-19.484-10.406-21.286-0.0516-0.0601-1.2777-0.39278-2.7248-0.73922-2.5261-0.60475-2.6958-0.37261-4.25 5.8148-2.1386 8.5136-2.0628 9.3842 0.88113 10.123 2.7493 0.69004 3.46 3.4106 0.89092 3.4106-0.88499 0-5.385-0.99033-10-2.2007-8.7434-2.2932-11.369-4.7993-5.0275-4.7993h3.3634l4.1402-15.75c2.2771-8.6625 4.4108-16.742 4.7414-17.955 0.48396-1.7749 0.0933-2.3321-2.0036-2.8584-1.7194-0.43155-2.6048-1.3331-2.6048-2.6523 0-1.179 0.51261-1.8088 1.25-1.5358 0.6875 0.2545 5.1875 1.4958 10 2.7584 9.3895 2.4635 11.494 4.6449 5 5.1824l-3.75 0.31037-2.1627 8.25c-2.0776 7.9255-2.0897 8.25-0.30716 8.25 1.0205 0 3.3437-0.84618 5.1627-1.8804 19.121-10.872 18.346-10.296 15.483-11.505-1.835-0.77506-2.3829-1.5182-1.8003-2.4414 0.66049-1.0465 1.7138-1.0994 4.9809-0.25 2.2788 0.59242 5.9433 1.5445 8.1433 2.1157 5.1606 1.3399 5.4632 3.9615 0.45721 3.9615-3.7425 0-22.457 9.4537-22.457 11.344 0 0.54331 2.537 6.2907 5.6377 12.772 4.6708 9.7632 6.1286 11.955 8.5 12.782 1.5742 0.54878 2.8623 1.6962 2.8623 2.5498 0 1.8582-0.78975 1.835-8.25-0.24192zm149.83-3.6496c-0.71532-3.813-0.89194-3.8596-6.5458-1.7282-1.0447 0.39386-0.84111-0.43812 0.70485-2.8798l2.174-3.4337-7.4097-2.2582 3.25-1.2262c1.7875-0.67438 3.25-1.4502 3.25-1.724 0-0.2738-0.96749-1.8565-2.15-3.5172-2.3535-3.3052-2.6875-3.1805 3.676-1.3724 1.8398 0.52273 1.9958 0.18519 1.6968-3.6706l-0.32928-4.2463 5.6247 6.5855 3.9817-6.5855 0.31629 3.8493c0.33893 4.1249-0.0922 3.9999 6.6194 1.9201 1.823-0.5649 1.8085-0.42114-0.25 2.4698-1.2022 1.6883-2.1857 3.2875-2.1857 3.5539s1.5875 0.78216 3.5278 1.1462c4.0646 0.76252 3.8067 2.1088-0.58901 3.0742l-3.0383 0.66731 2.6847 3.5198c2.526 3.3117 2.5585 3.4838 0.54975 2.9096-6.9418-1.9841-6.407-2.2229-5.6868 2.5391l0.65799 4.3507-5.7546-6.745-4.089 6.4581zm74.777-14.077c-0.38563-1.0049 0.18184-2.1662 1.5148-3.0998 2.0692-1.4493 2.1315-2.1582 2.1315-24.276v-22.783l2.5356-1.1553c2.3921-1.0899 3.5222-0.331 19.976 13.414 14.513 12.124 17.903 14.515 20.196 14.245 1.8519-0.21823 2.8533 0.17329 3.053 1.1937 0.40997 2.094-15.686 9.4757-17.206 7.8906-0.74804-0.78021-0.40065-1.5433 1.1956-2.6264 1.2375-0.83964 2.25-1.8513 2.25-2.2481s-2.2072-2.5826-4.9049-4.8574l-4.9049-4.1359-17.19 7.9419v7.1154c0 5.9279 0.25034 7.0141 1.5 6.5084 0.825-0.33385 2.1169-0.85785 2.871-1.1645 0.75402-0.30661 1.6501 0.1699 1.9912 1.0589 0.47359 1.2342-0.73565 2.216-5.1138 4.1523-3.1538 1.3948-6.5315 2.9626-7.5061 3.4842-1.3138 0.70312-1.9314 0.53284-2.3886-0.65858zm21.115-30.202c1.2654-0.70813 0.5672-1.7126-3.7045-5.3297-9.6881-8.2035-8.7637-8.4057-8.7637 1.9169v9.1098l5.4545-2.4122c3-1.3267 6.1562-2.8049 7.0137-3.2848zm-312.06 28.042c-2.2508-0.75948-5.3997-2.7454-6.9974-4.413-2.7183-2.8373-2.8896-3.4941-2.6656-10.219 0.34601-10.388-1.5163-13.749-9.2491-16.689-2.336-0.88815-2.6804-0.57483-5.4938 4.9986-3.5958 7.1232-3.6816 8.2978-0.75159 10.286 1.6666 1.1308 1.9618 1.8266 1.1386 2.6834-0.83523 0.8693-3.2602 0.0911-9.7578-3.1314-8.9045-4.4162-10.494-6.5402-4.5363-6.0605l3.4055 0.2742 15.252-32.548-2.5373-2.0845c-1.3955-1.1465-2.2318-2.5788-1.8584-3.183 0.44734-0.72381 4.6808 0.78072 12.411 4.4108 16.66 7.8234 21.566 12.018 21.566 18.44 0 6.3812-4.0582 9.9168-11.382 9.9168h-3.9549l1.9346 3.6095c1.5753 2.9392 1.83 4.8565 1.3716 10.325-0.59801 7.1331-0.38982 7.5288 6.085 11.566 0.88218 0.55 1.2684 1.495 0.85833 2.1001-0.53416 0.78808-1.9062 0.70844-4.838-0.28081zm-0.48015-33.954c2.2802-2.8988 2.651-6.4157 1.0015-9.498-1.1734-2.1925-9.548-7.8671-11.61-7.8671-0.7094 0-2.5876 2.5875-4.1738 5.75-4.8522 9.6742-4.8517 9.6837 0.58152 12.08 6.8039 3.0004 11.599 2.8436 14.201-0.46451zm360.53 1.5608c-0.36508-0.59071 0.30634-2.1067 1.492-3.3688l2.1558-2.2948-10.248-14.631c-9.9676-14.23-11.996-16.089-14.654-13.431-0.93333 0.93333-1.4667 0.93333-2.4 0-1.4373-1.4373-1.679-1.205 9.2-8.839 11.658-8.1808 13.05-8.996 17.771-10.41 5.1805-1.5521 9.6444 0.0174 11.777 4.1406 1.897 3.6684 1.8376 4.7205-0.51442 9.1089l-1.9673 3.6705 3.4352-1.4353c5.4465-2.2757 8.3267-1.808 12.099 1.9647 2.4229 2.4229 3.4 4.3024 3.4 6.5398 0 3.7501-2.9005 9.7361-6.1527 12.698-2.5762 2.3462-23.584 17.362-24.29 17.362-0.24162 0-0.73801-0.48331-1.1031-1.074zm22.348-19.966c1.5691-2.3242 2.1142-4.2134 1.7124-5.9346-0.70242-3.0082-4.9186-7.025-7.3737-7.025-2.5582 0-11.467 4.6513-13.895 7.2549l-2.0942 2.2451 9.962 13.606 4.6934-3.3683c2.5814-1.8526 5.7293-4.9026 6.9953-6.7779zm-17.92-11.732c5.044-4.7982 6.0765-8.4624 3.3996-12.064-2.5387-3.4158-6.9376-3.8892-12.025-1.2939-6.8377 3.4883-6.9919 4.265-2.2025 11.093 2.3296 3.321 4.8264 6.0382 5.5486 6.0382 0.72216 0 3.0977-1.6978 5.279-3.7728zm-447.15 17.592c-7.1432-3.8754-13.203-10.312-14.834-15.756-1.5932-5.3176-0.55019-7.5776 10.246-22.202l8.0991-10.97-2.1982-2.3399c-2.2564-2.4018-1.3489-4.4297 1.2775-2.855 3.6418 2.1834 14.675 10.783 14.675 11.438 0 1.7127-2.1099 1.8403-4.503 0.27225-1.4077-0.92236-2.7096-1.5036-2.8931-1.2916-5.1164 5.9113-16.761 23.242-17.208 25.611-1.7378 9.2045 14.617 20.157 22.185 14.856 2.2759-1.5941 17.419-21.88 17.419-23.335 0-0.51498-0.89841-1.7494-1.9965-2.7431-1.4838-1.3428-1.7193-2.1407-0.91714-3.1073 0.85329-1.0282 2.5279-0.21646 7.9965 3.8759 3.8044 2.847 6.9171 5.499 6.9171 5.8933 0 1.4081-2.1942 2.0408-3.2871 0.94778-2.5516-2.5516-4.7785-0.84624-12.208 9.3481-4.1929 5.7535-8.9814 11.604-10.641 13-4.3538 3.6635-10.601 3.4422-18.129-0.64193zm372.92-5.6477c-2.5195-2.784-2.0953-6.8366 0.92251-8.814 5.5371-3.628 11.693 2.5282 8.0652 8.0652-2.0328 3.1024-6.5194 3.4762-8.9877 0.74876zm7.3062-2.0988c1.9998-3.7367-1.297-7.0335-5.0337-5.0337-2.1741 1.1636-2.5274 3.9614-0.72756 5.7612s4.5977 1.4466 5.7612-0.72756zm-176.29-23.739c-1.5062-1.5062-0.41807-2.9718 4.0844-5.5014 4.9603-2.7868 7.7817-5.4399 10.748-10.107l1.7639-2.7753-2.6967 1.0253c-9.8071 3.7286-18.566-1.9208-18.566-11.975 0-8.4685 5.6407-13.99 14.3-13.996 9.4103-7e-3 13.709 4.9052 13.691 15.647-0.0174 10.421-7.0436 20.764-17.851 26.278-4.5581 2.3254-4.5529 2.324-5.4726 1.4044zm14.983-20.937c4.0175-1.0779 3.456-14.157-0.75761-17.646-4.6996-3.8909-11.212-0.88997-12.456 5.7395-1.7927 9.5557 3.6607 14.469 13.214 11.906zm28.421 17.853c-5.5128-2.811-7.4538-6.3295-7.9059-14.331-0.22763-4.0285 0.16355-9.0196 0.91813-11.715 2.3514-8.3985 12.397-16.202 20.856-16.202 3.9331 0 2.0574 3.3853-2.2649 4.0879-6.1852 1.0054-11.061 5.7236-13.16 12.735-0.68665 2.2936-0.65752 2.3029 2.3454 0.75 7.2983-3.7741 16.507-0.4372 18.909 6.8522 2.3932 7.2612-1.2989 15.227-8.4406 18.211-4.3404 1.8136-7.1294 1.7176-11.258-0.38752zm12.33-5.5724c1.472-1.9801 2.0695-4.198 1.9994-7.4226-0.16266-7.482-6.2885-11.147-13.835-8.2783-2.2776 0.86593-2.5651 1.5312-2.5651 5.9349 0 8.9894 2.9947 13.389 8.775 12.893 2.4944-0.2143 4.1406-1.1293 5.6256-3.1269zm26.584 5.4559c-5.4608-2.9276-8.3528-9.5321-8.3528-19.076 0-4.264 0.60466-9.2835 1.3437-11.155 3.0652-7.7601 10.087-12.026 16.378-9.9504 7.0572 2.3291 10.647 9.1963 10.647 20.367 0 11.505-2.8033 17.364-9.7179 20.31-4.2742 1.8212-6.1418 1.7311-10.298-0.49687zm11.417-5.4553c1.8428-2.4789 2.0989-4.2085 2.0989-14.177 0-9.9875-0.25359-11.693-2.1079-14.177-2.9312-3.926-7.8525-3.9264-10.784-7.5e-4 -1.6634 2.2274-2.1826 4.6076-2.4621 11.288-0.43006 10.279 0.25485 14.358 2.9961 17.843 2.7781 3.5318 7.3114 3.1887 10.259-0.77662zm-133.4 4.8837c0-0.94174 1.2969-1.547 3.75-1.75l3.75-0.31037 0.5499-32.576-5.1571 0.68411c-4.1751 0.55385-5.0698 0.41824-4.6986-0.71224 0.49888-1.5196 13.578-6.1555 14.958-5.3022 0.46617 0.28811 0.84758 9.0473 0.84758 19.465v18.941h3.5c2.4444 0 3.5 0.45238 3.5 1.5 0 1.2381-1.8333 1.5-10.5 1.5-8.471 0-10.5-0.27819-10.5-1.4396zm328.25-5.6648c-19.062-9.4356-15.069-36.913 6.8058-46.836 9.0994-4.1279 19.26-1.9014 26.139 5.7278 11.109 12.322 4.7986 32.713-12.762 41.239-5.575 2.7067-14.568 2.6485-20.183-0.13055zm20.517-5.4432c7.4128-3.0973 11.462-8.9096 11.462-16.452 0-5.7714-1.9103-9.5743-7.2183-14.37-5.0236-4.5385-7.7242-5.6302-13.928-5.6302-9.6281 0-18.074 9.9174-16.633 19.53 1.0676 7.1189 7.6013 14.608 15.048 17.248 4.2842 1.5189 7.0436 1.439 11.268-0.3262zm-573.51-7.3922c-5.7882-6.2593-6.9722-8.0532-5.9018-8.9416 1.0168-0.84384 1.774-0.63078 3.1459 0.88512 0.99373 1.0981 2.2561 1.9965 2.8052 1.9965s3.2964-2.1375 6.105-4.75c2.8086-2.6125 8.8876-8.2711 13.509-12.575l8.4023-7.8246-9.0462-9.0461-3.2635 1.6876c-2.975 1.5384-3.4032 1.5479-4.8443 0.10686s-1.2801-1.891 1.8205-5.09c1.8707-1.9301 3.8755-3.475 4.4551-3.4331 1.0159 0.0733 30.781 32.122 31.317 33.72 0.14496 0.43192-1.3217 2.3218-3.2592 4.1997-3.3203 3.2182-3.6208 3.3164-5.2287 1.7085-1.6079-1.6079-1.6025-1.8809 0.0931-4.7515 1.9845-3.3595 1.9109-3.5506-3.7164-9.6548l-2.9519-3.2021-13.252 12.202c-7.2886 6.7111-13.296 12.842-13.35 13.623-0.054 0.78169 0.62085 2.2158 1.4997 3.187 1.4706 1.625 1.2223 3.9662-0.40698 3.8369-0.38004-0.0302-3.9494-3.5785-7.9319-7.8851zm446-58.177c-4.5189-1.305-6.2902-4.5688-7.38-13.598-2.2007-18.234-8.3133-26.721-21.375-29.677-3.9887-0.90274-31.221-8.9241-45-13.255-12.132-3.8133-28.52-11.269-36.707-16.699-14.009-9.2924-24.634-12.615-40.414-12.638-17.134-0.025-35.316 5.8831-54.062 17.567-11.668 7.2722-26.471 13.779-48.816 21.459-32.407 11.137-36.322 12.781-40.577 17.036-3.6628 3.6628-5.9061 8.8836-5.9177 13.772-7e-3 3.0804-4.8003 7.4735-9.7823 8.9662-9.896 2.9649-23.695 0.90951-26.276-3.9139-1.4606-2.7292-9.1693-6.901-12.751-6.901-1.9049 0-7.974 2.5287-15.516 6.4648-14.401 7.5156-18.706 8.5496-23.393 5.6185-10.839-6.7778-16.672-25.484-13.187-42.284 2.3169-11.168 4.5949-12.42 23.911-13.15 16.138-0.6092 22.511-2.0711 28.759-6.5977 7.3906-5.3537 9.5164-10.696 15.739-39.552 5.6024-25.981 17.281-55.499 31.77-80.302 17.108-29.285 32.403-49.192 63.261-82.335l17.352-18.637-6.1954-0.41836c-14.896-1.0059-22.784-9.7033-29.596-32.634-1.643-5.5306-3.6714-11.379-4.5075-12.995-2.1571-4.1713-6.987-7.9361-11.887-9.2656-2.3127-0.62746-4.7412-1.2903-5.3967-1.4729-4.4764-1.2473-11.906-28.938-9.9042-36.914 0.75394-3.0039 5.9515-6.5168 9.6501-6.5222 6.9456-0.0102 17.768 10.848 33.195 33.304 12.145 17.68 15.052 21.255 19.062 23.448 3.5044 1.9167 6.8359 1.9283 105.19 0.3668 42.723-0.67829 44.122-0.7625 48.192-2.9016 5.4556-2.867 8.7455-7.3064 12.348-16.663 5.1583-13.396 14.041-25.473 25.363-34.482 3.509-2.7922 6.8262-5.0768 7.3716-5.0768 2.9336 0 2.8684 10.748-0.11879 19.575-1.289 3.8088-2.6512 9.5828-3.0271 12.831-0.80873 6.9887-3.0733 12.207-6.0097 13.848-1.1658 0.65151-4.5791 1.4234-7.5851 1.7154l-5.4654 0.53086-6.0531 18c-3.3292 9.9-7.3423 19.913-8.9181 22.251-4.6708 6.9303-10.904 9.8075-23.907 11.035l-7.5596 0.71377 9.536 7.5c25.688 20.204 53.644 55.222 76.48 95.801 14.422 25.628 32.882 66.55 38.658 85.699 1.1614 3.85 3.4454 9.0981 5.0756 11.662 4.3979 6.9179 9.6043 9.4805 26.058 12.825 21.353 4.3407 29.414 8.9006 34.649 19.601 2.3698 4.8437 2.6174 6.3158 2.2192 13.195-0.53143 9.1801-4.9417 19.336-11.056 25.46-4.9093 4.917-8.9586 4.9516-22.653 0.1935-14.307-4.9711-16.359-4.2999-22.597 7.393-3.4657 6.4956-7.5193 9.5788-14.586 11.094-6.0137 1.2897-21.133 1.2647-25.659-0.0424zm30.38-16.063c4.9851-4.9851 5.4768-13.478 1.7978-31.054-10.007-47.805-21.886-84.294-37.447-115.02-11.121-21.96-13.434-25.143-22.985-31.636-7.0905-4.8201-8.4956-5.2966-11.536-3.9114-3.9498 1.7996-4.1018 5.0102-0.53645 11.328 1.7251 3.0567 5.869 11.726 9.2085 19.266 22.792 51.455 35.745 93.682 42.359 138.09 1.613 10.83 1.8025 11.453 4.4057 14.475 2.4032 2.79 11.341 1.8598 14.734-1.5334zm-339.43-7.8282c0.95057-1.1739 1.9751-3.7897 2.2767-5.813 4.7101-31.593 19.598-94.258 32.46-136.62 3.3304-10.97 6.0553-21.597 6.0553-23.615 0-5.1423-3.1767-8.9385-7.4799-8.9385-2.7507 0-4.1497 0.90638-7.9874 5.1748-6.1012 6.786-17.662 24.138-22.521 33.803-15.51 30.849-25.308 74.244-25.446 112.7l-0.0651 18.18 2.8688 2.9984c5.0917 5.3217 16.283 6.5246 19.839 2.1326zm-53.272-10.621c8.0269-1.9927 15.637-5.7034 17.028-8.3034 1.3817-2.5817 1.3138-8.363-0.13553-11.544-1.5707-3.4474-5.1134-4.1516-11.246-2.2354-2.7956 0.8736-8.8431 2.6139-13.439 3.8674s-9.0467 2.7843-9.8913 3.4019c-3.0859 2.2565 1.3025 13.524 6.0034 15.414 3.1932 1.2838 4.3229 1.2257 11.68-0.6007zm445.02-9.1307c2.9598-2.3967 3.8759-9.3269 1.6766-12.683-2.2858-3.4886-3.6985-4.0849-20.307-8.5709-19.935-5.3847-23.515-5.2867-25.229 0.69084-2.3385 8.154 1.649 11.956 17.724 16.902 6.4255 1.9768 12.808 3.9698 14.183 4.429 4.2909 1.4329 9.6607 1.0881 11.952-0.76749zm-337.65-22.262c31.176-7.7638 33.347-8.4543 34.736-11.049 1.3451-2.5134 1.1434-7.1058-0.40152-9.1393-3.3272-4.3793-5.0685-4.1636-34.801 4.3103-15.51 4.4203-29.461 8.6894-31.003 9.4868-4.7272 2.4445-5.2394 9.9023-0.83277 12.124 1.375 0.69316 2.8611 1.2669 3.3025 1.275 0.44136 8e-3 13.491-3.1452 29-7.0073zm239.59-5.2188c1.0508-2.8407-0.2804-7.5893-2.6058-9.295-1.9588-1.4369-23.556-7.3816-37.788-10.402-8.4935-1.8022-17.251-3.1589-29.25-4.5312l-5.25-0.60043v3.0559c0 2.2444 0.62928 3.3426 2.3698 4.1356 4.9916 2.2743 65.293 19.727 68.412 19.8 2.5255 0.0592 3.4734-0.43966 4.1112-2.1638zm-182.72-11.335c3.4819-0.86651 7.9978-2.0033 10.035-2.5263 7.4052-1.9007 13.022-9.7851 8.0455-11.294-10.297-3.1227-19.493-2.5605-24.665 1.5079-3.3177 2.6097-5.2451 8.7859-3.6638 11.741 1.3738 2.5669 2.0748 2.606 10.248 0.572zm-47.079-12.764 29.231-8.2756-5.4107-2.3345c-8.0331-3.4659-15.438-4.9746-24.611-5.0144-10.563-0.0459-17.095 1.3499-25.927 5.5402-11.705 5.5534-16.847 13.836-11.122 17.913 2.9058 2.0697 2.7948 2.0927 37.84-7.829zm141.55 0.36388c0.32736-1.6368 0.5267-3.3243 0.44298-3.75-0.14495-0.73716-116.3-31.396-116.85-30.843-1.0827 1.0827 58.099 22.621 77.616 28.247 10.512 3.0303 34.612 8.9868 37.423 9.2493 0.42625 0.0398 1.0428-1.2668 1.3702-2.9036zm85.303 4e-3c2.2036-1.1793 3.1967-3.487 2.3972-5.5704-0.76747-2-6.738-5.0114-16.954-8.5511-15.926-5.5182-26.305-5.879-39.375-1.3688l-6.5169 2.2489 3.8156 1.6476c5.5749 2.4073 25.184 7.2142 40.684 9.9736 7.425 1.3218 13.642 2.4457 13.816 2.4978 0.17366 0.052 1.1332-0.34292 2.1324-0.87764zm-80.948-17.079c3.575-0.56947 11.45-2.5488 17.5-4.3985 24.933-7.6229 27.167-7.9878 39.5-6.4504 12.614 1.5725 14.121 1.4685 16.216-1.119 3.2427-4.0045 2.2294-9.3848-4.0435-21.471-3.5876-6.9122-6.3727-11.118-7.5069-11.337-1.1163-0.21498-3.9676 1.7059-7.4844 5.0421-6.969 6.611-12.828 10.586-20.681 14.03-7.9002 3.4648-36.214 12.752-38.898 12.76-4.9543 0.0131-9.5839 2.0729-10.203 4.5393-0.90761 3.6162 0.25007 6.9821 2.8289 8.225 2.9301 1.4121 4.864 1.4393 12.772 0.17968zm-22.107-15.436c19.931-3.9071 43.1-13.662 61.024-25.693 5.1796-3.4766 10.805-8.0504 12.5-10.164 2.7134-3.3827 3.0825-4.6002 3.0825-10.168 0-5.5836-0.54267-7.361-4.6278-15.157-7.8332-14.949-25.262-45.527-42.205-74.045l-16.167-27.213-94.204-0.074-3.3979 2.2868c-3.9739 2.6745-10.176 10.734-23.487 30.521-11.348 16.869-22.754 38.52-28.022 53.193-3.5764 9.961-3.773 11.142-3.8296 23-0.0535 11.217 0.18409 12.991 2.3146 17.28 6.4175 12.92 16.434 19.308 39.626 25.273 7.7 1.9802 20.764 5.3377 29.032 7.4611s18.392 4.3114 22.5 4.8623c10.301 1.3815 35.717 0.62661 45.862-1.3621zm-61.893-174.31c21.178-5.7047 30.347-12.715 24.403-18.659-1.417-1.417-5.1001-1.5374-32.75-1.0708-17.134 0.28915-33.056 0.25078-35.382-0.0853-5.7778-0.83477-13.998-5.9816-18.038-11.293-2.5864-3.4011-3.2288-3.8562-2.8228-2 0.28908 1.3217 1.2226 6.3039 2.0744 11.072 3.1596 17.684 6.2084 20.693 24.515 24.2 6.2775 1.2024 30.659-0.18523 38-2.1626zm-231.73 38.985c-0.92793-0.58951-0.9685-1.7123-0.1668-4.6158 0.82489-2.9875 0.76429-4.1082-0.27381-5.0628-1.8467-1.6983-54.48-19.531-55.281-18.73-0.35666 0.35666-1.4874 2.5449-2.5127 4.8628-1.5207 3.4378-2.2488 4.1137-3.9517 3.6684-1.1481-0.30025-2.0875-0.77545-2.0875-1.056 0-1.8154 12.703-36.707 15.074-41.404 5.7142-11.32 11.688-16.07 20.127-16.004 18.088 0.14011 25.54 18.45 17.003 41.778l-2.9739 8.1264 9.3306 3.2162c5.1318 1.7689 9.8423 2.9 10.468 2.5134 0.62547-0.38656 1.984-2.6783 3.0189-5.0927 1.9491-4.5471 2.5126-4.9548 4.8244-3.4904 1.1126 0.7048 0.38886 3.8175-3.833 16.485-2.8625 8.5887-5.7298 15.609-6.3716 15.601-0.64185-8e-3 -1.7188-0.36586-2.3932-0.7943zm-15.513-47.656c0.37934-6.1714 0.14091-7.4618-1.9436-10.519-4.7003-6.8938-14.253-9.9095-20.749-6.5503-1.5581 0.80572-4.2278 3.5708-5.9326 6.1447-3.5646 5.3815-7.4498 15.128-6.7535 16.942 0.26018 0.67802 7.1432 3.4756 15.296 6.2168l14.823 4.9841 2.414-5.0923c1.5882-3.3503 2.5619-7.4985 2.8464-12.127zm529.35 25.216c-4.1026-10.97-10.065-27.511-10.308-28.596-0.16557-0.74036 0.6837-1.7281 1.8873-2.195 1.9378-0.75168 2.3798-0.34738 3.8613 3.5318 0.92015 2.4094 2.1854 4.57 2.8117 4.8013 1.6691 0.61654 55.621-19.603 55.631-20.849 4e-3 -0.58116-1.4831-4.8562-3.3056-9.5l-3.3137-8.4434-12.022 0.54921-1.0676-3.4784-1.0675-3.4784 6.8865-2.6315c3.7876-1.4473 7.4014-2.4598 8.0308-2.25 0.89957 0.29986 25.352 63.949 26.166 68.11 0.1611 0.82356-12.111 6.4864-14.388 6.6394-0.7507 0.0504-2.9207-4.6663-2.8789-6.2574 0.0174-0.66162 2.0723-2.4418 4.5665-3.9558 5.1115-3.103 5.0954-2.0746 0.2314-14.854l-2.8952-7.6068-26.717 9.9164c-14.694 5.454-27.285 10.474-27.98 11.155-1.0168 0.99758-0.9908 2.1427 0.1334 5.8782 1.2146 4.0358 1.2056 4.7124-0.069 5.2015-2.511 0.96356-3.3233 0.63657-4.1926-1.6878zm-44.786-84.35c-5.4028-6.9299-9.7456-12.892-9.6506-13.25 0.095-0.35765 0.91698-1.1003 1.8266-1.6503 1.3022-0.78742 2.2376-0.30912 4.4 2.25 1.5105 1.7875 3.3885 3.2438 4.1735 3.2363 1.9249-0.0185 45.927-34.83 45.927-36.334 0-0.6534-1.1114-2.8236-2.4698-4.8227-2.1112-3.107-2.2613-3.8078-1.0336-4.8267 0.78992-0.65558 1.8683-1.0369 2.3963-0.84742 0.52805 0.1895 5.4545 6.0307 10.948 12.98 7.3406 9.2869 9.6924 12.931 8.8735 13.75-1.7544 1.7544-3.1251 1.3384-6.2141-1.8859-1.5808-1.65-3.3525-2.9965-3.9371-2.9922-1.8712 0.0137-45.045 34.542-45.383 36.294-0.1786 0.92741 0.64978 3.0548 1.8408 4.7275 2.2651 3.181 2.0705 5.9703-0.4164 5.9703-0.80191 0-5.8785-5.6699-11.281-12.6zm-435.41 6.6953c-4.1949-1.3544-7.5298-3.8622-24.397-18.346-8.807-7.5625-16.542-13.75-17.188-13.75s-2.5906 1.1908-4.3203 2.6462c-2.7952 2.352-3.3116 2.4795-4.6446 1.1464-1.3331-1.3331-0.36575-2.8223 8.7018-13.396 5.6109-6.543 10.524-12.024 10.918-12.18 0.3939-0.15582 1.3044 0.42549 2.0234 1.2918 1.0942 1.3185 0.98548 2.0164-0.66745 4.2833-4.0755 5.5894-4.2694 5.281 12.214 19.43 8.5079 7.3031 17.335 14.291 19.615 15.528 7.8111 4.2389 14.804 2.2631 22.999-6.4981 9.9664-10.655 11.854-19.87 5.6771-27.722-3.3574-4.2682-31.978-28.53-33.655-28.53-0.82526 0-3.0472 1.1797-4.9376 2.6216-3.0994 2.364-3.5889 2.4698-4.9817 1.0769-1.3929-1.3929-0.63671-2.5876 7.6954-12.159 7.4752-8.5868 9.507-10.393 10.637-9.4545 1.872 1.5536 1.7317 2.9303-0.60274 5.9147-1.0755 1.375-1.9655 3.1881-1.9778 4.0291-0.0122 0.841 7.3763 7.9239 16.419 15.74 9.0427 7.8158 17.661 15.809 19.151 17.763 7.3245 9.6029 2.5223 25.485-11.99 39.654-9.326 9.1053-19.454 13.246-26.688 10.91zm403.54-43.009c-2.776-1.5923-6.7135-4.7394-8.75-6.9935-3.342-3.6992-3.7026-4.6442-3.7026-9.7012 0-3.0815 0.71785-8.3677 1.5952-11.747 2.8334-10.913 0.57266-16.784-8.9264-23.181-2.8282-1.9046-5.479-3.4629-5.8906-3.4629-1.0056 0-13.778 19.165-13.778 20.674 0 0.65425 1.35 2.1508 3 3.3257 3.179 2.2637 3.7119 3.8881 1.8774 5.7226-0.8301 0.8301-4.4776-1.1124-14-7.4557-7.0826-4.718-12.871-8.8457-12.862-9.1726 8e-3 -0.32686 0.43183-1.2528 0.9409-2.0577 0.80418-1.2714 1.3969-1.2386 4.5186 0.25 1.9762 0.94236 4.1403 1.7025 4.8091 1.6891 1.3114-0.0262 32.716-46.754 32.716-48.679 0-0.63843-1.35-2.1221-3-3.297-3.272-2.3299-3.8861-4.7228-1.4517-5.6569 1.7989-0.69029 31.156 18.499 38.116 24.915 6.9482 6.4047 9.6828 11.774 9.0976 17.863-1.1022 11.471-10.72 17.016-23.542 13.574-4.8414-1.2999-5.1624-1.2838-3.8706 0.19368 4.6726 5.3439 5.8063 12.582 3.1499 20.111-0.825 2.3383-1.5 6.36-1.5 8.9372 0 5.0447 1.096 6.7461 7.4854 11.62 2.7944 2.1314 3.3034 2.9928 2.4068 4.0732-1.6076 1.937-2.7286 1.732-8.4396-1.5437zm7.3448-52.897c1.6549-1.5459 3.5618-4.6562 4.2376-6.9119 1.809-6.0379-1.3213-12.02-9.4031-17.969-10.096-7.4321-8.6479-7.8715-17.27 5.2405-8.8727 13.493-8.9981 12.692 2.9608 18.906 8.9371 4.6438 15.043 4.8741 19.475 0.73442zm-332.75 30.902c-0.86263-1.6118-0.47505-2.2317 2.4887-3.9803 1.9307-1.1392 3.7665-2.7386 4.0796-3.5544 0.527-1.3733-23.354-48.466-26.019-51.309-0.93804-1.0006-2.0289-0.91701-5.4207 0.41531-4.4223 1.7371-7.0357 0.92009-5.9029-1.8454 0.29676-0.72447 6.6609-4.4672 14.142-8.3172 11.45-5.8923 13.757-6.7626 14.578-5.5 1.4791 2.2755 1.2853 2.664-2.4944 5-1.925 1.1897-3.5 2.6512-3.5 3.2477 0 1.0305 11.469 23.496 22.219 43.523l4.9763 9.2708 12.889-6.7708c7.0888-3.724 13.1-7.3194 13.359-7.99 0.25877-0.67051-0.42101-3.8103-1.5106-6.9773l-1.9811-5.7582 2.2744-1.7504c1.2509-0.96273 2.7968-1.7604 3.4354-1.7727 1.2108-0.0232 10.161 16.547 9.3197 17.253-0.92937 0.78011-54.757 28.725-55.33 28.725-0.31914 0-1.04-0.85912-1.602-1.9092zm205.45-36.127c-15.4-3.2085-29.49-6.1135-31.312-6.4555-2.6944-0.5059-3.2539-1.0308-3-2.8149 0.27028-1.8992 0.93681-2.193 4.9752-2.193 2.5647 0 4.8604-0.225 5.1015-0.5 0.91758-1.0466 11.759-56.153 11.219-57.027-0.31207-0.50494-2.3485-1.4517-4.5254-2.1039s-3.9511-1.6771-3.9427-2.2776c0.0518-3.6925 1.405-3.5821 31.53 2.5713 16.475 3.3652 30.326 6.449 30.78 6.8527 0.85312 0.75923-0.95011 11.76-2.2806 13.912-0.50365 0.81492-1.9573 0.99115-4.3983 0.53321l-3.646-0.68401v-5.3213c0-4.2091-0.36578-5.4268-1.75-5.8258-3.6495-1.0521-28.437-5.7722-28.667-5.4587-0.13209 0.18062-1.357 5.8538-2.7219 12.607l-2.4818 12.279 2.0602 0.45407c1.1331 0.24973 5.1256 1.1369 8.8723 1.9714 10.387 2.3136 11.216 2.1551 13.079-2.5018 1.4612-3.652 1.8594-3.9589 4.3586-3.3593 1.5127 0.36291 2.9241 0.80774 3.1364 0.98851s-0.63255 5.5116-1.8774 11.846l-2.2635 11.518-2.6226-0.62532c-3.9844-0.95003-4.1226-1.1458-4.1226-5.8404 0-3.3045-0.42778-4.4982-1.75-4.8833-4.3339-1.2622-19.349-3.8598-19.786-3.4228-0.79742 0.79743-5.8051 26.79-5.2653 27.33 0.8923 0.8923 33.023 7.3196 34.246 6.8503 0.65415-0.25102 2.133-2.6898 3.2863-5.4196 1.6679-3.9479 2.5748-4.9601 4.4329-4.9479 4.6747 0.0306 4.9705 0.93766 3.1942 9.794-1.4465 7.2118-1.8947 8.1786-3.7505 8.0892-1.1592-0.0558-14.708-2.7266-30.108-5.9351zm-115.5-2.3499c0-2.0599 0.61256-2.4783 4.4767-3.0578 2.4622-0.36922 4.719-1.0633 5.015-1.5424 0.64894-1.05-8.4941-57.169-9.5019-58.322-0.91115-1.0422-17.772 1.8826-19.6 3.4001-0.82949 0.68841-1.3896 3.069-1.3896 5.9059 0 4.5427-0.14072 4.7807-3.1875 5.3901-1.7531 0.35062-3.4896 0.29437-3.8589-0.125-0.6993-0.79415-3.2293-15.365-2.7353-15.754 0.4784-0.37614 70.179-11.545 71.929-11.526 1.2366 0.01339 1.9223 1.5968 2.75 6.3498 1.5676 9.0019 1.4898 9.4241-1.873 10.163-3.8497 0.84554-4.3983 0.4324-6.0429-4.5508-0.75445-2.286-1.956-4.3806-2.6702-4.6547-1.4371-0.55148-17.64 1.6632-19.112 2.6123-1.0019 0.64613 7.696 55.662 9.1581 57.927 0.62118 0.96237 2.1699 1.1486 5.6137 0.67491 4.3724-0.60136 4.804-0.47014 5.3525 1.6273 0.32813 1.2548 0.49018 2.3878 0.3601 2.5179-0.42613 0.42613-30.403 5.3508-32.57 5.3508-1.5614 0-2.114-0.62378-2.114-2.3865z" 
        pathLength="11144"
        stroke="#ffffff"
        stroke-width="2" 
    />
</svg>
