<svg version="1.1" xmlns="http://www.w3.org/2000/svg" width="512" height="512" viewBox="0 0 512 512" aria-hidden="true" focusable="false">
<path d="M0 0 C0.99 0.33 1.98 0.66 3 1 C4.12 3.31 5.03 5.53 5.91 7.94 C6.18 8.67 6.46 9.41 6.74 10.16 C7.35 11.77 7.95 13.38 8.55 15 C10.2 19.44 11.88 23.88 13.56 28.31 C13.92 29.26 14.27 30.2 14.64 31.17 C18.81 42.18 23.15 53.12 27.5 64.06 C28.31 66.11 29.13 68.16 29.94 70.21 C31.14 73.24 32.35 76.27 33.55 79.31 C37.01 88.03 40.45 96.75 43.89 105.48 C51.2 124.01 58.58 142.51 66 161 C71.82 150.19 77.36 139.29 82.64 128.2 C88.03 116.89 93.55 105.63 99.06 94.38 C101.07 90.27 103.08 86.17 105.09 82.06 C105.84 80.54 105.84 80.54 106.6 78.98 C111.43 69.12 116.25 59.25 121.06 49.38 C121.64 48.19 121.64 48.19 122.23 46.97 C129.16 32.76 136.04 18.52 142.9 4.27 C143.59 2.84 144.29 1.42 145 0 C148 1 148 1 149.1 2.99 C149.43 3.87 149.77 4.75 150.12 5.65 C150.51 6.65 150.91 7.65 151.31 8.68 C151.73 9.78 152.15 10.88 152.58 12.01 C153.24 13.72 153.24 13.72 153.92 15.46 C154.88 17.91 155.83 20.37 156.77 22.83 C158.26 26.71 159.76 30.59 161.27 34.47 C163.03 39.01 164.79 43.54 166.55 48.08 C169.87 56.68 173.24 65.27 176.64 73.84 C178.12 77.56 179.59 81.29 181.06 85.01 C181.36 85.78 181.67 86.55 181.98 87.35 C186.05 97.65 190.1 107.97 194.15 118.28 C195.57 121.89 196.99 125.5 198.4 129.11 C202.62 139.85 206.84 150.6 211.05 161.35 C221.81 188.82 232.68 216.25 243.66 243.63 C251.35 262.81 258.96 282.01 266.5 301.25 C270 310.17 273.5 319.08 277 328 C277.43 329.09 277.85 330.17 278.29 331.29 C280.78 337.62 283.27 343.95 285.78 350.27 C286.54 352.18 287.29 354.09 288.04 356 C291.79 365.54 295.64 374.76 300.75 383.66 C302 386 302 386 302 388 C287.15 388 272.3 388 257 388 C255.02 378.6 255.02 378.6 253 369 C250.57 362.07 250.57 362.07 247.93 355.24 C247.6 354.45 247.28 353.66 246.95 352.85 C246.61 352.03 246.28 351.22 245.94 350.38 C245.23 348.61 244.53 346.85 243.83 345.09 C242.71 342.3 241.6 339.51 240.48 336.72 C236.48 326.75 232.62 316.74 228.76 306.72 C220.98 286.58 213.09 266.49 205.12 246.42 C200.06 233.62 195.03 220.81 190 208 C137.53 207.5 137.53 207.5 84 207 C90.93 224.32 90.93 224.32 98 242 C101.07 249.79 104.15 257.58 107.2 265.38 C108.56 268.85 109.93 272.32 111.29 275.79 C115.44 286.37 119.58 296.94 123.72 307.51 C125.93 313.14 128.13 318.77 130.34 324.4 C131.26 326.75 132.18 329.11 133.1 331.46 C137.76 343.38 142.47 355.28 147.33 367.12 C147.72 368.1 148.12 369.08 148.53 370.09 C150.65 375.2 152.96 379.85 156.07 384.44 C157 386 157 386 157 388 C141.82 388 126.64 388 111 388 C110.34 383.05 109.68 378.1 109 373 C108.09 369.87 107.19 367.06 105.97 364.07 C105.67 363.29 105.37 362.52 105.06 361.72 C104.08 359.18 103.07 356.65 102.06 354.12 C101.35 352.3 100.64 350.47 99.93 348.64 C98.41 344.77 96.89 340.89 95.37 337.02 C92.98 330.96 90.62 324.88 88.28 318.8 C84.71 309.56 81.13 300.33 77.54 291.1 C75.17 285.02 72.82 278.94 70.46 272.87 C68.97 269.02 67.48 265.19 65.99 261.35 C65.3 259.55 64.6 257.75 63.9 255.94 C62.95 253.47 61.99 251.01 61.03 248.54 C60.75 247.81 60.47 247.09 60.18 246.34 C59 243.31 57.82 240.72 56 238 C44.01 262.62 44.01 262.62 32.16 287.3 C29.58 292.72 26.97 298.14 24.34 303.54 C24.01 304.21 23.69 304.88 23.35 305.57 C23.02 306.24 22.69 306.92 22.35 307.62 C15.92 320.83 9.57 334.08 3.31 347.38 C2.98 348.08 2.64 348.79 2.3 349.53 C0.74 352.84 -0.82 356.17 -2.36 359.49 C-3.37 361.64 -4.38 363.79 -5.42 365.92 C-8.96 373.31 -10.66 379.81 -13 388 C-23.56 388 -34.12 388 -45 388 C-44.17 384.68 -43.53 382.94 -41.83 380.13 C-41.39 379.39 -40.94 378.64 -40.48 377.87 C-40 377.07 -39.53 376.28 -39.03 375.45 C-33.33 365.78 -28.35 355.87 -23.5 345.75 C-22.64 343.97 -21.78 342.19 -20.92 340.41 C-19.15 336.75 -17.38 333.08 -15.62 329.42 C-11.92 321.75 -8.18 314.1 -4.44 306.44 C1.66 293.93 7.74 281.41 13.81 268.88 C23.83 248.23 33.92 227.62 44 207 C4.73 207 -34.54 207 -75 207 C-75.99 209.97 -76.98 212.94 -78 216 C-78.87 217.94 -79.78 219.86 -80.75 221.76 C-81.28 222.8 -81.8 223.84 -82.35 224.91 C-82.89 225.97 -83.44 227.03 -84 228.12 C-88.17 236.29 -92.21 244.5 -96.16 252.77 C-102.69 266.49 -109.39 280.11 -116.09 293.74 C-122.67 307.11 -129.18 320.51 -135.59 333.96 C-137.54 338.04 -139.51 342.12 -141.49 346.19 C-151.42 366.47 -151.42 366.47 -158 388 C-168.89 388 -179.78 388 -191 388 C-189.39 383.97 -187.85 381.05 -185.52 377.46 C-179.89 368.54 -175.35 359.07 -170.69 349.62 C-169.74 347.72 -168.79 345.81 -167.85 343.91 C-162.95 334.04 -158.09 324.15 -153.38 314.19 C-148.44 303.77 -143.37 293.42 -138.31 283.06 C-137.83 282.08 -137.35 281.1 -136.86 280.09 C-130.16 266.39 -123.41 252.72 -116.54 239.11 C-112.36 230.82 -108.34 222.47 -104.35 214.09 C-98.67 202.2 -92.86 190.38 -87.05 178.55 C-81.34 166.91 -75.67 155.26 -70.09 143.55 C-65.62 134.18 -61.06 124.85 -56.48 115.52 C-53.99 110.44 -51.5 105.35 -49.01 100.27 C-48.25 98.72 -48.25 98.72 -47.48 97.15 C-25.01 51.57 -25.01 51.57 -3.22 5.65 C-1.1 1.1 -1.1 1.1 0 0 Z M-10 73 C-10.4 73.83 -10.4 73.83 -10.8 74.68 C-17.49 88.69 -24.26 102.67 -31.06 116.62 C-31.46 117.44 -31.86 118.26 -32.27 119.1 C-36.48 127.73 -40.69 136.36 -44.9 144.99 C-46.61 148.49 -48.31 151.98 -50.02 155.48 C-51.21 157.92 -52.4 160.36 -53.59 162.8 C-54.34 164.32 -55.08 165.85 -55.83 167.38 C-56.15 168.03 -56.47 168.68 -56.8 169.35 C-60.29 176.53 -63.62 183.76 -67 191 C-32.35 191 2.3 191 38 191 C32.74 176.97 32.74 176.97 27.36 162.98 C26.95 161.93 26.95 161.93 26.54 160.87 C26.26 160.15 25.98 159.43 25.69 158.69 C25.4 157.94 25.1 157.19 24.8 156.41 C18.93 141.31 12.97 126.24 7 111.18 C1.97 98.46 -3.04 85.74 -8 73 C-8.66 73 -9.32 73 -10 73 Z M136 73 C130.16 83.84 124.6 94.79 119.31 105.91 C114.45 116.11 109.49 126.26 104.52 136.41 C94.29 157.28 94.29 157.28 84.12 178.19 C83.59 179.28 83.06 180.38 82.5 181.51 C82.03 182.49 81.56 183.47 81.07 184.48 C80.67 185.31 80.26 186.15 79.84 187.01 C78.87 188.95 78.87 188.95 79 191 C113.32 191 147.64 191 183 191 C180.74 184.12 180.74 184.12 178.25 177.36 C177.93 176.56 177.62 175.76 177.3 174.94 C176.97 174.1 176.64 173.26 176.3 172.39 C175.94 171.49 175.59 170.58 175.22 169.65 C174.07 166.7 172.91 163.76 171.75 160.81 C170.94 158.75 170.13 156.69 169.32 154.63 C166.89 148.42 164.44 142.21 162 136 C161.64 135.08 161.28 134.16 160.9 133.21 C153 113.11 145.05 93.04 137 73 C136.67 73 136.34 73 136 73 Z " fill="#AA001C" transform="translate(201,123)"/>
<path d="M0 0 C10.73 8.37 17.32 17.69 20.56 31 C21.88 43.33 19.77 54.72 12.31 64.88 C11.1 66.28 9.84 67.66 8.56 69 C7.94 69.67 7.32 70.35 6.68 71.04 C-5.41 82.94 -22.1 88.13 -38.75 88.44 C-56.34 88.3 -72.39 82.71 -85.22 70.38 C-94.97 59.93 -99.26 49.02 -98.82 34.68 C-97.38 20.81 -90 9.8 -79.44 1 C-56.58 -14.04 -22.89 -15.81 0 0 Z M-60.84 10.84 C-69.05 21.93 -70.8 33.57 -69.44 47 C-66.75 57.6 -60.96 66.09 -51.66 71.81 C-44.65 75.56 -37.48 76.06 -29.94 73.88 C-20.15 70.24 -14.87 63.62 -10.18 54.57 C-5.96 44.86 -5.74 32.98 -9.06 22.94 C-12.96 13.9 -19.16 7.23 -27.5 2.12 C-39.66 -2.42 -52.28 1.63 -60.84 10.84 Z " fill="#A9001C" transform="translate(239.4375,10)"/>
</svg>
