<svg id="ev4lgmDdnW01" xmlns="http://www.w3.org/2000/svg" xmlns:xlink="http://www.w3.org/1999/xlink" viewBox="0 0 928 1024" shape-rendering="geometricPrecision" text-rendering="geometricPrecision"><g transform="translate(0 0.000001)"><path id="ev4lgmDdnW03" d="M121.706985,492.45343c-10.908134-3.79129-21.440498-7.464508-31.973533-11.135864-7.831047-2.729553-10.364639-7.705628-7.767502-15.540222c2.619492-7.902039,5.317253-15.778626,8.043755-23.644532c3.366149-9.711242,7.894165-11.943756,17.579605-8.590576c27.370147,9.475739,54.723846,18.998963,82.088928,28.48938.29184.101227.64949.012604,1.566666.012604c3.90448-8.047302,6.279205-16.865204,9.118408-25.491241.823929-2.503144-1.528015-2.886689-3.245697-3.479981-19.043762-6.578186-38.086151-13.160309-57.128739-19.741913-8.024398-2.773407-16.072776-5.479828-24.065437-8.341888-7.664925-2.74469-10.163979-7.909912-7.562836-15.756958c2.828369-8.532562,5.775841-17.027771,8.815552-25.487488c2.506249-6.975067,7.67083-9.580933,14.621788-7.187317c28.01796,9.648224,55.995178,19.414764,83.991913,29.124664.456161.158204.96904.152863,2.019791.306153c3.42987-7.803955,6.274459-15.928589,8.675674-24.18219.884781-3.04129-2.066635-3.726227-4.262054-4.48645-25.962754-8.990052-51.91597-18.007935-77.902146-26.92984-10.611145-3.643189-12.856216-8.214631-9.053482-18.978333c2.440476-6.907898,4.844177-13.829315,7.194733-20.76828c3.259216-9.621399,7.831802-12.111023,17.503006-8.821106c26.321152,8.953888,52.632797,17.942047,78.825058,27.262665c4.578888,1.629394,6.379196.406524,7.705032-3.644196c1.948853-5.954254,3.422714-11.278747,1.446945-18.188843-4.664642-16.314178,5.857025-33.212188,22.346741-38.040542c4.264526-1.248703,5.29126-3.620789,4.290039-7.349167-.685699-2.553421-1.785919-5.00499-2.80896-7.45697-16.956085-40.639954-12.146728-78.627243,13.821381-114.070259.933319-1.273804,2.575348-2.214966,2.360565-4.278893-1.940979-1.338722-4.169922-.707817-6.246094-.708793-82.828171-.039139-165.656357-.03228-248.484554-.037163-11.410999-.000672-14.335121-2.807709-14.355494-14.053192-.038643-21.331788-.027567-42.663845.037148-63.995564.031851-10.498604,3.059898-13.532452,13.349806-13.53289c289.814544-.012377,579.629089-.017674,869.443664-.012865c12.789795.000213,20.47937,7.689686,20.538697,20.609338.076599,16.665295.076782,33.331387.011291,49.996747-.052185,13.28466-7.880432,20.982055-21.272461,20.986343-101.493469.032547-202.986999.046982-304.480469.067017-1.296325.000259-2.592712.000022-4.121154.977104c2.516906.815628,4.981079,1.902504,7.559082,2.404136c21.382202,4.160561,38.573852,15.58442,53.926513,30.470391c15.169434,14.708328,28.251099,30.924209,38.344178,49.57312c9.955139,18.393921,14.704834,38.038101,15.089721,58.807815.212158,11.446595.036804,22.900055.091919,34.350159.010925,2.274567-.463745,4.683502,1.148377,6.711548c2.136535.664734,3.947387-.325775,5.801086-.97641c22.30835-7.830017,44.610169-15.678925,66.920837-23.50235c6.835267-2.39682,12.430726.013031,14.887635,6.678345c3.166748,8.590851,6.198242,17.236175,9.066223,25.931183c2.667663,8.087616.378845,12.750793-7.613831,15.590393-24.478027,8.696319-48.992981,17.288788-73.489319,25.933746-6.583129,2.323212-6.565734,2.384613-4.243408,8.79895c1.870667,5.166809,3.757386,10.333374,5.410706,15.571472c1.145386,3.628785,3.010071,4.66858,6.718872,3.342713c16.619507-5.941528,33.302856-11.704559,49.96051-17.53949c8.797424-3.081573,17.557007-6.275116,26.394715-9.235931c6.401245-2.144562,11.683471.350464,14.039306,6.674194c3.370789,9.048065,6.617371,18.146973,9.685791,27.301666c2.234619,6.666962-.591186,11.751465-7.797485,14.316559-24.784668,8.82193-49.55127,17.699097-74.433411,26.238617-4.868042,1.670715-5.752868,3.65448-3.83667,8.273956c2.855408,6.883942,5.082581,14.028534,7.801514,21.69513c6.779053-2.306671,13.050903-4.3815,19.282165-6.57193c19.94806-7.012207,39.865662-14.111298,59.826783-21.08609c9.135009-3.191925,13.573974-1.057129,16.968933,8.137359c2.940918,7.964539,5.749267,15.98108,8.448425,24.030915c2.581299,7.698425.397156,12.623779-7.282959,15.382629-23.975586,8.612427-48.030456,17.004334-72.054321,25.482453-1.412842.498596-2.805481,1.063232-4.238587,1.493835-2.965088.8909-3.933899,2.464905-2.738464,5.598602c2.551209,6.688111,4.940857,13.445923,7.127625,20.261475c1.000549,3.118469,2.553405,3.198974,5.245056,2.248169c24.963073-8.818421,49.982788-17.476898,74.937195-26.31958c9.328613-3.305664,14.56018-.861817,17.632629,8.462921c2.447204,7.427276,5.085876,14.793243,7.744934,22.148346c3.283264,9.08136.810913,14.211181-8.279907,17.397583-24.511597,8.59143-48.963928,17.353393-73.519898,25.815307-4.376159,1.507935-5.423828,3.52948-3.757812,7.733155c2.083679,5.257812,4.012512,10.603943,5.557007,16.0401c1.282898,4.515686,3.45227,5.138672,7.68988,3.613769c23.813171-8.568786,47.706604-16.91455,71.586975-25.295654c2.188049-.767883,4.443359-1.462341,6.725586-1.820007c5.213196-.816773,9.404297,1.256775,11.258179,6.17218c3.523742,9.343079,6.868957,18.768799,9.840637,28.299744c2.159607,6.926635-.671875,11.753967-7.897766,14.31604-24.640015,8.736633-49.305725,17.401245-73.979798,26.04132-6.256835,2.190979-6.398254,2.276978-4.251586,8.419861c3.405639,9.745301,6.732421,19.520996,10.346191,29.189087c1.205139,3.22406.589478,5.108521-2.172058,7.141846-9.390625,6.914123-18.601685,14.072632-27.860413,21.165222-1.831421,1.402954-3.570007,2.927124-5.760376,4.732422c7.348572,9.80249,14.485474,19.379089,21.682984,28.909851c9.940429,13.162903,19.939087,26.281738,29.888916,39.4375c6.777893,8.961792,6.074951,13.716248-2.877014,20.45166-5.991028,4.50763-11.904725,9.118408-17.912903,13.602844-8.307556,6.200562-13.475281,5.434143-19.817139-2.95227-15.476807-20.466309-30.825745-41.030213-46.419128-61.407227-5.706055-7.456482-3.923096-8.212158-12.353882-1.881897-3.863404,2.900879-7.561951,6.038086-11.554016,8.745606-3.386597,2.296753-3.647095,4.187988-1.064942,7.55664c15.407105,20.099732,30.572754,40.3844,45.843506,60.588868c10.14325,13.420471,9.723877,16.422973-3.774109,26.52893-4.934326,3.694275-9.815063,7.460083-14.742309,11.163941-8.089844,6.081421-13.171936,5.314514-19.367493-2.882447-16.075195-21.267639-32.234436-42.472717-48.146729-63.861511-2.7359-3.677429-4.827941-4.250122-8.361389-1.283447-4.716125,3.959778-9.677551,7.636352-14.638916,11.291626-3.055603,2.25116-3.280273,4.255432-.889831,7.389221c16.064758,21.059876,31.916321,42.282227,47.922973,63.386658c6.851929,9.034118,6.314209,14.088135-2.67279,20.943359-6.358887,4.850403-12.692017,9.739563-19.167725,14.430542-6.956115,5.039002-12.364258,4.184265-17.598938-2.703369-16.02893-21.090149-31.991821-42.230652-48.001709-63.335388-4.384338-5.779724-4.448242-5.793213-10.073852-1.577271-4.665528,3.496582-9.141541,7.25586-13.91034,10.601075-3.050293,2.139709-3.190857,3.864257-.932251,6.827331c16.261841,21.333374,32.374146,42.780823,48.508118,64.211426c1.196777,1.589783,2.481751,3.212402,3.225708,5.024963c1.99469,4.860352,1.024048,9.329285-3.102539,12.589112-7.841736,6.19458-15.741577,12.336608-23.893372,18.110778-5.83789,4.135132-11.374267,2.580323-16.304931-3.928833-16.197693-21.3833-32.462769-42.716796-48.46521-64.245422-2.726868-3.668457-4.65332-4.265442-8.211121-1.281494-5.711853,4.79071-11.749267,9.193298-18.03949,14.062012c7.211487,9.565857,14.096131,18.722107,21.00647,27.859008c10.250733,13.553467,20.582031,27.04657,30.756531,40.656983c5.665833,7.579162,4.823791,13.066833-2.65033,18.790527-6.613586,5.064758-13.269714,10.075684-19.968872,15.026795-7.239319,5.350219-12.652343,4.557678-17.973022-2.494507-15.956116-21.148194-31.913696-42.295227-47.867615-63.44513-4.040405-5.356262-4.057098-5.389343-9.595245-1.214233-6.784546,5.114868-13.632782,10.154419-20.242554,15.487915-3.120422,2.517944-5.38504,2.662903-8.657684.016418-8.546845-6.911438-17.432099-13.405029-26.20166-20.039855-1.55243-1.1745-3.197663-2.22638-4.743287-3.295655-17.657684,23.58783-35.029724,46.767273-52.36969,69.970642-7.08258,9.477539-11.665344,10.202027-21.201416,3.087403-6.275695-4.682251-12.500518-9.433594-18.707855-14.206299-6.878601-5.289002-7.818359-10.358887-2.60791-17.599671c7.392792-10.273498,15.154602-20.281494,22.762604-30.400085c5.205231-6.922668,10.402923-13.851257,15.629669-20.75769c5.202728-6.874695,10.437622-13.725037,15.93747-20.95282-7.365845-6.351075-15.050721-12.017273-22.866669-17.482361-17.338196,23.145508-34.392975,45.917419-51.457001,68.682373-1.198883,1.599487-2.427368,3.179932-3.706909,4.71521-4.291535,5.149048-10.042145,6.179199-15.495972,2.29071-7.865661-5.607971-15.602539-11.409851-23.198822-17.377868-5.325928-4.184449-5.802795-9.58429-2.138702-15.502991c2.417297-3.904785,6.069061-7.032654,7.823822-12.160278-4.637238-1.048706-8.945404-1.675537-13.367737-1.312317-4.813324.395385-9.572296.769653-14.365326-.521424-3.159668-.851074-6.354584-1.492004-9.704956.173096-3.299561,1.639893-6.608704.352173-9.383102-1.69281-7.909882-5.830322-15.802903-11.690796-23.529923-17.759216-4.666687-3.664978-6.234863-9.89502-2.33107-14.201294c7.923844-8.741211,9.688263-19.019654,10.547898-30.095215.834152-10.747192,4.182189-21.231445,3.797866-32.148804-.050323-1.429992.433304-2.989929-1.264343-4.700805-4.185852,5.4552-8.331314,10.772399-12.384766,16.158874-7.613632,10.11731-15.129608,20.308411-22.77156,30.404175-5.402207,7.136841-11.217194,7.88977-18.454392,2.495422-6.812545-5.077881-13.593933-10.198059-20.355423-15.343811-6.463012-4.918457-7.584167-10.369751-2.795868-16.80542c17.104233-22.988525,34.381318-45.848694,51.661545-68.705627c1.265396-1.673828,3.077393-2.934387,5.101105-4.821533-8.374237-6.416809-16.350403-12.528626-24.137573-18.495606-13.156845,19.249878-27.380692,36.857971-40.737152,55.102173-4.723664,6.45221-9.567292,12.818115-14.433121,19.164429-4.84993,6.3255-10.983864,7.167358-17.368836,2.406982-7.078125-5.27716-14.185463-10.520752-21.126442-15.974426-6.431289-5.053284-7.317489-10.361878-2.468551-16.899597c17.066185-23.009705,34.287315-45.904907,51.540596-68.774964c1.248916-1.655456,3.227859-2.760193,4.943069-4.183838-2.908264-4.007385-6.511902-5.887512-9.58226-8.333129-6.254898-4.982056-12.568107-9.907349-19.079635-14.543763-3.321686-2.365173-4.419442-4.426818-2.721909-8.620239c3.410347-8.424377,6.035156-17.166748,9.044876-25.955139-24.35997-8.414002-48.098808-16.612976-71.837315-24.812988-4.250049-1.46814-8.522483-2.875489-12.742874-4.424622-7.158521-2.627563-9.937105-7.755737-7.620289-14.927002c2.916653-9.027954,6.074166-17.987244,9.435368-26.859619c2.508553-6.621643,7.783238-8.911804,14.504116-6.60199c26.922897,9.252869,53.846405,18.505554,80.702721,27.948731c3.259979,1.14624,4.821625.822143,5.919952-2.538208c2.469788-7.556458,5.171707-15.037049,7.946869-23.031678-12.051651-4.210632-23.477043-8.21759-34.912926-12.194397-16.668495-5.796447-33.382721-11.464294-50.000297-17.402893-7.627194-2.725647-9.852509-7.579773-7.304772-15.380371c2.790654-8.544311,5.747738-17.039428,8.858605-25.472473c2.761322-7.485565,7.843544-9.77655,15.41951-7.18222c26.9328,9.222931,53.851181,18.487945,80.779129,27.725067c1.089081.373596,2.219513.626587,3.798843,1.06604c4.003082-7.964722,6.334641-16.453003,9.01268-24.787537.947006-2.947204-1.741684-3.524109-3.763458-4.231353-13.202805-4.618622-26.41214-9.218567-39.624313-13.810303-2.667504-.927063-5.356293-1.792847-8.410737-2.805756M348.398102,909.314697c-9.145447,6.877014-19.970703,9.346497-30.770203,12.101807-4.643249,1.184631-10.253784.059692-13.755615,4.475037-4.130402,5.207824-7.995667,10.625854-11.982849,15.947448-1.266907,1.69104-1.557648,3.316895.328644,4.760254c6.162292,4.715332,12.337188,9.414246,18.909881,14.426575c7.841004-10.344238,15.334442-20.066956,22.643189-29.926636c5.326873-7.186218,11.427429-13.85553,15.782318-22.446228c4.597503-3.512451,7.293793-8.612366,10.825866-13.01239.875916-1.091064,1.38794-2.526184.023011-3.55835-2.971466-2.247192-5.381562-5.387573-9.682434-6.450866-1.29773,3.834045-.542633,7.426086.07135,10.944397.765564,4.38684.810638,8.584533-2.393158,12.738952M724.093384,565.273376c-10.749024-30.808105-21.494019-61.617614-32.24823-92.42395-8.779724-25.150207-17.545349-50.30542-26.372925-75.438812-2.344849-6.676178-3.174011-6.722351-8.843933-2.500031-7.464478,5.558625-13.280151,12.609101-18.596924,20.074952-12.22876,17.171875-26.43103,32.791656-41.794311,46.922455-28.285279,26.016418-63.074769,37.229125-101.056427,39.106201-12.621094.623718-25.189515-.575898-37.78949-1.463196-14.793701-1.041779-29.168884-4.20694-42.590393-9.749481-16.719727-6.904602-31.997254-16.540863-45.761505-28.835022-26.07956-23.294098-46.657349-50.576538-62.92984-81.316925-3.220063-6.083039-6.273926-12.254059-10.072999-19.693726-3.27301,11.148682-8.96286,20.006775-8.749847,30.750458.389526,19.646759-.022888,39.293243.525574,58.953155.481415,17.257172-.711579,34.569947-1.222321,51.854737-.698608,23.644073-.205505,47.322845-.287811,70.986541-.007752,2.231202.64267,3.854554,2.60376,4.964051c8.421966,4.764831,11.939697,12.575561,13.539642,21.644592.517365,2.932495,1.261841,5.789551,3.472626,8.133118c12.101684,12.828125,20.141418,28.075805,25.986389,44.545715c7.566833,21.321594,11.366211,43.422791,12.243011,65.94696.510926,13.124939.208191,26.317261-.463623,39.44159-.585144,11.430481-2.167633,22.811828-3.384704,34.206787-.334412,3.130981.640259,5.423584,3.25888,7.260071c3.678833,2.579895,7.201264,5.383911,10.775452,8.111938c38.399231,29.308228,76.827881,58.578186,115.139099,88.001038c3.557068,2.731872,5.887543,2.617126,9.433411-.12616c24.773681-19.166748,49.733032-38.093567,74.641418-57.08612c68.097534-51.924134,136.169678-103.881775,204.371765-155.668213c4.17627-3.171021,5.053284-5.797486,3.278382-10.780457-12.454102-34.965637-24.576721-70.049255-37.104126-105.822266M374.852478,339.630249c1.385162,2.456818,4.025818,3.418732,6.107269,5.018738c19.139069,14.712555,38.909577,28.388183,61.743683,36.935882c14.618927,5.472443,29.426361,10.319733,44.440155,14.639038c22.883789,6.583405,46.166168,10.723481,69.913971,11.310456c15.724854.388611,31.537537-.580414,46.977722-4.047058c16.376343-3.676819,32.670716-7.693207,46.794068-17.567292c9.233276-6.455261,16.023864-15.443908,24.383484-22.788238c6.540039-5.745728,10.697082-13.034851,13.313049-21.196869c6.056152-18.896118,9.959045-38.091583,9.259155-58.147797-.381164-10.922729.230164-21.922943-1.273681-32.759521-1.590455-11.460892-4.540345-22.655777-8.567627-33.559631-5.810975-15.733323-13.843811-30.261353-25.113587-42.597352-8.001648-8.758743-15.935852-17.702148-25.161865-25.308883-2.039368-1.681458-3.5625-3.993866-5.617798-5.650482-11.151428-8.98848-24.193726-13.794495-38.072143-16.359352-26.452637-4.888649-52.094056-12.514916-76.796387-23.056603-19.668671-8.393562-39.919464-14.686768-60.84195-18.835747-16.013214-3.175461-31.974975-6.649811-48.34787-7.786148-10.74176-.745506-21.57373-2.236458-32.074646.4944-21.17926,5.507828-41.228973,13.67273-58.5083,27.624901-9.836274,7.942276-18.198456,17.222206-26.30539,26.890518-8.471405,10.102936-11.152832,22.516236-15.406677,34.329895-4.352936,12.088852-3.627197,24.511505-.884918,36.724564c3.52301,15.690491,10.312988,30.205917,17.968933,44.24884c8.352051,15.31984,18.141479,29.696366,30.512512,42.120987c11.726105,11.776856,23.772644,23.237793,35.374603,35.133789c4.885498,5.009339,9.954895,9.685028,16.184235,14.188965M254.500076,35.398205c-14.495269-.016575-28.99176.066452-43.484985-.114323-4.012833-.050049-5.717545,1.180275-5.686935,5.394535.140304,19.326794.132904,38.655407.028594,57.982563-.019683,3.646965,1.257279,5.026406,4.947007,5.003998c28.48912-.172989,56.980453-.388184,85.467361-.147408c5.27005.044541,8.85202-1.492897,12.729859-4.890083c13.620056-11.931907,30.002014-18.859802,46.855011-24.923294c11.571624-4.163322,23.315918-6.55175,35.637634-6.055435c17.187927.692299,34.292663,2.073051,51.286194,4.900696c11.416198,1.899605,22.814026,3.584625,33.951538,7.012993c18.903076,5.818794,37.467132,12.490463,55.863617,19.736824c5.117309,2.015701,10.326111,4.350654,16.197265,4.347648c117.300293-.06015,234.600647-.035293,351.90094-.032905c7.852295.00016,10.370423-2.518784,10.387757-10.538971.033203-15.328926.031799-30.658097-.01709-45.986962-.030518-9.5536-2.336426-11.930599-11.867554-11.656105-27.641296.796063-55.287292.100308-82.930664.273495-57.141846.357994-114.289307.404415-171.437012-.133835-27.641357-.260341-55.292175.292435-82.946228-.038547-23.648437-.283043-47.306213-.189614-70.965484.216705-23.478913.403221-46.974518-.270546-70.463044-.300953-54.81784-.070972-109.635833-.039276-165.453781-.050636M765.395935,690.934692c-17.616333,13.436036-35.235352,26.868592-52.848572,40.308655-77.603759,59.21698-155.235656,118.397339-232.731079,177.75586-4.409424,3.37738-7.134338,3.22644-11.466125-.10553-41.332672-31.792053-82.848725-63.345825-124.355744-94.910645-1.298675-.987549-2.311187-2.926086-4.752441-2.287781c0,8.033448.026123,16.015259-.013519,23.996766-.014832,2.986877,1.541107,4.883972,3.814087,6.590698c7.989776,5.999389,15.886535,12.122436,23.832275,18.180664c34.435394,26.255615,68.894745,52.479919,103.278625,78.802856c2.816224,2.156067,4.858277,2.410218,7.832398.127991c31.321655-24.035217,62.74884-47.932922,94.144653-71.87146c48.880493-37.27008,97.758972-74.542724,146.638855-111.813599c29.406983-22.422912,58.792542-44.874023,88.256775-67.221374c2.906128-2.204285,3.949646-4.187256,2.612671-7.926819-8.909363-24.920471-17.572388-49.929016-26.335083-74.902038-12.785889-36.439148-25.622559-72.860596-38.374878-109.311493-15.830261-45.248474-31.585449-90.523224-47.436401-135.764405-.546692-1.56018-.628968-3.657318-3.11316-4.442321-4.481872,8.285034-10.543151,15.351135-17.502685,21.560546-3.608582,3.219574-3.738953,6.225739-2.207947,10.549347c13.557617,38.28653,26.901978,76.64859,40.302124,114.990876c19.167481,54.844757,38.290344,109.705169,57.520203,164.528045c4.838196,13.793457,4.992065,13.739502-7.095032,23.165161M302.258972,737.237488c-11.624023.607483-14.979767-3.010864-16.675171-14.624451-1.135895-7.78125-.600219-15.551758-1.506195-23.327026-1.054046-9.046143-2.097381-18.821961,5.848755-26.217346c1.115082-1.03772.43869-2.425415.231934-3.759583-1.329224-8.57666-4.631928-16.628601-6.573243-25.044983-.671722-2.912109-.625915-5.464661.438172-8.227234c2.691772-6.988342.110138-10.654175-7.528748-10.784973-4.50653-.077148-9.090423-.189026-13.002838-2.535767-2.744781-1.646362-3.731964-1.029663-5.452087,1.420044-7.99849,11.391175-12.320893,24.328858-15.835037,37.517762-2.690751,10.098755-6.315049,20.481689-6.170624,30.690735.290207,20.517395-1.37114,41.065368.817779,61.600036.969208,9.092163,1.565354,18.319336,3.044709,27.280152c2.381652,14.426269,3.994171,28.818237,4.178329,43.417907.045074,3.574036-1.494781,6.934265-1.417694,10.291748.222641,9.694824-2.540253,18.957947-3.359009,28.473877-.84993,9.878479-1.939392,19.76416-2.139664,29.662537-.185913,9.188904,1.249939,10.583313,9.919816,13.751343c7.665832,2.801147,15.769073,3.357788,23.76773,4.128418c11.045349,1.064087,21.98761-.236145,32.971405-1.855469c9.093231-1.340515,17.98111-3.137085,26.665619-6.062195c2.876679-.96875,6.959473-2.46405,6.618927-5.118896-.51297-3.999695.355194-8.212647-.854065-11.79419-1.794922-1.051697-3.087738-.296814-4.347534-.083374-7.769684,1.316345-14.684204-3.679565-16.050781-11.291687-1.523316-8.485413-3.50885-16.888672-4.99115-25.380432-1.605408-9.197327,2.167419-14.949707,11.39032-17.745972c2.390686-.724853,2.491668-2.445312,2.439209-4.29187-.25531-8.985596.245178-17.941833,1.027343-26.882812.663208-7.58075,1.053162-15.2193,2.313202-22.706238c2.069825-12.298279,3.267243-24.779419,3.085511-37.084168-.243927-16.518737-.446534-33.19519-3.49054-49.561767-1.464477-7.873902-2.610352-15.881592-5.722443-23.652222-2.608123,2.466004-2.917541,2.724121-2.499481,4.816895c1.88974,9.459594,2.352936,19.03656,3.148285,28.617736.473328,5.701966-2.311523,8.706788-5.831787,10.781311-3.461609,2.040101-4.286774,4.08545-4.532898,7.788941-.466827,7.024231-.428619,14.702515-9.926056,17.793213M236.335861,494.9216c7.895828-22.636444,15.923035-45.228393,23.616471-67.93341c2.70343-7.978485,7.046417-15.540711,6.907623-24.347443-.296509-18.818024-.526581-37.63736-.902313-56.453796-.079499-3.98227-.582673-7.964417-1.057709-11.926575-.206513-1.722443-.506958-3.615997-3.279572-4.521362-1.941559,5.457824-3.843292,10.727325-5.69284,16.015075-14.895722,42.585663-29.798111,85.169068-44.665436,127.76471-12.618607,36.152954-25.173477,72.328186-37.793121,108.480835-11.575257,33.160644-23.157608,66.31897-34.87143,99.430786-1.082519,3.059997-.523147,4.636536,2.047653,6.579224c21.661255,16.369384,43.188446,32.915954,64.776413,49.382446c5.114029,3.900818,10.305069,7.700683,16.270783,12.151367c0-8.845032-.132385-16.610046.061447-24.366943.084259-3.37146-1.162094-5.54834-3.811935-7.540161-14.384644-10.812989-28.608979-21.8396-43.016922-32.621033-2.991059-2.238281-3.777787-4.199463-2.465729-7.924195c21.292785-60.446594,42.42073-120.951232,63.876617-182.169525m30.333359-48.765747c-2.085938.802155-1.826874,2.922303-2.391998,4.497467-2.696198,7.514984-5.216828,15.092682-7.856934,22.628113-23.324844,66.573853-46.637665,133.151978-70.06398,199.690125-1.212509,3.443908-.551132,5.471923,2.293045,7.583007c9.490463,7.044312,18.824188,14.299439,28.241043,21.44336c1.029328.780884,2.010483,1.796631,3.481522,1.651672.945343-.673218,1.132461-1.682251,1.167679-2.667114.416809-11.662781,2.519073-23.068726,5.025054-34.431885c4.148926-18.813171,10.024537-36.929077,21.312272-52.825012c4.126052-5.810486,7.134124-11.666016,7.129135-19.19043-.003754-5.651001,1.976516-11.498535,7.29515-14.581421c4.054657-2.35028,4.670563-5.418762,4.660828-9.492675-.098785-41.269471-.098053-82.539246-.292816-124.305207m146.357361-33.665008c2.854584,1.196991,6.417816,3.972809,8.700958,1.045929c3.97583-5.096863,8.974457-8.721039,13.866699-12.666718c2.835907-2.287262,2.145294-5.134125-1.223022-6.546539-18.019623-7.55603-34.846924-17.201203-50.592865-28.745331-14.826966-10.870422-29.142945-22.338379-41.895844-35.658783-5.625854-5.876221-11.247345-11.78244-17.226959-17.288238-9.030365-8.314881-16.92688-17.627442-25.122986-26.708374-3.469146-3.843659-5.444427-9.055695-11.078644-12.518647-.324951,8.922608.625184,16.637238,3.485505,24.370697c5.406097,14.616669,18.225219,23.778839,26.15628,36.575013c5.442932,8.781707,12.493591,16.563568,19.697815,24.185821c7.280731,7.703186,14.900696,15.018585,23.085205,21.566162c15.847534,12.677979,33.416351,22.812622,52.147858,32.389008m192.990875,19.010376c3.341858-5.110718,8.77948-8.636841,11.674866-14.260742-2.393372-1.387635-4.092468-.781647-5.894348-.366639-15.566834,3.58548-31.425599,4.640564-47.321106,5.49524-7.034241.378234-13.906983-1.1279-20.889832-1.169159-7.804626-.046112-15.531006-1.108246-23.177246-2.496003-11.574829-2.100769-23.067841-4.648132-34.621582-6.870849-7.175446-1.380402-12.962158,4.447967-11.731659,11.52594.282776,1.626587.348602,3.322662.266693,4.974457-.18457,3.722442,1.180695,5.710815,5.112702,6.577453c17.942535,3.954712,36.102508,6.7146,54.389434,7.630554c16.080506.805451,32.279236.609711,48.359314-.897369c8.639832-.809723,17.733521-1.192719,23.832764-10.142883M436.81073,481.74408c2.284119.433776,4.615875.701507,6.8414,1.339599c3.46991.994873,5.02475-.848175,5.819611-3.711242c1.154052-4.156983,2.26419-8.33664,3.131775-12.560303c1.517639-7.388306.942413-8.628082-6.434693-10.755615-14.397674-4.152222-28.326202-9.59253-41.815124-15.959595-21.501374-10.149231-42.053101-22.004669-60.960388-36.581055-3.298707-2.543091-5.918915-6.244232-10.720948-7.332886c5.958344,7.735444,10.521973,16.005768,16.704193,23.134491c8.653778,9.978608,16.43393,20.898224,26.504212,29.400879c9.089416,7.67453,19.525787,13.776215,29.515503,20.347534c2.793426,1.837525,4.67987,5.44928,7.62207,6.054474c7.842224,1.613129,15.209198,4.754517,23.792389,6.623719M847.412415,632.768677c17.545532-6.172364,35.091064-12.344666,53.2182-18.721619-2.846924-8.007385-5.514953-15.486877-8.163391-22.973266-.958984-2.710755-2.931091-2.236939-4.90564-1.553345-5.506286,1.906311-10.992919,3.869262-16.490356,5.80133-18.374695,6.457947-36.738037,12.948853-55.138245,19.333191-3.222168,1.117981-4.69165,2.44159-3.156128,6.155091c2.350037,5.683349,4.3219,11.536621,6.17804,17.405212c1.008057,3.186951,2.581238,3.716187,5.570251,2.605713c7.333985-2.724854,14.755127-5.21521,22.887269-8.052307m-27.901734-74.899658c16.491211-5.75409,32.951965-11.598328,49.495545-17.197632c4.047485-1.369934,5.234802-3.146668,3.456909-7.265198-2.104553-4.875366-3.81659-9.94812-5.316895-15.04773-1.216064-4.133239-2.767639-5.518737-7.367737-3.77008-12.903198,4.905029-26.034851,9.207947-39.06372,13.784302-10.359497,3.638794-20.718384,7.28125-31.034241,11.041015-2.019959.736206-4.971802,1.166687-3.73761,4.641663c2.606079,7.337646,4.630432,14.896789,8.234985,22.305664c8.532471-2.049805,16.5141-5.302612,25.332764-8.492004m-1.076965-85.096344c8.001221-2.816742,15.946228-5.810303,24.027222-8.375763c4.056884-1.287934,4.714294-3.330506,3.24591-7.025513-1.902832-4.788208-3.767944-9.630341-5.094848-14.597382-1.273011-4.765106-3.180909-5.927856-8.109314-4.134185-23.289307,8.475982-46.71045,16.591033-70.118165,24.738342-2.861694.996033-4.18518,2.247009-3.011657,5.413788c2.253479,6.081054,4.37146,12.213989,6.444092,18.359619.959594,2.845276,2.461608,3.326202,5.288635,2.306122c15.487671-5.588532,31.041015-10.994995,47.328125-16.685028m-83.804749-74.783722c1.89032,5.296264,3.78064,10.592498,5.720948,16.0289c1.387268-.207886,2.393615-.202271,3.288208-.515686c24.495178-8.581024,48.965148-17.234284,73.481994-25.752869c3.089173-1.073364,3.213562-2.837158,2.305603-5.371094-2.020447-5.638885-4.128662-11.250702-5.966491-16.949218-1.282349-3.976197-3.36969-4.454712-7.161438-3.093628-20.358338,7.307861-40.822876,14.319152-61.204468,21.563263-4.458863,1.584808-9.258911,2.511413-13.300171,5.627685.903015,2.706726,1.740967,5.218659,2.835815,8.462647M69.591637,537.988037c-2.710945,7.9375-2.779953,8.13324,5.054077,10.895386c21.63697,7.629089,43.321022,15.126282,65.036476,22.528869c2.252624.767762,4.507034,2.175171,7.656403,1.550171c2.429336-7.048523,4.872604-14.271667,7.42134-21.457397.855484-2.411926.15094-3.73523-2.240554-4.519959-4.737992-1.554565-9.435517-3.232666-14.147522-4.866149-18.693108-6.47992-37.375977-12.989441-56.082878-19.429261-6.67862-2.299133-6.727196-2.230774-9.117295,4.624207-1.149307,3.296387-2.196037,6.628418-3.580047,10.674133M718.871338,308.425049c-2.958374,1.105926-5.881226,2.322571-8.884644,3.288421-3.3974,1.09253-4.438354,3.244477-3.317138,6.51178c1.941406,5.656922,4.040405,11.261811,5.875854,16.952179c1.099304,3.408051,2.927796,3.747528,6.049805,2.550812c6.358887-2.4375,12.852539-4.522125,19.282837-6.774506c17.408447-6.097747,34.815552-12.199005,52.214416-18.324005c1.853089-.652374,4.327637-1.230316,3.305359-3.964844-2.829101-7.567901-4.837646-15.459838-8.633423-23.239227-21.918396,7.660431-43.533325,15.214813-65.893066,22.99939M177.387283,485.960266c1.078659-3.14917,2.0215-6.353546,3.27269-9.432587c1.359329-3.345184.540833-5.097686-2.995682-6.308227-23.775955-8.138428-47.509307-16.402405-71.217987-24.735108-3.245788-1.140808-4.962532-.295471-5.994949,2.86847-1.65155,5.061371-3.438301,10.078888-5.186317,15.10852-2.611321,7.513703-2.656159,6.269776,4.467224,8.785706c16.630424,5.873535,33.308097,11.614044,49.986427,17.350921c7.662277,2.63559,15.371109,5.135926,23.417603,7.81717c1.443511-3.906189,2.70343-7.315583,4.250991-11.454865M126.780975,372.34549c-2.389763,6.87677-4.779518,13.75354-7.177757,20.654724.876816.617462,1.357002,1.140777,1.947525,1.344757c24.812401,8.570007,49.645775,17.07959,74.441368,25.697815c3.045456,1.058502,4.305084-.224671,5.159729-2.80362c1.881607-5.677887,3.643646-11.402923,5.762787-16.991852c1.309311-3.453033.444779-5.154205-3.032547-6.305694-9.62088-3.185852-19.160751-6.616058-28.734863-9.943298-13.96872-4.854462-27.929077-9.733338-41.918671-14.526856-2.493942-.854553-5.338241-1.975067-6.447571,2.874024M69.895454,602.735046c-5.358917-1.816467-10.765037-3.507385-16.058315-5.498291-2.982765-1.121948-4.604832-.548767-5.604252,2.58667-1.919826,6.023072-3.98566,12.004944-6.192302,17.928833-1.068425,2.868347-.284844,4.218079,2.556606,5.195374c24.077133,8.281067,48.134392,16.620788,72.154289,25.066162c3.187615,1.120789,4.59317.098328,5.557182-2.821655c1.721764-5.21521,3.442627-10.443482,5.495537-15.532532c1.762558-4.369324.686753-6.604004-3.881454-8.143494-17.820061-6.005127-35.538666-12.311279-54.027291-18.781067M193.697342,305.9104c-11.320114-3.923828-22.683304-7.729583-33.936447-11.836883-3.828018-1.397186-5.949234-.651764-7.176224,3.275818-1.686371,5.39801-3.416931,10.797271-5.484924,16.055847-1.464798,3.724823-.394852,5.315918,3.286911,6.542358c13.579986,4.523682,27.058868,9.350159,40.588196,14.026795c11.289016,3.902252,22.595428,7.75415,34.074508,11.690185c3.410095-6.143432,5.136185-12.402893,7.181641-18.52655c2.332657-6.98349,2.309204-7.056427-4.753464-9.532562-10.996445-3.855286-22.023834-7.622254-33.780197-11.695008M822.45813,815.251526c6.841003-3.843262,12.539856-9.278748,19.010193-13.640259c2.392273-1.612549,1.380432-3.317566.069763-5.051025-15.446777-20.428711-30.907654-40.846985-46.286926-61.326416-1.975769-2.630921-3.710511-2.689881-6.174195-.719361-4.414367,3.53064-8.859985,7.052124-13.539978,10.210877-3.679504,2.48352-4.26709,4.512024-1.276062,8.24353c7.382813,9.210449,14.269104,18.8172,21.43628,28.202637c8.669738,11.353088,17.423095,22.642273,26.760925,34.080017M547.995422,940.472839c-2.908996-3.84906-5.941467-7.612732-8.684753-11.576477-1.90979-2.759521-3.573731-2.714904-6.047852-.679809-4.237365,3.485473-8.576171,6.883423-13.123169,9.945739-3.869018,2.605774-4.401489,4.872803-1.402282,8.770691c13.694946,17.798706,27.123901,35.802185,40.660522,53.722901c2.182068,2.888855,4.425415,5.731384,6.977112,9.030517c6.214661-4.645996,11.931885-9.166076,17.918396-13.295776c3.175781-2.190735,3.068665-3.877625.857178-6.767273-12.336975-16.119934-24.49585-32.376221-37.155152-49.150513M363.517731,978.975952c-3.305756,4.512451-6.611542,9.024902-10.116547,13.809326c7.344849,5.612976,13.957581,11.10138,21.061066,15.620423.673156-.350647,1.060608-.427552,1.238586-.662842c16.062134-21.241516,32.096222-42.504273,48.174011-63.733887c1.587952-2.096985,1.137909-3.483215-.860168-4.956787-4.956421-3.655151-9.943604-7.287964-14.672546-11.225098-3.075287-2.560363-4.898468-2.025512-7.191193,1.063233-12.30368,16.575928-24.780609,33.023254-37.633209,50.085632m375.587433-185.61737c-2.512574-3.313538-5.023804-6.628113-7.538147-9.940369-1.509522-1.988464-3.277039-2.836975-5.521485-1.12738-5.291626,4.030456-10.561096,8.089904-15.850097,12.12384-2.317749,1.767822-1.749146,3.596802-.260315,5.566711c15.442993,20.433533,30.883422,40.869202,46.279297,61.338257c1.642028,2.183228,3.086608,2.49469,5.32196.707398c4.545105-3.633851,9.158203-7.208313,13.967773-10.477112c3.61554-2.457337,4.369324-4.458435,1.395203-8.299256-12.626831-16.306823-24.930847-32.863647-37.794189-49.892089M586.455688,887.981567c-2.442443,1.920594-5.191528,3.519898-6.828308,6.113831.23053.603088.28479.959534.475525,1.213501c15.888306,21.1521,31.795471,42.290039,47.671997,63.450867c1.512879,2.016357,2.990906,2.234253,5.012268.671753c5.002198-3.866639,10.01764-7.725647,15.180359-11.371644c2.866272-2.024169,2.932984-3.823974.869934-6.530517-15.434265-20.248413-30.800048-40.549316-46.098938-60.900269-1.902465-2.530822-3.57135-2.410766-5.793029-.64801-3.258118,2.584961-6.606629,5.055969-10.489808,8.000488m93.791626-38.751953c-4.136291-5.42749-8.442077-10.736572-12.346923-16.325683-2.442994-3.496765-4.491394-3.494751-7.602356-.855225-4.181397,3.54773-8.581055,6.881104-13.141053,9.925842-3.55249,2.372132-3.425659,4.312439-.940979,7.545838c11.763001,15.307129,23.271729,30.809448,34.914124,46.209656c4.266724,5.643676,8.652405,11.197448,13.232056,17.112976c7.402954-5.5896,14.24115-10.752808,21.529602-16.255982-12.022889-15.982788-23.611512-31.388306-35.644471-47.357422M132.645416,752.112c-5.892402,7.853698-11.793777,15.700622-17.674492,23.56311-5.183662,6.930481-10.362068,13.865112-15.501739,20.828247-1.205444,1.633118-2.438568,3.342224-.065247,5.125244c6.224549,4.67627,12.417412,9.394714,18.591179,14.072266c3.184273-2.269593,4.757729-5.265747,6.741486-7.886109c13.760696-18.177063,27.403183-36.444153,41.260361-54.547058c2.823822-3.689087,2.962097-6.041748-1.222519-8.723694-4.750855-3.04486-9.149949-6.650573-13.615479-10.123596-2.30455-1.792297-3.945679-1.710205-5.749008.786804-3.993149,5.529358-8.209229,10.897644-12.764542,16.904786m76.854203,75.924438c4.967361-6.666748,9.901916-13.358337,14.910614-19.993896c5.90242-7.819581,4.947464-14.939026-2.869858-20.766968-2.132828-1.590088-4.350968-3.076844-6.390747-4.777954-2.681275-2.236084-4.471451-1.69281-6.474137,1.096374-5.331772,7.425964-10.928222,14.661804-16.413177,21.977966-9.474671,12.637757-18.980927,25.252198-28.372543,37.951416-1.220978,1.651062-3.886841,3.575928-.934372,5.882935c6.250198,4.883728,12.61557,9.620178,19.323532,14.712952c9.196426-12.196534,17.988342-23.856568,27.220688-36.082825M69.936165,103.595421c4.825416-.005547,9.651077-.042092,14.476166-.004967c2.87297.022118,4.254837-1.202545,4.247375-4.192772-.049805-19.967399-.05043-39.934986-.022858-59.902447.00409-2.961414-1.334106-4.198543-4.258583-4.145034-4.990234.091308-9.984367.1133-14.974304.022865-3.025841-.054836-4.097633,1.333839-4.089645,4.245079.054786,19.967468.052192,39.9352.007683,59.902714-.005906,2.650062.916786,4.141472,4.614166,4.074562m101.296379-9.193749c-.002319.999779.106827,2.014603-.025848,2.996781-.64592,4.781654,1.326843,6.66999,6.167846,6.281738c4.140305-.332039,8.326401-.134132,12.491654-.09964c2.708465.022423,3.9001-1.186218,3.897751-3.934173-.017045-19.995385.004974-39.990902.07463-59.986176.011399-3.271793-1.562225-4.399391-4.641662-4.312904-3.995682.112224-8.009247.217724-11.992722-.031674-4.57428-.286381-6.134613,1.571331-6.082779,6.122513.197403,17.327473.098633,34.658321.11113,52.963535M158.700912,56.500267c-.004058-5.492241-.096496-10.986385.0215-16.476002.068924-3.206577-1.416733-4.587356-4.467483-4.599495-4.659836-.018547-9.320755.024403-13.979157-.06557-2.984192-.057637-4.182846,1.351833-4.176193,4.243423.045578,19.805153.083954,39.610512.028992,59.415543-.009873,3.56137,1.754058,4.665374,4.960098,4.586906c4.1586-.101761,8.3367-.332008,12.475509-.051285c3.969834.269272,5.239624-1.191276,5.190079-5.112175-.172409-13.645202-.059021-27.294014-.053345-41.941345M118.2901,35.404327c-4.160004-.004062-8.327415.143677-12.477753-.058658-3.526985-.171944-4.684654,1.352821-4.670105,4.719406.084214,19.486847.108513,38.974491.008652,58.461124-.019081,3.722626,1.604248,5.10521,5.082543,5.060593c4.163124-.053398,8.330902-.102684,12.490463.034424c3.576256.117874,5.050026-1.275589,5.028663-4.990921-.112037-19.486542-.09629-38.974346.001175-58.461083.016823-3.362877-1.079269-5.080143-5.463638-4.764885M46.064541,103.578346c7.655121-.173149,7.662514-.173149,7.666046-7.597946.007587-15.964264.006042-31.928535.009644-47.892799.002876-12.743019.003799-12.743019-12.586239-12.698433-8.152825.028873-10.205546,2.078575-10.217329,10.444038-.020378,14.467491.013378,28.935089.040361,43.402611.025829,13.847908.534834,14.352211,15.087517,14.342529M465.627563,475.456787c-.668884,3.062866-1.316864,6.130524-2.011383,9.187561-1.144622,5.038086.033204,6.846192,5.146607,7.233551c5.11441.387451,10.224975.087097,15.378631.899903c5.519471.870483,8.74466-2.221772,9.647095-7.919526.720246-4.547638,1.417206-9.107635,1.86142-13.687652.368774-3.802216.097504-7.901612-4.638947-8.608856-5.751678-.858826-11.396148-2.107941-17.065277-3.315216-3.166107-.674225-5.035095.516174-5.585144,3.91455-.633362,3.913361-1.593384,7.773865-2.733002,12.295685m-8.588623-43.837555c2.199128-2.156463,2.547608-4.534729,2.090638-7.672485-.635865-4.366852-1.067566-8.958862.658722-13.275208c1.043609-2.609405.01535-3.795898-2.267884-5.040161-2.154297-1.174011-4.13681-2.065826-5.626739.281037-3.125824,4.923553-8.039887,7.707244-12.398896,11.19696-2.955261,2.365967-4.497894,5.442688-2.288574,9.175629c3.391358,5.730163,13.104706,8.609558,19.832733,5.334228m52.233338,48.780304c.14978,2.832733-.363892,5.555969,4.477539,4.807678c12.012512-1.856628,23.372253-5.777343,34.72168-9.82843c1.743652-.622375,3.677917-1.263397,4.412048-3.929718-11.153015-.128235-21.753357-2.036835-32.551148-1.422668-9.43045.536346-9.44754.236084-11.060119,10.373138M285.85788,596.947815c1.364532-5.386475-2.562714-7.005798-6.314331-8.190003-3.890107-1.228088-7.038392.932923-9.248993,3.913086-.953217,1.285035-1.842163,3.450501-.498871,5.109742c1.150238,1.420715,3.199249,1.289489,4.653137.776367c3.546478-1.251465,7.2341-.475159,11.409058-1.609192m-5.687165-286.988251c1.481171,2.94104,1.907257,6.499756,5.670136,9.565277-1.659241-5.117828-3.134796-8.925049-6.426453-11.881195.161469.586548.322937,1.173126.756317,2.315918m6.210846,32.336884c.221009,1.158325-.218292,2.633301,1.59079,3.200226c1.7836-2.457398,2.392975-4.793.053192-7.253998-1.660492.794983-1.464325,2.185455-1.643982,4.053772Z"/></g>
<script><![CDATA[
!function(t,n){"object"==typeof exports&&"undefined"!=typeof module?module.exports=n():"function"==typeof __SVGATOR_DEFINE__&&__SVGATOR_DEFINE__.amd?__SVGATOR_DEFINE__(n):((t="undefined"!=typeof globalThis?globalThis:t||self).__SVGATOR_PLAYER__=t.__SVGATOR_PLAYER__||{},t.__SVGATOR_PLAYER__["5c7f360c"]=n())}(this,(function(){"use strict";function t(t,n){var e=Object.keys(t);if(Object.getOwnPropertySymbols){var r=Object.getOwnPropertySymbols(t);n&&(r=r.filter((function(n){return Object.getOwnPropertyDescriptor(t,n).enumerable}))),e.push.apply(e,r)}return e}function n(n){for(var e=1;e<arguments.length;e++){var r=null!=arguments[e]?arguments[e]:{};e%2?t(Object(r),!0).forEach((function(t){u(n,t,r[t])})):Object.getOwnPropertyDescriptors?Object.defineProperties(n,Object.getOwnPropertyDescriptors(r)):t(Object(r)).forEach((function(t){Object.defineProperty(n,t,Object.getOwnPropertyDescriptor(r,t))}))}return n}function e(t){return(e="function"==typeof Symbol&&"symbol"==typeof Symbol.iterator?function(t){return typeof t}:function(t){return t&&"function"==typeof Symbol&&t.constructor===Symbol&&t!==Symbol.prototype?"symbol":typeof t})(t)}function r(t,n){if(!(t instanceof n))throw new TypeError("Cannot call a class as a function")}function i(t,n){for(var e=0;e<n.length;e++){var r=n[e];r.enumerable=r.enumerable||!1,r.configurable=!0,"value"in r&&(r.writable=!0),Object.defineProperty(t,r.key,r)}}function o(t,n,e){return n&&i(t.prototype,n),e&&i(t,e),t}function u(t,n,e){return n in t?Object.defineProperty(t,n,{value:e,enumerable:!0,configurable:!0,writable:!0}):t[n]=e,t}function a(t){return(a=Object.setPrototypeOf?Object.getPrototypeOf:function(t){return t.__proto__||Object.getPrototypeOf(t)})(t)}function l(t,n){return(l=Object.setPrototypeOf||function(t,n){return t.__proto__=n,t})(t,n)}function s(){if("undefined"==typeof Reflect||!Reflect.construct)return!1;if(Reflect.construct.sham)return!1;if("function"==typeof Proxy)return!0;try{return Boolean.prototype.valueOf.call(Reflect.construct(Boolean,[],(function(){}))),!0}catch(t){return!1}}function f(t,n,e){return(f=s()?Reflect.construct:function(t,n,e){var r=[null];r.push.apply(r,n);var i=new(Function.bind.apply(t,r));return e&&l(i,e.prototype),i}).apply(null,arguments)}function c(t,n){if(n&&("object"==typeof n||"function"==typeof n))return n;if(void 0!==n)throw new TypeError("Derived constructors may only return object or undefined");return function(t){if(void 0===t)throw new ReferenceError("this hasn't been initialised - super() hasn't been called");return t}(t)}function h(t,n,e){return(h="undefined"!=typeof Reflect&&Reflect.get?Reflect.get:function(t,n,e){var r=function(t,n){for(;!Object.prototype.hasOwnProperty.call(t,n)&&null!==(t=a(t)););return t}(t,n);if(r){var i=Object.getOwnPropertyDescriptor(r,n);return i.get?i.get.call(e):i.value}})(t,n,e||t)}function v(t){return function(t){if(Array.isArray(t))return y(t)}(t)||function(t){if("undefined"!=typeof Symbol&&null!=t[Symbol.iterator]||null!=t["@@iterator"])return Array.from(t)}(t)||function(t,n){if(!t)return;if("string"==typeof t)return y(t,n);var e=Object.prototype.toString.call(t).slice(8,-1);"Object"===e&&t.constructor&&(e=t.constructor.name);if("Map"===e||"Set"===e)return Array.from(t);if("Arguments"===e||/^(?:Ui|I)nt(?:8|16|32)(?:Clamped)?Array$/.test(e))return y(t,n)}(t)||function(){throw new TypeError("Invalid attempt to spread non-iterable instance.\nIn order to be iterable, non-array objects must have a [Symbol.iterator]() method.")}()}function y(t,n){(null==n||n>t.length)&&(n=t.length);for(var e=0,r=new Array(n);e<n;e++)r[e]=t[e];return r}function g(t,n,e){if(Number.isInteger(t))return t;var r=Math.pow(10,n);return Math[e]((+t+Number.EPSILON)*r)/r}Number.isInteger||(Number.isInteger=function(t){return"number"==typeof t&&isFinite(t)&&Math.floor(t)===t}),Number.EPSILON||(Number.EPSILON=2220446049250313e-31);var d=p(Math.pow(10,-6));function p(t){var n=arguments.length>1&&void 0!==arguments[1]?arguments[1]:6;return g(t,n,"round")}function m(t,n){var e=arguments.length>2&&void 0!==arguments[2]?arguments[2]:d;return Math.abs(t-n)<e}p(Math.pow(10,-2)),p(Math.pow(10,-4));var b=Math.PI/180;function w(t){return t}function A(t,n,e){var r=1-e;return 3*e*r*(t*r+n*e)+e*e*e}function _(){var t=arguments.length>0&&void 0!==arguments[0]?arguments[0]:0,n=arguments.length>1&&void 0!==arguments[1]?arguments[1]:0,e=arguments.length>2&&void 0!==arguments[2]?arguments[2]:1,r=arguments.length>3&&void 0!==arguments[3]?arguments[3]:1;return t<0||t>1||e<0||e>1?null:m(t,n)&&m(e,r)?w:function(i){if(i<=0)return t>0?i*n/t:0===n&&e>0?i*r/e:0;if(i>=1)return e<1?1+(i-1)*(r-1)/(e-1):1===e&&t<1?1+(i-1)*(n-1)/(t-1):1;for(var o,u=0,a=1;u<a;){var l=A(t,e,o=(u+a)/2);if(m(i,l))break;l<i?u=o:a=o}return A(n,r,o)}}function x(){return 1}function k(t){return 1===t?1:0}function S(){var t=arguments.length>0&&void 0!==arguments[0]?arguments[0]:1,n=arguments.length>1&&void 0!==arguments[1]?arguments[1]:0;if(1===t){if(0===n)return k;if(1===n)return x}var e=1/t;return function(t){return t>=1?1:(t+=n*e)-t%e}}var O=Math.sin,j=Math.cos,M=Math.acos,E=Math.asin,P=Math.tan,I=Math.atan2,R=Math.PI/180,F=180/Math.PI,N=Math.sqrt,T=function(){function t(){var n=arguments.length>0&&void 0!==arguments[0]?arguments[0]:1,e=arguments.length>1&&void 0!==arguments[1]?arguments[1]:0,i=arguments.length>2&&void 0!==arguments[2]?arguments[2]:0,o=arguments.length>3&&void 0!==arguments[3]?arguments[3]:1,u=arguments.length>4&&void 0!==arguments[4]?arguments[4]:0,a=arguments.length>5&&void 0!==arguments[5]?arguments[5]:0;r(this,t),this.m=[n,e,i,o,u,a],this.i=null,this.w=null,this.s=null}return o(t,[{key:"determinant",get:function(){var t=this.m;return t[0]*t[3]-t[1]*t[2]}},{key:"isIdentity",get:function(){if(null===this.i){var t=this.m;this.i=1===t[0]&&0===t[1]&&0===t[2]&&1===t[3]&&0===t[4]&&0===t[5]}return this.i}},{key:"point",value:function(t,n){var e=this.m;return{x:e[0]*t+e[2]*n+e[4],y:e[1]*t+e[3]*n+e[5]}}},{key:"translateSelf",value:function(){var t=arguments.length>0&&void 0!==arguments[0]?arguments[0]:0,n=arguments.length>1&&void 0!==arguments[1]?arguments[1]:0;if(!t&&!n)return this;var e=this.m;return e[4]+=e[0]*t+e[2]*n,e[5]+=e[1]*t+e[3]*n,this.w=this.s=this.i=null,this}},{key:"rotateSelf",value:function(){var t=arguments.length>0&&void 0!==arguments[0]?arguments[0]:0;if(t%=360){var n=O(t*=R),e=j(t),r=this.m,i=r[0],o=r[1];r[0]=i*e+r[2]*n,r[1]=o*e+r[3]*n,r[2]=r[2]*e-i*n,r[3]=r[3]*e-o*n,this.w=this.s=this.i=null}return this}},{key:"scaleSelf",value:function(){var t=arguments.length>0&&void 0!==arguments[0]?arguments[0]:1,n=arguments.length>1&&void 0!==arguments[1]?arguments[1]:1;if(1!==t||1!==n){var e=this.m;e[0]*=t,e[1]*=t,e[2]*=n,e[3]*=n,this.w=this.s=this.i=null}return this}},{key:"skewSelf",value:function(t,n){if(n%=360,(t%=360)||n){var e=this.m,r=e[0],i=e[1],o=e[2],u=e[3];t&&(t=P(t*R),e[2]+=r*t,e[3]+=i*t),n&&(n=P(n*R),e[0]+=o*n,e[1]+=u*n),this.w=this.s=this.i=null}return this}},{key:"resetSelf",value:function(){var t=arguments.length>0&&void 0!==arguments[0]?arguments[0]:1,n=arguments.length>1&&void 0!==arguments[1]?arguments[1]:0,e=arguments.length>2&&void 0!==arguments[2]?arguments[2]:0,r=arguments.length>3&&void 0!==arguments[3]?arguments[3]:1,i=arguments.length>4&&void 0!==arguments[4]?arguments[4]:0,o=arguments.length>5&&void 0!==arguments[5]?arguments[5]:0,u=this.m;return u[0]=t,u[1]=n,u[2]=e,u[3]=r,u[4]=i,u[5]=o,this.w=this.s=this.i=null,this}},{key:"recomposeSelf",value:function(){var t=arguments.length>0&&void 0!==arguments[0]?arguments[0]:null,n=arguments.length>1&&void 0!==arguments[1]?arguments[1]:null,e=arguments.length>2&&void 0!==arguments[2]?arguments[2]:null,r=arguments.length>3&&void 0!==arguments[3]?arguments[3]:null,i=arguments.length>4&&void 0!==arguments[4]?arguments[4]:null;return this.isIdentity||this.resetSelf(),t&&(t.x||t.y)&&this.translateSelf(t.x,t.y),n&&this.rotateSelf(n),e&&(e.x&&this.skewSelf(e.x,0),e.y&&this.skewSelf(0,e.y)),!r||1===r.x&&1===r.y||this.scaleSelf(r.x,r.y),i&&(i.x||i.y)&&this.translateSelf(i.x,i.y),this}},{key:"decompose",value:function(){var t=arguments.length>0&&void 0!==arguments[0]?arguments[0]:0,n=arguments.length>1&&void 0!==arguments[1]?arguments[1]:0,e=this.m,r=e[0]*e[0]+e[1]*e[1],i=[[e[0],e[1]],[e[2],e[3]]],o=N(r);if(0===o)return{origin:{x:p(e[4]),y:p(e[5])},translate:{x:p(t),y:p(n)},scale:{x:0,y:0},skew:{x:0,y:0},rotate:0};i[0][0]/=o,i[0][1]/=o;var u=e[0]*e[3]-e[1]*e[2]<0;u&&(o=-o);var a=i[0][0]*i[1][0]+i[0][1]*i[1][1];i[1][0]-=i[0][0]*a,i[1][1]-=i[0][1]*a;var l=N(i[1][0]*i[1][0]+i[1][1]*i[1][1]);if(0===l)return{origin:{x:p(e[4]),y:p(e[5])},translate:{x:p(t),y:p(n)},scale:{x:p(o),y:0},skew:{x:0,y:0},rotate:0};i[1][0]/=l,i[1][1]/=l,a/=l;var s=0;return i[1][1]<0?(s=M(i[1][1])*F,i[0][1]<0&&(s=360-s)):s=E(i[0][1])*F,u&&(s=-s),a=I(a,N(i[0][0]*i[0][0]+i[0][1]*i[0][1]))*F,u&&(a=-a),{origin:{x:p(e[4]),y:p(e[5])},translate:{x:p(t),y:p(n)},scale:{x:p(o),y:p(l)},skew:{x:p(a),y:0},rotate:p(s)}}},{key:"clone",value:function(){var t=this.m;return new this.constructor(t[0],t[1],t[2],t[3],t[4],t[5])}},{key:"toString",value:function(){var t=arguments.length>0&&void 0!==arguments[0]?arguments[0]:" ";if(null===this.s){var n=this.m.map((function(t){return p(t)}));1===n[0]&&0===n[1]&&0===n[2]&&1===n[3]?this.s="translate("+n[4]+t+n[5]+")":this.s="matrix("+n.join(t)+")"}return this.s}}],[{key:"create",value:function(t){return t?Array.isArray(t)?f(this,v(t)):t instanceof this?t.clone():(new this).recomposeSelf(t.origin,t.rotate,t.skew,t.scale,t.translate):new this}}]),t}();function q(t,n,e){return t>=.5?e:n}function B(t,n,e){return 0===t||n===e?n:t*(e-n)+n}function D(t,n,e){var r=B(t,n,e);return r<=0?0:r}function L(t,n,e){var r=B(t,n,e);return r<=0?0:r>=1?1:r}function C(t,n,e){return 0===t?n:1===t?e:{x:B(t,n.x,e.x),y:B(t,n.y,e.y)}}function V(t,n,e){var r=function(t,n,e){return Math.round(B(t,n,e))}(t,n,e);return r<=0?0:r>=255?255:r}function G(t,n,e){return 0===t?n:1===t?e:{r:V(t,n.r,e.r),g:V(t,n.g,e.g),b:V(t,n.b,e.b),a:B(t,null==n.a?1:n.a,null==e.a?1:e.a)}}function z(t,n){for(var e=[],r=0;r<t;r++)e.push(n);return e}function Y(t,n){if(--n<=0)return t;var e=(t=Object.assign([],t)).length;do{for(var r=0;r<e;r++)t.push(t[r])}while(--n>0);return t}var $,U=function(){function t(n){r(this,t),this.list=n,this.length=n.length}return o(t,[{key:"setAttribute",value:function(t,n){for(var e=this.list,r=0;r<this.length;r++)e[r].setAttribute(t,n)}},{key:"removeAttribute",value:function(t){for(var n=this.list,e=0;e<this.length;e++)n[e].removeAttribute(t)}},{key:"style",value:function(t,n){for(var e=this.list,r=0;r<this.length;r++)e[r].style[t]=n}}]),t}(),Q=/-./g,H=function(t,n){return n.toUpperCase()};function J(t){return"function"==typeof t?t:q}function Z(t){return t?"function"==typeof t?t:Array.isArray(t)?function(t){var n=arguments.length>1&&void 0!==arguments[1]?arguments[1]:w;if(!Array.isArray(t))return n;switch(t.length){case 1:return S(t[0])||n;case 2:return S(t[0],t[1])||n;case 4:return _(t[0],t[1],t[2],t[3])||n}return n}(t,null):function(t,n){var e=arguments.length>2&&void 0!==arguments[2]?arguments[2]:w;switch(t){case"linear":return w;case"steps":return S(n.steps||1,n.jump||0)||e;case"bezier":case"cubic-bezier":return _(n.x1||0,n.y1||0,n.x2||0,n.y2||0)||e}return e}(t.type,t.value,null):null}function K(t,n,e){var r=arguments.length>3&&void 0!==arguments[3]&&arguments[3],i=n.length-1;if(t<=n[0].t)return r?[0,0,n[0].v]:n[0].v;if(t>=n[i].t)return r?[i,1,n[i].v]:n[i].v;var o,u=n[0],a=null;for(o=1;o<=i;o++){if(!(t>n[o].t)){a=n[o];break}u=n[o]}return null==a?r?[i,1,n[i].v]:n[i].v:u.t===a.t?r?[o,1,a.v]:a.v:(t=(t-u.t)/(a.t-u.t),u.e&&(t=u.e(t)),r?[o,t,e(t,u.v,a.v)]:e(t,u.v,a.v))}function W(t,n){var e=arguments.length>2&&void 0!==arguments[2]?arguments[2]:null;return t&&t.length?"function"!=typeof n?null:("function"!=typeof e&&(e=null),function(r){var i=K(r,t,n);return null!=i&&e&&(i=e(i)),i}):null}function X(t,n){return t.t-n.t}function tt(t,n,r,i,o){var u,a="@"===r[0],l="#"===r[0],s=$[r],f=q;switch(a?(u=r.substr(1),r=u.replace(Q,H)):l&&(r=r.substr(1)),e(s)){case"function":if(f=s(i,o,K,Z,r,a,n,t),l)return f;break;case"string":f=W(i,J(s));break;case"object":if((f=W(i,J(s.i),s.f))&&"function"==typeof s.u)return s.u(n,f,r,a,t)}return f?function(t,n,e){if(arguments.length>3&&void 0!==arguments[3]&&arguments[3])return t instanceof U?function(r){return t.style(n,e(r))}:function(r){return t.style[n]=e(r)};if(Array.isArray(n)){var r=n.length;return function(i){var o=e(i);if(null==o)for(var u=0;u<r;u++)t[u].removeAttribute(n);else for(var a=0;a<r;a++)t[a].setAttribute(n,o)}}return function(r){var i=e(r);null==i?t.removeAttribute(n):t.setAttribute(n,i)}}(n,r,f,a):null}function nt(t,n,r,i){if(!i||"object"!==e(i))return null;var o=null,u=null;return Array.isArray(i)?u=function(t){if(!t||!t.length)return null;for(var n=0;n<t.length;n++)t[n].e&&(t[n].e=Z(t[n].e));return t.sort(X)}(i):(u=i.keys,o=i.data||null),u?tt(t,n,r,u,o):null}function et(t,n,e){if(!e)return null;var r=[];for(var i in e)if(e.hasOwnProperty(i)){var o=nt(t,n,i,e[i]);o&&r.push(o)}return r.length?r:null}function rt(t,n){if(!n.settings.duration||n.settings.duration<0)return null;var e,r,i,o,u,a=function(t,n){if(!n)return null;var e=[];if(Array.isArray(n))for(var r=n.length,i=0;i<r;i++){var o=n[i];if(2===o.length){var u=null;if("string"==typeof o[0])u=t.getElementById(o[0]);else if(Array.isArray(o[0])){u=[];for(var a=0;a<o[0].length;a++)if("string"==typeof o[0][a]){var l=t.getElementById(o[0][a]);l&&u.push(l)}u=u.length?1===u.length?u[0]:new U(u):null}if(u){var s=et(t,u,o[1]);s&&(e=e.concat(s))}}}else for(var f in n)if(n.hasOwnProperty(f)){var c=t.getElementById(f);if(c){var h=et(t,c,n[f]);h&&(e=e.concat(h))}}return e.length?e:null}(t,n.elements);return a?(e=a,r=n.settings,i=r.duration,o=e.length,u=null,function(t,n){var a=r.iterations||1/0,l=(r.alternate&&a%2==0)^r.direction>0?i:0,s=t%i,f=1+(t-s)/i;n*=r.direction,r.alternate&&f%2==0&&(n=-n);var c=!1;if(f>a)s=l,c=!0,-1===r.fill&&(s=r.direction>0?0:i);else if(n<0&&(s=i-s),s===u)return!1;u=s;for(var h=0;h<o;h++)e[h](s);return c}):null}function it(t,n){for(var e=n.querySelectorAll("svg"),r=0;r<e.length;r++)if(e[r].id===t.root&&!e[r].svgatorAnimation)return e[r].svgatorAnimation=!0,e[r];return null}function ot(t){var n=function(t){return t.shadowRoot};return document?Array.from(t.querySelectorAll(":not("+["a","area","audio","br","canvas","circle","datalist","embed","g","head","hr","iframe","img","input","link","object","path","polygon","rect","script","source","style","svg","title","track","video"].join()+")")).filter(n).map(n):[]}function ut(t){var n=arguments.length>1&&void 0!==arguments[1]?arguments[1]:document,e=arguments.length>2&&void 0!==arguments[2]?arguments[2]:0,r=it(t,n);if(r)return r;if(e>=20)return null;for(var i=ot(n),o=0;o<i.length;o++){var u=ut(t,i[o],e+1);if(u)return u}return null}function at(t,n){if($=n,!t||!t.root||!Array.isArray(t.animations))return null;var e=ut(t);if(!e)return null;var r=t.animations.map((function(t){return rt(e,t)})).filter((function(t){return!!t}));return r.length?{svg:e,animations:r,animationSettings:t.animationSettings,options:t.options||void 0}:null}function lt(t){var n=arguments.length>1&&void 0!==arguments[1]?arguments[1]:null,e=arguments.length>2&&void 0!==arguments[2]?arguments[2]:Number,r=arguments.length>3&&void 0!==arguments[3]?arguments[3]:"undefined"!=typeof BigInt&&BigInt,i="0x"+(t.replace(/[^0-9a-fA-F]+/g,"")||27);return n&&r&&e.isSafeInteger&&!e.isSafeInteger(+i)?e(r(i))%n+n:+i}function st(t,n,e){return!t||!e||n>t.length?t:t.substring(0,n)+st(t.substring(n+1),e,e)}function ft(t){var n=arguments.length>1&&void 0!==arguments[1]?arguments[1]:27;return!t||t%n?t%n:[0,1].includes(n)?n:ft(t/n,n)}function ct(t,n,e){if(t&&t.length){var r=lt(e),i=ft(r)+5,o=st(t,ft(r,5),i);return o=o.replace(/\x7c$/g,"==").replace(/\x2f$/g,"="),o=function(t,n,e){var r=+("0x"+t.substring(0,4));t=t.substring(4);for(var i=lt(n,r)%r+e%27,o=[],u=0;u<t.length;u+=2)if("|"!==t[u]){var a=+("0x"+t[u]+t[u+1])-i;o.push(a)}else{var l=+("0x"+t.substring(u+1,u+1+4))-i;u+=3,o.push(l)}return String.fromCharCode.apply(String,o)}(o=(o=atob(o)).replace(/[\x41-\x5A]/g,""),n,r),o=JSON.parse(o)}}var ht=[{key:"alternate",def:!1},{key:"fill",def:1},{key:"iterations",def:0},{key:"direction",def:1},{key:"speed",def:1},{key:"fps",def:100}],vt=function(){function t(n,e){var i=this,o=arguments.length>2&&void 0!==arguments[2]?arguments[2]:null;r(this,t),this._id=0,this._running=!1,this._rollingBack=!1,this._animations=n,this._settings=e,(!o||o<"2022-05-02")&&delete this._settings.speed,ht.forEach((function(t){i._settings[t.key]=i._settings[t.key]||t.def})),this.duration=e.duration,this.offset=e.offset||0,this.rollbackStartOffset=0}return o(t,[{key:"alternate",get:function(){return this._settings.alternate}},{key:"fill",get:function(){return this._settings.fill}},{key:"iterations",get:function(){return this._settings.iterations}},{key:"direction",get:function(){return this._settings.direction}},{key:"speed",get:function(){return this._settings.speed}},{key:"fps",get:function(){return this._settings.fps}},{key:"maxFiniteDuration",get:function(){return this.iterations>0?this.iterations*this.duration:this.duration}},{key:"_apply",value:function(t){for(var n=arguments.length>1&&void 0!==arguments[1]?arguments[1]:{},e=this._animations,r=e.length,i=0,o=0;o<r;o++)n[o]?i++:(n[o]=e[o](t,1),n[o]&&i++);return i}},{key:"_rollback",value:function(t){var n=this,e=1/0,r=null;this.rollbackStartOffset=t,this._rollingBack=!0,this._running=!0;this._id=window.requestAnimationFrame((function i(o){if(n._rollingBack){null==r&&(r=o);var u=Math.round(t-(o-r)*n.speed);if(u>n.duration&&e!==1/0){var a=!!n.alternate&&u/n.duration%2>1,l=u%n.duration;u=(l+=a?n.duration:0)||n.duration}var s=(n.fps?1e3/n.fps:0)*n.speed,f=Math.max(0,u);f<=e-s&&(n.offset=f,e=f,n._apply(f));var c=n.iterations>0&&-1===n.fill&&u>=n.maxFiniteDuration;(u<=0||n.offset<u||c)&&n.stop(),n._id=window.requestAnimationFrame(i)}}))}},{key:"_start",value:function(){var t=this,n=arguments.length>0&&void 0!==arguments[0]?arguments[0]:0,e=-1/0,r=null,i={};this._running=!0;var o=function o(u){null==r&&(r=u);var a=Math.round((u-r)*t.speed+n),l=(t.fps?1e3/t.fps:0)*t.speed;if(a>=e+l&&!t._rollingBack&&(t.offset=a,e=a,t._apply(a,i)===t._animations.length))return void t.pause(!0);t._id=window.requestAnimationFrame(o)};this._id=window.requestAnimationFrame(o)}},{key:"_pause",value:function(){this._id&&window.cancelAnimationFrame(this._id),this._running=!1}},{key:"play",value:function(){if(!this._running)return this._rollingBack?this._rollback(this.offset):this._start(this.offset)}},{key:"stop",value:function(){this._pause(),this.offset=0,this.rollbackStartOffset=0,this._rollingBack=!1,this._apply(0)}},{key:"reachedToEnd",value:function(){return this.iterations>0&&this.offset>=this.iterations*this.duration}},{key:"restart",value:function(){var t=arguments.length>0&&void 0!==arguments[0]&&arguments[0];this.stop(t),this.play(t)}},{key:"pause",value:function(){this._pause()}},{key:"reverse",value:function(){this.direction=-this.direction}}],[{key:"build",value:function(t,n){delete t.animationSettings,t.options=ct(t.options,t.root,"5c7f360c"),t.animations.map((function(n){n.settings=ct(n.s,t.root,"5c7f360c"),delete n.s,t.animationSettings||(t.animationSettings=n.settings)}));var e=t.version;if(!(t=at(t,n)))return null;var r=t.options||{},i=new this(t.animations,t.animationSettings,e);return{el:t.svg,options:r,player:i}}},{key:"push",value:function(t){return this.build(t)}},{key:"init",value:function(){var t=this,n=window.__SVGATOR_PLAYER__&&window.__SVGATOR_PLAYER__["5c7f360c"];Array.isArray(n)&&n.splice(0).forEach((function(n){return t.build(n)}))}}]),t}();function yt(t){return p(t)+""}function gt(t){var n=arguments.length>1&&void 0!==arguments[1]?arguments[1]:" ";return t&&t.length?t.map(yt).join(n):""}function dt(t){if(!t)return"transparent";if(null==t.a||t.a>=1){var n=function(t){return 1===(t=parseInt(t).toString(16)).length?"0"+t:t},e=function(t){return t.charAt(0)===t.charAt(1)},r=n(t.r),i=n(t.g),o=n(t.b);return e(r)&&e(i)&&e(o)&&(r=r.charAt(0),i=i.charAt(0),o=o.charAt(0)),"#"+r+i+o}return"rgba("+t.r+","+t.g+","+t.b+","+t.a+")"}function pt(t){return t?"url(#"+t+")":"none"}!function(){for(var t=0,n=["ms","moz","webkit","o"],e=0;e<n.length&&!window.requestAnimationFrame;++e)window.requestAnimationFrame=window[n[e]+"RequestAnimationFrame"],window.cancelAnimationFrame=window[n[e]+"CancelAnimationFrame"]||window[n[e]+"CancelRequestAnimationFrame"];window.requestAnimationFrame||(window.requestAnimationFrame=function(n){var e=Date.now(),r=Math.max(0,16-(e-t)),i=window.setTimeout((function(){n(e+r)}),r);return t=e+r,i},window.cancelAnimationFrame=window.clearTimeout)}();var mt={f:null,i:function(t,n,e){return 0===t?n:1===t?e:{x:D(t,n.x,e.x),y:D(t,n.y,e.y)}},u:function(t,n){return function(e){var r=n(e);t.setAttribute("rx",yt(r.x)),t.setAttribute("ry",yt(r.y))}}},bt={f:null,i:function(t,n,e){return 0===t?n:1===t?e:{width:D(t,n.width,e.width),height:D(t,n.height,e.height)}},u:function(t,n){return function(e){var r=n(e);t.setAttribute("width",yt(r.width)),t.setAttribute("height",yt(r.height))}}};Object.freeze({M:2,L:2,Z:0,H:1,V:1,C:6,Q:4,T:2,S:4,A:7});var wt={},At=null;function _t(t){var n=function(){if(At)return At;if("object"!==("undefined"==typeof document?"undefined":e(document))||!document.createElementNS)return{};var t=document.createElementNS("http://www.w3.org/2000/svg","svg");return t&&t.style?(t.style.position="absolute",t.style.opacity="0.01",t.style.zIndex="-9999",t.style.left="-9999px",t.style.width="1px",t.style.height="1px",At={svg:t}):{}}().svg;if(!n)return function(t){return null};var r=document.createElementNS(n.namespaceURI,"path");r.setAttributeNS(null,"d",t),r.setAttributeNS(null,"fill","none"),r.setAttributeNS(null,"stroke","none"),n.appendChild(r);var i=r.getTotalLength();return function(t){var n=r.getPointAtLength(i*t);return{x:n.x,y:n.y}}}function xt(t){return wt[t]?wt[t]:wt[t]=_t(t)}function kt(t,n,e,r){if(!t||!r)return!1;var i=["M",t.x,t.y];if(n&&e&&(i.push("C"),i.push(n.x),i.push(n.y),i.push(e.x),i.push(e.y)),n?!e:e){var o=n||e;i.push("Q"),i.push(o.x),i.push(o.y)}return n||e||i.push("L"),i.push(r.x),i.push(r.y),i.join(" ")}function St(t,n,e,r){var i=arguments.length>4&&void 0!==arguments[4]?arguments[4]:1,o=kt(t,n,e,r),u=xt(o);try{return u(i)}catch(t){return null}}function Ot(t,n,e){return t+(n-t)*e}function jt(t,n,e){var r=arguments.length>3&&void 0!==arguments[3]&&arguments[3],i={x:Ot(t.x,n.x,e),y:Ot(t.y,n.y,e)};return r&&(i.a=Mt(t,n)),i}function Mt(t,n){return Math.atan2(n.y-t.y,n.x-t.x)}function Et(t,n,e,r){var i=1-r;return i*i*t+2*i*r*n+r*r*e}function Pt(t,n,e,r){return 2*(1-r)*(n-t)+2*r*(e-n)}function It(t,n,e,r){var i=arguments.length>4&&void 0!==arguments[4]&&arguments[4],o=St(t,n,null,e,r);return o||(o={x:Et(t.x,n.x,e.x,r),y:Et(t.y,n.y,e.y,r)}),i&&(o.a=Rt(t,n,e,r)),o}function Rt(t,n,e,r){return Math.atan2(Pt(t.y,n.y,e.y,r),Pt(t.x,n.x,e.x,r))}function Ft(t,n,e,r,i){var o=i*i;return i*o*(r-t+3*(n-e))+3*o*(t+e-2*n)+3*i*(n-t)+t}function Nt(t,n,e,r,i){var o=1-i;return 3*(o*o*(n-t)+2*o*i*(e-n)+i*i*(r-e))}function Tt(t,n,e,r,i){var o=arguments.length>5&&void 0!==arguments[5]&&arguments[5],u=St(t,n,e,r,i);return u||(u={x:Ft(t.x,n.x,e.x,r.x,i),y:Ft(t.y,n.y,e.y,r.y,i)}),o&&(u.a=qt(t,n,e,r,i)),u}function qt(t,n,e,r,i){return Math.atan2(Nt(t.y,n.y,e.y,r.y,i),Nt(t.x,n.x,e.x,r.x,i))}function Bt(t,n,e){var r=arguments.length>3&&void 0!==arguments[3]&&arguments[3];if(Lt(n)){if(Ct(e))return It(n,e.start,e,t,r)}else if(Lt(e)){if(Vt(n))return It(n,n.end,e,t,r)}else{if(Vt(n))return Ct(e)?Tt(n,n.end,e.start,e,t,r):It(n,n.end,e,t,r);if(Ct(e))return It(n,e.start,e,t,r)}return jt(n,e,t,r)}function Dt(t,n,e){var r=Bt(t,n,e,!0);return r.a=function(t){return arguments.length>1&&void 0!==arguments[1]&&arguments[1]?t+Math.PI:t}(r.a)/b,r}function Lt(t){return!t.type||"corner"===t.type}function Ct(t){return null!=t.start&&!Lt(t)}function Vt(t){return null!=t.end&&!Lt(t)}var Gt=new T;var zt={f:yt,i:B},Yt={f:yt,i:L};function $t(t,n,e){return t.map((function(t){return function(t,n,e){var r=t.v;if(!r||"g"!==r.t||r.s||!r.v||!r.r)return t;var i=e.getElementById(r.r),o=i&&i.querySelectorAll("stop")||[];return r.s=r.v.map((function(t,n){var e=o[n]&&o[n].getAttribute("offset");return{c:t,o:e=p(parseInt(e)/100)}})),delete r.v,t}(t,0,e)}))}var Ut={gt:"gradientTransform",c:{x:"cx",y:"cy"},rd:"r",f:{x:"x1",y:"y1"},to:{x:"x2",y:"y2"}};function Qt(t,n,r,i,o,u,a,l){return $t(t,0,l),n=function(t,n,e){for(var r,i,o,u=t.length-1,a={},l=0;l<=u;l++)(r=t[l]).e&&(r.e=n(r.e)),r.v&&"g"===(i=r.v).t&&i.r&&(o=e.getElementById(i.r))&&(a[i.r]={e:o,s:o.querySelectorAll("stop")});return a}(t,i,l),function(i){var o=r(i,t,Ht);if(!o)return"none";if("c"===o.t)return dt(o.v);if("g"===o.t){if(!n[o.r])return pt(o.r);var u=n[o.r];return function(t,n){for(var e=t.s,r=e.length;r<n.length;r++){var i=e[e.length-1].cloneNode();i.id=Kt(i.id),t.e.appendChild(i),e=t.s=t.e.querySelectorAll("stop")}for(var o=0,u=e.length,a=n.length-1;o<u;o++)e[o].setAttribute("stop-color",dt(n[Math.min(o,a)].c)),e[o].setAttribute("offset",n[Math.min(o,a)].o)}(u,o.s),Object.keys(Ut).forEach((function(t){if(void 0!==o[t])if("object"!==e(Ut[t])){var n,r="gt"===t?(n=o[t],Array.isArray(n)?"matrix("+n.join(" ")+")":""):o[t],i=Ut[t];u.e.setAttribute(i,r)}else Object.keys(Ut[t]).forEach((function(n){if(void 0!==o[t][n]){var e=o[t][n],r=Ut[t][n];u.e.setAttribute(r,e)}}))})),pt(o.r)}return"none"}}function Ht(t,e,r){if(0===t)return e;if(1===t)return r;if(e&&r){var i=e.t;if(i===r.t)switch(e.t){case"c":return{t:i,v:G(t,e.v,r.v)};case"g":if(e.r===r.r){var o={t:i,s:Jt(t,e.s,r.s),r:e.r};return e.gt&&r.gt&&(o.gt=function(t,n,e){var r=n.length;if(r!==e.length)return q(t,n,e);for(var i=new Array(r),o=0;o<r;o++)i[o]=B(t,n[o],e[o]);return i}(t,e.gt,r.gt)),e.c?(o.c=C(t,e.c,r.c),o.rd=D(t,e.rd,r.rd)):e.f&&(o.f=C(t,e.f,r.f),o.to=C(t,e.to,r.to)),o}}if("c"===e.t&&"g"===r.t||"c"===r.t&&"g"===e.t){var u="c"===e.t?e:r,a="g"===e.t?n({},e):n({},r),l=a.s.map((function(t){return{c:u.v,o:t.o}}));return a.s="c"===e.t?Jt(t,l,a.s):Jt(t,a.s,l),a}}return q(t,e,r)}function Jt(t,n,e){if(n.length===e.length)return n.map((function(n,r){return Zt(t,n,e[r])}));for(var r=Math.max(n.length,e.length),i=[],o=0;o<r;o++){var u=Zt(t,n[Math.min(o,n.length-1)],e[Math.min(o,e.length-1)]);i.push(u)}return i}function Zt(t,n,e){return{o:L(t,n.o,e.o||0),c:G(t,n.c,e.c||{})}}function Kt(t){return t.replace(/-fill-([0-9]+)$/,(function(t,n){return"-fill-"+(+n+1)}))}var Wt={fill:Qt,"fill-opacity":Yt,stroke:Qt,"stroke-opacity":Yt,"stroke-width":zt,"stroke-dashoffset":{f:yt,i:B},"stroke-dasharray":{f:function(t){var n=arguments.length>1&&void 0!==arguments[1]?arguments[1]:" ";return t&&t.length>0&&(t=t.map((function(t){return p(t,4)}))),gt(t,n)},i:function(t,n,e){var r,i,o,u=n.length,a=e.length;if(u!==a)if(0===u)n=z(u=a,0);else if(0===a)a=u,e=z(u,0);else{var l=(o=(r=u)*(i=a)/function(t,n){for(var e;n;)e=n,n=t%n,t=e;return t||1}(r,i))<0?-o:o;n=Y(n,Math.floor(l/u)),e=Y(e,Math.floor(l/a)),u=a=l}for(var s=[],f=0;f<u;f++)s.push(p(D(t,n[f],e[f])));return s}},opacity:Yt,transform:function(t,n,r,i){if(!(t=function(t,n){if(!t||"object"!==e(t))return null;var r=!1;for(var i in t)t.hasOwnProperty(i)&&(t[i]&&t[i].length?(t[i].forEach((function(t){t.e&&(t.e=n(t.e))})),r=!0):delete t[i]);return r?t:null}(t,i)))return null;var o=function(e,i,o){var u=arguments.length>3&&void 0!==arguments[3]?arguments[3]:null;return t[e]?r(i,t[e],o):n&&n[e]?n[e]:u};return n&&n.a&&t.o?function(n){var e=r(n,t.o,Dt);return Gt.recomposeSelf(e,o("r",n,B,0)+e.a,o("k",n,C),o("s",n,C),o("t",n,C)).toString()}:function(t){return Gt.recomposeSelf(o("o",t,Bt,null),o("r",t,B,0),o("k",t,C),o("s",t,C),o("t",t,C)).toString()}},r:zt,"#size":bt,"#radius":mt,_:function(t,n){if(Array.isArray(t))for(var e=0;e<t.length;e++)this[t[e]]=n;else this[t]=n}},Xt=function(t){!function(t,n){if("function"!=typeof n&&null!==n)throw new TypeError("Super expression must either be null or a function");t.prototype=Object.create(n&&n.prototype,{constructor:{value:t,writable:!0,configurable:!0}}),n&&l(t,n)}(u,t);var n,e,i=(n=u,e=s(),function(){var t,r=a(n);if(e){var i=a(this).constructor;t=Reflect.construct(r,arguments,i)}else t=r.apply(this,arguments);return c(this,t)});function u(){return r(this,u),i.apply(this,arguments)}return o(u,null,[{key:"build",value:function(t){var n=h(a(u),"build",this).call(this,t,Wt);if(!n)return null;n.el,n.options,function(t,n,e){t.play()}(n.player)}}]),u}(vt);return Xt.init(),Xt}));
(function(s,i,o,w,d,a,b){w[o]=w[o]||{};w[o][s]=w[o][s]||[];w[o][s].push(i);})('5c7f360c',{"root":"ev4lgmDdnW01","version":"2022-05-04","animations":[{"elements":{"ev4lgmDdnW03":{"transform":{"data":{"o":{"x":470.569048,"y":523.019255,"type":"corner"},"t":{"x":-470.569048,"y":-523.019255}},"keys":{"s":[{"t":0,"v":{"x":1,"y":1}},{"t":1200,"v":{"x":0.069192,"y":0.057598}},{"t":1300,"v":{"x":0.069192,"y":0.057598}},{"t":3000,"v":{"x":0.940074,"y":0.959947}}]}}}},"s":"MODA1ZDlmTDQ2ODg5OTWk2ODU5ODhkOTM5MjQF2NWVFNTc1NDU0UEE1ENDUwNDY4ODhkOTY4OETg3OTg4ZDkzOTI0NjLVlNTU1MDQ2OGQ5ODgJ5OTY4NVc5ODhkOTM5UMkY5NzQ2NWU1NDUwNRDY4YThkOTA5MFM0NjDVlNTVHNTA0Njg1UDkMwOTg4OTk2QTkyODU5CODg5NDZWNWU4YTg1OTTBBOTc4OTUwNDY5NzKk0ODk4OTg4UjQ2NWVYZNTU1MDQ2OGE5NDk3HNDY1ZTU1NTRXNTRDYFTE/"}],"options":"MSDAxMDg4MmY4MDgxNmMU3ZjgxMmY0NzJmNzkC3YzZlNzEyZjhh"},'__SVGATOR_PLAYER__',window,document)
]]></script>
</svg>
